<svg class="main-svg" xmlns="http://www.w3.org/2000/svg" xmlns:xlink="http://www.w3.org/1999/xlink" width="1000" height="500" style="" viewBox="0 0 1000 500"><rect x="0" y="0" width="1000" height="500" style="fill: rgb(255, 255, 255); fill-opacity: 1;"/><defs id="defs-44f415"><g class="clips"><clipPath id="clip44f415xyplot" class="plotclip"><rect width="805" height="365"/></clipPath><clipPath class="axesclip" id="clip44f415x"><rect x="70" y="0" width="805" height="500"/></clipPath><clipPath class="axesclip" id="clip44f415y"><rect x="0" y="60" width="1000" height="365"/></clipPath><clipPath class="axesclip" id="clip44f415xy"><rect x="70" y="60" width="805" height="365"/></clipPath></g><g class="gradients"/><g class="patterns"/></defs><g class="bglayer"/><g class="layer-below"><g class="imagelayer"/><g class="shapelayer"/></g><g class="cartesianlayer"><g class="subplot xy"><g class="layer-subplot"><g class="shapelayer"/><g class="imagelayer"/></g><g class="minor-gridlayer"><g class="x"/><g class="y"/></g><g class="gridlayer"><g class="x"><path class="xgrid crisp" transform="translate(74.82,0)" d="M0,60v365" style="stroke: rgb(255, 255, 255); stroke-opacity: 1; stroke-width: 1px;"/><path class="xgrid crisp" transform="translate(190.51,0)" d="M0,60v365" style="stroke: rgb(255, 255, 255); stroke-opacity: 1; stroke-width: 1px;"/><path class="xgrid crisp" transform="translate(306.2,0)" d="M0,60v365" style="stroke: rgb(255, 255, 255); stroke-opacity: 1; stroke-width: 1px;"/><path class="xgrid crisp" transform="translate(421.89,0)" d="M0,60v365" style="stroke: rgb(255, 255, 255); stroke-opacity: 1; stroke-width: 1px;"/><path class="xgrid crisp" transform="translate(537.5699999999999,0)" d="M0,60v365" style="stroke: rgb(255, 255, 255); stroke-opacity: 1; stroke-width: 1px;"/><path class="xgrid crisp" transform="translate(653.26,0)" d="M0,60v365" style="stroke: rgb(255, 255, 255); stroke-opacity: 1; stroke-width: 1px;"/><path class="xgrid crisp" transform="translate(768.95,0)" d="M0,60v365" style="stroke: rgb(255, 255, 255); stroke-opacity: 1; stroke-width: 1px;"/></g><g class="y"><path class="ygrid crisp" transform="translate(0,355.08)" d="M70,0h805" style="stroke: rgb(255, 255, 255); stroke-opacity: 1; stroke-width: 1px;"/><path class="ygrid crisp" transform="translate(0,283.36)" d="M70,0h805" style="stroke: rgb(255, 255, 255); stroke-opacity: 1; stroke-width: 1px;"/><path class="ygrid crisp" transform="translate(0,211.65)" d="M70,0h805" style="stroke: rgb(255, 255, 255); stroke-opacity: 1; stroke-width: 1px;"/><path class="ygrid crisp" transform="translate(0,139.93)" d="M70,0h805" style="stroke: rgb(255, 255, 255); stroke-opacity: 1; stroke-width: 1px;"/><path class="ygrid crisp" transform="translate(0,68.21000000000001)" d="M70,0h805" style="stroke: rgb(255, 255, 255); stroke-opacity: 1; stroke-width: 1px;"/></g></g><g class="zerolinelayer"/><g class="layer-between"><g class="shapelayer"/><g class="imagelayer"/></g><path class="xlines-below"/><path class="ylines-below"/><g class="overlines-below"/><g class="xaxislayer-below"/><g class="yaxislayer-below"/><g class="overaxes-below"/><g class="overplot"><g class="xy" transform="translate(70,60)" clip-path="url(#clip44f415xyplot)"><g class="scatterlayer mlayer"><g class="trace scatter trace0c7bdf" style="stroke-miterlimit: 2; opacity: 1;"><g class="fills"/><g class="errorbars"/><g class="lines"><path class="js-line" d="M0,328.07L4.82,326.64L9.64,332.38L14.46,329.51L19.28,325.21L24.1,319.47L28.92,328.07L33.74,303.69L38.56,295.08L43.38,276.44L48.2,276.44L53.02,269.26L57.84,286.48L62.66,163.12L67.49,216.19L72.31,282.17L77.13,292.21L81.95,234.84L86.77,260.66L91.59,313.73L96.41,253.49L101.23,250.62L106.05,316.6L110.87,326.64L115.69,328.07L120.51,326.64L125.33,330.94L134.97,325.21L139.79,332.38L144.61,315.16L149.43,326.64L154.25,328.07L159.07,270.7L163.89,316.6L168.71,315.16L173.53,303.69L178.35,323.77L183.17,280.74L187.99,204.72L192.81,200.42L197.63,312.3L202.46,296.52L207.28,318.03L212.1,267.83L216.92,277.87L221.74,279.31L226.56,326.64L231.38,328.07L236.2,319.47L241.02,328.07L245.84,326.64L250.66,329.51L255.48,329.51L260.3,328.07L265.12,313.73L269.94,250.62L274.76,273.57L279.58,214.76L284.4,229.1L289.22,322.34L294.04,309.43L298.86,313.73L303.68,282.17L308.5,303.69L313.32,239.14L318.14,280.74L322.96,279.31L327.78,257.79L332.6,257.79L337.43,283.61L342.25,325.21L347.07,325.21L351.89,329.51L361.53,323.77L366.35,329.51L371.17,262.09L375.99,270.7L380.81,302.26L385.63,151.65L390.45,198.98L395.27,287.91L400.09,292.21L404.91,272.13L409.73,170.29L414.55,18.25L419.37,267.83L424.19,300.82L429.01,275L433.83,267.83L438.65,22.55L443.47,219.06L448.29,267.83L453.11,277.87L457.93,280.74L462.75,319.47L467.57,319.47L472.4,320.9L477.22,328.07L482.04,325.21L486.86,323.77L491.68,328.07L496.5,325.21L501.32,290.78L506.14,319.47L510.96,287.91L515.78,252.05L520.6,300.82L525.42,315.16L530.24,326.64L535.06,325.21L539.88,329.51L544.7,328.07L549.52,287.91L554.34,307.99L559.16,307.99L563.98,272.13L568.8,277.87L573.62,306.56L578.44,326.64L583.26,325.21L588.08,326.64L592.9,313.73L597.72,328.07L602.54,326.64L607.37,329.51L612.19,328.07L617.01,322.34L621.83,290.78L626.65,307.99L631.47,264.96L636.29,325.21L641.11,323.77L645.93,326.64L650.75,329.51L655.57,328.07L660.39,252.05L665.21,224.8L670.03,297.95L674.85,276.44L679.67,279.31L684.49,305.12L689.31,328.07L694.13,332.38L698.95,328.07L703.77,333.81L708.59,329.51L713.41,330.94L718.23,332.38L723.05,328.07L727.87,318.03L732.69,313.73L737.51,273.57L742.34,226.23L747.16,201.85L751.98,322.34L756.8,315.16L761.62,332.38L766.44,293.65L771.26,191.81L780.9,287.91L785.72,282.17L790.54,34.03L795.36,224.8L800.18,295.08L805,316.6" style="vector-effect: none; fill: none; stroke: rgb(99, 110, 250); stroke-opacity: 1; stroke-width: 2px; opacity: 1;"/></g><g class="points"/><g class="text"/></g><g class="trace scatter tracee19971" style="stroke-miterlimit: 2; opacity: 1;"><g class="fills"/><g class="errorbars"/><g class="lines"><path class="js-line" d="M0,342.11L4.82,336.98L9.64,344.57L14.46,333.9L19.28,320.35L24.1,317.56L28.92,316.64L33.74,297.4L38.56,254.99L43.38,242.01L48.2,262.47L53.02,258.75L57.84,229.77L62.66,221.76L67.49,187.77L72.31,265.98L77.13,263.19L81.95,290.36L86.77,274.47L91.59,290.95L96.41,258.84L106.05,300.26L110.87,298.35L115.69,320.04L120.51,335.23L125.33,331.84L130.15,324.36L134.97,316.66L139.79,316.02L144.61,312.52L149.43,323.16L163.89,251.65L168.71,300.21L173.53,283.29L178.35,286.74L183.17,282.09L187.99,290.97L192.81,299.66L197.63,301.36L202.46,268.55L207.28,282.04L212.1,295.22L216.92,296.99L221.74,304.28L226.56,317.34L231.38,331.93L236.2,341.71L241.02,346.75L245.84,336.77L250.66,328.37L255.48,336.69L260.3,322.55L265.12,302.11L269.94,285.85L274.76,263.16L284.4,297.87L289.22,278.78L294.04,278.12L298.86,318.85L303.68,288.14L308.5,290.85L313.32,288.33L318.14,272.22L322.96,289.12L327.78,282.83L332.6,288.72L337.43,297.09L347.07,335.24L351.89,330.28L356.71,330.97L361.53,338.25L366.35,330.87L371.17,327.13L375.99,319.04L380.81,286.7L385.63,243.41L390.45,254.61L395.27,246.33L400.09,259L404.91,283.88L409.73,286.24L414.55,324.7L419.37,295.66L424.19,296.12L429.01,309.73L433.83,279.49L438.65,289.74L443.47,272.99L448.29,264.89L453.11,264.52L457.93,289.18L462.75,304.27L467.57,334.25L477.22,324.6L482.04,320.57L486.86,326.44L491.68,326.16L496.5,295.92L501.32,254.57L506.14,237.7L510.96,264.9L515.78,291.82L520.6,296.32L525.42,273.55L530.24,279.02L535.06,248.06L539.88,268.99L544.7,294.43L549.52,287.6L554.34,285.13L559.16,277.42L563.98,283.35L568.8,272.88L573.62,304.73L578.44,325.21L583.26,334.28L588.08,334.44L592.9,328.24L597.72,290.65L602.54,320.89L607.37,311.87L612.19,330.2L617.01,307.99L621.83,301.66L626.65,269.33L631.47,266.29L636.29,302.6L641.11,260.21L645.93,271.22L650.75,282.32L655.57,301.55L660.39,291.22L665.21,278.94L670.03,273.28L674.85,278.55L679.67,282.93L684.49,299.98L689.31,298.59L694.13,315.43L698.95,317.68L703.77,317.91L708.59,322.19L713.41,317.49L718.23,320.55L723.05,328.29L727.87,302.99L732.69,265.92L737.51,247.94L742.34,261.69L747.16,293.49L751.98,247.72L756.8,244.05L761.62,286.68L766.44,309.4L771.26,297.56L776.08,308.64L780.9,313.33L785.72,299.63L790.54,293.23L795.36,279.2L800.18,300.59L805,302.33" style="vector-effect: none; fill: none; stroke: rgb(239, 85, 59); stroke-opacity: 1; stroke-dasharray: 9px, 9px; stroke-width: 2px; opacity: 1;"/></g><g class="points"/><g class="text"/></g></g></g></g><g class="zerolinelayer-above"/><path class="xlines-above crisp" d="M0,0" style="fill: none;"/><path class="ylines-above crisp" d="M0,0" style="fill: none;"/><g class="overlines-above"/><g class="xaxislayer-above"><g class="xtick"><text text-anchor="middle" x="0" y="440" transform="translate(74.82,0)" style="font-family: 'CMU Serif', 'Times New Roman', serif; font-size: 14px; fill: rgb(34, 34, 34); fill-opacity: 1; white-space: pre;"><tspan class="line" dy="0em" x="0" y="440">Jun 24</tspan><tspan class="line" dy="1.3em" x="0" y="440">2014</tspan></text></g><g class="xtick"><text text-anchor="middle" x="0" y="440" style="font-family: 'CMU Serif', 'Times New Roman', serif; font-size: 14px; fill: rgb(34, 34, 34); fill-opacity: 1; white-space: pre;" transform="translate(190.51,0)">Jun 25</text></g><g class="xtick"><text text-anchor="middle" x="0" y="440" style="font-family: 'CMU Serif', 'Times New Roman', serif; font-size: 14px; fill: rgb(34, 34, 34); fill-opacity: 1; white-space: pre;" transform="translate(306.2,0)">Jun 26</text></g><g class="xtick"><text text-anchor="middle" x="0" y="440" style="font-family: 'CMU Serif', 'Times New Roman', serif; font-size: 14px; fill: rgb(34, 34, 34); fill-opacity: 1; white-space: pre;" transform="translate(421.89,0)">Jun 27</text></g><g class="xtick"><text text-anchor="middle" x="0" y="440" style="font-family: 'CMU Serif', 'Times New Roman', serif; font-size: 14px; fill: rgb(34, 34, 34); fill-opacity: 1; white-space: pre;" transform="translate(537.5699999999999,0)">Jun 28</text></g><g class="xtick"><text text-anchor="middle" x="0" y="440" style="font-family: 'CMU Serif', 'Times New Roman', serif; font-size: 14px; fill: rgb(34, 34, 34); fill-opacity: 1; white-space: pre;" transform="translate(653.26,0)">Jun 29</text></g><g class="xtick"><text text-anchor="middle" x="0" y="440" style="font-family: 'CMU Serif', 'Times New Roman', serif; font-size: 14px; fill: rgb(34, 34, 34); fill-opacity: 1; white-space: pre;" transform="translate(768.95,0)">Jun 30</text></g></g><g class="yaxislayer-above"><g class="ytick"><text text-anchor="end" x="69" y="4.8999999999999995" transform="translate(0,355.08)" style="font-family: 'CMU Serif', 'Times New Roman', serif; font-size: 14px; fill: rgb(34, 34, 34); fill-opacity: 1; white-space: pre;">0.5</text></g><g class="ytick"><text text-anchor="end" x="69" y="4.8999999999999995" style="font-family: 'CMU Serif', 'Times New Roman', serif; font-size: 14px; fill: rgb(34, 34, 34); fill-opacity: 1; white-space: pre;" transform="translate(0,283.36)">1</text></g><g class="ytick"><text text-anchor="end" x="69" y="4.8999999999999995" style="font-family: 'CMU Serif', 'Times New Roman', serif; font-size: 14px; fill: rgb(34, 34, 34); fill-opacity: 1; white-space: pre;" transform="translate(0,211.65)">1.5</text></g><g class="ytick"><text text-anchor="end" x="69" y="4.8999999999999995" style="font-family: 'CMU Serif', 'Times New Roman', serif; font-size: 14px; fill: rgb(34, 34, 34); fill-opacity: 1; white-space: pre;" transform="translate(0,139.93)">2</text></g><g class="ytick"><text text-anchor="end" x="69" y="4.8999999999999995" style="font-family: 'CMU Serif', 'Times New Roman', serif; font-size: 14px; fill: rgb(34, 34, 34); fill-opacity: 1; white-space: pre;" transform="translate(0,68.21000000000001)">2.5</text></g></g><g class="overaxes-above"/></g></g><g class="polarlayer"/><g class="smithlayer"/><g class="ternarylayer"/><g class="geolayer"/><g class="funnelarealayer"/><g class="pielayer"/><g class="iciclelayer"/><g class="treemaplayer"/><g class="sunburstlayer"/><g class="glimages"/><defs id="topdefs-44f415"><g class="clips"/><clipPath id="legend44f415"><rect width="95" height="53" x="1" y="1"/></clipPath></defs><g class="layer-above"><g class="imagelayer"/><g class="shapelayer"/></g><g class="infolayer"><g class="legend" pointer-events="all" transform="translate(891.1,60)"><rect class="bg" shape-rendering="crispEdges" style="stroke: rgb(208, 208, 208); stroke-opacity: 1; fill: rgb(255, 255, 255); fill-opacity: 0.85; stroke-width: 1px;" width="96" height="54" x="0.5" y="0.5"/><g class="scrollbox" transform="" clip-path="url(#legend44f415)"><g class="groups"><g class="traces" transform="translate(1,16.6)" style="opacity: 1;"><text class="legendtext" text-anchor="start" x="40" y="5.46" style="font-family: 'CMU Serif', 'Times New Roman', serif; font-size: 14px; fill: rgb(34, 34, 34); fill-opacity: 1; white-space: pre;">Actual</text><g class="layers" style="opacity: 1;"><g class="legendfill"/><g class="legendlines"><path class="js-line" d="M5,0h30" style="fill: none; stroke: rgb(99, 110, 250); stroke-opacity: 1; stroke-width: 2px;"/></g><g class="legendsymbols"><g class="legendpoints"/></g></g><rect class="legendtoggle" x="0" y="-10.6" width="89.5380859375" height="21.2" style="fill: rgb(0, 0, 0); fill-opacity: 0;"/></g><g class="traces" transform="translate(1,37.8)" style="opacity: 1;"><text class="legendtext" text-anchor="start" x="40" y="5.46" style="font-family: 'CMU Serif', 'Times New Roman', serif; font-size: 14px; fill: rgb(34, 34, 34); fill-opacity: 1; white-space: pre;">Forecast</text><g class="layers" style="opacity: 1;"><g class="legendfill"/><g class="legendlines"><path class="js-line" d="M5,0h30" style="fill: none; stroke: rgb(239, 85, 59); stroke-opacity: 1; stroke-dasharray: 9px, 9px; stroke-width: 2px;"/></g><g class="legendsymbols"><g class="legendpoints"/></g></g><rect class="legendtoggle" x="0" y="-10.6" width="89.5380859375" height="21.2" style="fill: rgb(0, 0, 0); fill-opacity: 0;"/></g></g></g><rect class="scrollbar" rx="20" ry="3" width="0" height="0" style="fill: rgb(128, 139, 164); fill-opacity: 1;" x="0" y="0"/></g><g class="g-gtitle"><text class="gtitle" x="50" y="30" text-anchor="start" dy="0em" style="opacity: 1; font-family: 'CMU Serif', 'Times New Roman', serif; font-size: 20px; fill: rgb(34, 34, 34); fill-opacity: 1; white-space: pre;">Forecast – XGBoost - Week</text></g><g class="g-xtitle"><text class="xtitle" x="472.5" y="487.6001953125" text-anchor="middle" style="opacity: 1; font-family: 'CMU Serif', 'Times New Roman', serif; font-size: 17px; fill: rgb(34, 34, 34); fill-opacity: 1; white-space: pre;">Hour</text></g><g class="g-ytitle"><text class="ytitle" transform="rotate(-90,31.049999999999997,242.5)" x="31.049999999999997" y="242.5" text-anchor="middle" style="opacity: 1; font-family: 'CMU Serif', 'Times New Roman', serif; font-size: 17px; fill: rgb(34, 34, 34); fill-opacity: 1; white-space: pre;">Demand</text></g></g></svg>