<?xml version="1.0" encoding="utf-8" standalone="no"?>
<!DOCTYPE svg PUBLIC "-//W3C//DTD SVG 1.1//EN"
  "http://www.w3.org/Graphics/SVG/1.1/DTD/svg11.dtd">
<svg xmlns:xlink="http://www.w3.org/1999/xlink" width="852.701875pt" height="295.577969pt" viewBox="0 0 852.701875 295.577969" xmlns="http://www.w3.org/2000/svg" version="1.1">
 <metadata>
  <rdf:RDF xmlns:dc="http://purl.org/dc/elements/1.1/" xmlns:cc="http://creativecommons.org/ns#" xmlns:rdf="http://www.w3.org/1999/02/22-rdf-syntax-ns#">
   <cc:Work>
    <dc:type rdf:resource="http://purl.org/dc/dcmitype/StillImage"/>
    <dc:date>2025-12-06T20:22:15.760778</dc:date>
    <dc:format>image/svg+xml</dc:format>
    <dc:creator>
     <cc:Agent>
      <dc:title>Matplotlib v3.10.7, https://matplotlib.org/</dc:title>
     </cc:Agent>
    </dc:creator>
   </cc:Work>
  </rdf:RDF>
 </metadata>
 <defs>
  <style type="text/css">*{stroke-linejoin: round; stroke-linecap: butt}</style>
 </defs>
 <g id="figure_1">
  <g id="patch_1">
   <path d="M 0 295.577969 
L 852.701875 295.577969 
L 852.701875 0 
L 0 0 
z
" style="fill: #ffffff"/>
  </g>
  <g id="axes_1">
   <g id="patch_2">
    <path d="M 39.371875 259.9875 
L 424.031875 259.9875 
L 424.031875 67.145625 
L 39.371875 67.145625 
z
" style="fill: #ffffff"/>
   </g>
   <g id="matplotlib.axis_1">
    <g id="xtick_1">
     <g id="line2d_1">
      <path d="M 70.766937 259.9875 
L 70.766937 67.145625 
" clip-path="url(#pe4144adc67)" style="fill: none; stroke: #d5d9df; stroke-width: 0.6; stroke-linecap: round"/>
     </g>
     <g id="text_1">
      <!-- 0 -->
      <g style="fill: #262626" transform="translate(68.016937 271.125625) scale(0.11 -0.11)">
       <defs>
        <path id="TimesNewRomanPSMT-30" d="M 231 2094 
Q 231 2819 450 3342 
Q 669 3866 1031 4122 
Q 1313 4325 1613 4325 
Q 2100 4325 2488 3828 
Q 2972 3213 2972 2159 
Q 2972 1422 2759 906 
Q 2547 391 2217 158 
Q 1888 -75 1581 -75 
Q 975 -75 572 641 
Q 231 1244 231 2094 
z
M 844 2016 
Q 844 1141 1059 588 
Q 1238 122 1591 122 
Q 1759 122 1940 273 
Q 2122 425 2216 781 
Q 2359 1319 2359 2297 
Q 2359 3022 2209 3506 
Q 2097 3866 1919 4016 
Q 1791 4119 1609 4119 
Q 1397 4119 1231 3928 
Q 1006 3669 925 3112 
Q 844 2556 844 2016 
z
" transform="scale(0.015625)"/>
       </defs>
       <use xlink:href="#TimesNewRomanPSMT-30"/>
      </g>
     </g>
    </g>
    <g id="xtick_2">
     <g id="line2d_2">
      <path d="M 146.679644 259.9875 
L 146.679644 67.145625 
" clip-path="url(#pe4144adc67)" style="fill: none; stroke: #d5d9df; stroke-width: 0.6; stroke-linecap: round"/>
     </g>
     <g id="text_2">
      <!-- 1 -->
      <g style="fill: #262626" transform="translate(143.929644 271.125625) scale(0.11 -0.11)">
       <defs>
        <path id="TimesNewRomanPSMT-31" d="M 750 3822 
L 1781 4325 
L 1884 4325 
L 1884 747 
Q 1884 391 1914 303 
Q 1944 216 2037 169 
Q 2131 122 2419 116 
L 2419 0 
L 825 0 
L 825 116 
Q 1125 122 1212 167 
Q 1300 213 1334 289 
Q 1369 366 1369 747 
L 1369 3034 
Q 1369 3497 1338 3628 
Q 1316 3728 1258 3775 
Q 1200 3822 1119 3822 
Q 1003 3822 797 3725 
L 750 3822 
z
" transform="scale(0.015625)"/>
       </defs>
       <use xlink:href="#TimesNewRomanPSMT-31"/>
      </g>
     </g>
    </g>
    <g id="xtick_3">
     <g id="line2d_3">
      <path d="M 222.59235 259.9875 
L 222.59235 67.145625 
" clip-path="url(#pe4144adc67)" style="fill: none; stroke: #d5d9df; stroke-width: 0.6; stroke-linecap: round"/>
     </g>
     <g id="text_3">
      <!-- 2 -->
      <g style="fill: #262626" transform="translate(219.84235 271.125625) scale(0.11 -0.11)">
       <defs>
        <path id="TimesNewRomanPSMT-32" d="M 2934 816 
L 2638 0 
L 138 0 
L 138 116 
Q 1241 1122 1691 1759 
Q 2141 2397 2141 2925 
Q 2141 3328 1894 3587 
Q 1647 3847 1303 3847 
Q 991 3847 742 3664 
Q 494 3481 375 3128 
L 259 3128 
Q 338 3706 661 4015 
Q 984 4325 1469 4325 
Q 1984 4325 2329 3994 
Q 2675 3663 2675 3213 
Q 2675 2891 2525 2569 
Q 2294 2063 1775 1497 
Q 997 647 803 472 
L 1909 472 
Q 2247 472 2383 497 
Q 2519 522 2628 598 
Q 2738 675 2819 816 
L 2934 816 
z
" transform="scale(0.015625)"/>
       </defs>
       <use xlink:href="#TimesNewRomanPSMT-32"/>
      </g>
     </g>
    </g>
    <g id="xtick_4">
     <g id="line2d_4">
      <path d="M 298.505057 259.9875 
L 298.505057 67.145625 
" clip-path="url(#pe4144adc67)" style="fill: none; stroke: #d5d9df; stroke-width: 0.6; stroke-linecap: round"/>
     </g>
     <g id="text_4">
      <!-- 3 -->
      <g style="fill: #262626" transform="translate(295.755057 271.125625) scale(0.11 -0.11)">
       <defs>
        <path id="TimesNewRomanPSMT-33" d="M 325 3431 
Q 506 3859 782 4092 
Q 1059 4325 1472 4325 
Q 1981 4325 2253 3994 
Q 2459 3747 2459 3466 
Q 2459 3003 1878 2509 
Q 2269 2356 2469 2072 
Q 2669 1788 2669 1403 
Q 2669 853 2319 450 
Q 1863 -75 997 -75 
Q 569 -75 414 31 
Q 259 138 259 259 
Q 259 350 332 419 
Q 406 488 509 488 
Q 588 488 669 463 
Q 722 447 909 348 
Q 1097 250 1169 231 
Q 1284 197 1416 197 
Q 1734 197 1970 444 
Q 2206 691 2206 1028 
Q 2206 1275 2097 1509 
Q 2016 1684 1919 1775 
Q 1784 1900 1550 2001 
Q 1316 2103 1072 2103 
L 972 2103 
L 972 2197 
Q 1219 2228 1467 2375 
Q 1716 2522 1828 2728 
Q 1941 2934 1941 3181 
Q 1941 3503 1739 3701 
Q 1538 3900 1238 3900 
Q 753 3900 428 3381 
L 325 3431 
z
" transform="scale(0.015625)"/>
       </defs>
       <use xlink:href="#TimesNewRomanPSMT-33"/>
      </g>
     </g>
    </g>
    <g id="xtick_5">
     <g id="line2d_5">
      <path d="M 374.417763 259.9875 
L 374.417763 67.145625 
" clip-path="url(#pe4144adc67)" style="fill: none; stroke: #d5d9df; stroke-width: 0.6; stroke-linecap: round"/>
     </g>
     <g id="text_5">
      <!-- 4 -->
      <g style="fill: #262626" transform="translate(371.667763 271.125625) scale(0.11 -0.11)">
       <defs>
        <path id="TimesNewRomanPSMT-34" d="M 2978 1563 
L 2978 1119 
L 2409 1119 
L 2409 0 
L 1894 0 
L 1894 1119 
L 100 1119 
L 100 1519 
L 2066 4325 
L 2409 4325 
L 2409 1563 
L 2978 1563 
z
M 1894 1563 
L 1894 3666 
L 406 1563 
L 1894 1563 
z
" transform="scale(0.015625)"/>
       </defs>
       <use xlink:href="#TimesNewRomanPSMT-34"/>
      </g>
     </g>
    </g>
    <g id="text_6">
     <!-- demand (kW) -->
     <g style="fill: #262626" transform="translate(198.549062 285.811094) scale(0.12 -0.12)">
      <defs>
       <path id="TimesNewRomanPSMT-64" d="M 2222 322 
Q 2013 103 1813 7 
Q 1613 -88 1381 -88 
Q 913 -88 563 304 
Q 213 697 213 1313 
Q 213 1928 600 2439 
Q 988 2950 1597 2950 
Q 1975 2950 2222 2709 
L 2222 3238 
Q 2222 3728 2198 3840 
Q 2175 3953 2125 3993 
Q 2075 4034 2000 4034 
Q 1919 4034 1784 3984 
L 1744 4094 
L 2597 4444 
L 2738 4444 
L 2738 1134 
Q 2738 631 2761 520 
Q 2784 409 2836 365 
Q 2888 322 2956 322 
Q 3041 322 3181 375 
L 3216 266 
L 2366 -88 
L 2222 -88 
L 2222 322 
z
M 2222 541 
L 2222 2016 
Q 2203 2228 2109 2403 
Q 2016 2578 1861 2667 
Q 1706 2756 1559 2756 
Q 1284 2756 1069 2509 
Q 784 2184 784 1559 
Q 784 928 1059 592 
Q 1334 256 1672 256 
Q 1956 256 2222 541 
z
" transform="scale(0.015625)"/>
       <path id="TimesNewRomanPSMT-65" d="M 681 1784 
Q 678 1147 991 784 
Q 1303 422 1725 422 
Q 2006 422 2214 576 
Q 2422 731 2563 1106 
L 2659 1044 
Q 2594 616 2278 264 
Q 1963 -88 1488 -88 
Q 972 -88 605 314 
Q 238 716 238 1394 
Q 238 2128 614 2539 
Q 991 2950 1559 2950 
Q 2041 2950 2350 2633 
Q 2659 2316 2659 1784 
L 681 1784 
z
M 681 1966 
L 2006 1966 
Q 1991 2241 1941 2353 
Q 1863 2528 1708 2628 
Q 1553 2728 1384 2728 
Q 1125 2728 920 2526 
Q 716 2325 681 1966 
z
" transform="scale(0.015625)"/>
       <path id="TimesNewRomanPSMT-6d" d="M 1050 2338 
Q 1363 2650 1419 2697 
Q 1559 2816 1721 2881 
Q 1884 2947 2044 2947 
Q 2313 2947 2506 2790 
Q 2700 2634 2766 2338 
Q 3088 2713 3309 2830 
Q 3531 2947 3766 2947 
Q 3994 2947 4170 2830 
Q 4347 2713 4450 2447 
Q 4519 2266 4519 1878 
L 4519 647 
Q 4519 378 4559 278 
Q 4591 209 4675 161 
Q 4759 113 4950 113 
L 4950 0 
L 3538 0 
L 3538 113 
L 3597 113 
Q 3781 113 3884 184 
Q 3956 234 3988 344 
Q 4000 397 4000 647 
L 4000 1878 
Q 4000 2228 3916 2372 
Q 3794 2572 3525 2572 
Q 3359 2572 3192 2489 
Q 3025 2406 2788 2181 
L 2781 2147 
L 2788 2013 
L 2788 647 
Q 2788 353 2820 281 
Q 2853 209 2943 161 
Q 3034 113 3253 113 
L 3253 0 
L 1806 0 
L 1806 113 
Q 2044 113 2133 169 
Q 2222 225 2256 338 
Q 2272 391 2272 647 
L 2272 1878 
Q 2272 2228 2169 2381 
Q 2031 2581 1784 2581 
Q 1616 2581 1450 2491 
Q 1191 2353 1050 2181 
L 1050 647 
Q 1050 366 1089 281 
Q 1128 197 1204 155 
Q 1281 113 1516 113 
L 1516 0 
L 100 0 
L 100 113 
Q 297 113 375 155 
Q 453 197 493 289 
Q 534 381 534 647 
L 534 1741 
Q 534 2213 506 2350 
Q 484 2453 437 2492 
Q 391 2531 309 2531 
Q 222 2531 100 2484 
L 53 2597 
L 916 2947 
L 1050 2947 
L 1050 2338 
z
" transform="scale(0.015625)"/>
       <path id="TimesNewRomanPSMT-61" d="M 1822 413 
Q 1381 72 1269 19 
Q 1100 -59 909 -59 
Q 613 -59 420 144 
Q 228 347 228 678 
Q 228 888 322 1041 
Q 450 1253 767 1440 
Q 1084 1628 1822 1897 
L 1822 2009 
Q 1822 2438 1686 2597 
Q 1550 2756 1291 2756 
Q 1094 2756 978 2650 
Q 859 2544 859 2406 
L 866 2225 
Q 866 2081 792 2003 
Q 719 1925 600 1925 
Q 484 1925 411 2006 
Q 338 2088 338 2228 
Q 338 2497 613 2722 
Q 888 2947 1384 2947 
Q 1766 2947 2009 2819 
Q 2194 2722 2281 2516 
Q 2338 2381 2338 1966 
L 2338 994 
Q 2338 584 2353 492 
Q 2369 400 2405 369 
Q 2441 338 2488 338 
Q 2538 338 2575 359 
Q 2641 400 2828 588 
L 2828 413 
Q 2478 -56 2159 -56 
Q 2006 -56 1915 50 
Q 1825 156 1822 413 
z
M 1822 616 
L 1822 1706 
Q 1350 1519 1213 1441 
Q 966 1303 859 1153 
Q 753 1003 753 825 
Q 753 600 887 451 
Q 1022 303 1197 303 
Q 1434 303 1822 616 
z
" transform="scale(0.015625)"/>
       <path id="TimesNewRomanPSMT-6e" d="M 1034 2341 
Q 1538 2947 1994 2947 
Q 2228 2947 2397 2830 
Q 2566 2713 2666 2444 
Q 2734 2256 2734 1869 
L 2734 647 
Q 2734 375 2778 278 
Q 2813 200 2889 156 
Q 2966 113 3172 113 
L 3172 0 
L 1756 0 
L 1756 113 
L 1816 113 
Q 2016 113 2095 173 
Q 2175 234 2206 353 
Q 2219 400 2219 647 
L 2219 1819 
Q 2219 2209 2117 2386 
Q 2016 2563 1775 2563 
Q 1403 2563 1034 2156 
L 1034 647 
Q 1034 356 1069 288 
Q 1113 197 1189 155 
Q 1266 113 1500 113 
L 1500 0 
L 84 0 
L 84 113 
L 147 113 
Q 366 113 442 223 
Q 519 334 519 647 
L 519 1709 
Q 519 2225 495 2337 
Q 472 2450 423 2490 
Q 375 2531 294 2531 
Q 206 2531 84 2484 
L 38 2597 
L 900 2947 
L 1034 2947 
L 1034 2341 
z
" transform="scale(0.015625)"/>
       <path id="TimesNewRomanPSMT-20" transform="scale(0.015625)"/>
       <path id="TimesNewRomanPSMT-28" d="M 1988 -1253 
L 1988 -1369 
Q 1516 -1131 1200 -813 
Q 750 -359 506 256 
Q 263 872 263 1534 
Q 263 2503 741 3301 
Q 1219 4100 1988 4444 
L 1988 4313 
Q 1603 4100 1356 3731 
Q 1109 3363 987 2797 
Q 866 2231 866 1616 
Q 866 947 969 400 
Q 1050 -31 1165 -292 
Q 1281 -553 1476 -793 
Q 1672 -1034 1988 -1253 
z
" transform="scale(0.015625)"/>
       <path id="TimesNewRomanPSMT-6b" d="M 1047 4444 
L 1047 1597 
L 1775 2259 
Q 2006 2472 2044 2528 
Q 2069 2566 2069 2603 
Q 2069 2666 2017 2711 
Q 1966 2756 1847 2763 
L 1847 2863 
L 3091 2863 
L 3091 2763 
Q 2834 2756 2664 2684 
Q 2494 2613 2291 2428 
L 1556 1750 
L 2291 822 
Q 2597 438 2703 334 
Q 2853 188 2966 144 
Q 3044 113 3238 113 
L 3238 0 
L 1847 0 
L 1847 113 
Q 1966 116 2008 148 
Q 2050 181 2050 241 
Q 2050 313 1925 472 
L 1047 1594 
L 1047 644 
Q 1047 366 1086 278 
Q 1125 191 1197 153 
Q 1269 116 1509 113 
L 1509 0 
L 53 0 
L 53 113 
Q 272 113 381 166 
Q 447 200 481 272 
Q 528 375 528 628 
L 528 3234 
Q 528 3731 506 3842 
Q 484 3953 434 3995 
Q 384 4038 303 4038 
Q 238 4038 106 3984 
L 53 4094 
L 903 4444 
L 1047 4444 
z
" transform="scale(0.015625)"/>
       <path id="TimesNewRomanPSMT-57" d="M 5991 4238 
L 5991 4122 
Q 5825 4122 5722 4062 
Q 5619 4003 5525 3841 
Q 5463 3731 5328 3319 
L 4147 -97 
L 4022 -97 
L 3056 2613 
L 2097 -97 
L 1984 -97 
L 725 3422 
Q 584 3816 547 3888 
Q 484 4006 376 4064 
Q 269 4122 84 4122 
L 84 4238 
L 1653 4238 
L 1653 4122 
L 1578 4122 
Q 1413 4122 1325 4047 
Q 1238 3972 1238 3866 
Q 1238 3756 1375 3363 
L 2209 984 
L 2913 3006 
L 2788 3363 
L 2688 3647 
Q 2622 3803 2541 3922 
Q 2500 3981 2441 4022 
Q 2363 4078 2284 4103 
Q 2225 4122 2097 4122 
L 2097 4238 
L 3747 4238 
L 3747 4122 
L 3634 4122 
Q 3459 4122 3378 4047 
Q 3297 3972 3297 3844 
Q 3297 3684 3438 3288 
L 4250 984 
L 5056 3319 
Q 5194 3706 5194 3856 
Q 5194 3928 5148 3990 
Q 5103 4053 5034 4078 
Q 4916 4122 4725 4122 
L 4725 4238 
L 5991 4238 
z
" transform="scale(0.015625)"/>
       <path id="TimesNewRomanPSMT-29" d="M 144 4313 
L 144 4444 
Q 619 4209 934 3891 
Q 1381 3434 1625 2820 
Q 1869 2206 1869 1541 
Q 1869 572 1392 -226 
Q 916 -1025 144 -1369 
L 144 -1253 
Q 528 -1038 776 -670 
Q 1025 -303 1145 264 
Q 1266 831 1266 1447 
Q 1266 2113 1163 2663 
Q 1084 3094 967 3353 
Q 850 3613 656 3853 
Q 463 4094 144 4313 
z
" transform="scale(0.015625)"/>
      </defs>
      <use xlink:href="#TimesNewRomanPSMT-64"/>
      <use xlink:href="#TimesNewRomanPSMT-65" transform="translate(50 0)"/>
      <use xlink:href="#TimesNewRomanPSMT-6d" transform="translate(94.384766 0)"/>
      <use xlink:href="#TimesNewRomanPSMT-61" transform="translate(172.167969 0)"/>
      <use xlink:href="#TimesNewRomanPSMT-6e" transform="translate(216.552734 0)"/>
      <use xlink:href="#TimesNewRomanPSMT-64" transform="translate(266.552734 0)"/>
      <use xlink:href="#TimesNewRomanPSMT-20" transform="translate(316.552734 0)"/>
      <use xlink:href="#TimesNewRomanPSMT-28" transform="translate(341.552734 0)"/>
      <use xlink:href="#TimesNewRomanPSMT-6b" transform="translate(374.853516 0)"/>
      <use xlink:href="#TimesNewRomanPSMT-57" transform="translate(424.853516 0)"/>
      <use xlink:href="#TimesNewRomanPSMT-29" transform="translate(519.238281 0)"/>
     </g>
    </g>
   </g>
   <g id="matplotlib.axis_2">
    <g id="ytick_1">
     <g id="line2d_6">
      <path d="M 39.371875 259.9875 
L 424.031875 259.9875 
" clip-path="url(#pe4144adc67)" style="fill: none; stroke: #d5d9df; stroke-width: 0.6; stroke-linecap: round"/>
     </g>
     <g id="text_7">
      <!-- 0.0 -->
      <g style="fill: #262626" transform="translate(22.121875 263.806562) scale(0.11 -0.11)">
       <defs>
        <path id="TimesNewRomanPSMT-2e" d="M 800 606 
Q 947 606 1047 504 
Q 1147 403 1147 259 
Q 1147 116 1045 14 
Q 944 -88 800 -88 
Q 656 -88 554 14 
Q 453 116 453 259 
Q 453 406 554 506 
Q 656 606 800 606 
z
" transform="scale(0.015625)"/>
       </defs>
       <use xlink:href="#TimesNewRomanPSMT-30"/>
       <use xlink:href="#TimesNewRomanPSMT-2e" transform="translate(50 0)"/>
       <use xlink:href="#TimesNewRomanPSMT-30" transform="translate(75 0)"/>
      </g>
     </g>
    </g>
    <g id="ytick_2">
     <g id="line2d_7">
      <path d="M 39.371875 234.781459 
L 424.031875 234.781459 
" clip-path="url(#pe4144adc67)" style="fill: none; stroke: #d5d9df; stroke-width: 0.6; stroke-linecap: round"/>
     </g>
     <g id="text_8">
      <!-- 0.5 -->
      <g style="fill: #262626" transform="translate(22.121875 238.600522) scale(0.11 -0.11)">
       <defs>
        <path id="TimesNewRomanPSMT-35" d="M 2778 4238 
L 2534 3706 
L 1259 3706 
L 981 3138 
Q 1809 3016 2294 2522 
Q 2709 2097 2709 1522 
Q 2709 1188 2573 903 
Q 2438 619 2231 419 
Q 2025 219 1772 97 
Q 1413 -75 1034 -75 
Q 653 -75 479 54 
Q 306 184 306 341 
Q 306 428 378 495 
Q 450 563 559 563 
Q 641 563 702 538 
Q 763 513 909 409 
Q 1144 247 1384 247 
Q 1750 247 2026 523 
Q 2303 800 2303 1197 
Q 2303 1581 2056 1914 
Q 1809 2247 1375 2428 
Q 1034 2569 447 2591 
L 1259 4238 
L 2778 4238 
z
" transform="scale(0.015625)"/>
       </defs>
       <use xlink:href="#TimesNewRomanPSMT-30"/>
       <use xlink:href="#TimesNewRomanPSMT-2e" transform="translate(50 0)"/>
       <use xlink:href="#TimesNewRomanPSMT-35" transform="translate(75 0)"/>
      </g>
     </g>
    </g>
    <g id="ytick_3">
     <g id="line2d_8">
      <path d="M 39.371875 209.575418 
L 424.031875 209.575418 
" clip-path="url(#pe4144adc67)" style="fill: none; stroke: #d5d9df; stroke-width: 0.6; stroke-linecap: round"/>
     </g>
     <g id="text_9">
      <!-- 1.0 -->
      <g style="fill: #262626" transform="translate(22.121875 213.394481) scale(0.11 -0.11)">
       <use xlink:href="#TimesNewRomanPSMT-31"/>
       <use xlink:href="#TimesNewRomanPSMT-2e" transform="translate(50 0)"/>
       <use xlink:href="#TimesNewRomanPSMT-30" transform="translate(75 0)"/>
      </g>
     </g>
    </g>
    <g id="ytick_4">
     <g id="line2d_9">
      <path d="M 39.371875 184.369377 
L 424.031875 184.369377 
" clip-path="url(#pe4144adc67)" style="fill: none; stroke: #d5d9df; stroke-width: 0.6; stroke-linecap: round"/>
     </g>
     <g id="text_10">
      <!-- 1.5 -->
      <g style="fill: #262626" transform="translate(22.121875 188.18844) scale(0.11 -0.11)">
       <use xlink:href="#TimesNewRomanPSMT-31"/>
       <use xlink:href="#TimesNewRomanPSMT-2e" transform="translate(50 0)"/>
       <use xlink:href="#TimesNewRomanPSMT-35" transform="translate(75 0)"/>
      </g>
     </g>
    </g>
    <g id="ytick_5">
     <g id="line2d_10">
      <path d="M 39.371875 159.163336 
L 424.031875 159.163336 
" clip-path="url(#pe4144adc67)" style="fill: none; stroke: #d5d9df; stroke-width: 0.6; stroke-linecap: round"/>
     </g>
     <g id="text_11">
      <!-- 2.0 -->
      <g style="fill: #262626" transform="translate(22.121875 162.982399) scale(0.11 -0.11)">
       <use xlink:href="#TimesNewRomanPSMT-32"/>
       <use xlink:href="#TimesNewRomanPSMT-2e" transform="translate(50 0)"/>
       <use xlink:href="#TimesNewRomanPSMT-30" transform="translate(75 0)"/>
      </g>
     </g>
    </g>
    <g id="ytick_6">
     <g id="line2d_11">
      <path d="M 39.371875 133.957295 
L 424.031875 133.957295 
" clip-path="url(#pe4144adc67)" style="fill: none; stroke: #d5d9df; stroke-width: 0.6; stroke-linecap: round"/>
     </g>
     <g id="text_12">
      <!-- 2.5 -->
      <g style="fill: #262626" transform="translate(22.121875 137.776358) scale(0.11 -0.11)">
       <use xlink:href="#TimesNewRomanPSMT-32"/>
       <use xlink:href="#TimesNewRomanPSMT-2e" transform="translate(50 0)"/>
       <use xlink:href="#TimesNewRomanPSMT-35" transform="translate(75 0)"/>
      </g>
     </g>
    </g>
    <g id="ytick_7">
     <g id="line2d_12">
      <path d="M 39.371875 108.751254 
L 424.031875 108.751254 
" clip-path="url(#pe4144adc67)" style="fill: none; stroke: #d5d9df; stroke-width: 0.6; stroke-linecap: round"/>
     </g>
     <g id="text_13">
      <!-- 3.0 -->
      <g style="fill: #262626" transform="translate(22.121875 112.570317) scale(0.11 -0.11)">
       <use xlink:href="#TimesNewRomanPSMT-33"/>
       <use xlink:href="#TimesNewRomanPSMT-2e" transform="translate(50 0)"/>
       <use xlink:href="#TimesNewRomanPSMT-30" transform="translate(75 0)"/>
      </g>
     </g>
    </g>
    <g id="ytick_8">
     <g id="line2d_13">
      <path d="M 39.371875 83.545214 
L 424.031875 83.545214 
" clip-path="url(#pe4144adc67)" style="fill: none; stroke: #d5d9df; stroke-width: 0.6; stroke-linecap: round"/>
     </g>
     <g id="text_14">
      <!-- 3.5 -->
      <g style="fill: #262626" transform="translate(22.121875 87.364276) scale(0.11 -0.11)">
       <use xlink:href="#TimesNewRomanPSMT-33"/>
       <use xlink:href="#TimesNewRomanPSMT-2e" transform="translate(50 0)"/>
       <use xlink:href="#TimesNewRomanPSMT-35" transform="translate(75 0)"/>
      </g>
     </g>
    </g>
    <g id="text_15">
     <!-- Density -->
     <g style="fill: #262626" transform="translate(15.5325 182.232187) rotate(-90) scale(0.12 -0.12)">
      <defs>
       <path id="TimesNewRomanPSMT-44" d="M 109 0 
L 109 116 
L 269 116 
Q 538 116 650 288 
Q 719 391 719 750 
L 719 3488 
Q 719 3884 631 3984 
Q 509 4122 269 4122 
L 109 4122 
L 109 4238 
L 1834 4238 
Q 2784 4238 3279 4022 
Q 3775 3806 4076 3303 
Q 4378 2800 4378 2141 
Q 4378 1256 3841 663 
Q 3238 0 2003 0 
L 109 0 
z
M 1319 306 
Q 1716 219 1984 219 
Q 2709 219 3187 728 
Q 3666 1238 3666 2109 
Q 3666 2988 3187 3494 
Q 2709 4000 1959 4000 
Q 1678 4000 1319 3909 
L 1319 306 
z
" transform="scale(0.015625)"/>
       <path id="TimesNewRomanPSMT-73" d="M 2050 2947 
L 2050 1972 
L 1947 1972 
Q 1828 2431 1642 2597 
Q 1456 2763 1169 2763 
Q 950 2763 815 2647 
Q 681 2531 681 2391 
Q 681 2216 781 2091 
Q 878 1963 1175 1819 
L 1631 1597 
Q 2266 1288 2266 781 
Q 2266 391 1970 151 
Q 1675 -88 1309 -88 
Q 1047 -88 709 6 
Q 606 38 541 38 
Q 469 38 428 -44 
L 325 -44 
L 325 978 
L 428 978 
Q 516 541 762 319 
Q 1009 97 1316 97 
Q 1531 97 1667 223 
Q 1803 350 1803 528 
Q 1803 744 1651 891 
Q 1500 1038 1047 1263 
Q 594 1488 453 1669 
Q 313 1847 313 2119 
Q 313 2472 555 2709 
Q 797 2947 1181 2947 
Q 1350 2947 1591 2875 
Q 1750 2828 1803 2828 
Q 1853 2828 1881 2850 
Q 1909 2872 1947 2947 
L 2050 2947 
z
" transform="scale(0.015625)"/>
       <path id="TimesNewRomanPSMT-69" d="M 928 4444 
Q 1059 4444 1151 4351 
Q 1244 4259 1244 4128 
Q 1244 3997 1151 3903 
Q 1059 3809 928 3809 
Q 797 3809 703 3903 
Q 609 3997 609 4128 
Q 609 4259 701 4351 
Q 794 4444 928 4444 
z
M 1188 2947 
L 1188 647 
Q 1188 378 1227 289 
Q 1266 200 1342 156 
Q 1419 113 1622 113 
L 1622 0 
L 231 0 
L 231 113 
Q 441 113 512 153 
Q 584 194 626 287 
Q 669 381 669 647 
L 669 1750 
Q 669 2216 641 2353 
Q 619 2453 572 2492 
Q 525 2531 444 2531 
Q 356 2531 231 2484 
L 188 2597 
L 1050 2947 
L 1188 2947 
z
" transform="scale(0.015625)"/>
       <path id="TimesNewRomanPSMT-74" d="M 1031 3803 
L 1031 2863 
L 1700 2863 
L 1700 2644 
L 1031 2644 
L 1031 788 
Q 1031 509 1111 412 
Q 1191 316 1316 316 
Q 1419 316 1516 380 
Q 1613 444 1666 569 
L 1788 569 
Q 1678 263 1478 108 
Q 1278 -47 1066 -47 
Q 922 -47 784 33 
Q 647 113 581 261 
Q 516 409 516 719 
L 516 2644 
L 63 2644 
L 63 2747 
Q 234 2816 414 2980 
Q 594 3144 734 3369 
Q 806 3488 934 3803 
L 1031 3803 
z
" transform="scale(0.015625)"/>
       <path id="TimesNewRomanPSMT-79" d="M 38 2863 
L 1372 2863 
L 1372 2747 
L 1306 2747 
Q 1166 2747 1095 2686 
Q 1025 2625 1025 2534 
Q 1025 2413 1128 2197 
L 1825 753 
L 2466 2334 
Q 2519 2463 2519 2588 
Q 2519 2644 2497 2672 
Q 2472 2706 2419 2726 
Q 2366 2747 2231 2747 
L 2231 2863 
L 3163 2863 
L 3163 2747 
Q 3047 2734 2984 2696 
Q 2922 2659 2847 2556 
Q 2819 2513 2741 2316 
L 1575 -541 
Q 1406 -956 1132 -1168 
Q 859 -1381 606 -1381 
Q 422 -1381 303 -1275 
Q 184 -1169 184 -1031 
Q 184 -900 270 -820 
Q 356 -741 506 -741 
Q 609 -741 788 -809 
Q 913 -856 944 -856 
Q 1038 -856 1148 -759 
Q 1259 -663 1372 -384 
L 1575 113 
L 547 2272 
Q 500 2369 397 2513 
Q 319 2622 269 2659 
Q 197 2709 38 2747 
L 38 2863 
z
" transform="scale(0.015625)"/>
      </defs>
      <use xlink:href="#TimesNewRomanPSMT-44"/>
      <use xlink:href="#TimesNewRomanPSMT-65" transform="translate(72.216797 0)"/>
      <use xlink:href="#TimesNewRomanPSMT-6e" transform="translate(116.601562 0)"/>
      <use xlink:href="#TimesNewRomanPSMT-73" transform="translate(166.601562 0)"/>
      <use xlink:href="#TimesNewRomanPSMT-69" transform="translate(205.517578 0)"/>
      <use xlink:href="#TimesNewRomanPSMT-74" transform="translate(233.300781 0)"/>
      <use xlink:href="#TimesNewRomanPSMT-79" transform="translate(261.083984 0)"/>
     </g>
    </g>
   </g>
   <g id="patch_3">
    <path d="M 70.766937 259.9875 
L 76.131435 259.9875 
L 76.131435 259.580274 
L 70.766937 259.580274 
z
" clip-path="url(#pe4144adc67)" style="fill: #4472c4; fill-opacity: 0.65; stroke: #ffffff; stroke-width: 0.461157; stroke-linejoin: miter"/>
   </g>
   <g id="patch_4">
    <path d="M 76.131435 259.9875 
L 81.495933 259.9875 
L 81.495933 259.9875 
L 76.131435 259.9875 
z
" clip-path="url(#pe4144adc67)" style="fill: #4472c4; fill-opacity: 0.65; stroke: #ffffff; stroke-width: 0.461157; stroke-linejoin: miter"/>
   </g>
   <g id="patch_5">
    <path d="M 81.495933 259.9875 
L 86.860431 259.9875 
L 86.860431 259.335938 
L 81.495933 259.335938 
z
" clip-path="url(#pe4144adc67)" style="fill: #4472c4; fill-opacity: 0.65; stroke: #ffffff; stroke-width: 0.461157; stroke-linejoin: miter"/>
   </g>
   <g id="patch_6">
    <path d="M 86.860431 259.9875 
L 92.224929 259.9875 
L 92.224929 76.328571 
L 86.860431 76.328571 
z
" clip-path="url(#pe4144adc67)" style="fill: #4472c4; fill-opacity: 0.65; stroke: #ffffff; stroke-width: 0.461157; stroke-linejoin: miter"/>
   </g>
   <g id="patch_7">
    <path d="M 92.224929 259.9875 
L 97.589427 259.9875 
L 97.589427 112.083015 
L 92.224929 112.083015 
z
" clip-path="url(#pe4144adc67)" style="fill: #4472c4; fill-opacity: 0.65; stroke: #ffffff; stroke-width: 0.461157; stroke-linejoin: miter"/>
   </g>
   <g id="patch_8">
    <path d="M 97.589427 259.9875 
L 102.953925 259.9875 
L 102.953925 195.401455 
L 97.589427 195.401455 
z
" clip-path="url(#pe4144adc67)" style="fill: #4472c4; fill-opacity: 0.65; stroke: #ffffff; stroke-width: 0.461157; stroke-linejoin: miter"/>
   </g>
   <g id="patch_9">
    <path d="M 102.953925 259.9875 
L 108.318423 259.9875 
L 108.318423 218.287557 
L 102.953925 218.287557 
z
" clip-path="url(#pe4144adc67)" style="fill: #4472c4; fill-opacity: 0.65; stroke: #ffffff; stroke-width: 0.461157; stroke-linejoin: miter"/>
   </g>
   <g id="patch_10">
    <path d="M 108.318423 259.9875 
L 113.68292 259.9875 
L 113.68292 220.568023 
L 108.318423 220.568023 
z
" clip-path="url(#pe4144adc67)" style="fill: #4472c4; fill-opacity: 0.65; stroke: #ffffff; stroke-width: 0.461157; stroke-linejoin: miter"/>
   </g>
   <g id="patch_11">
    <path d="M 113.68292 259.9875 
L 119.047418 259.9875 
L 119.047418 217.55455 
L 113.68292 217.55455 
z
" clip-path="url(#pe4144adc67)" style="fill: #4472c4; fill-opacity: 0.65; stroke: #ffffff; stroke-width: 0.461157; stroke-linejoin: miter"/>
   </g>
   <g id="patch_12">
    <path d="M 119.047418 259.9875 
L 124.411916 259.9875 
L 124.411916 219.264899 
L 119.047418 219.264899 
z
" clip-path="url(#pe4144adc67)" style="fill: #4472c4; fill-opacity: 0.65; stroke: #ffffff; stroke-width: 0.461157; stroke-linejoin: miter"/>
   </g>
   <g id="patch_13">
    <path d="M 124.411916 259.9875 
L 129.776414 259.9875 
L 129.776414 230.260002 
L 124.411916 230.260002 
z
" clip-path="url(#pe4144adc67)" style="fill: #4472c4; fill-opacity: 0.65; stroke: #ffffff; stroke-width: 0.461157; stroke-linejoin: miter"/>
   </g>
   <g id="patch_14">
    <path d="M 129.776414 259.9875 
L 135.140912 259.9875 
L 135.140912 237.508624 
L 129.776414 237.508624 
z
" clip-path="url(#pe4144adc67)" style="fill: #4472c4; fill-opacity: 0.65; stroke: #ffffff; stroke-width: 0.461157; stroke-linejoin: miter"/>
   </g>
   <g id="patch_15">
    <path d="M 135.140912 259.9875 
L 140.50541 259.9875 
L 140.50541 242.476782 
L 135.140912 242.476782 
z
" clip-path="url(#pe4144adc67)" style="fill: #4472c4; fill-opacity: 0.65; stroke: #ffffff; stroke-width: 0.461157; stroke-linejoin: miter"/>
   </g>
   <g id="patch_16">
    <path d="M 140.50541 259.9875 
L 145.869908 259.9875 
L 145.869908 246.386151 
L 140.50541 246.386151 
z
" clip-path="url(#pe4144adc67)" style="fill: #4472c4; fill-opacity: 0.65; stroke: #ffffff; stroke-width: 0.461157; stroke-linejoin: miter"/>
   </g>
   <g id="patch_17">
    <path d="M 145.869908 259.9875 
L 151.234406 259.9875 
L 151.234406 250.376966 
L 145.869908 250.376966 
z
" clip-path="url(#pe4144adc67)" style="fill: #4472c4; fill-opacity: 0.65; stroke: #ffffff; stroke-width: 0.461157; stroke-linejoin: miter"/>
   </g>
   <g id="patch_18">
    <path d="M 151.234406 259.9875 
L 156.598904 259.9875 
L 156.598904 251.435754 
L 151.234406 251.435754 
z
" clip-path="url(#pe4144adc67)" style="fill: #4472c4; fill-opacity: 0.65; stroke: #ffffff; stroke-width: 0.461157; stroke-linejoin: miter"/>
   </g>
   <g id="patch_19">
    <path d="M 156.598904 259.9875 
L 161.963402 259.9875 
L 161.963402 251.84298 
L 156.598904 251.84298 
z
" clip-path="url(#pe4144adc67)" style="fill: #4472c4; fill-opacity: 0.65; stroke: #ffffff; stroke-width: 0.461157; stroke-linejoin: miter"/>
   </g>
   <g id="patch_20">
    <path d="M 161.963402 259.9875 
L 167.3279 259.9875 
L 167.3279 252.494541 
L 161.963402 252.494541 
z
" clip-path="url(#pe4144adc67)" style="fill: #4472c4; fill-opacity: 0.65; stroke: #ffffff; stroke-width: 0.461157; stroke-linejoin: miter"/>
   </g>
   <g id="patch_21">
    <path d="M 167.3279 259.9875 
L 172.692398 259.9875 
L 172.692398 254.856452 
L 167.3279 254.856452 
z
" clip-path="url(#pe4144adc67)" style="fill: #4472c4; fill-opacity: 0.65; stroke: #ffffff; stroke-width: 0.461157; stroke-linejoin: miter"/>
   </g>
   <g id="patch_22">
    <path d="M 172.692398 259.9875 
L 178.056896 259.9875 
L 178.056896 257.136918 
L 172.692398 257.136918 
z
" clip-path="url(#pe4144adc67)" style="fill: #4472c4; fill-opacity: 0.65; stroke: #ffffff; stroke-width: 0.461157; stroke-linejoin: miter"/>
   </g>
   <g id="patch_23">
    <path d="M 178.056896 259.9875 
L 183.421394 259.9875 
L 183.421394 256.729692 
L 178.056896 256.729692 
z
" clip-path="url(#pe4144adc67)" style="fill: #4472c4; fill-opacity: 0.65; stroke: #ffffff; stroke-width: 0.461157; stroke-linejoin: miter"/>
   </g>
   <g id="patch_24">
    <path d="M 183.421394 259.9875 
L 188.785892 259.9875 
L 188.785892 256.811137 
L 183.421394 256.811137 
z
" clip-path="url(#pe4144adc67)" style="fill: #4472c4; fill-opacity: 0.65; stroke: #ffffff; stroke-width: 0.461157; stroke-linejoin: miter"/>
   </g>
   <g id="patch_25">
    <path d="M 188.785892 259.9875 
L 194.150389 259.9875 
L 194.150389 257.299808 
L 188.785892 257.299808 
z
" clip-path="url(#pe4144adc67)" style="fill: #4472c4; fill-opacity: 0.65; stroke: #ffffff; stroke-width: 0.461157; stroke-linejoin: miter"/>
   </g>
   <g id="patch_26">
    <path d="M 194.150389 259.9875 
L 199.514887 259.9875 
L 199.514887 257.707034 
L 194.150389 257.707034 
z
" clip-path="url(#pe4144adc67)" style="fill: #4472c4; fill-opacity: 0.65; stroke: #ffffff; stroke-width: 0.461157; stroke-linejoin: miter"/>
   </g>
   <g id="patch_27">
    <path d="M 199.514887 259.9875 
L 204.879385 259.9875 
L 204.879385 257.381254 
L 199.514887 257.381254 
z
" clip-path="url(#pe4144adc67)" style="fill: #4472c4; fill-opacity: 0.65; stroke: #ffffff; stroke-width: 0.461157; stroke-linejoin: miter"/>
   </g>
   <g id="patch_28">
    <path d="M 204.879385 259.9875 
L 210.243883 259.9875 
L 210.243883 258.277151 
L 204.879385 258.277151 
z
" clip-path="url(#pe4144adc67)" style="fill: #4472c4; fill-opacity: 0.65; stroke: #ffffff; stroke-width: 0.461157; stroke-linejoin: miter"/>
   </g>
   <g id="patch_29">
    <path d="M 210.243883 259.9875 
L 215.608381 259.9875 
L 215.608381 258.358596 
L 210.243883 258.358596 
z
" clip-path="url(#pe4144adc67)" style="fill: #4472c4; fill-opacity: 0.65; stroke: #ffffff; stroke-width: 0.461157; stroke-linejoin: miter"/>
   </g>
   <g id="patch_30">
    <path d="M 215.608381 259.9875 
L 220.972879 259.9875 
L 220.972879 258.277151 
L 215.608381 258.277151 
z
" clip-path="url(#pe4144adc67)" style="fill: #4472c4; fill-opacity: 0.65; stroke: #ffffff; stroke-width: 0.461157; stroke-linejoin: miter"/>
   </g>
   <g id="patch_31">
    <path d="M 220.972879 259.9875 
L 226.337377 259.9875 
L 226.337377 258.847267 
L 220.972879 258.847267 
z
" clip-path="url(#pe4144adc67)" style="fill: #4472c4; fill-opacity: 0.65; stroke: #ffffff; stroke-width: 0.461157; stroke-linejoin: miter"/>
   </g>
   <g id="patch_32">
    <path d="M 226.337377 259.9875 
L 231.701875 259.9875 
L 231.701875 258.928712 
L 226.337377 258.928712 
z
" clip-path="url(#pe4144adc67)" style="fill: #4472c4; fill-opacity: 0.65; stroke: #ffffff; stroke-width: 0.461157; stroke-linejoin: miter"/>
   </g>
   <g id="patch_33">
    <path d="M 231.701875 259.9875 
L 237.066373 259.9875 
L 237.066373 259.173048 
L 231.701875 259.173048 
z
" clip-path="url(#pe4144adc67)" style="fill: #4472c4; fill-opacity: 0.65; stroke: #ffffff; stroke-width: 0.461157; stroke-linejoin: miter"/>
   </g>
   <g id="patch_34">
    <path d="M 237.066373 259.9875 
L 242.430871 259.9875 
L 242.430871 259.091603 
L 237.066373 259.091603 
z
" clip-path="url(#pe4144adc67)" style="fill: #4472c4; fill-opacity: 0.65; stroke: #ffffff; stroke-width: 0.461157; stroke-linejoin: miter"/>
   </g>
   <g id="patch_35">
    <path d="M 242.430871 259.9875 
L 247.795369 259.9875 
L 247.795369 259.498829 
L 242.430871 259.498829 
z
" clip-path="url(#pe4144adc67)" style="fill: #4472c4; fill-opacity: 0.65; stroke: #ffffff; stroke-width: 0.461157; stroke-linejoin: miter"/>
   </g>
   <g id="patch_36">
    <path d="M 247.795369 259.9875 
L 253.159867 259.9875 
L 253.159867 259.335938 
L 247.795369 259.335938 
z
" clip-path="url(#pe4144adc67)" style="fill: #4472c4; fill-opacity: 0.65; stroke: #ffffff; stroke-width: 0.461157; stroke-linejoin: miter"/>
   </g>
   <g id="patch_37">
    <path d="M 253.159867 259.9875 
L 258.524365 259.9875 
L 258.524365 259.498829 
L 253.159867 259.498829 
z
" clip-path="url(#pe4144adc67)" style="fill: #4472c4; fill-opacity: 0.65; stroke: #ffffff; stroke-width: 0.461157; stroke-linejoin: miter"/>
   </g>
   <g id="patch_38">
    <path d="M 258.524365 259.9875 
L 263.888863 259.9875 
L 263.888863 259.743164 
L 258.524365 259.743164 
z
" clip-path="url(#pe4144adc67)" style="fill: #4472c4; fill-opacity: 0.65; stroke: #ffffff; stroke-width: 0.461157; stroke-linejoin: miter"/>
   </g>
   <g id="patch_39">
    <path d="M 263.888863 259.9875 
L 269.253361 259.9875 
L 269.253361 259.743164 
L 263.888863 259.743164 
z
" clip-path="url(#pe4144adc67)" style="fill: #4472c4; fill-opacity: 0.65; stroke: #ffffff; stroke-width: 0.461157; stroke-linejoin: miter"/>
   </g>
   <g id="patch_40">
    <path d="M 269.253361 259.9875 
L 274.617858 259.9875 
L 274.617858 259.82461 
L 269.253361 259.82461 
z
" clip-path="url(#pe4144adc67)" style="fill: #4472c4; fill-opacity: 0.65; stroke: #ffffff; stroke-width: 0.461157; stroke-linejoin: miter"/>
   </g>
   <g id="patch_41">
    <path d="M 274.617858 259.9875 
L 279.982356 259.9875 
L 279.982356 259.743164 
L 274.617858 259.743164 
z
" clip-path="url(#pe4144adc67)" style="fill: #4472c4; fill-opacity: 0.65; stroke: #ffffff; stroke-width: 0.461157; stroke-linejoin: miter"/>
   </g>
   <g id="patch_42">
    <path d="M 279.982356 259.9875 
L 285.346854 259.9875 
L 285.346854 259.580274 
L 279.982356 259.580274 
z
" clip-path="url(#pe4144adc67)" style="fill: #4472c4; fill-opacity: 0.65; stroke: #ffffff; stroke-width: 0.461157; stroke-linejoin: miter"/>
   </g>
   <g id="patch_43">
    <path d="M 285.346854 259.9875 
L 290.711352 259.9875 
L 290.711352 259.82461 
L 285.346854 259.82461 
z
" clip-path="url(#pe4144adc67)" style="fill: #4472c4; fill-opacity: 0.65; stroke: #ffffff; stroke-width: 0.461157; stroke-linejoin: miter"/>
   </g>
   <g id="patch_44">
    <path d="M 290.711352 259.9875 
L 296.07585 259.9875 
L 296.07585 259.743164 
L 290.711352 259.743164 
z
" clip-path="url(#pe4144adc67)" style="fill: #4472c4; fill-opacity: 0.65; stroke: #ffffff; stroke-width: 0.461157; stroke-linejoin: miter"/>
   </g>
   <g id="patch_45">
    <path d="M 296.07585 259.9875 
L 301.440348 259.9875 
L 301.440348 259.906055 
L 296.07585 259.906055 
z
" clip-path="url(#pe4144adc67)" style="fill: #4472c4; fill-opacity: 0.65; stroke: #ffffff; stroke-width: 0.461157; stroke-linejoin: miter"/>
   </g>
   <g id="patch_46">
    <path d="M 301.440348 259.9875 
L 306.804846 259.9875 
L 306.804846 259.906055 
L 301.440348 259.906055 
z
" clip-path="url(#pe4144adc67)" style="fill: #4472c4; fill-opacity: 0.65; stroke: #ffffff; stroke-width: 0.461157; stroke-linejoin: miter"/>
   </g>
   <g id="patch_47">
    <path d="M 306.804846 259.9875 
L 312.169344 259.9875 
L 312.169344 259.906055 
L 306.804846 259.906055 
z
" clip-path="url(#pe4144adc67)" style="fill: #4472c4; fill-opacity: 0.65; stroke: #ffffff; stroke-width: 0.461157; stroke-linejoin: miter"/>
   </g>
   <g id="patch_48">
    <path d="M 312.169344 259.9875 
L 317.533842 259.9875 
L 317.533842 259.906055 
L 312.169344 259.906055 
z
" clip-path="url(#pe4144adc67)" style="fill: #4472c4; fill-opacity: 0.65; stroke: #ffffff; stroke-width: 0.461157; stroke-linejoin: miter"/>
   </g>
   <g id="patch_49">
    <path d="M 317.533842 259.9875 
L 322.89834 259.9875 
L 322.89834 259.9875 
L 317.533842 259.9875 
z
" clip-path="url(#pe4144adc67)" style="fill: #4472c4; fill-opacity: 0.65; stroke: #ffffff; stroke-width: 0.461157; stroke-linejoin: miter"/>
   </g>
   <g id="patch_50">
    <path d="M 322.89834 259.9875 
L 328.262838 259.9875 
L 328.262838 259.9875 
L 322.89834 259.9875 
z
" clip-path="url(#pe4144adc67)" style="fill: #4472c4; fill-opacity: 0.65; stroke: #ffffff; stroke-width: 0.461157; stroke-linejoin: miter"/>
   </g>
   <g id="patch_51">
    <path d="M 328.262838 259.9875 
L 333.627336 259.9875 
L 333.627336 259.9875 
L 328.262838 259.9875 
z
" clip-path="url(#pe4144adc67)" style="fill: #4472c4; fill-opacity: 0.65; stroke: #ffffff; stroke-width: 0.461157; stroke-linejoin: miter"/>
   </g>
   <g id="patch_52">
    <path d="M 333.627336 259.9875 
L 338.991834 259.9875 
L 338.991834 259.9875 
L 333.627336 259.9875 
z
" clip-path="url(#pe4144adc67)" style="fill: #4472c4; fill-opacity: 0.65; stroke: #ffffff; stroke-width: 0.461157; stroke-linejoin: miter"/>
   </g>
   <g id="patch_53">
    <path d="M 338.991834 259.9875 
L 344.356332 259.9875 
L 344.356332 259.9875 
L 338.991834 259.9875 
z
" clip-path="url(#pe4144adc67)" style="fill: #4472c4; fill-opacity: 0.65; stroke: #ffffff; stroke-width: 0.461157; stroke-linejoin: miter"/>
   </g>
   <g id="patch_54">
    <path d="M 344.356332 259.9875 
L 349.72083 259.9875 
L 349.72083 259.9875 
L 344.356332 259.9875 
z
" clip-path="url(#pe4144adc67)" style="fill: #4472c4; fill-opacity: 0.65; stroke: #ffffff; stroke-width: 0.461157; stroke-linejoin: miter"/>
   </g>
   <g id="patch_55">
    <path d="M 349.72083 259.9875 
L 355.085327 259.9875 
L 355.085327 259.906055 
L 349.72083 259.906055 
z
" clip-path="url(#pe4144adc67)" style="fill: #4472c4; fill-opacity: 0.65; stroke: #ffffff; stroke-width: 0.461157; stroke-linejoin: miter"/>
   </g>
   <g id="patch_56">
    <path d="M 355.085327 259.9875 
L 360.449825 259.9875 
L 360.449825 259.9875 
L 355.085327 259.9875 
z
" clip-path="url(#pe4144adc67)" style="fill: #4472c4; fill-opacity: 0.65; stroke: #ffffff; stroke-width: 0.461157; stroke-linejoin: miter"/>
   </g>
   <g id="patch_57">
    <path d="M 360.449825 259.9875 
L 365.814323 259.9875 
L 365.814323 259.9875 
L 360.449825 259.9875 
z
" clip-path="url(#pe4144adc67)" style="fill: #4472c4; fill-opacity: 0.65; stroke: #ffffff; stroke-width: 0.461157; stroke-linejoin: miter"/>
   </g>
   <g id="patch_58">
    <path d="M 365.814323 259.9875 
L 371.178821 259.9875 
L 371.178821 259.9875 
L 365.814323 259.9875 
z
" clip-path="url(#pe4144adc67)" style="fill: #4472c4; fill-opacity: 0.65; stroke: #ffffff; stroke-width: 0.461157; stroke-linejoin: miter"/>
   </g>
   <g id="patch_59">
    <path d="M 371.178821 259.9875 
L 376.543319 259.9875 
L 376.543319 259.9875 
L 371.178821 259.9875 
z
" clip-path="url(#pe4144adc67)" style="fill: #4472c4; fill-opacity: 0.65; stroke: #ffffff; stroke-width: 0.461157; stroke-linejoin: miter"/>
   </g>
   <g id="patch_60">
    <path d="M 376.543319 259.9875 
L 381.907817 259.9875 
L 381.907817 259.9875 
L 376.543319 259.9875 
z
" clip-path="url(#pe4144adc67)" style="fill: #4472c4; fill-opacity: 0.65; stroke: #ffffff; stroke-width: 0.461157; stroke-linejoin: miter"/>
   </g>
   <g id="patch_61">
    <path d="M 381.907817 259.9875 
L 387.272315 259.9875 
L 387.272315 259.9875 
L 381.907817 259.9875 
z
" clip-path="url(#pe4144adc67)" style="fill: #4472c4; fill-opacity: 0.65; stroke: #ffffff; stroke-width: 0.461157; stroke-linejoin: miter"/>
   </g>
   <g id="patch_62">
    <path d="M 387.272315 259.9875 
L 392.636813 259.9875 
L 392.636813 259.906055 
L 387.272315 259.906055 
z
" clip-path="url(#pe4144adc67)" style="fill: #4472c4; fill-opacity: 0.65; stroke: #ffffff; stroke-width: 0.461157; stroke-linejoin: miter"/>
   </g>
   <g id="line2d_14">
    <path d="M 56.85642 259.985412 
L 65.642624 259.885278 
L 72.671587 259.711819 
L 74.428828 259.480623 
L 76.186069 258.73059 
L 77.943309 256.719317 
L 79.70055 252.148878 
L 81.457791 243.231876 
L 83.215032 228.255764 
L 84.972272 206.680215 
L 88.486754 153.362507 
L 90.243995 131.639498 
L 92.001235 119.852824 
L 93.758476 119.816442 
L 95.515717 129.914006 
L 97.272958 146.244595 
L 99.030198 164.468843 
L 100.787439 181.246277 
L 102.54468 194.768445 
L 104.301921 204.566739 
L 106.059161 211.022719 
L 107.816402 214.894053 
L 109.573643 216.981693 
L 111.330884 217.95854 
L 113.088124 218.334163 
L 116.602606 218.761774 
L 118.359847 219.378536 
L 120.117087 220.500265 
L 121.874328 222.150904 
L 123.631569 224.23364 
L 127.14605 229.076299 
L 132.417773 236.452298 
L 134.175013 238.628921 
L 135.932254 240.54385 
L 137.689495 242.193669 
L 141.203976 244.957147 
L 144.718458 247.429184 
L 148.232939 249.603725 
L 149.99018 250.475431 
L 151.747421 251.157036 
L 153.504662 251.639647 
L 155.261902 251.94436 
L 162.290865 252.642324 
L 165.805347 253.447882 
L 172.83431 255.567729 
L 176.348791 256.304524 
L 179.863273 256.717101 
L 185.134995 256.974348 
L 202.707403 257.701313 
L 209.736366 258.155322 
L 237.852218 259.218806 
L 250.152903 259.419606 
L 257.181866 259.519352 
L 265.96807 259.75958 
L 280.025996 259.709524 
L 288.812199 259.730581 
L 304.627366 259.908442 
L 350.315626 259.959717 
L 371.402515 259.987468 
L 406.54733 259.987082 
L 406.54733 259.987082 
" clip-path="url(#pe4144adc67)" style="fill: none; stroke: #333333; stroke-width: 2; stroke-linecap: round"/>
   </g>
   <g id="patch_63">
    <path d="M 39.371875 259.9875 
L 39.371875 67.145625 
" style="fill: none; stroke: #cccccc; stroke-linejoin: miter; stroke-linecap: square"/>
   </g>
   <g id="patch_64">
    <path d="M 424.031875 259.9875 
L 424.031875 67.145625 
" style="fill: none; stroke: #cccccc; stroke-linejoin: miter; stroke-linecap: square"/>
   </g>
   <g id="patch_65">
    <path d="M 39.371875 259.9875 
L 424.031875 259.9875 
" style="fill: none; stroke: #cccccc; stroke-linejoin: miter; stroke-linecap: square"/>
   </g>
   <g id="patch_66">
    <path d="M 39.371875 67.145625 
L 424.031875 67.145625 
" style="fill: none; stroke: #cccccc; stroke-linejoin: miter; stroke-linecap: square"/>
   </g>
   <g id="text_16">
    <!-- demand distribution -->
    <g style="fill: #262626" transform="translate(39.371875 61.145625) scale(0.13 -0.13)">
     <defs>
      <path id="TimesNewRomanPSMT-72" d="M 1038 2947 
L 1038 2303 
Q 1397 2947 1775 2947 
Q 1947 2947 2059 2842 
Q 2172 2738 2172 2600 
Q 2172 2478 2090 2393 
Q 2009 2309 1897 2309 
Q 1788 2309 1652 2417 
Q 1516 2525 1450 2525 
Q 1394 2525 1328 2463 
Q 1188 2334 1038 2041 
L 1038 669 
Q 1038 431 1097 309 
Q 1138 225 1241 169 
Q 1344 113 1538 113 
L 1538 0 
L 72 0 
L 72 113 
Q 291 113 397 181 
Q 475 231 506 341 
Q 522 394 522 644 
L 522 1753 
Q 522 2253 501 2348 
Q 481 2444 426 2487 
Q 372 2531 291 2531 
Q 194 2531 72 2484 
L 41 2597 
L 906 2947 
L 1038 2947 
z
" transform="scale(0.015625)"/>
      <path id="TimesNewRomanPSMT-62" d="M 984 2369 
Q 1400 2947 1881 2947 
Q 2322 2947 2650 2570 
Q 2978 2194 2978 1541 
Q 2978 778 2472 313 
Q 2038 -88 1503 -88 
Q 1253 -88 995 3 
Q 738 94 469 275 
L 469 3241 
Q 469 3728 445 3840 
Q 422 3953 372 3993 
Q 322 4034 247 4034 
Q 159 4034 28 3984 
L -16 4094 
L 844 4444 
L 984 4444 
L 984 2369 
z
M 984 2169 
L 984 456 
Q 1144 300 1314 220 
Q 1484 141 1663 141 
Q 1947 141 2192 453 
Q 2438 766 2438 1363 
Q 2438 1913 2192 2208 
Q 1947 2503 1634 2503 
Q 1469 2503 1303 2419 
Q 1178 2356 984 2169 
z
" transform="scale(0.015625)"/>
      <path id="TimesNewRomanPSMT-75" d="M 2709 2863 
L 2709 1128 
Q 2709 631 2732 520 
Q 2756 409 2807 365 
Q 2859 322 2928 322 
Q 3025 322 3147 375 
L 3191 266 
L 2334 -88 
L 2194 -88 
L 2194 519 
Q 1825 119 1631 15 
Q 1438 -88 1222 -88 
Q 981 -88 804 51 
Q 628 191 559 409 
Q 491 628 491 1028 
L 491 2306 
Q 491 2509 447 2587 
Q 403 2666 317 2708 
Q 231 2750 6 2747 
L 6 2863 
L 1009 2863 
L 1009 947 
Q 1009 547 1148 422 
Q 1288 297 1484 297 
Q 1619 297 1789 381 
Q 1959 466 2194 703 
L 2194 2325 
Q 2194 2569 2105 2655 
Q 2016 2741 1734 2747 
L 1734 2863 
L 2709 2863 
z
" transform="scale(0.015625)"/>
      <path id="TimesNewRomanPSMT-6f" d="M 1600 2947 
Q 2250 2947 2644 2453 
Q 2978 2031 2978 1484 
Q 2978 1100 2793 706 
Q 2609 313 2286 112 
Q 1963 -88 1566 -88 
Q 919 -88 538 428 
Q 216 863 216 1403 
Q 216 1797 411 2186 
Q 606 2575 925 2761 
Q 1244 2947 1600 2947 
z
M 1503 2744 
Q 1338 2744 1170 2645 
Q 1003 2547 900 2300 
Q 797 2053 797 1666 
Q 797 1041 1045 587 
Q 1294 134 1700 134 
Q 2003 134 2200 384 
Q 2397 634 2397 1244 
Q 2397 2006 2069 2444 
Q 1847 2744 1503 2744 
z
" transform="scale(0.015625)"/>
     </defs>
     <use xlink:href="#TimesNewRomanPSMT-64"/>
     <use xlink:href="#TimesNewRomanPSMT-65" transform="translate(50 0)"/>
     <use xlink:href="#TimesNewRomanPSMT-6d" transform="translate(94.384766 0)"/>
     <use xlink:href="#TimesNewRomanPSMT-61" transform="translate(172.167969 0)"/>
     <use xlink:href="#TimesNewRomanPSMT-6e" transform="translate(216.552734 0)"/>
     <use xlink:href="#TimesNewRomanPSMT-64" transform="translate(266.552734 0)"/>
     <use xlink:href="#TimesNewRomanPSMT-20" transform="translate(316.552734 0)"/>
     <use xlink:href="#TimesNewRomanPSMT-64" transform="translate(341.552734 0)"/>
     <use xlink:href="#TimesNewRomanPSMT-69" transform="translate(391.552734 0)"/>
     <use xlink:href="#TimesNewRomanPSMT-73" transform="translate(419.335938 0)"/>
     <use xlink:href="#TimesNewRomanPSMT-74" transform="translate(458.251953 0)"/>
     <use xlink:href="#TimesNewRomanPSMT-72" transform="translate(486.035156 0)"/>
     <use xlink:href="#TimesNewRomanPSMT-69" transform="translate(519.335938 0)"/>
     <use xlink:href="#TimesNewRomanPSMT-62" transform="translate(547.119141 0)"/>
     <use xlink:href="#TimesNewRomanPSMT-75" transform="translate(597.119141 0)"/>
     <use xlink:href="#TimesNewRomanPSMT-74" transform="translate(647.119141 0)"/>
     <use xlink:href="#TimesNewRomanPSMT-69" transform="translate(674.902344 0)"/>
     <use xlink:href="#TimesNewRomanPSMT-6f" transform="translate(702.685547 0)"/>
     <use xlink:href="#TimesNewRomanPSMT-6e" transform="translate(752.685547 0)"/>
    </g>
   </g>
  </g>
  <g id="axes_2">
   <g id="patch_67">
    <path d="M 460.841875 259.9875 
L 845.501875 259.9875 
L 845.501875 67.145625 
L 460.841875 67.145625 
z
" style="fill: #ffffff"/>
   </g>
   <g id="matplotlib.axis_3">
    <g id="xtick_6">
     <g id="line2d_15">
      <path d="M 510.39658 259.9875 
L 510.39658 67.145625 
" clip-path="url(#p46445d781d)" style="fill: none; stroke: #d5d9df; stroke-width: 0.6; stroke-linecap: round"/>
     </g>
     <g id="text_17">
      <!-- 0 -->
      <g style="fill: #262626" transform="translate(507.64658 271.125625) scale(0.11 -0.11)">
       <use xlink:href="#TimesNewRomanPSMT-30"/>
      </g>
     </g>
    </g>
    <g id="xtick_7">
     <g id="line2d_16">
      <path d="M 569.762607 259.9875 
L 569.762607 67.145625 
" clip-path="url(#p46445d781d)" style="fill: none; stroke: #d5d9df; stroke-width: 0.6; stroke-linecap: round"/>
     </g>
     <g id="text_18">
      <!-- 1 -->
      <g style="fill: #262626" transform="translate(567.012607 271.125625) scale(0.11 -0.11)">
       <use xlink:href="#TimesNewRomanPSMT-31"/>
      </g>
     </g>
    </g>
    <g id="xtick_8">
     <g id="line2d_17">
      <path d="M 629.128634 259.9875 
L 629.128634 67.145625 
" clip-path="url(#p46445d781d)" style="fill: none; stroke: #d5d9df; stroke-width: 0.6; stroke-linecap: round"/>
     </g>
     <g id="text_19">
      <!-- 2 -->
      <g style="fill: #262626" transform="translate(626.378634 271.125625) scale(0.11 -0.11)">
       <use xlink:href="#TimesNewRomanPSMT-32"/>
      </g>
     </g>
    </g>
    <g id="xtick_9">
     <g id="line2d_18">
      <path d="M 688.494661 259.9875 
L 688.494661 67.145625 
" clip-path="url(#p46445d781d)" style="fill: none; stroke: #d5d9df; stroke-width: 0.6; stroke-linecap: round"/>
     </g>
     <g id="text_20">
      <!-- 3 -->
      <g style="fill: #262626" transform="translate(685.744661 271.125625) scale(0.11 -0.11)">
       <use xlink:href="#TimesNewRomanPSMT-33"/>
      </g>
     </g>
    </g>
    <g id="xtick_10">
     <g id="line2d_19">
      <path d="M 747.860688 259.9875 
L 747.860688 67.145625 
" clip-path="url(#p46445d781d)" style="fill: none; stroke: #d5d9df; stroke-width: 0.6; stroke-linecap: round"/>
     </g>
     <g id="text_21">
      <!-- 4 -->
      <g style="fill: #262626" transform="translate(745.110688 271.125625) scale(0.11 -0.11)">
       <use xlink:href="#TimesNewRomanPSMT-34"/>
      </g>
     </g>
    </g>
    <g id="xtick_11">
     <g id="line2d_20">
      <path d="M 807.226715 259.9875 
L 807.226715 67.145625 
" clip-path="url(#p46445d781d)" style="fill: none; stroke: #d5d9df; stroke-width: 0.6; stroke-linecap: round"/>
     </g>
     <g id="text_22">
      <!-- 5 -->
      <g style="fill: #262626" transform="translate(804.476715 271.125625) scale(0.11 -0.11)">
       <use xlink:href="#TimesNewRomanPSMT-35"/>
      </g>
     </g>
    </g>
    <g id="text_23">
     <!-- pv (kW) -->
     <g style="fill: #262626" transform="translate(633.012812 285.811094) scale(0.12 -0.12)">
      <defs>
       <path id="TimesNewRomanPSMT-70" d="M -6 2578 
L 875 2934 
L 994 2934 
L 994 2266 
Q 1216 2644 1439 2795 
Q 1663 2947 1909 2947 
Q 2341 2947 2628 2609 
Q 2981 2197 2981 1534 
Q 2981 794 2556 309 
Q 2206 -88 1675 -88 
Q 1444 -88 1275 -22 
Q 1150 25 994 166 
L 994 -706 
Q 994 -1000 1030 -1079 
Q 1066 -1159 1155 -1206 
Q 1244 -1253 1478 -1253 
L 1478 -1369 
L -22 -1369 
L -22 -1253 
L 56 -1253 
Q 228 -1256 350 -1188 
Q 409 -1153 442 -1076 
Q 475 -1000 475 -688 
L 475 2019 
Q 475 2297 450 2372 
Q 425 2447 370 2484 
Q 316 2522 222 2522 
Q 147 2522 31 2478 
L -6 2578 
z
M 994 2081 
L 994 1013 
Q 994 666 1022 556 
Q 1066 375 1236 237 
Q 1406 100 1666 100 
Q 1978 100 2172 344 
Q 2425 663 2425 1241 
Q 2425 1897 2138 2250 
Q 1938 2494 1663 2494 
Q 1513 2494 1366 2419 
Q 1253 2363 994 2081 
z
" transform="scale(0.015625)"/>
       <path id="TimesNewRomanPSMT-76" d="M 53 2863 
L 1400 2863 
L 1400 2747 
L 1313 2747 
Q 1191 2747 1127 2687 
Q 1063 2628 1063 2528 
Q 1063 2419 1128 2269 
L 1794 688 
L 2463 2328 
Q 2534 2503 2534 2594 
Q 2534 2638 2509 2666 
Q 2475 2713 2422 2730 
Q 2369 2747 2206 2747 
L 2206 2863 
L 3141 2863 
L 3141 2747 
Q 2978 2734 2916 2681 
Q 2806 2588 2719 2369 
L 1703 -88 
L 1575 -88 
L 553 2328 
Q 484 2497 421 2570 
Q 359 2644 263 2694 
Q 209 2722 53 2747 
L 53 2863 
z
" transform="scale(0.015625)"/>
      </defs>
      <use xlink:href="#TimesNewRomanPSMT-70"/>
      <use xlink:href="#TimesNewRomanPSMT-76" transform="translate(50 0)"/>
      <use xlink:href="#TimesNewRomanPSMT-20" transform="translate(100 0)"/>
      <use xlink:href="#TimesNewRomanPSMT-28" transform="translate(125 0)"/>
      <use xlink:href="#TimesNewRomanPSMT-6b" transform="translate(158.300781 0)"/>
      <use xlink:href="#TimesNewRomanPSMT-57" transform="translate(208.300781 0)"/>
      <use xlink:href="#TimesNewRomanPSMT-29" transform="translate(302.685547 0)"/>
     </g>
    </g>
   </g>
   <g id="matplotlib.axis_4">
    <g id="ytick_9">
     <g id="line2d_21">
      <path d="M 460.841875 259.9875 
L 845.501875 259.9875 
" clip-path="url(#p46445d781d)" style="fill: none; stroke: #d5d9df; stroke-width: 0.6; stroke-linecap: round"/>
     </g>
     <g id="text_24">
      <!-- 0 -->
      <g style="fill: #262626" transform="translate(451.841875 263.806562) scale(0.11 -0.11)">
       <use xlink:href="#TimesNewRomanPSMT-30"/>
      </g>
     </g>
    </g>
    <g id="ytick_10">
     <g id="line2d_22">
      <path d="M 460.841875 233.684911 
L 845.501875 233.684911 
" clip-path="url(#p46445d781d)" style="fill: none; stroke: #d5d9df; stroke-width: 0.6; stroke-linecap: round"/>
     </g>
     <g id="text_25">
      <!-- 1 -->
      <g style="fill: #262626" transform="translate(451.841875 237.503973) scale(0.11 -0.11)">
       <use xlink:href="#TimesNewRomanPSMT-31"/>
      </g>
     </g>
    </g>
    <g id="ytick_11">
     <g id="line2d_23">
      <path d="M 460.841875 207.382321 
L 845.501875 207.382321 
" clip-path="url(#p46445d781d)" style="fill: none; stroke: #d5d9df; stroke-width: 0.6; stroke-linecap: round"/>
     </g>
     <g id="text_26">
      <!-- 2 -->
      <g style="fill: #262626" transform="translate(451.841875 211.201384) scale(0.11 -0.11)">
       <use xlink:href="#TimesNewRomanPSMT-32"/>
      </g>
     </g>
    </g>
    <g id="ytick_12">
     <g id="line2d_24">
      <path d="M 460.841875 181.079732 
L 845.501875 181.079732 
" clip-path="url(#p46445d781d)" style="fill: none; stroke: #d5d9df; stroke-width: 0.6; stroke-linecap: round"/>
     </g>
     <g id="text_27">
      <!-- 3 -->
      <g style="fill: #262626" transform="translate(451.841875 184.898794) scale(0.11 -0.11)">
       <use xlink:href="#TimesNewRomanPSMT-33"/>
      </g>
     </g>
    </g>
    <g id="ytick_13">
     <g id="line2d_25">
      <path d="M 460.841875 154.777142 
L 845.501875 154.777142 
" clip-path="url(#p46445d781d)" style="fill: none; stroke: #d5d9df; stroke-width: 0.6; stroke-linecap: round"/>
     </g>
     <g id="text_28">
      <!-- 4 -->
      <g style="fill: #262626" transform="translate(451.841875 158.596205) scale(0.11 -0.11)">
       <use xlink:href="#TimesNewRomanPSMT-34"/>
      </g>
     </g>
    </g>
    <g id="ytick_14">
     <g id="line2d_26">
      <path d="M 460.841875 128.474553 
L 845.501875 128.474553 
" clip-path="url(#p46445d781d)" style="fill: none; stroke: #d5d9df; stroke-width: 0.6; stroke-linecap: round"/>
     </g>
     <g id="text_29">
      <!-- 5 -->
      <g style="fill: #262626" transform="translate(451.841875 132.293615) scale(0.11 -0.11)">
       <use xlink:href="#TimesNewRomanPSMT-35"/>
      </g>
     </g>
    </g>
    <g id="ytick_15">
     <g id="line2d_27">
      <path d="M 460.841875 102.171964 
L 845.501875 102.171964 
" clip-path="url(#p46445d781d)" style="fill: none; stroke: #d5d9df; stroke-width: 0.6; stroke-linecap: round"/>
     </g>
     <g id="text_30">
      <!-- 6 -->
      <g style="fill: #262626" transform="translate(451.841875 105.991026) scale(0.11 -0.11)">
       <defs>
        <path id="TimesNewRomanPSMT-36" d="M 2869 4325 
L 2869 4209 
Q 2456 4169 2195 4045 
Q 1934 3922 1679 3669 
Q 1425 3416 1258 3105 
Q 1091 2794 978 2366 
Q 1428 2675 1881 2675 
Q 2316 2675 2634 2325 
Q 2953 1975 2953 1425 
Q 2953 894 2631 456 
Q 2244 -75 1606 -75 
Q 1172 -75 869 213 
Q 275 772 275 1663 
Q 275 2231 503 2743 
Q 731 3256 1154 3653 
Q 1578 4050 1965 4187 
Q 2353 4325 2688 4325 
L 2869 4325 
z
M 925 2138 
Q 869 1716 869 1456 
Q 869 1156 980 804 
Q 1091 453 1309 247 
Q 1469 100 1697 100 
Q 1969 100 2183 356 
Q 2397 613 2397 1088 
Q 2397 1622 2184 2012 
Q 1972 2403 1581 2403 
Q 1463 2403 1327 2353 
Q 1191 2303 925 2138 
z
" transform="scale(0.015625)"/>
       </defs>
       <use xlink:href="#TimesNewRomanPSMT-36"/>
      </g>
     </g>
    </g>
    <g id="ytick_16">
     <g id="line2d_28">
      <path d="M 460.841875 75.869374 
L 845.501875 75.869374 
" clip-path="url(#p46445d781d)" style="fill: none; stroke: #d5d9df; stroke-width: 0.6; stroke-linecap: round"/>
     </g>
     <g id="text_31">
      <!-- 7 -->
      <g style="fill: #262626" transform="translate(451.841875 79.688437) scale(0.11 -0.11)">
       <defs>
        <path id="TimesNewRomanPSMT-37" d="M 644 4238 
L 2916 4238 
L 2916 4119 
L 1503 -88 
L 1153 -88 
L 2419 3728 
L 1253 3728 
Q 900 3728 750 3644 
Q 488 3500 328 3200 
L 238 3234 
L 644 4238 
z
" transform="scale(0.015625)"/>
       </defs>
       <use xlink:href="#TimesNewRomanPSMT-37"/>
      </g>
     </g>
    </g>
    <g id="text_32">
     <!-- Density -->
     <g style="fill: #262626" transform="translate(445.2525 182.232187) rotate(-90) scale(0.12 -0.12)">
      <use xlink:href="#TimesNewRomanPSMT-44"/>
      <use xlink:href="#TimesNewRomanPSMT-65" transform="translate(72.216797 0)"/>
      <use xlink:href="#TimesNewRomanPSMT-6e" transform="translate(116.601562 0)"/>
      <use xlink:href="#TimesNewRomanPSMT-73" transform="translate(166.601562 0)"/>
      <use xlink:href="#TimesNewRomanPSMT-69" transform="translate(205.517578 0)"/>
      <use xlink:href="#TimesNewRomanPSMT-74" transform="translate(233.300781 0)"/>
      <use xlink:href="#TimesNewRomanPSMT-79" transform="translate(261.083984 0)"/>
     </g>
    </g>
   </g>
   <g id="patch_68">
    <path d="M 510.39658 259.9875 
L 515.155756 259.9875 
L 515.155756 76.328571 
L 510.39658 76.328571 
z
" clip-path="url(#p46445d781d)" style="fill: #ed7d31; fill-opacity: 0.65; stroke: #ffffff; stroke-width: 0.461157; stroke-linejoin: miter"/>
   </g>
   <g id="patch_69">
    <path d="M 515.155756 259.9875 
L 519.914933 259.9875 
L 519.914933 250.13592 
L 515.155756 250.13592 
z
" clip-path="url(#p46445d781d)" style="fill: #ed7d31; fill-opacity: 0.65; stroke: #ffffff; stroke-width: 0.461157; stroke-linejoin: miter"/>
   </g>
   <g id="patch_70">
    <path d="M 519.914933 259.9875 
L 524.674109 259.9875 
L 524.674109 250.62288 
L 519.914933 250.62288 
z
" clip-path="url(#p46445d781d)" style="fill: #ed7d31; fill-opacity: 0.65; stroke: #ffffff; stroke-width: 0.461157; stroke-linejoin: miter"/>
   </g>
   <g id="patch_71">
    <path d="M 524.674109 259.9875 
L 529.433286 259.9875 
L 529.433286 252.34597 
L 524.674109 252.34597 
z
" clip-path="url(#p46445d781d)" style="fill: #ed7d31; fill-opacity: 0.65; stroke: #ffffff; stroke-width: 0.461157; stroke-linejoin: miter"/>
   </g>
   <g id="patch_72">
    <path d="M 529.433286 259.9875 
L 534.192462 259.9875 
L 534.192462 252.533262 
L 529.433286 252.533262 
z
" clip-path="url(#p46445d781d)" style="fill: #ed7d31; fill-opacity: 0.65; stroke: #ffffff; stroke-width: 0.461157; stroke-linejoin: miter"/>
   </g>
   <g id="patch_73">
    <path d="M 534.192462 259.9875 
L 538.951639 259.9875 
L 538.951639 253.881768 
L 534.192462 253.881768 
z
" clip-path="url(#p46445d781d)" style="fill: #ed7d31; fill-opacity: 0.65; stroke: #ffffff; stroke-width: 0.461157; stroke-linejoin: miter"/>
   </g>
   <g id="patch_74">
    <path d="M 538.951639 259.9875 
L 543.710815 259.9875 
L 543.710815 254.031602 
L 538.951639 254.031602 
z
" clip-path="url(#p46445d781d)" style="fill: #ed7d31; fill-opacity: 0.65; stroke: #ffffff; stroke-width: 0.461157; stroke-linejoin: miter"/>
   </g>
   <g id="patch_75">
    <path d="M 543.710815 259.9875 
L 548.469992 259.9875 
L 548.469992 254.443645 
L 543.710815 254.443645 
z
" clip-path="url(#p46445d781d)" style="fill: #ed7d31; fill-opacity: 0.65; stroke: #ffffff; stroke-width: 0.461157; stroke-linejoin: miter"/>
   </g>
   <g id="patch_76">
    <path d="M 548.469992 259.9875 
L 553.229168 259.9875 
L 553.229168 254.481103 
L 548.469992 254.481103 
z
" clip-path="url(#p46445d781d)" style="fill: #ed7d31; fill-opacity: 0.65; stroke: #ffffff; stroke-width: 0.461157; stroke-linejoin: miter"/>
   </g>
   <g id="patch_77">
    <path d="M 553.229168 259.9875 
L 557.988345 259.9875 
L 557.988345 255.567399 
L 553.229168 255.567399 
z
" clip-path="url(#p46445d781d)" style="fill: #ed7d31; fill-opacity: 0.65; stroke: #ffffff; stroke-width: 0.461157; stroke-linejoin: miter"/>
   </g>
   <g id="patch_78">
    <path d="M 557.988345 259.9875 
L 562.747521 259.9875 
L 562.747521 256.503861 
L 557.988345 256.503861 
z
" clip-path="url(#p46445d781d)" style="fill: #ed7d31; fill-opacity: 0.65; stroke: #ffffff; stroke-width: 0.461157; stroke-linejoin: miter"/>
   </g>
   <g id="patch_79">
    <path d="M 562.747521 259.9875 
L 567.506698 259.9875 
L 567.506698 257.02828 
L 562.747521 257.02828 
z
" clip-path="url(#p46445d781d)" style="fill: #ed7d31; fill-opacity: 0.65; stroke: #ffffff; stroke-width: 0.461157; stroke-linejoin: miter"/>
   </g>
   <g id="patch_80">
    <path d="M 567.506698 259.9875 
L 572.265874 259.9875 
L 572.265874 257.440323 
L 567.506698 257.440323 
z
" clip-path="url(#p46445d781d)" style="fill: #ed7d31; fill-opacity: 0.65; stroke: #ffffff; stroke-width: 0.461157; stroke-linejoin: miter"/>
   </g>
   <g id="patch_81">
    <path d="M 572.265874 259.9875 
L 577.025051 259.9875 
L 577.025051 257.51524 
L 572.265874 257.51524 
z
" clip-path="url(#p46445d781d)" style="fill: #ed7d31; fill-opacity: 0.65; stroke: #ffffff; stroke-width: 0.461157; stroke-linejoin: miter"/>
   </g>
   <g id="patch_82">
    <path d="M 577.025051 259.9875 
L 581.784227 259.9875 
L 581.784227 257.889825 
L 577.025051 257.889825 
z
" clip-path="url(#p46445d781d)" style="fill: #ed7d31; fill-opacity: 0.65; stroke: #ffffff; stroke-width: 0.461157; stroke-linejoin: miter"/>
   </g>
   <g id="patch_83">
    <path d="M 581.784227 259.9875 
L 586.543404 259.9875 
L 586.543404 257.178114 
L 581.784227 257.178114 
z
" clip-path="url(#p46445d781d)" style="fill: #ed7d31; fill-opacity: 0.65; stroke: #ffffff; stroke-width: 0.461157; stroke-linejoin: miter"/>
   </g>
   <g id="patch_84">
    <path d="M 586.543404 259.9875 
L 591.30258 259.9875 
L 591.30258 257.440323 
L 586.543404 257.440323 
z
" clip-path="url(#p46445d781d)" style="fill: #ed7d31; fill-opacity: 0.65; stroke: #ffffff; stroke-width: 0.461157; stroke-linejoin: miter"/>
   </g>
   <g id="patch_85">
    <path d="M 591.30258 259.9875 
L 596.061757 259.9875 
L 596.061757 257.51524 
L 591.30258 257.51524 
z
" clip-path="url(#p46445d781d)" style="fill: #ed7d31; fill-opacity: 0.65; stroke: #ffffff; stroke-width: 0.461157; stroke-linejoin: miter"/>
   </g>
   <g id="patch_86">
    <path d="M 596.061757 259.9875 
L 600.820933 259.9875 
L 600.820933 257.739991 
L 596.061757 257.739991 
z
" clip-path="url(#p46445d781d)" style="fill: #ed7d31; fill-opacity: 0.65; stroke: #ffffff; stroke-width: 0.461157; stroke-linejoin: miter"/>
   </g>
   <g id="patch_87">
    <path d="M 600.820933 259.9875 
L 605.58011 259.9875 
L 605.58011 258.002201 
L 600.820933 258.002201 
z
" clip-path="url(#p46445d781d)" style="fill: #ed7d31; fill-opacity: 0.65; stroke: #ffffff; stroke-width: 0.461157; stroke-linejoin: miter"/>
   </g>
   <g id="patch_88">
    <path d="M 605.58011 259.9875 
L 610.339286 259.9875 
L 610.339286 257.290489 
L 605.58011 257.290489 
z
" clip-path="url(#p46445d781d)" style="fill: #ed7d31; fill-opacity: 0.65; stroke: #ffffff; stroke-width: 0.461157; stroke-linejoin: miter"/>
   </g>
   <g id="patch_89">
    <path d="M 610.339286 259.9875 
L 615.098463 259.9875 
L 615.098463 257.02828 
L 610.339286 257.02828 
z
" clip-path="url(#p46445d781d)" style="fill: #ed7d31; fill-opacity: 0.65; stroke: #ffffff; stroke-width: 0.461157; stroke-linejoin: miter"/>
   </g>
   <g id="patch_90">
    <path d="M 615.098463 259.9875 
L 619.857639 259.9875 
L 619.857639 257.964742 
L 615.098463 257.964742 
z
" clip-path="url(#p46445d781d)" style="fill: #ed7d31; fill-opacity: 0.65; stroke: #ffffff; stroke-width: 0.461157; stroke-linejoin: miter"/>
   </g>
   <g id="patch_91">
    <path d="M 619.857639 259.9875 
L 624.616816 259.9875 
L 624.616816 258.002201 
L 619.857639 258.002201 
z
" clip-path="url(#p46445d781d)" style="fill: #ed7d31; fill-opacity: 0.65; stroke: #ffffff; stroke-width: 0.461157; stroke-linejoin: miter"/>
   </g>
   <g id="patch_92">
    <path d="M 624.616816 259.9875 
L 629.375992 259.9875 
L 629.375992 258.189493 
L 624.616816 258.189493 
z
" clip-path="url(#p46445d781d)" style="fill: #ed7d31; fill-opacity: 0.65; stroke: #ffffff; stroke-width: 0.461157; stroke-linejoin: miter"/>
   </g>
   <g id="patch_93">
    <path d="M 629.375992 259.9875 
L 634.135169 259.9875 
L 634.135169 258.376785 
L 629.375992 258.376785 
z
" clip-path="url(#p46445d781d)" style="fill: #ed7d31; fill-opacity: 0.65; stroke: #ffffff; stroke-width: 0.461157; stroke-linejoin: miter"/>
   </g>
   <g id="patch_94">
    <path d="M 634.135169 259.9875 
L 638.894345 259.9875 
L 638.894345 257.889825 
L 634.135169 257.889825 
z
" clip-path="url(#p46445d781d)" style="fill: #ed7d31; fill-opacity: 0.65; stroke: #ffffff; stroke-width: 0.461157; stroke-linejoin: miter"/>
   </g>
   <g id="patch_95">
    <path d="M 638.894345 259.9875 
L 643.653522 259.9875 
L 643.653522 258.526619 
L 638.894345 258.526619 
z
" clip-path="url(#p46445d781d)" style="fill: #ed7d31; fill-opacity: 0.65; stroke: #ffffff; stroke-width: 0.461157; stroke-linejoin: miter"/>
   </g>
   <g id="patch_96">
    <path d="M 643.653522 259.9875 
L 648.412698 259.9875 
L 648.412698 258.189493 
L 643.653522 258.189493 
z
" clip-path="url(#p46445d781d)" style="fill: #ed7d31; fill-opacity: 0.65; stroke: #ffffff; stroke-width: 0.461157; stroke-linejoin: miter"/>
   </g>
   <g id="patch_97">
    <path d="M 648.412698 259.9875 
L 653.171875 259.9875 
L 653.171875 257.964742 
L 648.412698 257.964742 
z
" clip-path="url(#p46445d781d)" style="fill: #ed7d31; fill-opacity: 0.65; stroke: #ffffff; stroke-width: 0.461157; stroke-linejoin: miter"/>
   </g>
   <g id="patch_98">
    <path d="M 653.171875 259.9875 
L 657.931052 259.9875 
L 657.931052 258.226951 
L 653.171875 258.226951 
z
" clip-path="url(#p46445d781d)" style="fill: #ed7d31; fill-opacity: 0.65; stroke: #ffffff; stroke-width: 0.461157; stroke-linejoin: miter"/>
   </g>
   <g id="patch_99">
    <path d="M 657.931052 259.9875 
L 662.690228 259.9875 
L 662.690228 258.376785 
L 657.931052 258.376785 
z
" clip-path="url(#p46445d781d)" style="fill: #ed7d31; fill-opacity: 0.65; stroke: #ffffff; stroke-width: 0.461157; stroke-linejoin: miter"/>
   </g>
   <g id="patch_100">
    <path d="M 662.690228 259.9875 
L 667.449405 259.9875 
L 667.449405 258.077118 
L 662.690228 258.077118 
z
" clip-path="url(#p46445d781d)" style="fill: #ed7d31; fill-opacity: 0.65; stroke: #ffffff; stroke-width: 0.461157; stroke-linejoin: miter"/>
   </g>
   <g id="patch_101">
    <path d="M 667.449405 259.9875 
L 672.208581 259.9875 
L 672.208581 257.590157 
L 667.449405 257.590157 
z
" clip-path="url(#p46445d781d)" style="fill: #ed7d31; fill-opacity: 0.65; stroke: #ffffff; stroke-width: 0.461157; stroke-linejoin: miter"/>
   </g>
   <g id="patch_102">
    <path d="M 672.208581 259.9875 
L 676.967758 259.9875 
L 676.967758 258.114576 
L 672.208581 258.114576 
z
" clip-path="url(#p46445d781d)" style="fill: #ed7d31; fill-opacity: 0.65; stroke: #ffffff; stroke-width: 0.461157; stroke-linejoin: miter"/>
   </g>
   <g id="patch_103">
    <path d="M 676.967758 259.9875 
L 681.726934 259.9875 
L 681.726934 258.376785 
L 676.967758 258.376785 
z
" clip-path="url(#p46445d781d)" style="fill: #ed7d31; fill-opacity: 0.65; stroke: #ffffff; stroke-width: 0.461157; stroke-linejoin: miter"/>
   </g>
   <g id="patch_104">
    <path d="M 681.726934 259.9875 
L 686.486111 259.9875 
L 686.486111 258.414244 
L 681.726934 258.414244 
z
" clip-path="url(#p46445d781d)" style="fill: #ed7d31; fill-opacity: 0.65; stroke: #ffffff; stroke-width: 0.461157; stroke-linejoin: miter"/>
   </g>
   <g id="patch_105">
    <path d="M 686.486111 259.9875 
L 691.245287 259.9875 
L 691.245287 258.451702 
L 686.486111 258.451702 
z
" clip-path="url(#p46445d781d)" style="fill: #ed7d31; fill-opacity: 0.65; stroke: #ffffff; stroke-width: 0.461157; stroke-linejoin: miter"/>
   </g>
   <g id="patch_106">
    <path d="M 691.245287 259.9875 
L 696.004464 259.9875 
L 696.004464 258.676453 
L 691.245287 258.676453 
z
" clip-path="url(#p46445d781d)" style="fill: #ed7d31; fill-opacity: 0.65; stroke: #ffffff; stroke-width: 0.461157; stroke-linejoin: miter"/>
   </g>
   <g id="patch_107">
    <path d="M 696.004464 259.9875 
L 700.76364 259.9875 
L 700.76364 258.526619 
L 696.004464 258.526619 
z
" clip-path="url(#p46445d781d)" style="fill: #ed7d31; fill-opacity: 0.65; stroke: #ffffff; stroke-width: 0.461157; stroke-linejoin: miter"/>
   </g>
   <g id="patch_108">
    <path d="M 700.76364 259.9875 
L 705.522817 259.9875 
L 705.522817 258.676453 
L 700.76364 258.676453 
z
" clip-path="url(#p46445d781d)" style="fill: #ed7d31; fill-opacity: 0.65; stroke: #ffffff; stroke-width: 0.461157; stroke-linejoin: miter"/>
   </g>
   <g id="patch_109">
    <path d="M 705.522817 259.9875 
L 710.281993 259.9875 
L 710.281993 258.451702 
L 705.522817 258.451702 
z
" clip-path="url(#p46445d781d)" style="fill: #ed7d31; fill-opacity: 0.65; stroke: #ffffff; stroke-width: 0.461157; stroke-linejoin: miter"/>
   </g>
   <g id="patch_110">
    <path d="M 710.281993 259.9875 
L 715.04117 259.9875 
L 715.04117 258.489161 
L 710.281993 258.489161 
z
" clip-path="url(#p46445d781d)" style="fill: #ed7d31; fill-opacity: 0.65; stroke: #ffffff; stroke-width: 0.461157; stroke-linejoin: miter"/>
   </g>
   <g id="patch_111">
    <path d="M 715.04117 259.9875 
L 719.800346 259.9875 
L 719.800346 258.526619 
L 715.04117 258.526619 
z
" clip-path="url(#p46445d781d)" style="fill: #ed7d31; fill-opacity: 0.65; stroke: #ffffff; stroke-width: 0.461157; stroke-linejoin: miter"/>
   </g>
   <g id="patch_112">
    <path d="M 719.800346 259.9875 
L 724.559523 259.9875 
L 724.559523 258.26441 
L 719.800346 258.26441 
z
" clip-path="url(#p46445d781d)" style="fill: #ed7d31; fill-opacity: 0.65; stroke: #ffffff; stroke-width: 0.461157; stroke-linejoin: miter"/>
   </g>
   <g id="patch_113">
    <path d="M 724.559523 259.9875 
L 729.318699 259.9875 
L 729.318699 258.414244 
L 724.559523 258.414244 
z
" clip-path="url(#p46445d781d)" style="fill: #ed7d31; fill-opacity: 0.65; stroke: #ffffff; stroke-width: 0.461157; stroke-linejoin: miter"/>
   </g>
   <g id="patch_114">
    <path d="M 729.318699 259.9875 
L 734.077876 259.9875 
L 734.077876 258.713912 
L 729.318699 258.713912 
z
" clip-path="url(#p46445d781d)" style="fill: #ed7d31; fill-opacity: 0.65; stroke: #ffffff; stroke-width: 0.461157; stroke-linejoin: miter"/>
   </g>
   <g id="patch_115">
    <path d="M 734.077876 259.9875 
L 738.837052 259.9875 
L 738.837052 258.901204 
L 734.077876 258.901204 
z
" clip-path="url(#p46445d781d)" style="fill: #ed7d31; fill-opacity: 0.65; stroke: #ffffff; stroke-width: 0.461157; stroke-linejoin: miter"/>
   </g>
   <g id="patch_116">
    <path d="M 738.837052 259.9875 
L 743.596229 259.9875 
L 743.596229 258.863746 
L 738.837052 258.863746 
z
" clip-path="url(#p46445d781d)" style="fill: #ed7d31; fill-opacity: 0.65; stroke: #ffffff; stroke-width: 0.461157; stroke-linejoin: miter"/>
   </g>
   <g id="patch_117">
    <path d="M 743.596229 259.9875 
L 748.355405 259.9875 
L 748.355405 258.788829 
L 743.596229 258.788829 
z
" clip-path="url(#p46445d781d)" style="fill: #ed7d31; fill-opacity: 0.65; stroke: #ffffff; stroke-width: 0.461157; stroke-linejoin: miter"/>
   </g>
   <g id="patch_118">
    <path d="M 748.355405 259.9875 
L 753.114582 259.9875 
L 753.114582 258.863746 
L 748.355405 258.863746 
z
" clip-path="url(#p46445d781d)" style="fill: #ed7d31; fill-opacity: 0.65; stroke: #ffffff; stroke-width: 0.461157; stroke-linejoin: miter"/>
   </g>
   <g id="patch_119">
    <path d="M 753.114582 259.9875 
L 757.873758 259.9875 
L 757.873758 259.163413 
L 753.114582 259.163413 
z
" clip-path="url(#p46445d781d)" style="fill: #ed7d31; fill-opacity: 0.65; stroke: #ffffff; stroke-width: 0.461157; stroke-linejoin: miter"/>
   </g>
   <g id="patch_120">
    <path d="M 757.873758 259.9875 
L 762.632935 259.9875 
L 762.632935 258.938663 
L 757.873758 258.938663 
z
" clip-path="url(#p46445d781d)" style="fill: #ed7d31; fill-opacity: 0.65; stroke: #ffffff; stroke-width: 0.461157; stroke-linejoin: miter"/>
   </g>
   <g id="patch_121">
    <path d="M 762.632935 259.9875 
L 767.392111 259.9875 
L 767.392111 259.23833 
L 762.632935 259.23833 
z
" clip-path="url(#p46445d781d)" style="fill: #ed7d31; fill-opacity: 0.65; stroke: #ffffff; stroke-width: 0.461157; stroke-linejoin: miter"/>
   </g>
   <g id="patch_122">
    <path d="M 767.392111 259.9875 
L 772.151288 259.9875 
L 772.151288 259.275789 
L 767.392111 259.275789 
z
" clip-path="url(#p46445d781d)" style="fill: #ed7d31; fill-opacity: 0.65; stroke: #ffffff; stroke-width: 0.461157; stroke-linejoin: miter"/>
   </g>
   <g id="patch_123">
    <path d="M 772.151288 259.9875 
L 776.910464 259.9875 
L 776.910464 259.612915 
L 772.151288 259.612915 
z
" clip-path="url(#p46445d781d)" style="fill: #ed7d31; fill-opacity: 0.65; stroke: #ffffff; stroke-width: 0.461157; stroke-linejoin: miter"/>
   </g>
   <g id="patch_124">
    <path d="M 776.910464 259.9875 
L 781.669641 259.9875 
L 781.669641 259.537998 
L 776.910464 259.537998 
z
" clip-path="url(#p46445d781d)" style="fill: #ed7d31; fill-opacity: 0.65; stroke: #ffffff; stroke-width: 0.461157; stroke-linejoin: miter"/>
   </g>
   <g id="patch_125">
    <path d="M 781.669641 259.9875 
L 786.428817 259.9875 
L 786.428817 259.875125 
L 781.669641 259.875125 
z
" clip-path="url(#p46445d781d)" style="fill: #ed7d31; fill-opacity: 0.65; stroke: #ffffff; stroke-width: 0.461157; stroke-linejoin: miter"/>
   </g>
   <g id="patch_126">
    <path d="M 786.428817 259.9875 
L 791.187994 259.9875 
L 791.187994 259.762749 
L 786.428817 259.762749 
z
" clip-path="url(#p46445d781d)" style="fill: #ed7d31; fill-opacity: 0.65; stroke: #ffffff; stroke-width: 0.461157; stroke-linejoin: miter"/>
   </g>
   <g id="patch_127">
    <path d="M 791.187994 259.9875 
L 795.94717 259.9875 
L 795.94717 259.912583 
L 791.187994 259.912583 
z
" clip-path="url(#p46445d781d)" style="fill: #ed7d31; fill-opacity: 0.65; stroke: #ffffff; stroke-width: 0.461157; stroke-linejoin: miter"/>
   </g>
   <g id="line2d_29">
    <path d="M 478.32642 259.631998 
L 481.840902 259.081064 
L 483.598143 258.597238 
L 485.355383 257.911573 
L 487.112624 256.969663 
L 488.869865 255.716171 
L 490.627106 254.101344 
L 492.384346 252.089381 
L 494.141587 249.667862 
L 495.898828 246.856875 
L 499.413309 240.348126 
L 502.927791 233.534906 
L 504.685032 230.457493 
L 506.442272 227.854761 
L 508.199513 225.894977 
L 509.956754 224.703886 
L 511.713995 224.349533 
L 513.471235 224.834301 
L 515.228476 226.095563 
L 516.985717 228.014717 
L 518.742958 230.432913 
L 522.257439 236.047964 
L 525.771921 241.600841 
L 527.529161 244.049001 
L 529.286402 246.190452 
L 531.043643 248.004327 
L 532.800884 249.498377 
L 534.558124 250.700723 
L 536.315365 251.651594 
L 538.072606 252.396147 
L 539.829847 252.978984 
L 543.344328 253.814891 
L 548.61605 254.656428 
L 559.159495 255.982739 
L 566.188458 256.697621 
L 573.217421 257.171633 
L 580.246384 257.412554 
L 592.547069 257.549461 
L 617.14844 257.772064 
L 636.478088 258.159319 
L 654.050495 258.162065 
L 673.380144 258.15851 
L 708.524959 258.514542 
L 724.340125 258.558724 
L 759.48494 259.108464 
L 799.901478 259.927734 
L 824.502848 259.987034 
L 828.01733 259.987334 
L 828.01733 259.987334 
" clip-path="url(#p46445d781d)" style="fill: none; stroke: #333333; stroke-width: 2; stroke-linecap: round"/>
   </g>
   <g id="patch_128">
    <path d="M 460.841875 259.9875 
L 460.841875 67.145625 
" style="fill: none; stroke: #cccccc; stroke-linejoin: miter; stroke-linecap: square"/>
   </g>
   <g id="patch_129">
    <path d="M 845.501875 259.9875 
L 845.501875 67.145625 
" style="fill: none; stroke: #cccccc; stroke-linejoin: miter; stroke-linecap: square"/>
   </g>
   <g id="patch_130">
    <path d="M 460.841875 259.9875 
L 845.501875 259.9875 
" style="fill: none; stroke: #cccccc; stroke-linejoin: miter; stroke-linecap: square"/>
   </g>
   <g id="patch_131">
    <path d="M 460.841875 67.145625 
L 845.501875 67.145625 
" style="fill: none; stroke: #cccccc; stroke-linejoin: miter; stroke-linecap: square"/>
   </g>
   <g id="text_33">
    <!-- pv distribution -->
    <g style="fill: #262626" transform="translate(460.841875 61.145625) scale(0.13 -0.13)">
     <use xlink:href="#TimesNewRomanPSMT-70"/>
     <use xlink:href="#TimesNewRomanPSMT-76" transform="translate(50 0)"/>
     <use xlink:href="#TimesNewRomanPSMT-20" transform="translate(100 0)"/>
     <use xlink:href="#TimesNewRomanPSMT-64" transform="translate(125 0)"/>
     <use xlink:href="#TimesNewRomanPSMT-69" transform="translate(175 0)"/>
     <use xlink:href="#TimesNewRomanPSMT-73" transform="translate(202.783203 0)"/>
     <use xlink:href="#TimesNewRomanPSMT-74" transform="translate(241.699219 0)"/>
     <use xlink:href="#TimesNewRomanPSMT-72" transform="translate(269.482422 0)"/>
     <use xlink:href="#TimesNewRomanPSMT-69" transform="translate(302.783203 0)"/>
     <use xlink:href="#TimesNewRomanPSMT-62" transform="translate(330.566406 0)"/>
     <use xlink:href="#TimesNewRomanPSMT-75" transform="translate(380.566406 0)"/>
     <use xlink:href="#TimesNewRomanPSMT-74" transform="translate(430.566406 0)"/>
     <use xlink:href="#TimesNewRomanPSMT-69" transform="translate(458.349609 0)"/>
     <use xlink:href="#TimesNewRomanPSMT-6f" transform="translate(486.132812 0)"/>
     <use xlink:href="#TimesNewRomanPSMT-6e" transform="translate(536.132812 0)"/>
    </g>
   </g>
  </g>
  <g id="text_34">
   <!-- Demand and PV variability (Jul 2013  Jun 2014) -->
   <g style="fill: #262626" transform="translate(283.00525 17.199) scale(0.144 -0.144)">
    <defs>
     <path id="TimesNewRomanPSMT-50" d="M 1313 1984 
L 1313 750 
Q 1313 350 1400 253 
Q 1519 116 1759 116 
L 1922 116 
L 1922 0 
L 106 0 
L 106 116 
L 266 116 
Q 534 116 650 291 
Q 713 388 713 750 
L 713 3488 
Q 713 3888 628 3984 
Q 506 4122 266 4122 
L 106 4122 
L 106 4238 
L 1659 4238 
Q 2228 4238 2556 4120 
Q 2884 4003 3109 3725 
Q 3334 3447 3334 3066 
Q 3334 2547 2992 2222 
Q 2650 1897 2025 1897 
Q 1872 1897 1694 1919 
Q 1516 1941 1313 1984 
z
M 1313 2163 
Q 1478 2131 1606 2115 
Q 1734 2100 1825 2100 
Q 2150 2100 2386 2351 
Q 2622 2603 2622 3003 
Q 2622 3278 2509 3514 
Q 2397 3750 2190 3867 
Q 1984 3984 1722 3984 
Q 1563 3984 1313 3925 
L 1313 2163 
z
" transform="scale(0.015625)"/>
     <path id="TimesNewRomanPSMT-56" d="M 4544 4238 
L 4544 4122 
Q 4319 4081 4203 3978 
Q 4038 3825 3909 3509 
L 2431 -97 
L 2316 -97 
L 728 3556 
Q 606 3838 556 3900 
Q 478 3997 364 4051 
Q 250 4106 56 4122 
L 56 4238 
L 1788 4238 
L 1788 4122 
Q 1494 4094 1406 4022 
Q 1319 3950 1319 3838 
Q 1319 3681 1463 3350 
L 2541 866 
L 3541 3319 
Q 3688 3681 3688 3822 
Q 3688 3913 3597 3995 
Q 3506 4078 3291 4113 
Q 3275 4116 3238 4122 
L 3238 4238 
L 4544 4238 
z
" transform="scale(0.015625)"/>
     <path id="TimesNewRomanPSMT-6c" d="M 1184 4444 
L 1184 647 
Q 1184 378 1223 290 
Q 1263 203 1344 158 
Q 1425 113 1647 113 
L 1647 0 
L 244 0 
L 244 113 
Q 441 113 512 153 
Q 584 194 625 287 
Q 666 381 666 647 
L 666 3247 
Q 666 3731 644 3842 
Q 622 3953 573 3993 
Q 525 4034 450 4034 
Q 369 4034 244 3984 
L 191 4094 
L 1044 4444 
L 1184 4444 
z
" transform="scale(0.015625)"/>
     <path id="TimesNewRomanPSMT-4a" d="M 638 4122 
L 638 4238 
L 2453 4238 
L 2453 4122 
L 2300 4122 
Q 2041 4122 1922 3969 
Q 1847 3869 1847 3488 
L 1847 1416 
Q 1847 938 1742 641 
Q 1638 344 1381 123 
Q 1125 -97 763 -97 
Q 469 -97 300 48 
Q 131 194 131 381 
Q 131 534 209 613 
Q 313 709 450 709 
Q 550 709 629 643 
Q 709 578 831 294 
Q 903 125 1016 125 
Q 1100 125 1173 228 
Q 1247 331 1247 594 
L 1247 3488 
Q 1247 3809 1206 3913 
Q 1175 3991 1075 4047 
Q 941 4122 791 4122 
L 638 4122 
z
" transform="scale(0.015625)"/>
     <path id="TimesNewRomanPSMT-2013" d="M 3253 1416 
L -56 1416 
L -56 1644 
L 3253 1644 
L 3253 1416 
z
" transform="scale(0.015625)"/>
    </defs>
    <use xlink:href="#TimesNewRomanPSMT-44"/>
    <use xlink:href="#TimesNewRomanPSMT-65" transform="translate(72.216797 0)"/>
    <use xlink:href="#TimesNewRomanPSMT-6d" transform="translate(116.601562 0)"/>
    <use xlink:href="#TimesNewRomanPSMT-61" transform="translate(194.384766 0)"/>
    <use xlink:href="#TimesNewRomanPSMT-6e" transform="translate(238.769531 0)"/>
    <use xlink:href="#TimesNewRomanPSMT-64" transform="translate(288.769531 0)"/>
    <use xlink:href="#TimesNewRomanPSMT-20" transform="translate(338.769531 0)"/>
    <use xlink:href="#TimesNewRomanPSMT-61" transform="translate(363.769531 0)"/>
    <use xlink:href="#TimesNewRomanPSMT-6e" transform="translate(408.154297 0)"/>
    <use xlink:href="#TimesNewRomanPSMT-64" transform="translate(458.154297 0)"/>
    <use xlink:href="#TimesNewRomanPSMT-20" transform="translate(508.154297 0)"/>
    <use xlink:href="#TimesNewRomanPSMT-50" transform="translate(533.154297 0)"/>
    <use xlink:href="#TimesNewRomanPSMT-56" transform="translate(588.769531 0)"/>
    <use xlink:href="#TimesNewRomanPSMT-20" transform="translate(659.236328 0)"/>
    <use xlink:href="#TimesNewRomanPSMT-76" transform="translate(684.236328 0)"/>
    <use xlink:href="#TimesNewRomanPSMT-61" transform="translate(734.236328 0)"/>
    <use xlink:href="#TimesNewRomanPSMT-72" transform="translate(778.621094 0)"/>
    <use xlink:href="#TimesNewRomanPSMT-69" transform="translate(811.921875 0)"/>
    <use xlink:href="#TimesNewRomanPSMT-61" transform="translate(839.705078 0)"/>
    <use xlink:href="#TimesNewRomanPSMT-62" transform="translate(884.089844 0)"/>
    <use xlink:href="#TimesNewRomanPSMT-69" transform="translate(934.089844 0)"/>
    <use xlink:href="#TimesNewRomanPSMT-6c" transform="translate(961.873047 0)"/>
    <use xlink:href="#TimesNewRomanPSMT-69" transform="translate(989.65625 0)"/>
    <use xlink:href="#TimesNewRomanPSMT-74" transform="translate(1017.439453 0)"/>
    <use xlink:href="#TimesNewRomanPSMT-79" transform="translate(1045.222656 0)"/>
    <use xlink:href="#TimesNewRomanPSMT-20" transform="translate(1095.222656 0)"/>
    <use xlink:href="#TimesNewRomanPSMT-28" transform="translate(1120.222656 0)"/>
    <use xlink:href="#TimesNewRomanPSMT-4a" transform="translate(1153.523438 0)"/>
    <use xlink:href="#TimesNewRomanPSMT-75" transform="translate(1192.439453 0)"/>
    <use xlink:href="#TimesNewRomanPSMT-6c" transform="translate(1242.439453 0)"/>
    <use xlink:href="#TimesNewRomanPSMT-20" transform="translate(1270.222656 0)"/>
    <use xlink:href="#TimesNewRomanPSMT-32" transform="translate(1295.222656 0)"/>
    <use xlink:href="#TimesNewRomanPSMT-30" transform="translate(1345.222656 0)"/>
    <use xlink:href="#TimesNewRomanPSMT-31" transform="translate(1395.222656 0)"/>
    <use xlink:href="#TimesNewRomanPSMT-33" transform="translate(1445.222656 0)"/>
    <use xlink:href="#TimesNewRomanPSMT-20" transform="translate(1495.222656 0)"/>
    <use xlink:href="#TimesNewRomanPSMT-2013" transform="translate(1520.222656 0)"/>
    <use xlink:href="#TimesNewRomanPSMT-20" transform="translate(1570.222656 0)"/>
    <use xlink:href="#TimesNewRomanPSMT-4a" transform="translate(1595.222656 0)"/>
    <use xlink:href="#TimesNewRomanPSMT-75" transform="translate(1634.138672 0)"/>
    <use xlink:href="#TimesNewRomanPSMT-6e" transform="translate(1684.138672 0)"/>
    <use xlink:href="#TimesNewRomanPSMT-20" transform="translate(1734.138672 0)"/>
    <use xlink:href="#TimesNewRomanPSMT-32" transform="translate(1759.138672 0)"/>
    <use xlink:href="#TimesNewRomanPSMT-30" transform="translate(1809.138672 0)"/>
    <use xlink:href="#TimesNewRomanPSMT-31" transform="translate(1859.138672 0)"/>
    <use xlink:href="#TimesNewRomanPSMT-34" transform="translate(1909.138672 0)"/>
    <use xlink:href="#TimesNewRomanPSMT-29" transform="translate(1959.138672 0)"/>
   </g>
  </g>
 </g>
 <defs>
  <clipPath id="pe4144adc67">
   <rect x="39.371875" y="67.145625" width="384.66" height="192.841875"/>
  </clipPath>
  <clipPath id="p46445d781d">
   <rect x="460.841875" y="67.145625" width="384.66" height="192.841875"/>
  </clipPath>
 </defs>
</svg>
