<?xml version="1.0" encoding="utf-8" standalone="no"?>
<!DOCTYPE svg PUBLIC "-//W3C//DTD SVG 1.1//EN"
  "http://www.w3.org/Graphics/SVG/1.1/DTD/svg11.dtd">
<svg xmlns:xlink="http://www.w3.org/1999/xlink" width="852.491875pt" height="348.884844pt" viewBox="0 0 852.491875 348.884844" xmlns="http://www.w3.org/2000/svg" version="1.1">
 <metadata>
  <rdf:RDF xmlns:dc="http://purl.org/dc/elements/1.1/" xmlns:cc="http://creativecommons.org/ns#" xmlns:rdf="http://www.w3.org/1999/02/22-rdf-syntax-ns#">
   <cc:Work>
    <dc:type rdf:resource="http://purl.org/dc/dcmitype/StillImage"/>
    <dc:date>2025-12-06T19:39:06.479870</dc:date>
    <dc:format>image/svg+xml</dc:format>
    <dc:creator>
     <cc:Agent>
      <dc:title>Matplotlib v3.10.7, https://matplotlib.org/</dc:title>
     </cc:Agent>
    </dc:creator>
   </cc:Work>
  </rdf:RDF>
 </metadata>
 <defs>
  <style type="text/css">*{stroke-linejoin: round; stroke-linecap: butt}</style>
 </defs>
 <g id="figure_1">
  <g id="patch_1">
   <path d="M 0 348.884844 
L 852.491875 348.884844 
L 852.491875 0 
L 0 0 
z
" style="fill: #ffffff"/>
  </g>
  <g id="axes_1">
   <g id="patch_2">
    <path d="M 39.349375 313.294375 
L 845.291875 313.294375 
L 845.291875 26.226875 
L 39.349375 26.226875 
z
" style="fill: #ffffff"/>
   </g>
   <g id="matplotlib.axis_1">
    <g id="xtick_1">
     <g id="line2d_1">
      <path d="M 75.983125 313.294375 
L 75.983125 26.226875 
" clip-path="url(#p1082d5ba82)" style="fill: none; stroke: #d5d9df; stroke-width: 0.6; stroke-linecap: round"/>
     </g>
     <g id="text_1">
      <!-- 2013-07-01 -->
      <g style="fill: #262626" transform="translate(50.320469 324.4325) scale(0.11 -0.11)">
       <defs>
        <path id="TimesNewRomanPSMT-32" d="M 2934 816 
L 2638 0 
L 138 0 
L 138 116 
Q 1241 1122 1691 1759 
Q 2141 2397 2141 2925 
Q 2141 3328 1894 3587 
Q 1647 3847 1303 3847 
Q 991 3847 742 3664 
Q 494 3481 375 3128 
L 259 3128 
Q 338 3706 661 4015 
Q 984 4325 1469 4325 
Q 1984 4325 2329 3994 
Q 2675 3663 2675 3213 
Q 2675 2891 2525 2569 
Q 2294 2063 1775 1497 
Q 997 647 803 472 
L 1909 472 
Q 2247 472 2383 497 
Q 2519 522 2628 598 
Q 2738 675 2819 816 
L 2934 816 
z
" transform="scale(0.015625)"/>
        <path id="TimesNewRomanPSMT-30" d="M 231 2094 
Q 231 2819 450 3342 
Q 669 3866 1031 4122 
Q 1313 4325 1613 4325 
Q 2100 4325 2488 3828 
Q 2972 3213 2972 2159 
Q 2972 1422 2759 906 
Q 2547 391 2217 158 
Q 1888 -75 1581 -75 
Q 975 -75 572 641 
Q 231 1244 231 2094 
z
M 844 2016 
Q 844 1141 1059 588 
Q 1238 122 1591 122 
Q 1759 122 1940 273 
Q 2122 425 2216 781 
Q 2359 1319 2359 2297 
Q 2359 3022 2209 3506 
Q 2097 3866 1919 4016 
Q 1791 4119 1609 4119 
Q 1397 4119 1231 3928 
Q 1006 3669 925 3112 
Q 844 2556 844 2016 
z
" transform="scale(0.015625)"/>
        <path id="TimesNewRomanPSMT-31" d="M 750 3822 
L 1781 4325 
L 1884 4325 
L 1884 747 
Q 1884 391 1914 303 
Q 1944 216 2037 169 
Q 2131 122 2419 116 
L 2419 0 
L 825 0 
L 825 116 
Q 1125 122 1212 167 
Q 1300 213 1334 289 
Q 1369 366 1369 747 
L 1369 3034 
Q 1369 3497 1338 3628 
Q 1316 3728 1258 3775 
Q 1200 3822 1119 3822 
Q 1003 3822 797 3725 
L 750 3822 
z
" transform="scale(0.015625)"/>
        <path id="TimesNewRomanPSMT-33" d="M 325 3431 
Q 506 3859 782 4092 
Q 1059 4325 1472 4325 
Q 1981 4325 2253 3994 
Q 2459 3747 2459 3466 
Q 2459 3003 1878 2509 
Q 2269 2356 2469 2072 
Q 2669 1788 2669 1403 
Q 2669 853 2319 450 
Q 1863 -75 997 -75 
Q 569 -75 414 31 
Q 259 138 259 259 
Q 259 350 332 419 
Q 406 488 509 488 
Q 588 488 669 463 
Q 722 447 909 348 
Q 1097 250 1169 231 
Q 1284 197 1416 197 
Q 1734 197 1970 444 
Q 2206 691 2206 1028 
Q 2206 1275 2097 1509 
Q 2016 1684 1919 1775 
Q 1784 1900 1550 2001 
Q 1316 2103 1072 2103 
L 972 2103 
L 972 2197 
Q 1219 2228 1467 2375 
Q 1716 2522 1828 2728 
Q 1941 2934 1941 3181 
Q 1941 3503 1739 3701 
Q 1538 3900 1238 3900 
Q 753 3900 428 3381 
L 325 3431 
z
" transform="scale(0.015625)"/>
        <path id="TimesNewRomanPSMT-2d" d="M 259 1672 
L 1875 1672 
L 1875 1200 
L 259 1200 
L 259 1672 
z
" transform="scale(0.015625)"/>
        <path id="TimesNewRomanPSMT-37" d="M 644 4238 
L 2916 4238 
L 2916 4119 
L 1503 -88 
L 1153 -88 
L 2419 3728 
L 1253 3728 
Q 900 3728 750 3644 
Q 488 3500 328 3200 
L 238 3234 
L 644 4238 
z
" transform="scale(0.015625)"/>
       </defs>
       <use xlink:href="#TimesNewRomanPSMT-32"/>
       <use xlink:href="#TimesNewRomanPSMT-30" transform="translate(50 0)"/>
       <use xlink:href="#TimesNewRomanPSMT-31" transform="translate(100 0)"/>
       <use xlink:href="#TimesNewRomanPSMT-33" transform="translate(150 0)"/>
       <use xlink:href="#TimesNewRomanPSMT-2d" transform="translate(200 0)"/>
       <use xlink:href="#TimesNewRomanPSMT-30" transform="translate(233.300781 0)"/>
       <use xlink:href="#TimesNewRomanPSMT-37" transform="translate(283.300781 0)"/>
       <use xlink:href="#TimesNewRomanPSMT-2d" transform="translate(333.300781 0)"/>
       <use xlink:href="#TimesNewRomanPSMT-30" transform="translate(366.601562 0)"/>
       <use xlink:href="#TimesNewRomanPSMT-31" transform="translate(416.601562 0)"/>
      </g>
     </g>
    </g>
    <g id="xtick_2">
     <g id="line2d_2">
      <path d="M 180.650982 313.294375 
L 180.650982 26.226875 
" clip-path="url(#p1082d5ba82)" style="fill: none; stroke: #d5d9df; stroke-width: 0.6; stroke-linecap: round"/>
     </g>
     <g id="text_2">
      <!-- 2013-07-02 -->
      <g style="fill: #262626" transform="translate(154.988326 324.4325) scale(0.11 -0.11)">
       <use xlink:href="#TimesNewRomanPSMT-32"/>
       <use xlink:href="#TimesNewRomanPSMT-30" transform="translate(50 0)"/>
       <use xlink:href="#TimesNewRomanPSMT-31" transform="translate(100 0)"/>
       <use xlink:href="#TimesNewRomanPSMT-33" transform="translate(150 0)"/>
       <use xlink:href="#TimesNewRomanPSMT-2d" transform="translate(200 0)"/>
       <use xlink:href="#TimesNewRomanPSMT-30" transform="translate(233.300781 0)"/>
       <use xlink:href="#TimesNewRomanPSMT-37" transform="translate(283.300781 0)"/>
       <use xlink:href="#TimesNewRomanPSMT-2d" transform="translate(333.300781 0)"/>
       <use xlink:href="#TimesNewRomanPSMT-30" transform="translate(366.601562 0)"/>
       <use xlink:href="#TimesNewRomanPSMT-32" transform="translate(416.601562 0)"/>
      </g>
     </g>
    </g>
    <g id="xtick_3">
     <g id="line2d_3">
      <path d="M 285.318839 313.294375 
L 285.318839 26.226875 
" clip-path="url(#p1082d5ba82)" style="fill: none; stroke: #d5d9df; stroke-width: 0.6; stroke-linecap: round"/>
     </g>
     <g id="text_3">
      <!-- 2013-07-03 -->
      <g style="fill: #262626" transform="translate(259.656183 324.4325) scale(0.11 -0.11)">
       <use xlink:href="#TimesNewRomanPSMT-32"/>
       <use xlink:href="#TimesNewRomanPSMT-30" transform="translate(50 0)"/>
       <use xlink:href="#TimesNewRomanPSMT-31" transform="translate(100 0)"/>
       <use xlink:href="#TimesNewRomanPSMT-33" transform="translate(150 0)"/>
       <use xlink:href="#TimesNewRomanPSMT-2d" transform="translate(200 0)"/>
       <use xlink:href="#TimesNewRomanPSMT-30" transform="translate(233.300781 0)"/>
       <use xlink:href="#TimesNewRomanPSMT-37" transform="translate(283.300781 0)"/>
       <use xlink:href="#TimesNewRomanPSMT-2d" transform="translate(333.300781 0)"/>
       <use xlink:href="#TimesNewRomanPSMT-30" transform="translate(366.601562 0)"/>
       <use xlink:href="#TimesNewRomanPSMT-33" transform="translate(416.601562 0)"/>
      </g>
     </g>
    </g>
    <g id="xtick_4">
     <g id="line2d_4">
      <path d="M 389.986696 313.294375 
L 389.986696 26.226875 
" clip-path="url(#p1082d5ba82)" style="fill: none; stroke: #d5d9df; stroke-width: 0.6; stroke-linecap: round"/>
     </g>
     <g id="text_4">
      <!-- 2013-07-04 -->
      <g style="fill: #262626" transform="translate(364.32404 324.4325) scale(0.11 -0.11)">
       <defs>
        <path id="TimesNewRomanPSMT-34" d="M 2978 1563 
L 2978 1119 
L 2409 1119 
L 2409 0 
L 1894 0 
L 1894 1119 
L 100 1119 
L 100 1519 
L 2066 4325 
L 2409 4325 
L 2409 1563 
L 2978 1563 
z
M 1894 1563 
L 1894 3666 
L 406 1563 
L 1894 1563 
z
" transform="scale(0.015625)"/>
       </defs>
       <use xlink:href="#TimesNewRomanPSMT-32"/>
       <use xlink:href="#TimesNewRomanPSMT-30" transform="translate(50 0)"/>
       <use xlink:href="#TimesNewRomanPSMT-31" transform="translate(100 0)"/>
       <use xlink:href="#TimesNewRomanPSMT-33" transform="translate(150 0)"/>
       <use xlink:href="#TimesNewRomanPSMT-2d" transform="translate(200 0)"/>
       <use xlink:href="#TimesNewRomanPSMT-30" transform="translate(233.300781 0)"/>
       <use xlink:href="#TimesNewRomanPSMT-37" transform="translate(283.300781 0)"/>
       <use xlink:href="#TimesNewRomanPSMT-2d" transform="translate(333.300781 0)"/>
       <use xlink:href="#TimesNewRomanPSMT-30" transform="translate(366.601562 0)"/>
       <use xlink:href="#TimesNewRomanPSMT-34" transform="translate(416.601562 0)"/>
      </g>
     </g>
    </g>
    <g id="xtick_5">
     <g id="line2d_5">
      <path d="M 494.654554 313.294375 
L 494.654554 26.226875 
" clip-path="url(#p1082d5ba82)" style="fill: none; stroke: #d5d9df; stroke-width: 0.6; stroke-linecap: round"/>
     </g>
     <g id="text_5">
      <!-- 2013-07-05 -->
      <g style="fill: #262626" transform="translate(468.991897 324.4325) scale(0.11 -0.11)">
       <defs>
        <path id="TimesNewRomanPSMT-35" d="M 2778 4238 
L 2534 3706 
L 1259 3706 
L 981 3138 
Q 1809 3016 2294 2522 
Q 2709 2097 2709 1522 
Q 2709 1188 2573 903 
Q 2438 619 2231 419 
Q 2025 219 1772 97 
Q 1413 -75 1034 -75 
Q 653 -75 479 54 
Q 306 184 306 341 
Q 306 428 378 495 
Q 450 563 559 563 
Q 641 563 702 538 
Q 763 513 909 409 
Q 1144 247 1384 247 
Q 1750 247 2026 523 
Q 2303 800 2303 1197 
Q 2303 1581 2056 1914 
Q 1809 2247 1375 2428 
Q 1034 2569 447 2591 
L 1259 4238 
L 2778 4238 
z
" transform="scale(0.015625)"/>
       </defs>
       <use xlink:href="#TimesNewRomanPSMT-32"/>
       <use xlink:href="#TimesNewRomanPSMT-30" transform="translate(50 0)"/>
       <use xlink:href="#TimesNewRomanPSMT-31" transform="translate(100 0)"/>
       <use xlink:href="#TimesNewRomanPSMT-33" transform="translate(150 0)"/>
       <use xlink:href="#TimesNewRomanPSMT-2d" transform="translate(200 0)"/>
       <use xlink:href="#TimesNewRomanPSMT-30" transform="translate(233.300781 0)"/>
       <use xlink:href="#TimesNewRomanPSMT-37" transform="translate(283.300781 0)"/>
       <use xlink:href="#TimesNewRomanPSMT-2d" transform="translate(333.300781 0)"/>
       <use xlink:href="#TimesNewRomanPSMT-30" transform="translate(366.601562 0)"/>
       <use xlink:href="#TimesNewRomanPSMT-35" transform="translate(416.601562 0)"/>
      </g>
     </g>
    </g>
    <g id="xtick_6">
     <g id="line2d_6">
      <path d="M 599.322411 313.294375 
L 599.322411 26.226875 
" clip-path="url(#p1082d5ba82)" style="fill: none; stroke: #d5d9df; stroke-width: 0.6; stroke-linecap: round"/>
     </g>
     <g id="text_6">
      <!-- 2013-07-06 -->
      <g style="fill: #262626" transform="translate(573.659754 324.4325) scale(0.11 -0.11)">
       <defs>
        <path id="TimesNewRomanPSMT-36" d="M 2869 4325 
L 2869 4209 
Q 2456 4169 2195 4045 
Q 1934 3922 1679 3669 
Q 1425 3416 1258 3105 
Q 1091 2794 978 2366 
Q 1428 2675 1881 2675 
Q 2316 2675 2634 2325 
Q 2953 1975 2953 1425 
Q 2953 894 2631 456 
Q 2244 -75 1606 -75 
Q 1172 -75 869 213 
Q 275 772 275 1663 
Q 275 2231 503 2743 
Q 731 3256 1154 3653 
Q 1578 4050 1965 4187 
Q 2353 4325 2688 4325 
L 2869 4325 
z
M 925 2138 
Q 869 1716 869 1456 
Q 869 1156 980 804 
Q 1091 453 1309 247 
Q 1469 100 1697 100 
Q 1969 100 2183 356 
Q 2397 613 2397 1088 
Q 2397 1622 2184 2012 
Q 1972 2403 1581 2403 
Q 1463 2403 1327 2353 
Q 1191 2303 925 2138 
z
" transform="scale(0.015625)"/>
       </defs>
       <use xlink:href="#TimesNewRomanPSMT-32"/>
       <use xlink:href="#TimesNewRomanPSMT-30" transform="translate(50 0)"/>
       <use xlink:href="#TimesNewRomanPSMT-31" transform="translate(100 0)"/>
       <use xlink:href="#TimesNewRomanPSMT-33" transform="translate(150 0)"/>
       <use xlink:href="#TimesNewRomanPSMT-2d" transform="translate(200 0)"/>
       <use xlink:href="#TimesNewRomanPSMT-30" transform="translate(233.300781 0)"/>
       <use xlink:href="#TimesNewRomanPSMT-37" transform="translate(283.300781 0)"/>
       <use xlink:href="#TimesNewRomanPSMT-2d" transform="translate(333.300781 0)"/>
       <use xlink:href="#TimesNewRomanPSMT-30" transform="translate(366.601562 0)"/>
       <use xlink:href="#TimesNewRomanPSMT-36" transform="translate(416.601562 0)"/>
      </g>
     </g>
    </g>
    <g id="xtick_7">
     <g id="line2d_7">
      <path d="M 703.990268 313.294375 
L 703.990268 26.226875 
" clip-path="url(#p1082d5ba82)" style="fill: none; stroke: #d5d9df; stroke-width: 0.6; stroke-linecap: round"/>
     </g>
     <g id="text_7">
      <!-- 2013-07-07 -->
      <g style="fill: #262626" transform="translate(678.327612 324.4325) scale(0.11 -0.11)">
       <use xlink:href="#TimesNewRomanPSMT-32"/>
       <use xlink:href="#TimesNewRomanPSMT-30" transform="translate(50 0)"/>
       <use xlink:href="#TimesNewRomanPSMT-31" transform="translate(100 0)"/>
       <use xlink:href="#TimesNewRomanPSMT-33" transform="translate(150 0)"/>
       <use xlink:href="#TimesNewRomanPSMT-2d" transform="translate(200 0)"/>
       <use xlink:href="#TimesNewRomanPSMT-30" transform="translate(233.300781 0)"/>
       <use xlink:href="#TimesNewRomanPSMT-37" transform="translate(283.300781 0)"/>
       <use xlink:href="#TimesNewRomanPSMT-2d" transform="translate(333.300781 0)"/>
       <use xlink:href="#TimesNewRomanPSMT-30" transform="translate(366.601562 0)"/>
       <use xlink:href="#TimesNewRomanPSMT-37" transform="translate(416.601562 0)"/>
      </g>
     </g>
    </g>
    <g id="xtick_8">
     <g id="line2d_8">
      <path d="M 808.658125 313.294375 
L 808.658125 26.226875 
" clip-path="url(#p1082d5ba82)" style="fill: none; stroke: #d5d9df; stroke-width: 0.6; stroke-linecap: round"/>
     </g>
     <g id="text_8">
      <!-- 2013-07-08 -->
      <g style="fill: #262626" transform="translate(782.995469 324.4325) scale(0.11 -0.11)">
       <defs>
        <path id="TimesNewRomanPSMT-38" d="M 1228 2134 
Q 725 2547 579 2797 
Q 434 3047 434 3316 
Q 434 3728 753 4026 
Q 1072 4325 1600 4325 
Q 2113 4325 2425 4047 
Q 2738 3769 2738 3413 
Q 2738 3175 2569 2928 
Q 2400 2681 1866 2347 
Q 2416 1922 2594 1678 
Q 2831 1359 2831 1006 
Q 2831 559 2490 242 
Q 2150 -75 1597 -75 
Q 994 -75 656 303 
Q 388 606 388 966 
Q 388 1247 577 1523 
Q 766 1800 1228 2134 
z
M 1719 2469 
Q 2094 2806 2194 3001 
Q 2294 3197 2294 3444 
Q 2294 3772 2109 3958 
Q 1925 4144 1606 4144 
Q 1288 4144 1088 3959 
Q 888 3775 888 3528 
Q 888 3366 970 3203 
Q 1053 3041 1206 2894 
L 1719 2469 
z
M 1375 2016 
Q 1116 1797 991 1539 
Q 866 1281 866 981 
Q 866 578 1086 336 
Q 1306 94 1647 94 
Q 1984 94 2187 284 
Q 2391 475 2391 747 
Q 2391 972 2272 1150 
Q 2050 1481 1375 2016 
z
" transform="scale(0.015625)"/>
       </defs>
       <use xlink:href="#TimesNewRomanPSMT-32"/>
       <use xlink:href="#TimesNewRomanPSMT-30" transform="translate(50 0)"/>
       <use xlink:href="#TimesNewRomanPSMT-31" transform="translate(100 0)"/>
       <use xlink:href="#TimesNewRomanPSMT-33" transform="translate(150 0)"/>
       <use xlink:href="#TimesNewRomanPSMT-2d" transform="translate(200 0)"/>
       <use xlink:href="#TimesNewRomanPSMT-30" transform="translate(233.300781 0)"/>
       <use xlink:href="#TimesNewRomanPSMT-37" transform="translate(283.300781 0)"/>
       <use xlink:href="#TimesNewRomanPSMT-2d" transform="translate(333.300781 0)"/>
       <use xlink:href="#TimesNewRomanPSMT-30" transform="translate(366.601562 0)"/>
       <use xlink:href="#TimesNewRomanPSMT-38" transform="translate(416.601562 0)"/>
      </g>
     </g>
    </g>
    <g id="text_9">
     <!-- Time (h) -->
     <g style="fill: #262626" transform="translate(421.373125 339.117969) scale(0.12 -0.12)">
      <defs>
       <path id="TimesNewRomanPSMT-54" d="M 3703 4238 
L 3750 3244 
L 3631 3244 
Q 3597 3506 3538 3619 
Q 3441 3800 3280 3886 
Q 3119 3972 2856 3972 
L 2259 3972 
L 2259 734 
Q 2259 344 2344 247 
Q 2463 116 2709 116 
L 2856 116 
L 2856 0 
L 1059 0 
L 1059 116 
L 1209 116 
Q 1478 116 1591 278 
Q 1659 378 1659 734 
L 1659 3972 
L 1150 3972 
Q 853 3972 728 3928 
Q 566 3869 450 3700 
Q 334 3531 313 3244 
L 194 3244 
L 244 4238 
L 3703 4238 
z
" transform="scale(0.015625)"/>
       <path id="TimesNewRomanPSMT-69" d="M 928 4444 
Q 1059 4444 1151 4351 
Q 1244 4259 1244 4128 
Q 1244 3997 1151 3903 
Q 1059 3809 928 3809 
Q 797 3809 703 3903 
Q 609 3997 609 4128 
Q 609 4259 701 4351 
Q 794 4444 928 4444 
z
M 1188 2947 
L 1188 647 
Q 1188 378 1227 289 
Q 1266 200 1342 156 
Q 1419 113 1622 113 
L 1622 0 
L 231 0 
L 231 113 
Q 441 113 512 153 
Q 584 194 626 287 
Q 669 381 669 647 
L 669 1750 
Q 669 2216 641 2353 
Q 619 2453 572 2492 
Q 525 2531 444 2531 
Q 356 2531 231 2484 
L 188 2597 
L 1050 2947 
L 1188 2947 
z
" transform="scale(0.015625)"/>
       <path id="TimesNewRomanPSMT-6d" d="M 1050 2338 
Q 1363 2650 1419 2697 
Q 1559 2816 1721 2881 
Q 1884 2947 2044 2947 
Q 2313 2947 2506 2790 
Q 2700 2634 2766 2338 
Q 3088 2713 3309 2830 
Q 3531 2947 3766 2947 
Q 3994 2947 4170 2830 
Q 4347 2713 4450 2447 
Q 4519 2266 4519 1878 
L 4519 647 
Q 4519 378 4559 278 
Q 4591 209 4675 161 
Q 4759 113 4950 113 
L 4950 0 
L 3538 0 
L 3538 113 
L 3597 113 
Q 3781 113 3884 184 
Q 3956 234 3988 344 
Q 4000 397 4000 647 
L 4000 1878 
Q 4000 2228 3916 2372 
Q 3794 2572 3525 2572 
Q 3359 2572 3192 2489 
Q 3025 2406 2788 2181 
L 2781 2147 
L 2788 2013 
L 2788 647 
Q 2788 353 2820 281 
Q 2853 209 2943 161 
Q 3034 113 3253 113 
L 3253 0 
L 1806 0 
L 1806 113 
Q 2044 113 2133 169 
Q 2222 225 2256 338 
Q 2272 391 2272 647 
L 2272 1878 
Q 2272 2228 2169 2381 
Q 2031 2581 1784 2581 
Q 1616 2581 1450 2491 
Q 1191 2353 1050 2181 
L 1050 647 
Q 1050 366 1089 281 
Q 1128 197 1204 155 
Q 1281 113 1516 113 
L 1516 0 
L 100 0 
L 100 113 
Q 297 113 375 155 
Q 453 197 493 289 
Q 534 381 534 647 
L 534 1741 
Q 534 2213 506 2350 
Q 484 2453 437 2492 
Q 391 2531 309 2531 
Q 222 2531 100 2484 
L 53 2597 
L 916 2947 
L 1050 2947 
L 1050 2338 
z
" transform="scale(0.015625)"/>
       <path id="TimesNewRomanPSMT-65" d="M 681 1784 
Q 678 1147 991 784 
Q 1303 422 1725 422 
Q 2006 422 2214 576 
Q 2422 731 2563 1106 
L 2659 1044 
Q 2594 616 2278 264 
Q 1963 -88 1488 -88 
Q 972 -88 605 314 
Q 238 716 238 1394 
Q 238 2128 614 2539 
Q 991 2950 1559 2950 
Q 2041 2950 2350 2633 
Q 2659 2316 2659 1784 
L 681 1784 
z
M 681 1966 
L 2006 1966 
Q 1991 2241 1941 2353 
Q 1863 2528 1708 2628 
Q 1553 2728 1384 2728 
Q 1125 2728 920 2526 
Q 716 2325 681 1966 
z
" transform="scale(0.015625)"/>
       <path id="TimesNewRomanPSMT-20" transform="scale(0.015625)"/>
       <path id="TimesNewRomanPSMT-28" d="M 1988 -1253 
L 1988 -1369 
Q 1516 -1131 1200 -813 
Q 750 -359 506 256 
Q 263 872 263 1534 
Q 263 2503 741 3301 
Q 1219 4100 1988 4444 
L 1988 4313 
Q 1603 4100 1356 3731 
Q 1109 3363 987 2797 
Q 866 2231 866 1616 
Q 866 947 969 400 
Q 1050 -31 1165 -292 
Q 1281 -553 1476 -793 
Q 1672 -1034 1988 -1253 
z
" transform="scale(0.015625)"/>
       <path id="TimesNewRomanPSMT-68" d="M 1041 4444 
L 1041 2350 
Q 1388 2731 1591 2839 
Q 1794 2947 1997 2947 
Q 2241 2947 2416 2812 
Q 2591 2678 2675 2391 
Q 2734 2191 2734 1659 
L 2734 647 
Q 2734 375 2778 275 
Q 2809 200 2884 156 
Q 2959 113 3159 113 
L 3159 0 
L 1753 0 
L 1753 113 
L 1819 113 
Q 2019 113 2097 173 
Q 2175 234 2206 353 
Q 2216 403 2216 647 
L 2216 1659 
Q 2216 2128 2167 2275 
Q 2119 2422 2012 2495 
Q 1906 2569 1756 2569 
Q 1603 2569 1437 2487 
Q 1272 2406 1041 2159 
L 1041 647 
Q 1041 353 1073 281 
Q 1106 209 1195 161 
Q 1284 113 1503 113 
L 1503 0 
L 84 0 
L 84 113 
Q 275 113 384 172 
Q 447 203 484 290 
Q 522 378 522 647 
L 522 3238 
Q 522 3728 498 3840 
Q 475 3953 426 3993 
Q 378 4034 297 4034 
Q 231 4034 84 3984 
L 41 4094 
L 897 4444 
L 1041 4444 
z
" transform="scale(0.015625)"/>
       <path id="TimesNewRomanPSMT-29" d="M 144 4313 
L 144 4444 
Q 619 4209 934 3891 
Q 1381 3434 1625 2820 
Q 1869 2206 1869 1541 
Q 1869 572 1392 -226 
Q 916 -1025 144 -1369 
L 144 -1253 
Q 528 -1038 776 -670 
Q 1025 -303 1145 264 
Q 1266 831 1266 1447 
Q 1266 2113 1163 2663 
Q 1084 3094 967 3353 
Q 850 3613 656 3853 
Q 463 4094 144 4313 
z
" transform="scale(0.015625)"/>
      </defs>
      <use xlink:href="#TimesNewRomanPSMT-54"/>
      <use xlink:href="#TimesNewRomanPSMT-69" transform="translate(57.583984 0)"/>
      <use xlink:href="#TimesNewRomanPSMT-6d" transform="translate(85.367188 0)"/>
      <use xlink:href="#TimesNewRomanPSMT-65" transform="translate(163.150391 0)"/>
      <use xlink:href="#TimesNewRomanPSMT-20" transform="translate(207.535156 0)"/>
      <use xlink:href="#TimesNewRomanPSMT-28" transform="translate(232.535156 0)"/>
      <use xlink:href="#TimesNewRomanPSMT-68" transform="translate(265.835938 0)"/>
      <use xlink:href="#TimesNewRomanPSMT-29" transform="translate(315.835938 0)"/>
     </g>
    </g>
   </g>
   <g id="matplotlib.axis_2">
    <g id="ytick_1">
     <g id="line2d_9">
      <path d="M 39.349375 300.245852 
L 845.291875 300.245852 
" clip-path="url(#p1082d5ba82)" style="fill: none; stroke: #d5d9df; stroke-width: 0.6; stroke-linecap: round"/>
     </g>
     <g id="text_10">
      <!-- 0.0 -->
      <g style="fill: #262626" transform="translate(22.099375 304.064915) scale(0.11 -0.11)">
       <defs>
        <path id="TimesNewRomanPSMT-2e" d="M 800 606 
Q 947 606 1047 504 
Q 1147 403 1147 259 
Q 1147 116 1045 14 
Q 944 -88 800 -88 
Q 656 -88 554 14 
Q 453 116 453 259 
Q 453 406 554 506 
Q 656 606 800 606 
z
" transform="scale(0.015625)"/>
       </defs>
       <use xlink:href="#TimesNewRomanPSMT-30"/>
       <use xlink:href="#TimesNewRomanPSMT-2e" transform="translate(50 0)"/>
       <use xlink:href="#TimesNewRomanPSMT-30" transform="translate(75 0)"/>
      </g>
     </g>
    </g>
    <g id="ytick_2">
     <g id="line2d_10">
      <path d="M 39.349375 248.051761 
L 845.291875 248.051761 
" clip-path="url(#p1082d5ba82)" style="fill: none; stroke: #d5d9df; stroke-width: 0.6; stroke-linecap: round"/>
     </g>
     <g id="text_11">
      <!-- 0.2 -->
      <g style="fill: #262626" transform="translate(22.099375 251.870824) scale(0.11 -0.11)">
       <use xlink:href="#TimesNewRomanPSMT-30"/>
       <use xlink:href="#TimesNewRomanPSMT-2e" transform="translate(50 0)"/>
       <use xlink:href="#TimesNewRomanPSMT-32" transform="translate(75 0)"/>
      </g>
     </g>
    </g>
    <g id="ytick_3">
     <g id="line2d_11">
      <path d="M 39.349375 195.85767 
L 845.291875 195.85767 
" clip-path="url(#p1082d5ba82)" style="fill: none; stroke: #d5d9df; stroke-width: 0.6; stroke-linecap: round"/>
     </g>
     <g id="text_12">
      <!-- 0.4 -->
      <g style="fill: #262626" transform="translate(22.099375 199.676733) scale(0.11 -0.11)">
       <use xlink:href="#TimesNewRomanPSMT-30"/>
       <use xlink:href="#TimesNewRomanPSMT-2e" transform="translate(50 0)"/>
       <use xlink:href="#TimesNewRomanPSMT-34" transform="translate(75 0)"/>
      </g>
     </g>
    </g>
    <g id="ytick_4">
     <g id="line2d_12">
      <path d="M 39.349375 143.66358 
L 845.291875 143.66358 
" clip-path="url(#p1082d5ba82)" style="fill: none; stroke: #d5d9df; stroke-width: 0.6; stroke-linecap: round"/>
     </g>
     <g id="text_13">
      <!-- 0.6 -->
      <g style="fill: #262626" transform="translate(22.099375 147.482642) scale(0.11 -0.11)">
       <use xlink:href="#TimesNewRomanPSMT-30"/>
       <use xlink:href="#TimesNewRomanPSMT-2e" transform="translate(50 0)"/>
       <use xlink:href="#TimesNewRomanPSMT-36" transform="translate(75 0)"/>
      </g>
     </g>
    </g>
    <g id="ytick_5">
     <g id="line2d_13">
      <path d="M 39.349375 91.469489 
L 845.291875 91.469489 
" clip-path="url(#p1082d5ba82)" style="fill: none; stroke: #d5d9df; stroke-width: 0.6; stroke-linecap: round"/>
     </g>
     <g id="text_14">
      <!-- 0.8 -->
      <g style="fill: #262626" transform="translate(22.099375 95.288551) scale(0.11 -0.11)">
       <use xlink:href="#TimesNewRomanPSMT-30"/>
       <use xlink:href="#TimesNewRomanPSMT-2e" transform="translate(50 0)"/>
       <use xlink:href="#TimesNewRomanPSMT-38" transform="translate(75 0)"/>
      </g>
     </g>
    </g>
    <g id="ytick_6">
     <g id="line2d_14">
      <path d="M 39.349375 39.275398 
L 845.291875 39.275398 
" clip-path="url(#p1082d5ba82)" style="fill: none; stroke: #d5d9df; stroke-width: 0.6; stroke-linecap: round"/>
     </g>
     <g id="text_15">
      <!-- 1.0 -->
      <g style="fill: #262626" transform="translate(22.099375 43.09446) scale(0.11 -0.11)">
       <use xlink:href="#TimesNewRomanPSMT-31"/>
       <use xlink:href="#TimesNewRomanPSMT-2e" transform="translate(50 0)"/>
       <use xlink:href="#TimesNewRomanPSMT-30" transform="translate(75 0)"/>
      </g>
     </g>
    </g>
    <g id="text_16">
     <!-- Scaled Value (0–1) -->
     <g style="fill: #262626" transform="translate(15.5325 215.304375) rotate(-90) scale(0.12 -0.12)">
      <defs>
       <path id="TimesNewRomanPSMT-53" d="M 2934 4334 
L 2934 2869 
L 2819 2869 
Q 2763 3291 2617 3541 
Q 2472 3791 2203 3937 
Q 1934 4084 1647 4084 
Q 1322 4084 1109 3886 
Q 897 3688 897 3434 
Q 897 3241 1031 3081 
Q 1225 2847 1953 2456 
Q 2547 2138 2764 1967 
Q 2981 1797 3098 1565 
Q 3216 1334 3216 1081 
Q 3216 600 2842 251 
Q 2469 -97 1881 -97 
Q 1697 -97 1534 -69 
Q 1438 -53 1133 45 
Q 828 144 747 144 
Q 669 144 623 97 
Q 578 50 556 -97 
L 441 -97 
L 441 1356 
L 556 1356 
Q 638 900 775 673 
Q 913 447 1195 297 
Q 1478 147 1816 147 
Q 2206 147 2432 353 
Q 2659 559 2659 841 
Q 2659 997 2573 1156 
Q 2488 1316 2306 1453 
Q 2184 1547 1640 1851 
Q 1097 2156 867 2337 
Q 638 2519 519 2737 
Q 400 2956 400 3219 
Q 400 3675 750 4004 
Q 1100 4334 1641 4334 
Q 1978 4334 2356 4169 
Q 2531 4091 2603 4091 
Q 2684 4091 2736 4139 
Q 2788 4188 2819 4334 
L 2934 4334 
z
" transform="scale(0.015625)"/>
       <path id="TimesNewRomanPSMT-63" d="M 2631 1088 
Q 2516 522 2178 217 
Q 1841 -88 1431 -88 
Q 944 -88 581 321 
Q 219 731 219 1428 
Q 219 2103 620 2525 
Q 1022 2947 1584 2947 
Q 2006 2947 2278 2723 
Q 2550 2500 2550 2259 
Q 2550 2141 2473 2067 
Q 2397 1994 2259 1994 
Q 2075 1994 1981 2113 
Q 1928 2178 1911 2362 
Q 1894 2547 1784 2644 
Q 1675 2738 1481 2738 
Q 1169 2738 978 2506 
Q 725 2200 725 1697 
Q 725 1184 976 792 
Q 1228 400 1656 400 
Q 1963 400 2206 609 
Q 2378 753 2541 1131 
L 2631 1088 
z
" transform="scale(0.015625)"/>
       <path id="TimesNewRomanPSMT-61" d="M 1822 413 
Q 1381 72 1269 19 
Q 1100 -59 909 -59 
Q 613 -59 420 144 
Q 228 347 228 678 
Q 228 888 322 1041 
Q 450 1253 767 1440 
Q 1084 1628 1822 1897 
L 1822 2009 
Q 1822 2438 1686 2597 
Q 1550 2756 1291 2756 
Q 1094 2756 978 2650 
Q 859 2544 859 2406 
L 866 2225 
Q 866 2081 792 2003 
Q 719 1925 600 1925 
Q 484 1925 411 2006 
Q 338 2088 338 2228 
Q 338 2497 613 2722 
Q 888 2947 1384 2947 
Q 1766 2947 2009 2819 
Q 2194 2722 2281 2516 
Q 2338 2381 2338 1966 
L 2338 994 
Q 2338 584 2353 492 
Q 2369 400 2405 369 
Q 2441 338 2488 338 
Q 2538 338 2575 359 
Q 2641 400 2828 588 
L 2828 413 
Q 2478 -56 2159 -56 
Q 2006 -56 1915 50 
Q 1825 156 1822 413 
z
M 1822 616 
L 1822 1706 
Q 1350 1519 1213 1441 
Q 966 1303 859 1153 
Q 753 1003 753 825 
Q 753 600 887 451 
Q 1022 303 1197 303 
Q 1434 303 1822 616 
z
" transform="scale(0.015625)"/>
       <path id="TimesNewRomanPSMT-6c" d="M 1184 4444 
L 1184 647 
Q 1184 378 1223 290 
Q 1263 203 1344 158 
Q 1425 113 1647 113 
L 1647 0 
L 244 0 
L 244 113 
Q 441 113 512 153 
Q 584 194 625 287 
Q 666 381 666 647 
L 666 3247 
Q 666 3731 644 3842 
Q 622 3953 573 3993 
Q 525 4034 450 4034 
Q 369 4034 244 3984 
L 191 4094 
L 1044 4444 
L 1184 4444 
z
" transform="scale(0.015625)"/>
       <path id="TimesNewRomanPSMT-64" d="M 2222 322 
Q 2013 103 1813 7 
Q 1613 -88 1381 -88 
Q 913 -88 563 304 
Q 213 697 213 1313 
Q 213 1928 600 2439 
Q 988 2950 1597 2950 
Q 1975 2950 2222 2709 
L 2222 3238 
Q 2222 3728 2198 3840 
Q 2175 3953 2125 3993 
Q 2075 4034 2000 4034 
Q 1919 4034 1784 3984 
L 1744 4094 
L 2597 4444 
L 2738 4444 
L 2738 1134 
Q 2738 631 2761 520 
Q 2784 409 2836 365 
Q 2888 322 2956 322 
Q 3041 322 3181 375 
L 3216 266 
L 2366 -88 
L 2222 -88 
L 2222 322 
z
M 2222 541 
L 2222 2016 
Q 2203 2228 2109 2403 
Q 2016 2578 1861 2667 
Q 1706 2756 1559 2756 
Q 1284 2756 1069 2509 
Q 784 2184 784 1559 
Q 784 928 1059 592 
Q 1334 256 1672 256 
Q 1956 256 2222 541 
z
" transform="scale(0.015625)"/>
       <path id="TimesNewRomanPSMT-56" d="M 4544 4238 
L 4544 4122 
Q 4319 4081 4203 3978 
Q 4038 3825 3909 3509 
L 2431 -97 
L 2316 -97 
L 728 3556 
Q 606 3838 556 3900 
Q 478 3997 364 4051 
Q 250 4106 56 4122 
L 56 4238 
L 1788 4238 
L 1788 4122 
Q 1494 4094 1406 4022 
Q 1319 3950 1319 3838 
Q 1319 3681 1463 3350 
L 2541 866 
L 3541 3319 
Q 3688 3681 3688 3822 
Q 3688 3913 3597 3995 
Q 3506 4078 3291 4113 
Q 3275 4116 3238 4122 
L 3238 4238 
L 4544 4238 
z
" transform="scale(0.015625)"/>
       <path id="TimesNewRomanPSMT-75" d="M 2709 2863 
L 2709 1128 
Q 2709 631 2732 520 
Q 2756 409 2807 365 
Q 2859 322 2928 322 
Q 3025 322 3147 375 
L 3191 266 
L 2334 -88 
L 2194 -88 
L 2194 519 
Q 1825 119 1631 15 
Q 1438 -88 1222 -88 
Q 981 -88 804 51 
Q 628 191 559 409 
Q 491 628 491 1028 
L 491 2306 
Q 491 2509 447 2587 
Q 403 2666 317 2708 
Q 231 2750 6 2747 
L 6 2863 
L 1009 2863 
L 1009 947 
Q 1009 547 1148 422 
Q 1288 297 1484 297 
Q 1619 297 1789 381 
Q 1959 466 2194 703 
L 2194 2325 
Q 2194 2569 2105 2655 
Q 2016 2741 1734 2747 
L 1734 2863 
L 2709 2863 
z
" transform="scale(0.015625)"/>
       <path id="TimesNewRomanPSMT-2013" d="M 3253 1416 
L -56 1416 
L -56 1644 
L 3253 1644 
L 3253 1416 
z
" transform="scale(0.015625)"/>
      </defs>
      <use xlink:href="#TimesNewRomanPSMT-53"/>
      <use xlink:href="#TimesNewRomanPSMT-63" transform="translate(55.615234 0)"/>
      <use xlink:href="#TimesNewRomanPSMT-61" transform="translate(100 0)"/>
      <use xlink:href="#TimesNewRomanPSMT-6c" transform="translate(144.384766 0)"/>
      <use xlink:href="#TimesNewRomanPSMT-65" transform="translate(172.167969 0)"/>
      <use xlink:href="#TimesNewRomanPSMT-64" transform="translate(216.552734 0)"/>
      <use xlink:href="#TimesNewRomanPSMT-20" transform="translate(266.552734 0)"/>
      <use xlink:href="#TimesNewRomanPSMT-56" transform="translate(289.802734 0)"/>
      <use xlink:href="#TimesNewRomanPSMT-61" transform="translate(350.894531 0)"/>
      <use xlink:href="#TimesNewRomanPSMT-6c" transform="translate(395.279297 0)"/>
      <use xlink:href="#TimesNewRomanPSMT-75" transform="translate(423.0625 0)"/>
      <use xlink:href="#TimesNewRomanPSMT-65" transform="translate(473.0625 0)"/>
      <use xlink:href="#TimesNewRomanPSMT-20" transform="translate(517.447266 0)"/>
      <use xlink:href="#TimesNewRomanPSMT-28" transform="translate(542.447266 0)"/>
      <use xlink:href="#TimesNewRomanPSMT-30" transform="translate(575.748047 0)"/>
      <use xlink:href="#TimesNewRomanPSMT-2013" transform="translate(625.748047 0)"/>
      <use xlink:href="#TimesNewRomanPSMT-31" transform="translate(675.748047 0)"/>
      <use xlink:href="#TimesNewRomanPSMT-29" transform="translate(725.748047 0)"/>
     </g>
    </g>
   </g>
   <g id="line2d_15">
    <path d="M 75.983125 300.245852 
L 93.427768 300.245852 
L 97.788929 291.689444 
L 102.150089 262.964359 
L 106.51125 225.682865 
L 110.872411 190.234888 
L 115.233571 162.732147 
L 119.594732 136.45175 
L 123.955893 82.668611 
L 128.317054 132.784718 
L 132.678214 196.346608 
L 137.039375 228.738725 
L 141.400536 159.676287 
L 150.122857 246.462714 
L 154.484018 275.798971 
L 158.845179 292.300616 
L 163.206339 300.245852 
L 198.095625 300.245852 
L 202.456786 295.967648 
L 206.817946 262.964359 
L 211.179107 223.238177 
L 215.540268 266.020219 
L 219.901429 269.076079 
L 228.62375 265.409047 
L 232.984911 269.076079 
L 237.346071 273.354283 
L 241.707232 258.074983 
L 246.068393 256.852639 
L 250.429554 253.796778 
L 254.790714 286.800068 
L 259.151875 295.356476 
L 263.513036 291.689444 
L 267.874196 300.245852 
L 302.763482 300.245852 
L 307.124643 289.244756 
L 311.485804 273.965455 
L 315.846964 254.40795 
L 320.208125 267.242563 
L 324.569286 260.519671 
L 328.930446 266.020219 
L 333.291607 273.354283 
L 337.652768 255.019122 
L 342.013929 253.185606 
L 346.375089 228.738725 
L 350.73625 260.519671 
L 355.097411 255.019122 
L 359.458571 264.797875 
L 368.180893 296.57882 
L 372.542054 300.245852 
L 407.431339 300.245852 
L 411.7925 293.52296 
L 416.153661 275.798971 
L 420.514821 247.685058 
L 424.875982 241.573338 
L 429.237143 207.347705 
L 433.598304 203.680672 
L 437.959464 108.337837 
L 442.320625 224.460521 
L 446.681786 211.625909 
L 451.042946 270.909595 
L 455.404107 129.117685 
L 459.765268 192.679576 
L 464.126429 245.24037 
L 468.487589 277.021315 
L 472.84875 293.52296 
L 477.209911 300.245852 
L 512.099196 300.245852 
L 516.460357 289.244756 
L 520.821518 264.797875 
L 525.182679 222.015833 
L 529.543839 145.61933 
L 533.905 94.892052 
L 538.266161 64.944623 
L 542.627321 67.389311 
L 546.988482 61.277591 
L 551.349643 63.722279 
L 555.710804 115.060729 
L 560.071964 126.672997 
L 564.433125 183.511996 
L 568.794286 247.685058 
L 573.155446 277.021315 
L 577.516607 292.300616 
L 581.877768 300.245852 
L 616.767054 300.245852 
L 621.128214 290.4671 
L 625.489375 264.797875 
L 634.211696 141.341126 
L 638.572857 96.114396 
L 642.934018 63.722279 
L 647.295179 50.887666 
L 651.656339 43.553602 
L 656.0175 56.388214 
L 660.378661 86.946816 
L 664.739821 126.672997 
L 669.100982 184.73434 
L 673.462143 248.29623 
L 677.823304 282.521864 
L 682.184464 292.300616 
L 686.545625 300.245852 
L 721.434911 300.245852 
L 725.796071 290.4671 
L 730.157232 266.020219 
L 738.879554 141.952298 
L 743.240714 94.892052 
L 747.601875 61.888763 
L 751.963036 39.275398 
L 756.324196 39.88657 
L 760.685357 52.11001 
L 765.046518 84.502128 
L 769.407679 125.450653 
L 773.768839 183.511996 
L 778.13 248.907402 
L 782.491161 284.35538 
L 791.213482 300.245852 
L 808.658125 300.245852 
L 808.658125 300.245852 
" clip-path="url(#p1082d5ba82)" style="fill: none; stroke: #ed7d31; stroke-width: 2; stroke-linecap: round"/>
   </g>
   <g id="line2d_16">
    <path d="M 75.983125 253.889258 
L 80.344286 260.756902 
L 84.705446 255.606169 
L 89.066607 252.172347 
L 93.427768 250.455437 
L 97.788929 262.473813 
L 102.150089 222.984862 
L 106.51125 228.135595 
L 110.872411 257.32308 
L 115.233571 248.738526 
L 119.594732 224.701773 
L 123.955893 150.874605 
L 128.317054 97.650368 
L 132.678214 198.94811 
L 137.039375 240.153971 
L 141.400536 221.267952 
L 145.761696 228.135595 
L 150.122857 166.326803 
L 154.484018 180.06209 
L 158.845179 188.646645 
L 163.206339 171.477536 
L 167.5675 145.723873 
L 171.928661 161.176071 
L 176.289821 135.422407 
L 180.650982 255.606169 
L 185.012143 262.473813 
L 189.373304 257.32308 
L 193.734464 260.756902 
L 198.095625 257.32308 
L 202.456786 257.32308 
L 206.817946 217.83413 
L 211.179107 202.381932 
L 215.540268 236.72015 
L 219.901429 241.870882 
L 224.262589 219.551041 
L 228.62375 252.172347 
L 232.984911 186.929734 
L 237.346071 250.455437 
L 241.707232 255.606169 
L 246.068393 200.665021 
L 250.429554 219.551041 
L 254.790714 198.94811 
L 259.151875 166.326803 
L 263.513036 159.45916 
L 267.874196 150.874605 
L 272.235357 192.080467 
L 276.596518 240.153971 
L 280.957679 252.172347 
L 285.318839 243.587793 
L 289.68 252.172347 
L 294.041161 259.039991 
L 298.402321 252.172347 
L 302.763482 260.756902 
L 307.124643 250.455437 
L 311.485804 150.874605 
L 315.846964 224.701773 
L 320.208125 216.117219 
L 324.569286 198.94811 
L 328.930446 226.418684 
L 333.291607 235.003239 
L 337.652768 233.286328 
L 342.013929 233.286328 
L 346.375089 204.098843 
L 350.73625 162.892981 
L 355.097411 219.551041 
L 359.458571 188.646645 
L 363.819732 180.06209 
L 368.180893 133.705496 
L 372.542054 188.646645 
L 376.903214 204.098843 
L 381.264375 137.139318 
L 385.625536 104.518011 
L 389.986696 259.039991 
L 394.347857 253.889258 
L 398.709018 260.756902 
L 403.070179 255.606169 
L 407.431339 259.039991 
L 411.7925 240.153971 
L 416.153661 39.275398 
L 420.514821 99.367279 
L 424.875982 70.179794 
L 429.237143 197.231199 
L 433.598304 252.172347 
L 437.959464 245.304704 
L 442.320625 221.267952 
L 446.681786 245.304704 
L 451.042946 235.003239 
L 455.404107 236.72015 
L 459.765268 197.231199 
L 464.126429 190.363556 
L 468.487589 198.94811 
L 472.84875 180.06209 
L 477.209911 202.381932 
L 481.571071 240.153971 
L 485.932232 255.606169 
L 490.293393 221.267952 
L 494.654554 255.606169 
L 499.015714 255.606169 
L 503.376875 253.889258 
L 507.738036 257.32308 
L 512.099196 253.889258 
L 516.460357 257.32308 
L 520.821518 252.172347 
L 525.182679 209.249575 
L 529.543839 231.569417 
L 533.905 248.738526 
L 538.266161 236.72015 
L 546.988482 247.021615 
L 551.349643 245.304704 
L 555.710804 248.738526 
L 560.071964 195.514288 
L 564.433125 221.267952 
L 568.794286 195.514288 
L 573.155446 145.723873 
L 577.516607 162.892981 
L 581.877768 162.892981 
L 586.238929 180.06209 
L 590.600089 104.518011 
L 594.96125 128.554764 
L 603.683571 248.738526 
L 608.044732 247.021615 
L 612.405893 259.039991 
L 616.767054 253.889258 
L 621.128214 257.32308 
L 625.489375 253.889258 
L 629.850536 255.606169 
L 634.211696 174.911358 
L 638.572857 99.367279 
L 642.934018 186.929734 
L 647.295179 229.852506 
L 651.656339 233.286328 
L 656.0175 138.856229 
L 660.378661 97.650368 
L 664.739821 235.003239 
L 669.100982 236.72015 
L 673.462143 255.606169 
L 677.823304 241.870882 
L 682.184464 195.514288 
L 686.545625 205.815754 
L 690.906786 250.455437 
L 695.267946 252.172347 
L 699.629107 257.32308 
L 703.990268 253.889258 
L 708.351429 255.606169 
L 712.712589 252.172347 
L 717.07375 259.039991 
L 721.434911 255.606169 
L 725.796071 253.889258 
L 730.157232 245.304704 
L 734.518393 212.683397 
L 738.879554 228.135595 
L 743.240714 250.455437 
L 747.601875 229.852506 
L 751.963036 248.738526 
L 756.324196 229.852506 
L 760.685357 247.021615 
L 769.407679 250.455437 
L 773.768839 236.72015 
L 778.13 205.815754 
L 782.491161 233.286328 
L 786.852321 195.514288 
L 791.213482 192.080467 
L 795.574643 193.797377 
L 799.935804 214.400308 
L 804.296964 241.870882 
L 808.658125 245.304704 
L 808.658125 245.304704 
" clip-path="url(#p1082d5ba82)" style="fill: none; stroke: #4472c4; stroke-width: 2; stroke-linecap: round"/>
   </g>
   <g id="line2d_17">
    <path d="M 75.983125 230.308036 
L 80.344286 296.106231 
L 84.705446 297.631354 
L 89.066607 298.241404 
L 93.427768 298.241404 
L 97.788929 297.674929 
L 102.150089 294.319657 
L 106.51125 199.631262 
L 110.872411 125.640975 
L 115.233571 121.152754 
L 119.594732 125.7717 
L 123.955893 120.934879 
L 128.317054 121.022029 
L 132.678214 125.946 
L 137.039375 120.978454 
L 141.400536 130.129196 
L 145.761696 125.5974 
L 150.122857 132.787269 
L 154.484018 120.411979 
L 158.845179 134.399542 
L 163.206339 116.098058 
L 167.5675 126.730349 
L 171.928661 125.4231 
L 176.289821 125.640975 
L 180.650982 181.460503 
L 185.012143 153.398226 
L 189.373304 186.776648 
L 193.734464 186.863798 
L 198.095625 208.346255 
L 202.456786 208.346255 
L 206.817946 171.874011 
L 211.179107 127.383973 
L 215.540268 93.787677 
L 219.901429 90.258105 
L 224.262589 85.813458 
L 228.62375 88.079357 
L 232.984911 81.891712 
L 237.346071 81.412387 
L 241.707232 89.560905 
L 246.068393 89.822355 
L 250.429554 93.351927 
L 254.790714 99.626722 
L 259.151875 107.644515 
L 263.513036 94.397726 
L 267.874196 70.823671 
L 272.235357 96.489324 
L 276.596518 107.470215 
L 280.957679 104.594268 
L 285.318839 199.718412 
L 289.68 107.42664 
L 294.041161 151.393778 
L 298.402321 161.721044 
L 302.763482 167.255065 
L 307.124643 186.645923 
L 311.485804 168.954488 
L 315.846964 125.989574 
L 320.208125 95.007776 
L 324.569286 43.06642 
L 328.930446 70.867246 
L 333.291607 70.867246 
L 337.652768 118.538256 
L 342.013929 70.605796 
L 346.375089 70.867246 
L 350.73625 95.269225 
L 355.097411 39.275398 
L 359.458571 139.018488 
L 363.819732 164.204817 
L 368.180893 84.15761 
L 372.542054 83.939735 
L 376.903214 139.149213 
L 381.264375 146.644107 
L 385.625536 151.001603 
L 389.986696 200.154162 
L 394.347857 110.171863 
L 398.709018 186.776648 
L 403.070179 247.563722 
L 407.431339 295.583331 
L 411.7925 296.149806 
L 416.153661 295.452606 
L 420.514821 294.145357 
L 424.875982 293.535308 
L 429.237143 138.800614 
L 437.959464 138.887764 
L 442.320625 139.018488 
L 446.681786 138.800614 
L 451.042946 286.694039 
L 455.404107 138.887764 
L 459.765268 282.815867 
L 464.126429 279.06842 
L 468.487589 277.543296 
L 472.84875 138.757039 
L 485.932232 138.844189 
L 490.293393 256.888764 
L 494.654554 235.144857 
L 499.015714 286.476164 
L 503.376875 294.188932 
L 507.738036 296.411256 
L 512.099196 298.372129 
L 516.460357 298.764304 
L 520.821518 298.415704 
L 525.182679 297.369905 
L 529.543839 295.931931 
L 533.905 138.931339 
L 538.266161 130.86997 
L 542.627321 118.538256 
L 546.988482 118.538256 
L 551.349643 118.93043 
L 555.710804 117.623182 
L 560.071964 138.582739 
L 568.794286 138.713464 
L 573.155446 118.756131 
L 577.516607 122.024253 
L 581.877768 107.731665 
L 586.238929 117.971781 
L 590.600089 138.713464 
L 594.96125 138.974914 
L 599.322411 294.973282 
L 603.683571 299.679378 
L 608.044732 300.027977 
L 612.405893 300.245852 
L 625.489375 300.071552 
L 629.850536 297.23918 
L 634.211696 160.762395 
L 638.572857 87.033557 
L 642.934018 82.588911 
L 647.295179 82.501761 
L 651.656339 108.080265 
L 656.0175 94.441301 
L 660.378661 82.676061 
L 664.739821 82.632486 
L 669.100982 82.763211 
L 673.462143 139.018488 
L 677.823304 147.384881 
L 682.184464 105.204317 
L 686.545625 105.073592 
L 690.906786 138.757039 
L 695.267946 147.297731 
L 699.629107 139.018488 
L 703.990268 234.970557 
L 708.351429 221.723769 
L 712.712589 299.853678 
L 725.796071 299.897253 
L 730.157232 296.193381 
L 734.518393 290.702935 
L 738.879554 259.895436 
L 743.240714 200.284887 
L 747.601875 104.463543 
L 751.963036 104.202093 
L 760.685357 104.332818 
L 769.407679 104.376393 
L 773.768839 104.507118 
L 778.13 160.413795 
L 782.491161 138.931339 
L 786.852321 105.117167 
L 791.213482 105.160742 
L 795.574643 126.556049 
L 799.935804 125.68455 
L 804.296964 129.475572 
L 808.658125 197.583239 
L 808.658125 197.583239 
" clip-path="url(#p1082d5ba82)" style="fill: none; stroke-dasharray: 6.66,2.88; stroke-dashoffset: 0; stroke: #a64d79; stroke-width: 1.8"/>
   </g>
   <g id="patch_3">
    <path d="M 39.349375 313.294375 
L 39.349375 26.226875 
" style="fill: none; stroke: #cccccc; stroke-linejoin: miter; stroke-linecap: square"/>
   </g>
   <g id="patch_4">
    <path d="M 845.291875 313.294375 
L 845.291875 26.226875 
" style="fill: none; stroke: #cccccc; stroke-linejoin: miter; stroke-linecap: square"/>
   </g>
   <g id="patch_5">
    <path d="M 39.349375 313.294375 
L 845.291875 313.294375 
" style="fill: none; stroke: #cccccc; stroke-linejoin: miter; stroke-linecap: square"/>
   </g>
   <g id="patch_6">
    <path d="M 39.349375 26.226875 
L 845.291875 26.226875 
" style="fill: none; stroke: #cccccc; stroke-linejoin: miter; stroke-linecap: square"/>
   </g>
   <g id="text_17">
    <!-- Scaled Comparison: PV, Demand, and Price -->
    <g style="fill: #262626" transform="translate(39.349375 16.226875) scale(0.13 -0.13)">
     <defs>
      <path id="TimesNewRomanPSMT-43" d="M 3853 4334 
L 3950 2894 
L 3853 2894 
Q 3659 3541 3300 3825 
Q 2941 4109 2438 4109 
Q 2016 4109 1675 3895 
Q 1334 3681 1139 3212 
Q 944 2744 944 2047 
Q 944 1472 1128 1050 
Q 1313 628 1683 403 
Q 2053 178 2528 178 
Q 2941 178 3256 354 
Q 3572 531 3950 1056 
L 4047 994 
Q 3728 428 3303 165 
Q 2878 -97 2294 -97 
Q 1241 -97 663 684 
Q 231 1266 231 2053 
Q 231 2688 515 3219 
Q 800 3750 1298 4042 
Q 1797 4334 2388 4334 
Q 2847 4334 3294 4109 
Q 3425 4041 3481 4041 
Q 3566 4041 3628 4100 
Q 3709 4184 3744 4334 
L 3853 4334 
z
" transform="scale(0.015625)"/>
      <path id="TimesNewRomanPSMT-6f" d="M 1600 2947 
Q 2250 2947 2644 2453 
Q 2978 2031 2978 1484 
Q 2978 1100 2793 706 
Q 2609 313 2286 112 
Q 1963 -88 1566 -88 
Q 919 -88 538 428 
Q 216 863 216 1403 
Q 216 1797 411 2186 
Q 606 2575 925 2761 
Q 1244 2947 1600 2947 
z
M 1503 2744 
Q 1338 2744 1170 2645 
Q 1003 2547 900 2300 
Q 797 2053 797 1666 
Q 797 1041 1045 587 
Q 1294 134 1700 134 
Q 2003 134 2200 384 
Q 2397 634 2397 1244 
Q 2397 2006 2069 2444 
Q 1847 2744 1503 2744 
z
" transform="scale(0.015625)"/>
      <path id="TimesNewRomanPSMT-70" d="M -6 2578 
L 875 2934 
L 994 2934 
L 994 2266 
Q 1216 2644 1439 2795 
Q 1663 2947 1909 2947 
Q 2341 2947 2628 2609 
Q 2981 2197 2981 1534 
Q 2981 794 2556 309 
Q 2206 -88 1675 -88 
Q 1444 -88 1275 -22 
Q 1150 25 994 166 
L 994 -706 
Q 994 -1000 1030 -1079 
Q 1066 -1159 1155 -1206 
Q 1244 -1253 1478 -1253 
L 1478 -1369 
L -22 -1369 
L -22 -1253 
L 56 -1253 
Q 228 -1256 350 -1188 
Q 409 -1153 442 -1076 
Q 475 -1000 475 -688 
L 475 2019 
Q 475 2297 450 2372 
Q 425 2447 370 2484 
Q 316 2522 222 2522 
Q 147 2522 31 2478 
L -6 2578 
z
M 994 2081 
L 994 1013 
Q 994 666 1022 556 
Q 1066 375 1236 237 
Q 1406 100 1666 100 
Q 1978 100 2172 344 
Q 2425 663 2425 1241 
Q 2425 1897 2138 2250 
Q 1938 2494 1663 2494 
Q 1513 2494 1366 2419 
Q 1253 2363 994 2081 
z
" transform="scale(0.015625)"/>
      <path id="TimesNewRomanPSMT-72" d="M 1038 2947 
L 1038 2303 
Q 1397 2947 1775 2947 
Q 1947 2947 2059 2842 
Q 2172 2738 2172 2600 
Q 2172 2478 2090 2393 
Q 2009 2309 1897 2309 
Q 1788 2309 1652 2417 
Q 1516 2525 1450 2525 
Q 1394 2525 1328 2463 
Q 1188 2334 1038 2041 
L 1038 669 
Q 1038 431 1097 309 
Q 1138 225 1241 169 
Q 1344 113 1538 113 
L 1538 0 
L 72 0 
L 72 113 
Q 291 113 397 181 
Q 475 231 506 341 
Q 522 394 522 644 
L 522 1753 
Q 522 2253 501 2348 
Q 481 2444 426 2487 
Q 372 2531 291 2531 
Q 194 2531 72 2484 
L 41 2597 
L 906 2947 
L 1038 2947 
z
" transform="scale(0.015625)"/>
      <path id="TimesNewRomanPSMT-73" d="M 2050 2947 
L 2050 1972 
L 1947 1972 
Q 1828 2431 1642 2597 
Q 1456 2763 1169 2763 
Q 950 2763 815 2647 
Q 681 2531 681 2391 
Q 681 2216 781 2091 
Q 878 1963 1175 1819 
L 1631 1597 
Q 2266 1288 2266 781 
Q 2266 391 1970 151 
Q 1675 -88 1309 -88 
Q 1047 -88 709 6 
Q 606 38 541 38 
Q 469 38 428 -44 
L 325 -44 
L 325 978 
L 428 978 
Q 516 541 762 319 
Q 1009 97 1316 97 
Q 1531 97 1667 223 
Q 1803 350 1803 528 
Q 1803 744 1651 891 
Q 1500 1038 1047 1263 
Q 594 1488 453 1669 
Q 313 1847 313 2119 
Q 313 2472 555 2709 
Q 797 2947 1181 2947 
Q 1350 2947 1591 2875 
Q 1750 2828 1803 2828 
Q 1853 2828 1881 2850 
Q 1909 2872 1947 2947 
L 2050 2947 
z
" transform="scale(0.015625)"/>
      <path id="TimesNewRomanPSMT-6e" d="M 1034 2341 
Q 1538 2947 1994 2947 
Q 2228 2947 2397 2830 
Q 2566 2713 2666 2444 
Q 2734 2256 2734 1869 
L 2734 647 
Q 2734 375 2778 278 
Q 2813 200 2889 156 
Q 2966 113 3172 113 
L 3172 0 
L 1756 0 
L 1756 113 
L 1816 113 
Q 2016 113 2095 173 
Q 2175 234 2206 353 
Q 2219 400 2219 647 
L 2219 1819 
Q 2219 2209 2117 2386 
Q 2016 2563 1775 2563 
Q 1403 2563 1034 2156 
L 1034 647 
Q 1034 356 1069 288 
Q 1113 197 1189 155 
Q 1266 113 1500 113 
L 1500 0 
L 84 0 
L 84 113 
L 147 113 
Q 366 113 442 223 
Q 519 334 519 647 
L 519 1709 
Q 519 2225 495 2337 
Q 472 2450 423 2490 
Q 375 2531 294 2531 
Q 206 2531 84 2484 
L 38 2597 
L 900 2947 
L 1034 2947 
L 1034 2341 
z
" transform="scale(0.015625)"/>
      <path id="TimesNewRomanPSMT-3a" d="M 903 2950 
Q 1047 2950 1148 2848 
Q 1250 2747 1250 2603 
Q 1250 2459 1148 2357 
Q 1047 2256 903 2256 
Q 759 2256 657 2357 
Q 556 2459 556 2603 
Q 556 2747 657 2848 
Q 759 2950 903 2950 
z
M 897 609 
Q 1044 609 1145 506 
Q 1247 403 1247 259 
Q 1247 116 1144 14 
Q 1041 -88 897 -88 
Q 753 -88 651 14 
Q 550 116 550 259 
Q 550 403 651 506 
Q 753 609 897 609 
z
" transform="scale(0.015625)"/>
      <path id="TimesNewRomanPSMT-50" d="M 1313 1984 
L 1313 750 
Q 1313 350 1400 253 
Q 1519 116 1759 116 
L 1922 116 
L 1922 0 
L 106 0 
L 106 116 
L 266 116 
Q 534 116 650 291 
Q 713 388 713 750 
L 713 3488 
Q 713 3888 628 3984 
Q 506 4122 266 4122 
L 106 4122 
L 106 4238 
L 1659 4238 
Q 2228 4238 2556 4120 
Q 2884 4003 3109 3725 
Q 3334 3447 3334 3066 
Q 3334 2547 2992 2222 
Q 2650 1897 2025 1897 
Q 1872 1897 1694 1919 
Q 1516 1941 1313 1984 
z
M 1313 2163 
Q 1478 2131 1606 2115 
Q 1734 2100 1825 2100 
Q 2150 2100 2386 2351 
Q 2622 2603 2622 3003 
Q 2622 3278 2509 3514 
Q 2397 3750 2190 3867 
Q 1984 3984 1722 3984 
Q 1563 3984 1313 3925 
L 1313 2163 
z
" transform="scale(0.015625)"/>
      <path id="TimesNewRomanPSMT-2c" d="M 344 -1066 
L 344 -928 
Q 666 -822 842 -598 
Q 1019 -375 1019 -125 
Q 1019 -66 991 -25 
Q 969 3 947 3 
Q 913 3 797 -59 
Q 741 -88 678 -88 
Q 525 -88 434 3 
Q 344 94 344 253 
Q 344 406 461 515 
Q 578 625 747 625 
Q 953 625 1114 445 
Q 1275 266 1275 -31 
Q 1275 -353 1051 -629 
Q 828 -906 344 -1066 
z
" transform="scale(0.015625)"/>
      <path id="TimesNewRomanPSMT-44" d="M 109 0 
L 109 116 
L 269 116 
Q 538 116 650 288 
Q 719 391 719 750 
L 719 3488 
Q 719 3884 631 3984 
Q 509 4122 269 4122 
L 109 4122 
L 109 4238 
L 1834 4238 
Q 2784 4238 3279 4022 
Q 3775 3806 4076 3303 
Q 4378 2800 4378 2141 
Q 4378 1256 3841 663 
Q 3238 0 2003 0 
L 109 0 
z
M 1319 306 
Q 1716 219 1984 219 
Q 2709 219 3187 728 
Q 3666 1238 3666 2109 
Q 3666 2988 3187 3494 
Q 2709 4000 1959 4000 
Q 1678 4000 1319 3909 
L 1319 306 
z
" transform="scale(0.015625)"/>
     </defs>
     <use xlink:href="#TimesNewRomanPSMT-53"/>
     <use xlink:href="#TimesNewRomanPSMT-63" transform="translate(55.615234 0)"/>
     <use xlink:href="#TimesNewRomanPSMT-61" transform="translate(100 0)"/>
     <use xlink:href="#TimesNewRomanPSMT-6c" transform="translate(144.384766 0)"/>
     <use xlink:href="#TimesNewRomanPSMT-65" transform="translate(172.167969 0)"/>
     <use xlink:href="#TimesNewRomanPSMT-64" transform="translate(216.552734 0)"/>
     <use xlink:href="#TimesNewRomanPSMT-20" transform="translate(266.552734 0)"/>
     <use xlink:href="#TimesNewRomanPSMT-43" transform="translate(291.552734 0)"/>
     <use xlink:href="#TimesNewRomanPSMT-6f" transform="translate(358.251953 0)"/>
     <use xlink:href="#TimesNewRomanPSMT-6d" transform="translate(408.251953 0)"/>
     <use xlink:href="#TimesNewRomanPSMT-70" transform="translate(486.035156 0)"/>
     <use xlink:href="#TimesNewRomanPSMT-61" transform="translate(536.035156 0)"/>
     <use xlink:href="#TimesNewRomanPSMT-72" transform="translate(580.419922 0)"/>
     <use xlink:href="#TimesNewRomanPSMT-69" transform="translate(613.720703 0)"/>
     <use xlink:href="#TimesNewRomanPSMT-73" transform="translate(641.503906 0)"/>
     <use xlink:href="#TimesNewRomanPSMT-6f" transform="translate(680.419922 0)"/>
     <use xlink:href="#TimesNewRomanPSMT-6e" transform="translate(730.419922 0)"/>
     <use xlink:href="#TimesNewRomanPSMT-3a" transform="translate(780.419922 0)"/>
     <use xlink:href="#TimesNewRomanPSMT-20" transform="translate(808.203125 0)"/>
     <use xlink:href="#TimesNewRomanPSMT-50" transform="translate(833.203125 0)"/>
     <use xlink:href="#TimesNewRomanPSMT-56" transform="translate(888.818359 0)"/>
     <use xlink:href="#TimesNewRomanPSMT-2c" transform="translate(948.160156 0)"/>
     <use xlink:href="#TimesNewRomanPSMT-20" transform="translate(973.160156 0)"/>
     <use xlink:href="#TimesNewRomanPSMT-44" transform="translate(998.160156 0)"/>
     <use xlink:href="#TimesNewRomanPSMT-65" transform="translate(1070.376953 0)"/>
     <use xlink:href="#TimesNewRomanPSMT-6d" transform="translate(1114.761719 0)"/>
     <use xlink:href="#TimesNewRomanPSMT-61" transform="translate(1192.544922 0)"/>
     <use xlink:href="#TimesNewRomanPSMT-6e" transform="translate(1236.929688 0)"/>
     <use xlink:href="#TimesNewRomanPSMT-64" transform="translate(1286.929688 0)"/>
     <use xlink:href="#TimesNewRomanPSMT-2c" transform="translate(1336.929688 0)"/>
     <use xlink:href="#TimesNewRomanPSMT-20" transform="translate(1361.929688 0)"/>
     <use xlink:href="#TimesNewRomanPSMT-61" transform="translate(1386.929688 0)"/>
     <use xlink:href="#TimesNewRomanPSMT-6e" transform="translate(1431.314453 0)"/>
     <use xlink:href="#TimesNewRomanPSMT-64" transform="translate(1481.314453 0)"/>
     <use xlink:href="#TimesNewRomanPSMT-20" transform="translate(1531.314453 0)"/>
     <use xlink:href="#TimesNewRomanPSMT-50" transform="translate(1556.314453 0)"/>
     <use xlink:href="#TimesNewRomanPSMT-72" transform="translate(1611.929688 0)"/>
     <use xlink:href="#TimesNewRomanPSMT-69" transform="translate(1645.230469 0)"/>
     <use xlink:href="#TimesNewRomanPSMT-63" transform="translate(1673.013672 0)"/>
     <use xlink:href="#TimesNewRomanPSMT-65" transform="translate(1717.398438 0)"/>
    </g>
   </g>
   <g id="legend_1">
    <g id="patch_7">
     <path d="M 47.049375 81.685781 
L 145.473594 81.685781 
Q 147.673594 81.685781 147.673594 79.485781 
L 147.673594 33.926875 
Q 147.673594 31.726875 145.473594 31.726875 
L 47.049375 31.726875 
Q 44.849375 31.726875 44.849375 33.926875 
L 44.849375 79.485781 
Q 44.849375 81.685781 47.049375 81.685781 
z
" style="fill: #ffffff; opacity: 0.9; stroke: #444444; stroke-linejoin: miter"/>
    </g>
    <g id="line2d_18">
     <path d="M 49.249375 39.976875 
L 60.249375 39.976875 
L 71.249375 39.976875 
" style="fill: none; stroke: #ed7d31; stroke-width: 2; stroke-linecap: round"/>
    </g>
    <g id="text_18">
     <!-- PV (kW) -->
     <g style="fill: #262626" transform="translate(80.049375 43.826875) scale(0.11 -0.11)">
      <defs>
       <path id="TimesNewRomanPSMT-6b" d="M 1047 4444 
L 1047 1597 
L 1775 2259 
Q 2006 2472 2044 2528 
Q 2069 2566 2069 2603 
Q 2069 2666 2017 2711 
Q 1966 2756 1847 2763 
L 1847 2863 
L 3091 2863 
L 3091 2763 
Q 2834 2756 2664 2684 
Q 2494 2613 2291 2428 
L 1556 1750 
L 2291 822 
Q 2597 438 2703 334 
Q 2853 188 2966 144 
Q 3044 113 3238 113 
L 3238 0 
L 1847 0 
L 1847 113 
Q 1966 116 2008 148 
Q 2050 181 2050 241 
Q 2050 313 1925 472 
L 1047 1594 
L 1047 644 
Q 1047 366 1086 278 
Q 1125 191 1197 153 
Q 1269 116 1509 113 
L 1509 0 
L 53 0 
L 53 113 
Q 272 113 381 166 
Q 447 200 481 272 
Q 528 375 528 628 
L 528 3234 
Q 528 3731 506 3842 
Q 484 3953 434 3995 
Q 384 4038 303 4038 
Q 238 4038 106 3984 
L 53 4094 
L 903 4444 
L 1047 4444 
z
" transform="scale(0.015625)"/>
       <path id="TimesNewRomanPSMT-57" d="M 5991 4238 
L 5991 4122 
Q 5825 4122 5722 4062 
Q 5619 4003 5525 3841 
Q 5463 3731 5328 3319 
L 4147 -97 
L 4022 -97 
L 3056 2613 
L 2097 -97 
L 1984 -97 
L 725 3422 
Q 584 3816 547 3888 
Q 484 4006 376 4064 
Q 269 4122 84 4122 
L 84 4238 
L 1653 4238 
L 1653 4122 
L 1578 4122 
Q 1413 4122 1325 4047 
Q 1238 3972 1238 3866 
Q 1238 3756 1375 3363 
L 2209 984 
L 2913 3006 
L 2788 3363 
L 2688 3647 
Q 2622 3803 2541 3922 
Q 2500 3981 2441 4022 
Q 2363 4078 2284 4103 
Q 2225 4122 2097 4122 
L 2097 4238 
L 3747 4238 
L 3747 4122 
L 3634 4122 
Q 3459 4122 3378 4047 
Q 3297 3972 3297 3844 
Q 3297 3684 3438 3288 
L 4250 984 
L 5056 3319 
Q 5194 3706 5194 3856 
Q 5194 3928 5148 3990 
Q 5103 4053 5034 4078 
Q 4916 4122 4725 4122 
L 4725 4238 
L 5991 4238 
z
" transform="scale(0.015625)"/>
      </defs>
      <use xlink:href="#TimesNewRomanPSMT-50"/>
      <use xlink:href="#TimesNewRomanPSMT-56" transform="translate(55.615234 0)"/>
      <use xlink:href="#TimesNewRomanPSMT-20" transform="translate(126.082031 0)"/>
      <use xlink:href="#TimesNewRomanPSMT-28" transform="translate(151.082031 0)"/>
      <use xlink:href="#TimesNewRomanPSMT-6b" transform="translate(184.382812 0)"/>
      <use xlink:href="#TimesNewRomanPSMT-57" transform="translate(234.382812 0)"/>
      <use xlink:href="#TimesNewRomanPSMT-29" transform="translate(328.767578 0)"/>
     </g>
    </g>
    <g id="line2d_19">
     <path d="M 49.249375 55.529844 
L 60.249375 55.529844 
L 71.249375 55.529844 
" style="fill: none; stroke: #4472c4; stroke-width: 2; stroke-linecap: round"/>
    </g>
    <g id="text_19">
     <!-- Demand (kW) -->
     <g style="fill: #262626" transform="translate(80.049375 59.379844) scale(0.11 -0.11)">
      <use xlink:href="#TimesNewRomanPSMT-44"/>
      <use xlink:href="#TimesNewRomanPSMT-65" transform="translate(72.216797 0)"/>
      <use xlink:href="#TimesNewRomanPSMT-6d" transform="translate(116.601562 0)"/>
      <use xlink:href="#TimesNewRomanPSMT-61" transform="translate(194.384766 0)"/>
      <use xlink:href="#TimesNewRomanPSMT-6e" transform="translate(238.769531 0)"/>
      <use xlink:href="#TimesNewRomanPSMT-64" transform="translate(288.769531 0)"/>
      <use xlink:href="#TimesNewRomanPSMT-20" transform="translate(338.769531 0)"/>
      <use xlink:href="#TimesNewRomanPSMT-28" transform="translate(363.769531 0)"/>
      <use xlink:href="#TimesNewRomanPSMT-6b" transform="translate(397.070312 0)"/>
      <use xlink:href="#TimesNewRomanPSMT-57" transform="translate(447.070312 0)"/>
      <use xlink:href="#TimesNewRomanPSMT-29" transform="translate(541.455078 0)"/>
     </g>
    </g>
    <g id="line2d_20">
     <path d="M 49.249375 71.082812 
L 60.249375 71.082812 
L 71.249375 71.082812 
" style="fill: none; stroke-dasharray: 6.66,2.88; stroke-dashoffset: 0; stroke: #a64d79; stroke-width: 1.8"/>
    </g>
    <g id="text_20">
     <!-- Price (€/kWh) -->
     <g style="fill: #262626" transform="translate(80.049375 74.932812) scale(0.11 -0.11)">
      <defs>
       <path id="TimesNewRomanPSMT-20ac" d="M 2647 2303 
L 853 2303 
Q 844 2172 844 2044 
L 2569 2044 
L 2497 1800 
L 850 1800 
Q 875 1141 1113 700 
Q 1391 188 1863 188 
Q 2281 188 2563 403 
Q 2731 531 2991 891 
L 3088 828 
Q 2819 403 2600 222 
Q 2241 -75 1738 -75 
Q 1019 -75 625 522 
Q 303 1009 244 1800 
L -72 1800 
L 0 2044 
L 231 2044 
L 231 2094 
Q 231 2188 238 2303 
L -72 2303 
L 0 2547 
L 263 2547 
Q 369 3288 769 3769 
Q 1228 4325 1944 4325 
Q 2478 4325 3006 4050 
L 3006 3116 
L 2884 3116 
Q 2803 4119 1944 4119 
Q 1450 4119 1163 3597 
Q 941 3191 872 2547 
L 2719 2547 
L 2647 2303 
z
" transform="scale(0.015625)"/>
       <path id="TimesNewRomanPSMT-2f" d="M 1794 4444 
L 259 -88 
L 9 -88 
L 1544 4444 
L 1794 4444 
z
" transform="scale(0.015625)"/>
      </defs>
      <use xlink:href="#TimesNewRomanPSMT-50"/>
      <use xlink:href="#TimesNewRomanPSMT-72" transform="translate(55.615234 0)"/>
      <use xlink:href="#TimesNewRomanPSMT-69" transform="translate(88.916016 0)"/>
      <use xlink:href="#TimesNewRomanPSMT-63" transform="translate(116.699219 0)"/>
      <use xlink:href="#TimesNewRomanPSMT-65" transform="translate(161.083984 0)"/>
      <use xlink:href="#TimesNewRomanPSMT-20" transform="translate(205.46875 0)"/>
      <use xlink:href="#TimesNewRomanPSMT-28" transform="translate(230.46875 0)"/>
      <use xlink:href="#TimesNewRomanPSMT-20ac" transform="translate(263.769531 0)"/>
      <use xlink:href="#TimesNewRomanPSMT-2f" transform="translate(313.769531 0)"/>
      <use xlink:href="#TimesNewRomanPSMT-6b" transform="translate(341.552734 0)"/>
      <use xlink:href="#TimesNewRomanPSMT-57" transform="translate(391.552734 0)"/>
      <use xlink:href="#TimesNewRomanPSMT-68" transform="translate(485.9375 0)"/>
      <use xlink:href="#TimesNewRomanPSMT-29" transform="translate(535.9375 0)"/>
     </g>
    </g>
   </g>
  </g>
 </g>
 <defs>
  <clipPath id="p1082d5ba82">
   <rect x="39.349375" y="26.226875" width="805.9425" height="287.0675"/>
  </clipPath>
 </defs>
</svg>
