<?xml version="1.0" encoding="utf-8" standalone="no"?>
<!DOCTYPE svg PUBLIC "-//W3C//DTD SVG 1.1//EN"
  "http://www.w3.org/Graphics/SVG/1.1/DTD/svg11.dtd">
<svg xmlns:xlink="http://www.w3.org/1999/xlink" width="851.846875pt" height="492.157344pt" viewBox="0 0 851.846875 492.157344" xmlns="http://www.w3.org/2000/svg" version="1.1">
 <metadata>
  <rdf:RDF xmlns:dc="http://purl.org/dc/elements/1.1/" xmlns:cc="http://creativecommons.org/ns#" xmlns:rdf="http://www.w3.org/1999/02/22-rdf-syntax-ns#">
   <cc:Work>
    <dc:type rdf:resource="http://purl.org/dc/dcmitype/StillImage"/>
    <dc:date>2025-12-08T19:36:04.685425</dc:date>
    <dc:format>image/svg+xml</dc:format>
    <dc:creator>
     <cc:Agent>
      <dc:title>Matplotlib v3.10.7, https://matplotlib.org/</dc:title>
     </cc:Agent>
    </dc:creator>
   </cc:Work>
  </rdf:RDF>
 </metadata>
 <defs>
  <style type="text/css">*{stroke-linejoin: round; stroke-linecap: butt}</style>
 </defs>
 <g id="figure_1">
  <g id="patch_1">
   <path d="M 0 492.157344 
L 851.846875 492.157344 
L 851.846875 0 
L 0 0 
z
" style="fill: #ffffff"/>
  </g>
  <g id="axes_1">
   <g id="patch_2">
    <path d="M 34.621875 223.846875 
L 844.646875 223.846875 
L 844.646875 22.226875 
L 34.621875 22.226875 
z
" style="fill: #ffffff"/>
   </g>
   <g id="matplotlib.axis_1">
    <g id="xtick_1">
     <g id="line2d_1">
      <path d="M 71.441193 223.846875 
L 71.441193 22.226875 
" clip-path="url(#p895d65d927)" style="fill: none; stroke: #d5d9df; stroke-width: 0.6; stroke-linecap: round"/>
     </g>
    </g>
    <g id="xtick_2">
     <g id="line2d_2">
      <path d="M 164.458418 223.846875 
L 164.458418 22.226875 
" clip-path="url(#p895d65d927)" style="fill: none; stroke: #d5d9df; stroke-width: 0.6; stroke-linecap: round"/>
     </g>
    </g>
    <g id="xtick_3">
     <g id="line2d_3">
      <path d="M 257.475643 223.846875 
L 257.475643 22.226875 
" clip-path="url(#p895d65d927)" style="fill: none; stroke: #d5d9df; stroke-width: 0.6; stroke-linecap: round"/>
     </g>
    </g>
    <g id="xtick_4">
     <g id="line2d_4">
      <path d="M 350.492868 223.846875 
L 350.492868 22.226875 
" clip-path="url(#p895d65d927)" style="fill: none; stroke: #d5d9df; stroke-width: 0.6; stroke-linecap: round"/>
     </g>
    </g>
    <g id="xtick_5">
     <g id="line2d_5">
      <path d="M 443.510093 223.846875 
L 443.510093 22.226875 
" clip-path="url(#p895d65d927)" style="fill: none; stroke: #d5d9df; stroke-width: 0.6; stroke-linecap: round"/>
     </g>
    </g>
    <g id="xtick_6">
     <g id="line2d_6">
      <path d="M 536.527318 223.846875 
L 536.527318 22.226875 
" clip-path="url(#p895d65d927)" style="fill: none; stroke: #d5d9df; stroke-width: 0.6; stroke-linecap: round"/>
     </g>
    </g>
    <g id="xtick_7">
     <g id="line2d_7">
      <path d="M 629.544542 223.846875 
L 629.544542 22.226875 
" clip-path="url(#p895d65d927)" style="fill: none; stroke: #d5d9df; stroke-width: 0.6; stroke-linecap: round"/>
     </g>
    </g>
    <g id="xtick_8">
     <g id="line2d_8">
      <path d="M 722.561767 223.846875 
L 722.561767 22.226875 
" clip-path="url(#p895d65d927)" style="fill: none; stroke: #d5d9df; stroke-width: 0.6; stroke-linecap: round"/>
     </g>
    </g>
    <g id="xtick_9">
     <g id="line2d_9">
      <path d="M 815.578992 223.846875 
L 815.578992 22.226875 
" clip-path="url(#p895d65d927)" style="fill: none; stroke: #d5d9df; stroke-width: 0.6; stroke-linecap: round"/>
     </g>
    </g>
   </g>
   <g id="matplotlib.axis_2">
    <g id="ytick_1">
     <g id="line2d_10">
      <path d="M 34.621875 214.68233 
L 844.646875 214.68233 
" clip-path="url(#p895d65d927)" style="fill: none; stroke: #d5d9df; stroke-width: 0.6; stroke-linecap: round"/>
     </g>
     <g id="text_1">
      <!-- 0 -->
      <g style="fill: #262626" transform="translate(22.121875 218.501392) scale(0.11 -0.11)">
       <defs>
        <path id="TimesNewRomanPSMT-30" d="M 231 2094 
Q 231 2819 450 3342 
Q 669 3866 1031 4122 
Q 1313 4325 1613 4325 
Q 2100 4325 2488 3828 
Q 2972 3213 2972 2159 
Q 2972 1422 2759 906 
Q 2547 391 2217 158 
Q 1888 -75 1581 -75 
Q 975 -75 572 641 
Q 231 1244 231 2094 
z
M 844 2016 
Q 844 1141 1059 588 
Q 1238 122 1591 122 
Q 1759 122 1940 273 
Q 2122 425 2216 781 
Q 2359 1319 2359 2297 
Q 2359 3022 2209 3506 
Q 2097 3866 1919 4016 
Q 1791 4119 1609 4119 
Q 1397 4119 1231 3928 
Q 1006 3669 925 3112 
Q 844 2556 844 2016 
z
" transform="scale(0.015625)"/>
       </defs>
       <use xlink:href="#TimesNewRomanPSMT-30"/>
      </g>
     </g>
    </g>
    <g id="ytick_2">
     <g id="line2d_11">
      <path d="M 34.621875 174.309883 
L 844.646875 174.309883 
" clip-path="url(#p895d65d927)" style="fill: none; stroke: #d5d9df; stroke-width: 0.6; stroke-linecap: round"/>
     </g>
     <g id="text_2">
      <!-- 1 -->
      <g style="fill: #262626" transform="translate(22.121875 178.128945) scale(0.11 -0.11)">
       <defs>
        <path id="TimesNewRomanPSMT-31" d="M 750 3822 
L 1781 4325 
L 1884 4325 
L 1884 747 
Q 1884 391 1914 303 
Q 1944 216 2037 169 
Q 2131 122 2419 116 
L 2419 0 
L 825 0 
L 825 116 
Q 1125 122 1212 167 
Q 1300 213 1334 289 
Q 1369 366 1369 747 
L 1369 3034 
Q 1369 3497 1338 3628 
Q 1316 3728 1258 3775 
Q 1200 3822 1119 3822 
Q 1003 3822 797 3725 
L 750 3822 
z
" transform="scale(0.015625)"/>
       </defs>
       <use xlink:href="#TimesNewRomanPSMT-31"/>
      </g>
     </g>
    </g>
    <g id="ytick_3">
     <g id="line2d_12">
      <path d="M 34.621875 133.937436 
L 844.646875 133.937436 
" clip-path="url(#p895d65d927)" style="fill: none; stroke: #d5d9df; stroke-width: 0.6; stroke-linecap: round"/>
     </g>
     <g id="text_3">
      <!-- 2 -->
      <g style="fill: #262626" transform="translate(22.121875 137.756498) scale(0.11 -0.11)">
       <defs>
        <path id="TimesNewRomanPSMT-32" d="M 2934 816 
L 2638 0 
L 138 0 
L 138 116 
Q 1241 1122 1691 1759 
Q 2141 2397 2141 2925 
Q 2141 3328 1894 3587 
Q 1647 3847 1303 3847 
Q 991 3847 742 3664 
Q 494 3481 375 3128 
L 259 3128 
Q 338 3706 661 4015 
Q 984 4325 1469 4325 
Q 1984 4325 2329 3994 
Q 2675 3663 2675 3213 
Q 2675 2891 2525 2569 
Q 2294 2063 1775 1497 
Q 997 647 803 472 
L 1909 472 
Q 2247 472 2383 497 
Q 2519 522 2628 598 
Q 2738 675 2819 816 
L 2934 816 
z
" transform="scale(0.015625)"/>
       </defs>
       <use xlink:href="#TimesNewRomanPSMT-32"/>
      </g>
     </g>
    </g>
    <g id="ytick_4">
     <g id="line2d_13">
      <path d="M 34.621875 93.564989 
L 844.646875 93.564989 
" clip-path="url(#p895d65d927)" style="fill: none; stroke: #d5d9df; stroke-width: 0.6; stroke-linecap: round"/>
     </g>
     <g id="text_4">
      <!-- 3 -->
      <g style="fill: #262626" transform="translate(22.121875 97.384051) scale(0.11 -0.11)">
       <defs>
        <path id="TimesNewRomanPSMT-33" d="M 325 3431 
Q 506 3859 782 4092 
Q 1059 4325 1472 4325 
Q 1981 4325 2253 3994 
Q 2459 3747 2459 3466 
Q 2459 3003 1878 2509 
Q 2269 2356 2469 2072 
Q 2669 1788 2669 1403 
Q 2669 853 2319 450 
Q 1863 -75 997 -75 
Q 569 -75 414 31 
Q 259 138 259 259 
Q 259 350 332 419 
Q 406 488 509 488 
Q 588 488 669 463 
Q 722 447 909 348 
Q 1097 250 1169 231 
Q 1284 197 1416 197 
Q 1734 197 1970 444 
Q 2206 691 2206 1028 
Q 2206 1275 2097 1509 
Q 2016 1684 1919 1775 
Q 1784 1900 1550 2001 
Q 1316 2103 1072 2103 
L 972 2103 
L 972 2197 
Q 1219 2228 1467 2375 
Q 1716 2522 1828 2728 
Q 1941 2934 1941 3181 
Q 1941 3503 1739 3701 
Q 1538 3900 1238 3900 
Q 753 3900 428 3381 
L 325 3431 
z
" transform="scale(0.015625)"/>
       </defs>
       <use xlink:href="#TimesNewRomanPSMT-33"/>
      </g>
     </g>
    </g>
    <g id="ytick_5">
     <g id="line2d_14">
      <path d="M 34.621875 53.192542 
L 844.646875 53.192542 
" clip-path="url(#p895d65d927)" style="fill: none; stroke: #d5d9df; stroke-width: 0.6; stroke-linecap: round"/>
     </g>
     <g id="text_5">
      <!-- 4 -->
      <g style="fill: #262626" transform="translate(22.121875 57.011604) scale(0.11 -0.11)">
       <defs>
        <path id="TimesNewRomanPSMT-34" d="M 2978 1563 
L 2978 1119 
L 2409 1119 
L 2409 0 
L 1894 0 
L 1894 1119 
L 100 1119 
L 100 1519 
L 2066 4325 
L 2409 4325 
L 2409 1563 
L 2978 1563 
z
M 1894 1563 
L 1894 3666 
L 406 1563 
L 1894 1563 
z
" transform="scale(0.015625)"/>
       </defs>
       <use xlink:href="#TimesNewRomanPSMT-34"/>
      </g>
     </g>
    </g>
    <g id="text_6">
     <!-- pv_mod1 (kW) -->
     <g style="fill: #262626" transform="translate(15.5325 159.862812) rotate(-90) scale(0.12 -0.12)">
      <defs>
       <path id="TimesNewRomanPSMT-70" d="M -6 2578 
L 875 2934 
L 994 2934 
L 994 2266 
Q 1216 2644 1439 2795 
Q 1663 2947 1909 2947 
Q 2341 2947 2628 2609 
Q 2981 2197 2981 1534 
Q 2981 794 2556 309 
Q 2206 -88 1675 -88 
Q 1444 -88 1275 -22 
Q 1150 25 994 166 
L 994 -706 
Q 994 -1000 1030 -1079 
Q 1066 -1159 1155 -1206 
Q 1244 -1253 1478 -1253 
L 1478 -1369 
L -22 -1369 
L -22 -1253 
L 56 -1253 
Q 228 -1256 350 -1188 
Q 409 -1153 442 -1076 
Q 475 -1000 475 -688 
L 475 2019 
Q 475 2297 450 2372 
Q 425 2447 370 2484 
Q 316 2522 222 2522 
Q 147 2522 31 2478 
L -6 2578 
z
M 994 2081 
L 994 1013 
Q 994 666 1022 556 
Q 1066 375 1236 237 
Q 1406 100 1666 100 
Q 1978 100 2172 344 
Q 2425 663 2425 1241 
Q 2425 1897 2138 2250 
Q 1938 2494 1663 2494 
Q 1513 2494 1366 2419 
Q 1253 2363 994 2081 
z
" transform="scale(0.015625)"/>
       <path id="TimesNewRomanPSMT-76" d="M 53 2863 
L 1400 2863 
L 1400 2747 
L 1313 2747 
Q 1191 2747 1127 2687 
Q 1063 2628 1063 2528 
Q 1063 2419 1128 2269 
L 1794 688 
L 2463 2328 
Q 2534 2503 2534 2594 
Q 2534 2638 2509 2666 
Q 2475 2713 2422 2730 
Q 2369 2747 2206 2747 
L 2206 2863 
L 3141 2863 
L 3141 2747 
Q 2978 2734 2916 2681 
Q 2806 2588 2719 2369 
L 1703 -88 
L 1575 -88 
L 553 2328 
Q 484 2497 421 2570 
Q 359 2644 263 2694 
Q 209 2722 53 2747 
L 53 2863 
z
" transform="scale(0.015625)"/>
       <path id="TimesNewRomanPSMT-5f" d="M 3256 -1381 
L -53 -1381 
L -53 -1119 
L 3256 -1119 
L 3256 -1381 
z
" transform="scale(0.015625)"/>
       <path id="TimesNewRomanPSMT-6d" d="M 1050 2338 
Q 1363 2650 1419 2697 
Q 1559 2816 1721 2881 
Q 1884 2947 2044 2947 
Q 2313 2947 2506 2790 
Q 2700 2634 2766 2338 
Q 3088 2713 3309 2830 
Q 3531 2947 3766 2947 
Q 3994 2947 4170 2830 
Q 4347 2713 4450 2447 
Q 4519 2266 4519 1878 
L 4519 647 
Q 4519 378 4559 278 
Q 4591 209 4675 161 
Q 4759 113 4950 113 
L 4950 0 
L 3538 0 
L 3538 113 
L 3597 113 
Q 3781 113 3884 184 
Q 3956 234 3988 344 
Q 4000 397 4000 647 
L 4000 1878 
Q 4000 2228 3916 2372 
Q 3794 2572 3525 2572 
Q 3359 2572 3192 2489 
Q 3025 2406 2788 2181 
L 2781 2147 
L 2788 2013 
L 2788 647 
Q 2788 353 2820 281 
Q 2853 209 2943 161 
Q 3034 113 3253 113 
L 3253 0 
L 1806 0 
L 1806 113 
Q 2044 113 2133 169 
Q 2222 225 2256 338 
Q 2272 391 2272 647 
L 2272 1878 
Q 2272 2228 2169 2381 
Q 2031 2581 1784 2581 
Q 1616 2581 1450 2491 
Q 1191 2353 1050 2181 
L 1050 647 
Q 1050 366 1089 281 
Q 1128 197 1204 155 
Q 1281 113 1516 113 
L 1516 0 
L 100 0 
L 100 113 
Q 297 113 375 155 
Q 453 197 493 289 
Q 534 381 534 647 
L 534 1741 
Q 534 2213 506 2350 
Q 484 2453 437 2492 
Q 391 2531 309 2531 
Q 222 2531 100 2484 
L 53 2597 
L 916 2947 
L 1050 2947 
L 1050 2338 
z
" transform="scale(0.015625)"/>
       <path id="TimesNewRomanPSMT-6f" d="M 1600 2947 
Q 2250 2947 2644 2453 
Q 2978 2031 2978 1484 
Q 2978 1100 2793 706 
Q 2609 313 2286 112 
Q 1963 -88 1566 -88 
Q 919 -88 538 428 
Q 216 863 216 1403 
Q 216 1797 411 2186 
Q 606 2575 925 2761 
Q 1244 2947 1600 2947 
z
M 1503 2744 
Q 1338 2744 1170 2645 
Q 1003 2547 900 2300 
Q 797 2053 797 1666 
Q 797 1041 1045 587 
Q 1294 134 1700 134 
Q 2003 134 2200 384 
Q 2397 634 2397 1244 
Q 2397 2006 2069 2444 
Q 1847 2744 1503 2744 
z
" transform="scale(0.015625)"/>
       <path id="TimesNewRomanPSMT-64" d="M 2222 322 
Q 2013 103 1813 7 
Q 1613 -88 1381 -88 
Q 913 -88 563 304 
Q 213 697 213 1313 
Q 213 1928 600 2439 
Q 988 2950 1597 2950 
Q 1975 2950 2222 2709 
L 2222 3238 
Q 2222 3728 2198 3840 
Q 2175 3953 2125 3993 
Q 2075 4034 2000 4034 
Q 1919 4034 1784 3984 
L 1744 4094 
L 2597 4444 
L 2738 4444 
L 2738 1134 
Q 2738 631 2761 520 
Q 2784 409 2836 365 
Q 2888 322 2956 322 
Q 3041 322 3181 375 
L 3216 266 
L 2366 -88 
L 2222 -88 
L 2222 322 
z
M 2222 541 
L 2222 2016 
Q 2203 2228 2109 2403 
Q 2016 2578 1861 2667 
Q 1706 2756 1559 2756 
Q 1284 2756 1069 2509 
Q 784 2184 784 1559 
Q 784 928 1059 592 
Q 1334 256 1672 256 
Q 1956 256 2222 541 
z
" transform="scale(0.015625)"/>
       <path id="TimesNewRomanPSMT-20" transform="scale(0.015625)"/>
       <path id="TimesNewRomanPSMT-28" d="M 1988 -1253 
L 1988 -1369 
Q 1516 -1131 1200 -813 
Q 750 -359 506 256 
Q 263 872 263 1534 
Q 263 2503 741 3301 
Q 1219 4100 1988 4444 
L 1988 4313 
Q 1603 4100 1356 3731 
Q 1109 3363 987 2797 
Q 866 2231 866 1616 
Q 866 947 969 400 
Q 1050 -31 1165 -292 
Q 1281 -553 1476 -793 
Q 1672 -1034 1988 -1253 
z
" transform="scale(0.015625)"/>
       <path id="TimesNewRomanPSMT-6b" d="M 1047 4444 
L 1047 1597 
L 1775 2259 
Q 2006 2472 2044 2528 
Q 2069 2566 2069 2603 
Q 2069 2666 2017 2711 
Q 1966 2756 1847 2763 
L 1847 2863 
L 3091 2863 
L 3091 2763 
Q 2834 2756 2664 2684 
Q 2494 2613 2291 2428 
L 1556 1750 
L 2291 822 
Q 2597 438 2703 334 
Q 2853 188 2966 144 
Q 3044 113 3238 113 
L 3238 0 
L 1847 0 
L 1847 113 
Q 1966 116 2008 148 
Q 2050 181 2050 241 
Q 2050 313 1925 472 
L 1047 1594 
L 1047 644 
Q 1047 366 1086 278 
Q 1125 191 1197 153 
Q 1269 116 1509 113 
L 1509 0 
L 53 0 
L 53 113 
Q 272 113 381 166 
Q 447 200 481 272 
Q 528 375 528 628 
L 528 3234 
Q 528 3731 506 3842 
Q 484 3953 434 3995 
Q 384 4038 303 4038 
Q 238 4038 106 3984 
L 53 4094 
L 903 4444 
L 1047 4444 
z
" transform="scale(0.015625)"/>
       <path id="TimesNewRomanPSMT-57" d="M 5991 4238 
L 5991 4122 
Q 5825 4122 5722 4062 
Q 5619 4003 5525 3841 
Q 5463 3731 5328 3319 
L 4147 -97 
L 4022 -97 
L 3056 2613 
L 2097 -97 
L 1984 -97 
L 725 3422 
Q 584 3816 547 3888 
Q 484 4006 376 4064 
Q 269 4122 84 4122 
L 84 4238 
L 1653 4238 
L 1653 4122 
L 1578 4122 
Q 1413 4122 1325 4047 
Q 1238 3972 1238 3866 
Q 1238 3756 1375 3363 
L 2209 984 
L 2913 3006 
L 2788 3363 
L 2688 3647 
Q 2622 3803 2541 3922 
Q 2500 3981 2441 4022 
Q 2363 4078 2284 4103 
Q 2225 4122 2097 4122 
L 2097 4238 
L 3747 4238 
L 3747 4122 
L 3634 4122 
Q 3459 4122 3378 4047 
Q 3297 3972 3297 3844 
Q 3297 3684 3438 3288 
L 4250 984 
L 5056 3319 
Q 5194 3706 5194 3856 
Q 5194 3928 5148 3990 
Q 5103 4053 5034 4078 
Q 4916 4122 4725 4122 
L 4725 4238 
L 5991 4238 
z
" transform="scale(0.015625)"/>
       <path id="TimesNewRomanPSMT-29" d="M 144 4313 
L 144 4444 
Q 619 4209 934 3891 
Q 1381 3434 1625 2820 
Q 1869 2206 1869 1541 
Q 1869 572 1392 -226 
Q 916 -1025 144 -1369 
L 144 -1253 
Q 528 -1038 776 -670 
Q 1025 -303 1145 264 
Q 1266 831 1266 1447 
Q 1266 2113 1163 2663 
Q 1084 3094 967 3353 
Q 850 3613 656 3853 
Q 463 4094 144 4313 
z
" transform="scale(0.015625)"/>
      </defs>
      <use xlink:href="#TimesNewRomanPSMT-70"/>
      <use xlink:href="#TimesNewRomanPSMT-76" transform="translate(50 0)"/>
      <use xlink:href="#TimesNewRomanPSMT-5f" transform="translate(100 0)"/>
      <use xlink:href="#TimesNewRomanPSMT-6d" transform="translate(150 0)"/>
      <use xlink:href="#TimesNewRomanPSMT-6f" transform="translate(227.783203 0)"/>
      <use xlink:href="#TimesNewRomanPSMT-64" transform="translate(277.783203 0)"/>
      <use xlink:href="#TimesNewRomanPSMT-31" transform="translate(327.783203 0)"/>
      <use xlink:href="#TimesNewRomanPSMT-20" transform="translate(377.783203 0)"/>
      <use xlink:href="#TimesNewRomanPSMT-28" transform="translate(402.783203 0)"/>
      <use xlink:href="#TimesNewRomanPSMT-6b" transform="translate(436.083984 0)"/>
      <use xlink:href="#TimesNewRomanPSMT-57" transform="translate(486.083984 0)"/>
      <use xlink:href="#TimesNewRomanPSMT-29" transform="translate(580.46875 0)"/>
     </g>
    </g>
   </g>
   <g id="line2d_15">
    <path d="M 71.441193 214.68233 
L 79.192629 214.68233 
L 86.944064 214.68233 
L 94.695499 214.68233 
L 102.446935 214.68233 
L 110.19837 209.433911 
L 117.949806 192.073759 
L 125.701241 147.664068 
L 133.452676 105.272998 
L 141.204112 73.78249 
L 148.955547 49.155297 
L 156.706983 99.620856 
L 164.458418 93.161264 
L 172.209853 106.484172 
L 179.961289 119.807079 
L 187.712724 123.844324 
L 195.46416 136.359782 
L 203.215595 179.558301 
L 210.967031 200.551973 
M 226.469901 214.68233 
L 234.221337 214.68233 
L 241.972772 214.68233 
L 249.724208 214.68233 
L 257.475643 214.68233 
L 265.227078 214.68233 
L 272.978514 214.68233 
L 280.729949 214.68233 
L 288.481385 214.68233 
L 296.23282 210.645085 
L 303.984255 195.707279 
L 311.735691 172.694985 
L 319.487126 130.303915 
L 327.238562 78.223459 
L 334.989997 45.521777 
L 342.741432 31.39142 
L 350.492868 32.602594 
L 358.244303 41.484532 
L 365.995739 63.689378 
L 373.747174 93.161264 
L 381.498609 134.744885 
L 389.250045 178.347127 
L 397.00148 202.570595 
L 404.752916 209.433911 
L 412.504351 214.68233 
L 420.255786 214.68233 
L 428.007222 214.68233 
L 435.758657 214.68233 
L 443.510093 214.68233 
L 451.261528 214.68233 
L 459.012964 214.68233 
L 466.764399 214.68233 
L 474.515834 214.68233 
L 482.26727 209.433911 
M 497.770141 195.707279 
L 505.521576 184.806719 
L 513.273011 165.427944 
L 521.024447 127.477844 
M 536.527318 44.714328 
L 544.278753 53.596266 
L 552.030188 75.397388 
L 559.781624 104.061825 
L 567.533059 143.223098 
L 575.284495 179.558301 
L 583.03593 201.359422 
L 590.787365 210.645085 
L 598.538801 214.68233 
L 606.290236 214.68233 
L 614.041672 214.68233 
L 621.793107 214.68233 
L 629.544542 214.68233 
L 637.295978 214.68233 
L 645.047413 214.68233 
L 652.798849 214.68233 
M 668.301719 208.222738 
L 676.053155 192.477484 
L 683.80459 158.160904 
L 691.556026 117.384732 
L 699.307461 85.086775 
L 707.058897 63.285654 
L 714.810332 68.534072 
L 722.561767 68.534072 
L 730.313203 76.204837 
L 738.064638 83.875601 
L 745.816074 120.614528 
L 753.567509 143.223098 
L 761.318944 180.36575 
L 769.07038 201.359422 
L 776.821815 210.24136 
M 792.324686 214.68233 
M 807.827557 214.68233 
" clip-path="url(#p895d65d927)" style="fill: none; stroke-dasharray: 5.55,2.4; stroke-dashoffset: 0; stroke: #000000; stroke-width: 1.5"/>
   </g>
   <g id="patch_3">
    <path d="M 34.621875 223.846875 
L 34.621875 22.226875 
" style="fill: none; stroke: #ffffff; stroke-width: 0.8; stroke-linejoin: miter; stroke-linecap: square"/>
   </g>
   <g id="patch_4">
    <path d="M 844.646875 223.846875 
L 844.646875 22.226875 
" style="fill: none; stroke: #ffffff; stroke-width: 0.8; stroke-linejoin: miter; stroke-linecap: square"/>
   </g>
   <g id="patch_5">
    <path d="M 34.621875 223.846875 
L 844.646875 223.846875 
" style="fill: none; stroke: #ffffff; stroke-width: 0.8; stroke-linejoin: miter; stroke-linecap: square"/>
   </g>
   <g id="patch_6">
    <path d="M 34.621875 22.226875 
L 844.646875 22.226875 
" style="fill: none; stroke: #ffffff; stroke-width: 0.8; stroke-linejoin: miter; stroke-linecap: square"/>
   </g>
   <g id="text_7">
    <!-- Before imputation -->
    <g style="fill: #262626" transform="translate(392.16 16.226875) scale(0.13 -0.13)">
     <defs>
      <path id="TimesNewRomanPSMT-42" d="M 2956 2163 
Q 3397 2069 3616 1863 
Q 3919 1575 3919 1159 
Q 3919 844 3719 555 
Q 3519 266 3170 133 
Q 2822 0 2106 0 
L 106 0 
L 106 116 
L 266 116 
Q 531 116 647 284 
Q 719 394 719 750 
L 719 3488 
Q 719 3881 628 3984 
Q 506 4122 266 4122 
L 106 4122 
L 106 4238 
L 1938 4238 
Q 2450 4238 2759 4163 
Q 3228 4050 3475 3764 
Q 3722 3478 3722 3106 
Q 3722 2788 3528 2536 
Q 3334 2284 2956 2163 
z
M 1319 2331 
Q 1434 2309 1582 2298 
Q 1731 2288 1909 2288 
Q 2366 2288 2595 2386 
Q 2825 2484 2947 2687 
Q 3069 2891 3069 3131 
Q 3069 3503 2766 3765 
Q 2463 4028 1881 4028 
Q 1569 4028 1319 3959 
L 1319 2331 
z
M 1319 306 
Q 1681 222 2034 222 
Q 2600 222 2897 476 
Q 3194 731 3194 1106 
Q 3194 1353 3059 1581 
Q 2925 1809 2622 1940 
Q 2319 2072 1872 2072 
Q 1678 2072 1540 2065 
Q 1403 2059 1319 2044 
L 1319 306 
z
" transform="scale(0.015625)"/>
      <path id="TimesNewRomanPSMT-65" d="M 681 1784 
Q 678 1147 991 784 
Q 1303 422 1725 422 
Q 2006 422 2214 576 
Q 2422 731 2563 1106 
L 2659 1044 
Q 2594 616 2278 264 
Q 1963 -88 1488 -88 
Q 972 -88 605 314 
Q 238 716 238 1394 
Q 238 2128 614 2539 
Q 991 2950 1559 2950 
Q 2041 2950 2350 2633 
Q 2659 2316 2659 1784 
L 681 1784 
z
M 681 1966 
L 2006 1966 
Q 1991 2241 1941 2353 
Q 1863 2528 1708 2628 
Q 1553 2728 1384 2728 
Q 1125 2728 920 2526 
Q 716 2325 681 1966 
z
" transform="scale(0.015625)"/>
      <path id="TimesNewRomanPSMT-66" d="M 1319 2638 
L 1319 756 
Q 1319 356 1406 250 
Q 1522 113 1716 113 
L 1975 113 
L 1975 0 
L 266 0 
L 266 113 
L 394 113 
Q 519 113 622 175 
Q 725 238 764 344 
Q 803 450 803 756 
L 803 2638 
L 247 2638 
L 247 2863 
L 803 2863 
L 803 3050 
Q 803 3478 940 3775 
Q 1078 4072 1361 4255 
Q 1644 4438 1997 4438 
Q 2325 4438 2600 4225 
Q 2781 4084 2781 3909 
Q 2781 3816 2700 3733 
Q 2619 3650 2525 3650 
Q 2453 3650 2373 3701 
Q 2294 3753 2178 3923 
Q 2063 4094 1966 4153 
Q 1869 4213 1750 4213 
Q 1606 4213 1506 4136 
Q 1406 4059 1362 3898 
Q 1319 3738 1319 3069 
L 1319 2863 
L 2056 2863 
L 2056 2638 
L 1319 2638 
z
" transform="scale(0.015625)"/>
      <path id="TimesNewRomanPSMT-72" d="M 1038 2947 
L 1038 2303 
Q 1397 2947 1775 2947 
Q 1947 2947 2059 2842 
Q 2172 2738 2172 2600 
Q 2172 2478 2090 2393 
Q 2009 2309 1897 2309 
Q 1788 2309 1652 2417 
Q 1516 2525 1450 2525 
Q 1394 2525 1328 2463 
Q 1188 2334 1038 2041 
L 1038 669 
Q 1038 431 1097 309 
Q 1138 225 1241 169 
Q 1344 113 1538 113 
L 1538 0 
L 72 0 
L 72 113 
Q 291 113 397 181 
Q 475 231 506 341 
Q 522 394 522 644 
L 522 1753 
Q 522 2253 501 2348 
Q 481 2444 426 2487 
Q 372 2531 291 2531 
Q 194 2531 72 2484 
L 41 2597 
L 906 2947 
L 1038 2947 
z
" transform="scale(0.015625)"/>
      <path id="TimesNewRomanPSMT-69" d="M 928 4444 
Q 1059 4444 1151 4351 
Q 1244 4259 1244 4128 
Q 1244 3997 1151 3903 
Q 1059 3809 928 3809 
Q 797 3809 703 3903 
Q 609 3997 609 4128 
Q 609 4259 701 4351 
Q 794 4444 928 4444 
z
M 1188 2947 
L 1188 647 
Q 1188 378 1227 289 
Q 1266 200 1342 156 
Q 1419 113 1622 113 
L 1622 0 
L 231 0 
L 231 113 
Q 441 113 512 153 
Q 584 194 626 287 
Q 669 381 669 647 
L 669 1750 
Q 669 2216 641 2353 
Q 619 2453 572 2492 
Q 525 2531 444 2531 
Q 356 2531 231 2484 
L 188 2597 
L 1050 2947 
L 1188 2947 
z
" transform="scale(0.015625)"/>
      <path id="TimesNewRomanPSMT-75" d="M 2709 2863 
L 2709 1128 
Q 2709 631 2732 520 
Q 2756 409 2807 365 
Q 2859 322 2928 322 
Q 3025 322 3147 375 
L 3191 266 
L 2334 -88 
L 2194 -88 
L 2194 519 
Q 1825 119 1631 15 
Q 1438 -88 1222 -88 
Q 981 -88 804 51 
Q 628 191 559 409 
Q 491 628 491 1028 
L 491 2306 
Q 491 2509 447 2587 
Q 403 2666 317 2708 
Q 231 2750 6 2747 
L 6 2863 
L 1009 2863 
L 1009 947 
Q 1009 547 1148 422 
Q 1288 297 1484 297 
Q 1619 297 1789 381 
Q 1959 466 2194 703 
L 2194 2325 
Q 2194 2569 2105 2655 
Q 2016 2741 1734 2747 
L 1734 2863 
L 2709 2863 
z
" transform="scale(0.015625)"/>
      <path id="TimesNewRomanPSMT-74" d="M 1031 3803 
L 1031 2863 
L 1700 2863 
L 1700 2644 
L 1031 2644 
L 1031 788 
Q 1031 509 1111 412 
Q 1191 316 1316 316 
Q 1419 316 1516 380 
Q 1613 444 1666 569 
L 1788 569 
Q 1678 263 1478 108 
Q 1278 -47 1066 -47 
Q 922 -47 784 33 
Q 647 113 581 261 
Q 516 409 516 719 
L 516 2644 
L 63 2644 
L 63 2747 
Q 234 2816 414 2980 
Q 594 3144 734 3369 
Q 806 3488 934 3803 
L 1031 3803 
z
" transform="scale(0.015625)"/>
      <path id="TimesNewRomanPSMT-61" d="M 1822 413 
Q 1381 72 1269 19 
Q 1100 -59 909 -59 
Q 613 -59 420 144 
Q 228 347 228 678 
Q 228 888 322 1041 
Q 450 1253 767 1440 
Q 1084 1628 1822 1897 
L 1822 2009 
Q 1822 2438 1686 2597 
Q 1550 2756 1291 2756 
Q 1094 2756 978 2650 
Q 859 2544 859 2406 
L 866 2225 
Q 866 2081 792 2003 
Q 719 1925 600 1925 
Q 484 1925 411 2006 
Q 338 2088 338 2228 
Q 338 2497 613 2722 
Q 888 2947 1384 2947 
Q 1766 2947 2009 2819 
Q 2194 2722 2281 2516 
Q 2338 2381 2338 1966 
L 2338 994 
Q 2338 584 2353 492 
Q 2369 400 2405 369 
Q 2441 338 2488 338 
Q 2538 338 2575 359 
Q 2641 400 2828 588 
L 2828 413 
Q 2478 -56 2159 -56 
Q 2006 -56 1915 50 
Q 1825 156 1822 413 
z
M 1822 616 
L 1822 1706 
Q 1350 1519 1213 1441 
Q 966 1303 859 1153 
Q 753 1003 753 825 
Q 753 600 887 451 
Q 1022 303 1197 303 
Q 1434 303 1822 616 
z
" transform="scale(0.015625)"/>
      <path id="TimesNewRomanPSMT-6e" d="M 1034 2341 
Q 1538 2947 1994 2947 
Q 2228 2947 2397 2830 
Q 2566 2713 2666 2444 
Q 2734 2256 2734 1869 
L 2734 647 
Q 2734 375 2778 278 
Q 2813 200 2889 156 
Q 2966 113 3172 113 
L 3172 0 
L 1756 0 
L 1756 113 
L 1816 113 
Q 2016 113 2095 173 
Q 2175 234 2206 353 
Q 2219 400 2219 647 
L 2219 1819 
Q 2219 2209 2117 2386 
Q 2016 2563 1775 2563 
Q 1403 2563 1034 2156 
L 1034 647 
Q 1034 356 1069 288 
Q 1113 197 1189 155 
Q 1266 113 1500 113 
L 1500 0 
L 84 0 
L 84 113 
L 147 113 
Q 366 113 442 223 
Q 519 334 519 647 
L 519 1709 
Q 519 2225 495 2337 
Q 472 2450 423 2490 
Q 375 2531 294 2531 
Q 206 2531 84 2484 
L 38 2597 
L 900 2947 
L 1034 2947 
L 1034 2341 
z
" transform="scale(0.015625)"/>
     </defs>
     <use xlink:href="#TimesNewRomanPSMT-42"/>
     <use xlink:href="#TimesNewRomanPSMT-65" transform="translate(66.699219 0)"/>
     <use xlink:href="#TimesNewRomanPSMT-66" transform="translate(111.083984 0)"/>
     <use xlink:href="#TimesNewRomanPSMT-6f" transform="translate(144.384766 0)"/>
     <use xlink:href="#TimesNewRomanPSMT-72" transform="translate(194.384766 0)"/>
     <use xlink:href="#TimesNewRomanPSMT-65" transform="translate(227.685547 0)"/>
     <use xlink:href="#TimesNewRomanPSMT-20" transform="translate(272.070312 0)"/>
     <use xlink:href="#TimesNewRomanPSMT-69" transform="translate(297.070312 0)"/>
     <use xlink:href="#TimesNewRomanPSMT-6d" transform="translate(324.853516 0)"/>
     <use xlink:href="#TimesNewRomanPSMT-70" transform="translate(402.636719 0)"/>
     <use xlink:href="#TimesNewRomanPSMT-75" transform="translate(452.636719 0)"/>
     <use xlink:href="#TimesNewRomanPSMT-74" transform="translate(502.636719 0)"/>
     <use xlink:href="#TimesNewRomanPSMT-61" transform="translate(530.419922 0)"/>
     <use xlink:href="#TimesNewRomanPSMT-74" transform="translate(574.804688 0)"/>
     <use xlink:href="#TimesNewRomanPSMT-69" transform="translate(602.587891 0)"/>
     <use xlink:href="#TimesNewRomanPSMT-6f" transform="translate(630.371094 0)"/>
     <use xlink:href="#TimesNewRomanPSMT-6e" transform="translate(680.371094 0)"/>
    </g>
   </g>
   <g id="legend_1">
    <g id="patch_7">
     <path d="M 765.089375 46.600469 
L 836.946875 46.600469 
Q 839.146875 46.600469 839.146875 44.400469 
L 839.146875 29.926875 
Q 839.146875 27.726875 836.946875 27.726875 
L 765.089375 27.726875 
Q 762.889375 27.726875 762.889375 29.926875 
L 762.889375 44.400469 
Q 762.889375 46.600469 765.089375 46.600469 
z
" style="fill: #ffffff; opacity: 0.8; stroke: #cccccc; stroke-linejoin: miter"/>
    </g>
    <g id="line2d_16">
     <path d="M 767.289375 35.976875 
L 778.289375 35.976875 
L 789.289375 35.976875 
" style="fill: none; stroke-dasharray: 5.55,2.4; stroke-dashoffset: 0; stroke: #000000; stroke-width: 1.5"/>
    </g>
    <g id="text_8">
     <!-- Original -->
     <g style="fill: #262626" transform="translate(798.089375 39.826875) scale(0.11 -0.11)">
      <defs>
       <path id="TimesNewRomanPSMT-4f" d="M 2341 4334 
Q 3166 4334 3770 3707 
Q 4375 3081 4375 2144 
Q 4375 1178 3765 540 
Q 3156 -97 2291 -97 
Q 1416 -97 820 525 
Q 225 1147 225 2134 
Q 225 3144 913 3781 
Q 1509 4334 2341 4334 
z
M 2281 4106 
Q 1713 4106 1369 3684 
Q 941 3159 941 2147 
Q 941 1109 1384 550 
Q 1725 125 2284 125 
Q 2881 125 3270 590 
Q 3659 1056 3659 2059 
Q 3659 3147 3231 3681 
Q 2888 4106 2281 4106 
z
" transform="scale(0.015625)"/>
       <path id="TimesNewRomanPSMT-67" d="M 966 1044 
Q 703 1172 562 1401 
Q 422 1631 422 1909 
Q 422 2334 742 2640 
Q 1063 2947 1563 2947 
Q 1972 2947 2272 2747 
L 2878 2747 
Q 3013 2747 3034 2739 
Q 3056 2731 3066 2713 
Q 3084 2684 3084 2613 
Q 3084 2531 3069 2500 
Q 3059 2484 3036 2475 
Q 3013 2466 2878 2466 
L 2506 2466 
Q 2681 2241 2681 1891 
Q 2681 1491 2375 1206 
Q 2069 922 1553 922 
Q 1341 922 1119 984 
Q 981 866 932 777 
Q 884 688 884 625 
Q 884 572 936 522 
Q 988 472 1138 450 
Q 1225 438 1575 428 
Q 2219 413 2409 384 
Q 2700 344 2873 169 
Q 3047 -6 3047 -263 
Q 3047 -616 2716 -925 
Q 2228 -1381 1444 -1381 
Q 841 -1381 425 -1109 
Q 191 -953 191 -784 
Q 191 -709 225 -634 
Q 278 -519 444 -313 
Q 466 -284 763 25 
Q 600 122 533 198 
Q 466 275 466 372 
Q 466 481 555 628 
Q 644 775 966 1044 
z
M 1509 2797 
Q 1278 2797 1122 2612 
Q 966 2428 966 2047 
Q 966 1553 1178 1281 
Q 1341 1075 1591 1075 
Q 1828 1075 1981 1253 
Q 2134 1431 2134 1813 
Q 2134 2309 1919 2591 
Q 1759 2797 1509 2797 
z
M 934 0 
Q 788 -159 713 -296 
Q 638 -434 638 -550 
Q 638 -700 819 -813 
Q 1131 -1006 1722 -1006 
Q 2284 -1006 2551 -807 
Q 2819 -609 2819 -384 
Q 2819 -222 2659 -153 
Q 2497 -84 2016 -72 
Q 1313 -53 934 0 
z
" transform="scale(0.015625)"/>
       <path id="TimesNewRomanPSMT-6c" d="M 1184 4444 
L 1184 647 
Q 1184 378 1223 290 
Q 1263 203 1344 158 
Q 1425 113 1647 113 
L 1647 0 
L 244 0 
L 244 113 
Q 441 113 512 153 
Q 584 194 625 287 
Q 666 381 666 647 
L 666 3247 
Q 666 3731 644 3842 
Q 622 3953 573 3993 
Q 525 4034 450 4034 
Q 369 4034 244 3984 
L 191 4094 
L 1044 4444 
L 1184 4444 
z
" transform="scale(0.015625)"/>
      </defs>
      <use xlink:href="#TimesNewRomanPSMT-4f"/>
      <use xlink:href="#TimesNewRomanPSMT-72" transform="translate(72.216797 0)"/>
      <use xlink:href="#TimesNewRomanPSMT-69" transform="translate(105.517578 0)"/>
      <use xlink:href="#TimesNewRomanPSMT-67" transform="translate(133.300781 0)"/>
      <use xlink:href="#TimesNewRomanPSMT-69" transform="translate(183.300781 0)"/>
      <use xlink:href="#TimesNewRomanPSMT-6e" transform="translate(211.083984 0)"/>
      <use xlink:href="#TimesNewRomanPSMT-61" transform="translate(261.083984 0)"/>
      <use xlink:href="#TimesNewRomanPSMT-6c" transform="translate(305.46875 0)"/>
     </g>
    </g>
   </g>
  </g>
  <g id="axes_2">
   <g id="patch_8">
    <path d="M 34.621875 453.066875 
L 844.646875 453.066875 
L 844.646875 251.446875 
L 34.621875 251.446875 
z
" style="fill: #ffffff"/>
   </g>
   <g id="matplotlib.axis_3">
    <g id="xtick_10">
     <g id="line2d_17">
      <path d="M 71.441193 453.066875 
L 71.441193 251.446875 
" clip-path="url(#p6461bd782a)" style="fill: none; stroke: #d5d9df; stroke-width: 0.6; stroke-linecap: round"/>
     </g>
     <g id="text_9">
      <!-- 07-10 00 -->
      <g style="fill: #262626" transform="translate(51.734865 467.705) scale(0.11 -0.11)">
       <defs>
        <path id="TimesNewRomanPSMT-37" d="M 644 4238 
L 2916 4238 
L 2916 4119 
L 1503 -88 
L 1153 -88 
L 2419 3728 
L 1253 3728 
Q 900 3728 750 3644 
Q 488 3500 328 3200 
L 238 3234 
L 644 4238 
z
" transform="scale(0.015625)"/>
        <path id="TimesNewRomanPSMT-2d" d="M 259 1672 
L 1875 1672 
L 1875 1200 
L 259 1200 
L 259 1672 
z
" transform="scale(0.015625)"/>
       </defs>
       <use xlink:href="#TimesNewRomanPSMT-30"/>
       <use xlink:href="#TimesNewRomanPSMT-37" transform="translate(50 0)"/>
       <use xlink:href="#TimesNewRomanPSMT-2d" transform="translate(100 0)"/>
       <use xlink:href="#TimesNewRomanPSMT-31" transform="translate(133.300781 0)"/>
       <use xlink:href="#TimesNewRomanPSMT-30" transform="translate(183.300781 0)"/>
       <use xlink:href="#TimesNewRomanPSMT-20" transform="translate(233.300781 0)"/>
       <use xlink:href="#TimesNewRomanPSMT-30" transform="translate(258.300781 0)"/>
       <use xlink:href="#TimesNewRomanPSMT-30" transform="translate(308.300781 0)"/>
      </g>
     </g>
    </g>
    <g id="xtick_11">
     <g id="line2d_18">
      <path d="M 164.458418 453.066875 
L 164.458418 251.446875 
" clip-path="url(#p6461bd782a)" style="fill: none; stroke: #d5d9df; stroke-width: 0.6; stroke-linecap: round"/>
     </g>
     <g id="text_10">
      <!-- 07-10 12 -->
      <g style="fill: #262626" transform="translate(144.75209 467.705) scale(0.11 -0.11)">
       <use xlink:href="#TimesNewRomanPSMT-30"/>
       <use xlink:href="#TimesNewRomanPSMT-37" transform="translate(50 0)"/>
       <use xlink:href="#TimesNewRomanPSMT-2d" transform="translate(100 0)"/>
       <use xlink:href="#TimesNewRomanPSMT-31" transform="translate(133.300781 0)"/>
       <use xlink:href="#TimesNewRomanPSMT-30" transform="translate(183.300781 0)"/>
       <use xlink:href="#TimesNewRomanPSMT-20" transform="translate(233.300781 0)"/>
       <use xlink:href="#TimesNewRomanPSMT-31" transform="translate(258.300781 0)"/>
       <use xlink:href="#TimesNewRomanPSMT-32" transform="translate(308.300781 0)"/>
      </g>
     </g>
    </g>
    <g id="xtick_12">
     <g id="line2d_19">
      <path d="M 257.475643 453.066875 
L 257.475643 251.446875 
" clip-path="url(#p6461bd782a)" style="fill: none; stroke: #d5d9df; stroke-width: 0.6; stroke-linecap: round"/>
     </g>
     <g id="text_11">
      <!-- 07-11 00 -->
      <g style="fill: #262626" transform="translate(237.975565 467.705) scale(0.11 -0.11)">
       <use xlink:href="#TimesNewRomanPSMT-30"/>
       <use xlink:href="#TimesNewRomanPSMT-37" transform="translate(50 0)"/>
       <use xlink:href="#TimesNewRomanPSMT-2d" transform="translate(100 0)"/>
       <use xlink:href="#TimesNewRomanPSMT-31" transform="translate(133.300781 0)"/>
       <use xlink:href="#TimesNewRomanPSMT-31" transform="translate(179.550781 0)"/>
       <use xlink:href="#TimesNewRomanPSMT-20" transform="translate(229.550781 0)"/>
       <use xlink:href="#TimesNewRomanPSMT-30" transform="translate(254.550781 0)"/>
       <use xlink:href="#TimesNewRomanPSMT-30" transform="translate(304.550781 0)"/>
      </g>
     </g>
    </g>
    <g id="xtick_13">
     <g id="line2d_20">
      <path d="M 350.492868 453.066875 
L 350.492868 251.446875 
" clip-path="url(#p6461bd782a)" style="fill: none; stroke: #d5d9df; stroke-width: 0.6; stroke-linecap: round"/>
     </g>
     <g id="text_12">
      <!-- 07-11 12 -->
      <g style="fill: #262626" transform="translate(330.99279 467.705) scale(0.11 -0.11)">
       <use xlink:href="#TimesNewRomanPSMT-30"/>
       <use xlink:href="#TimesNewRomanPSMT-37" transform="translate(50 0)"/>
       <use xlink:href="#TimesNewRomanPSMT-2d" transform="translate(100 0)"/>
       <use xlink:href="#TimesNewRomanPSMT-31" transform="translate(133.300781 0)"/>
       <use xlink:href="#TimesNewRomanPSMT-31" transform="translate(179.550781 0)"/>
       <use xlink:href="#TimesNewRomanPSMT-20" transform="translate(229.550781 0)"/>
       <use xlink:href="#TimesNewRomanPSMT-31" transform="translate(254.550781 0)"/>
       <use xlink:href="#TimesNewRomanPSMT-32" transform="translate(304.550781 0)"/>
      </g>
     </g>
    </g>
    <g id="xtick_14">
     <g id="line2d_21">
      <path d="M 443.510093 453.066875 
L 443.510093 251.446875 
" clip-path="url(#p6461bd782a)" style="fill: none; stroke: #d5d9df; stroke-width: 0.6; stroke-linecap: round"/>
     </g>
     <g id="text_13">
      <!-- 07-12 00 -->
      <g style="fill: #262626" transform="translate(423.803765 467.705) scale(0.11 -0.11)">
       <use xlink:href="#TimesNewRomanPSMT-30"/>
       <use xlink:href="#TimesNewRomanPSMT-37" transform="translate(50 0)"/>
       <use xlink:href="#TimesNewRomanPSMT-2d" transform="translate(100 0)"/>
       <use xlink:href="#TimesNewRomanPSMT-31" transform="translate(133.300781 0)"/>
       <use xlink:href="#TimesNewRomanPSMT-32" transform="translate(183.300781 0)"/>
       <use xlink:href="#TimesNewRomanPSMT-20" transform="translate(233.300781 0)"/>
       <use xlink:href="#TimesNewRomanPSMT-30" transform="translate(258.300781 0)"/>
       <use xlink:href="#TimesNewRomanPSMT-30" transform="translate(308.300781 0)"/>
      </g>
     </g>
    </g>
    <g id="xtick_15">
     <g id="line2d_22">
      <path d="M 536.527318 453.066875 
L 536.527318 251.446875 
" clip-path="url(#p6461bd782a)" style="fill: none; stroke: #d5d9df; stroke-width: 0.6; stroke-linecap: round"/>
     </g>
     <g id="text_14">
      <!-- 07-12 12 -->
      <g style="fill: #262626" transform="translate(516.820989 467.705) scale(0.11 -0.11)">
       <use xlink:href="#TimesNewRomanPSMT-30"/>
       <use xlink:href="#TimesNewRomanPSMT-37" transform="translate(50 0)"/>
       <use xlink:href="#TimesNewRomanPSMT-2d" transform="translate(100 0)"/>
       <use xlink:href="#TimesNewRomanPSMT-31" transform="translate(133.300781 0)"/>
       <use xlink:href="#TimesNewRomanPSMT-32" transform="translate(183.300781 0)"/>
       <use xlink:href="#TimesNewRomanPSMT-20" transform="translate(233.300781 0)"/>
       <use xlink:href="#TimesNewRomanPSMT-31" transform="translate(258.300781 0)"/>
       <use xlink:href="#TimesNewRomanPSMT-32" transform="translate(308.300781 0)"/>
      </g>
     </g>
    </g>
    <g id="xtick_16">
     <g id="line2d_23">
      <path d="M 629.544542 453.066875 
L 629.544542 251.446875 
" clip-path="url(#p6461bd782a)" style="fill: none; stroke: #d5d9df; stroke-width: 0.6; stroke-linecap: round"/>
     </g>
     <g id="text_15">
      <!-- 07-13 00 -->
      <g style="fill: #262626" transform="translate(609.838214 467.705) scale(0.11 -0.11)">
       <use xlink:href="#TimesNewRomanPSMT-30"/>
       <use xlink:href="#TimesNewRomanPSMT-37" transform="translate(50 0)"/>
       <use xlink:href="#TimesNewRomanPSMT-2d" transform="translate(100 0)"/>
       <use xlink:href="#TimesNewRomanPSMT-31" transform="translate(133.300781 0)"/>
       <use xlink:href="#TimesNewRomanPSMT-33" transform="translate(183.300781 0)"/>
       <use xlink:href="#TimesNewRomanPSMT-20" transform="translate(233.300781 0)"/>
       <use xlink:href="#TimesNewRomanPSMT-30" transform="translate(258.300781 0)"/>
       <use xlink:href="#TimesNewRomanPSMT-30" transform="translate(308.300781 0)"/>
      </g>
     </g>
    </g>
    <g id="xtick_17">
     <g id="line2d_24">
      <path d="M 722.561767 453.066875 
L 722.561767 251.446875 
" clip-path="url(#p6461bd782a)" style="fill: none; stroke: #d5d9df; stroke-width: 0.6; stroke-linecap: round"/>
     </g>
     <g id="text_16">
      <!-- 07-13 12 -->
      <g style="fill: #262626" transform="translate(702.855439 467.705) scale(0.11 -0.11)">
       <use xlink:href="#TimesNewRomanPSMT-30"/>
       <use xlink:href="#TimesNewRomanPSMT-37" transform="translate(50 0)"/>
       <use xlink:href="#TimesNewRomanPSMT-2d" transform="translate(100 0)"/>
       <use xlink:href="#TimesNewRomanPSMT-31" transform="translate(133.300781 0)"/>
       <use xlink:href="#TimesNewRomanPSMT-33" transform="translate(183.300781 0)"/>
       <use xlink:href="#TimesNewRomanPSMT-20" transform="translate(233.300781 0)"/>
       <use xlink:href="#TimesNewRomanPSMT-31" transform="translate(258.300781 0)"/>
       <use xlink:href="#TimesNewRomanPSMT-32" transform="translate(308.300781 0)"/>
      </g>
     </g>
    </g>
    <g id="xtick_18">
     <g id="line2d_25">
      <path d="M 815.578992 453.066875 
L 815.578992 251.446875 
" clip-path="url(#p6461bd782a)" style="fill: none; stroke: #d5d9df; stroke-width: 0.6; stroke-linecap: round"/>
     </g>
     <g id="text_17">
      <!-- 07-14 00 -->
      <g style="fill: #262626" transform="translate(795.872664 467.705) scale(0.11 -0.11)">
       <use xlink:href="#TimesNewRomanPSMT-30"/>
       <use xlink:href="#TimesNewRomanPSMT-37" transform="translate(50 0)"/>
       <use xlink:href="#TimesNewRomanPSMT-2d" transform="translate(100 0)"/>
       <use xlink:href="#TimesNewRomanPSMT-31" transform="translate(133.300781 0)"/>
       <use xlink:href="#TimesNewRomanPSMT-34" transform="translate(183.300781 0)"/>
       <use xlink:href="#TimesNewRomanPSMT-20" transform="translate(233.300781 0)"/>
       <use xlink:href="#TimesNewRomanPSMT-30" transform="translate(258.300781 0)"/>
       <use xlink:href="#TimesNewRomanPSMT-30" transform="translate(308.300781 0)"/>
      </g>
     </g>
    </g>
    <g id="text_18">
     <!-- Timestamp -->
     <g style="fill: #262626" transform="translate(412.85 482.390469) scale(0.12 -0.12)">
      <defs>
       <path id="TimesNewRomanPSMT-54" d="M 3703 4238 
L 3750 3244 
L 3631 3244 
Q 3597 3506 3538 3619 
Q 3441 3800 3280 3886 
Q 3119 3972 2856 3972 
L 2259 3972 
L 2259 734 
Q 2259 344 2344 247 
Q 2463 116 2709 116 
L 2856 116 
L 2856 0 
L 1059 0 
L 1059 116 
L 1209 116 
Q 1478 116 1591 278 
Q 1659 378 1659 734 
L 1659 3972 
L 1150 3972 
Q 853 3972 728 3928 
Q 566 3869 450 3700 
Q 334 3531 313 3244 
L 194 3244 
L 244 4238 
L 3703 4238 
z
" transform="scale(0.015625)"/>
       <path id="TimesNewRomanPSMT-73" d="M 2050 2947 
L 2050 1972 
L 1947 1972 
Q 1828 2431 1642 2597 
Q 1456 2763 1169 2763 
Q 950 2763 815 2647 
Q 681 2531 681 2391 
Q 681 2216 781 2091 
Q 878 1963 1175 1819 
L 1631 1597 
Q 2266 1288 2266 781 
Q 2266 391 1970 151 
Q 1675 -88 1309 -88 
Q 1047 -88 709 6 
Q 606 38 541 38 
Q 469 38 428 -44 
L 325 -44 
L 325 978 
L 428 978 
Q 516 541 762 319 
Q 1009 97 1316 97 
Q 1531 97 1667 223 
Q 1803 350 1803 528 
Q 1803 744 1651 891 
Q 1500 1038 1047 1263 
Q 594 1488 453 1669 
Q 313 1847 313 2119 
Q 313 2472 555 2709 
Q 797 2947 1181 2947 
Q 1350 2947 1591 2875 
Q 1750 2828 1803 2828 
Q 1853 2828 1881 2850 
Q 1909 2872 1947 2947 
L 2050 2947 
z
" transform="scale(0.015625)"/>
      </defs>
      <use xlink:href="#TimesNewRomanPSMT-54"/>
      <use xlink:href="#TimesNewRomanPSMT-69" transform="translate(57.583984 0)"/>
      <use xlink:href="#TimesNewRomanPSMT-6d" transform="translate(85.367188 0)"/>
      <use xlink:href="#TimesNewRomanPSMT-65" transform="translate(163.150391 0)"/>
      <use xlink:href="#TimesNewRomanPSMT-73" transform="translate(207.535156 0)"/>
      <use xlink:href="#TimesNewRomanPSMT-74" transform="translate(246.451172 0)"/>
      <use xlink:href="#TimesNewRomanPSMT-61" transform="translate(274.234375 0)"/>
      <use xlink:href="#TimesNewRomanPSMT-6d" transform="translate(318.619141 0)"/>
      <use xlink:href="#TimesNewRomanPSMT-70" transform="translate(396.402344 0)"/>
     </g>
    </g>
   </g>
   <g id="matplotlib.axis_4">
    <g id="ytick_6">
     <g id="line2d_26">
      <path d="M 34.621875 443.90233 
L 844.646875 443.90233 
" clip-path="url(#p6461bd782a)" style="fill: none; stroke: #d5d9df; stroke-width: 0.6; stroke-linecap: round"/>
     </g>
     <g id="text_19">
      <!-- 0 -->
      <g style="fill: #262626" transform="translate(22.121875 447.721392) scale(0.11 -0.11)">
       <use xlink:href="#TimesNewRomanPSMT-30"/>
      </g>
     </g>
    </g>
    <g id="ytick_7">
     <g id="line2d_27">
      <path d="M 34.621875 403.529883 
L 844.646875 403.529883 
" clip-path="url(#p6461bd782a)" style="fill: none; stroke: #d5d9df; stroke-width: 0.6; stroke-linecap: round"/>
     </g>
     <g id="text_20">
      <!-- 1 -->
      <g style="fill: #262626" transform="translate(22.121875 407.348945) scale(0.11 -0.11)">
       <use xlink:href="#TimesNewRomanPSMT-31"/>
      </g>
     </g>
    </g>
    <g id="ytick_8">
     <g id="line2d_28">
      <path d="M 34.621875 363.157436 
L 844.646875 363.157436 
" clip-path="url(#p6461bd782a)" style="fill: none; stroke: #d5d9df; stroke-width: 0.6; stroke-linecap: round"/>
     </g>
     <g id="text_21">
      <!-- 2 -->
      <g style="fill: #262626" transform="translate(22.121875 366.976498) scale(0.11 -0.11)">
       <use xlink:href="#TimesNewRomanPSMT-32"/>
      </g>
     </g>
    </g>
    <g id="ytick_9">
     <g id="line2d_29">
      <path d="M 34.621875 322.784989 
L 844.646875 322.784989 
" clip-path="url(#p6461bd782a)" style="fill: none; stroke: #d5d9df; stroke-width: 0.6; stroke-linecap: round"/>
     </g>
     <g id="text_22">
      <!-- 3 -->
      <g style="fill: #262626" transform="translate(22.121875 326.604051) scale(0.11 -0.11)">
       <use xlink:href="#TimesNewRomanPSMT-33"/>
      </g>
     </g>
    </g>
    <g id="ytick_10">
     <g id="line2d_30">
      <path d="M 34.621875 282.412542 
L 844.646875 282.412542 
" clip-path="url(#p6461bd782a)" style="fill: none; stroke: #d5d9df; stroke-width: 0.6; stroke-linecap: round"/>
     </g>
     <g id="text_23">
      <!-- 4 -->
      <g style="fill: #262626" transform="translate(22.121875 286.231604) scale(0.11 -0.11)">
       <use xlink:href="#TimesNewRomanPSMT-34"/>
      </g>
     </g>
    </g>
    <g id="text_24">
     <!-- pv_mod1 (kW) -->
     <g style="fill: #262626" transform="translate(15.5325 389.082812) rotate(-90) scale(0.12 -0.12)">
      <use xlink:href="#TimesNewRomanPSMT-70"/>
      <use xlink:href="#TimesNewRomanPSMT-76" transform="translate(50 0)"/>
      <use xlink:href="#TimesNewRomanPSMT-5f" transform="translate(100 0)"/>
      <use xlink:href="#TimesNewRomanPSMT-6d" transform="translate(150 0)"/>
      <use xlink:href="#TimesNewRomanPSMT-6f" transform="translate(227.783203 0)"/>
      <use xlink:href="#TimesNewRomanPSMT-64" transform="translate(277.783203 0)"/>
      <use xlink:href="#TimesNewRomanPSMT-31" transform="translate(327.783203 0)"/>
      <use xlink:href="#TimesNewRomanPSMT-20" transform="translate(377.783203 0)"/>
      <use xlink:href="#TimesNewRomanPSMT-28" transform="translate(402.783203 0)"/>
      <use xlink:href="#TimesNewRomanPSMT-6b" transform="translate(436.083984 0)"/>
      <use xlink:href="#TimesNewRomanPSMT-57" transform="translate(486.083984 0)"/>
      <use xlink:href="#TimesNewRomanPSMT-29" transform="translate(580.46875 0)"/>
     </g>
    </g>
   </g>
   <g id="line2d_31">
    <path d="M 71.441193 443.90233 
L 79.192629 443.90233 
L 86.944064 443.90233 
L 94.695499 443.90233 
L 102.446935 443.90233 
L 110.19837 438.653911 
L 117.949806 421.293759 
L 125.701241 376.884068 
L 133.452676 334.492998 
L 141.204112 303.00249 
L 148.955547 278.375297 
L 156.706983 328.840856 
L 164.458418 322.381264 
L 172.209853 335.704172 
L 179.961289 349.027079 
L 187.712724 353.064324 
L 195.46416 365.579782 
L 203.215595 408.778301 
L 210.967031 429.771973 
L 218.718466 436.837151 
L 226.469901 443.90233 
L 234.221337 443.90233 
L 241.972772 443.90233 
L 249.724208 443.90233 
L 257.475643 443.90233 
L 265.227078 443.90233 
L 272.978514 443.90233 
L 280.729949 443.90233 
L 288.481385 443.90233 
L 296.23282 439.865085 
L 303.984255 424.927279 
L 311.735691 401.914985 
L 319.487126 359.523915 
L 327.238562 307.443459 
L 334.989997 274.741777 
L 342.741432 260.61142 
L 350.492868 261.822594 
L 358.244303 270.704532 
L 365.995739 292.909378 
L 373.747174 322.381264 
L 381.498609 363.964885 
L 389.250045 407.567127 
L 397.00148 431.790595 
L 404.752916 438.653911 
L 412.504351 443.90233 
L 420.255786 443.90233 
L 428.007222 443.90233 
L 435.758657 443.90233 
L 443.510093 443.90233 
L 451.261528 443.90233 
L 459.012964 443.90233 
L 466.764399 443.90233 
L 474.515834 443.90233 
L 482.26727 438.653911 
L 490.018705 431.790595 
L 497.770141 424.927279 
L 505.521576 414.026719 
L 513.273011 394.647944 
L 521.024447 356.697844 
L 528.775882 315.316086 
L 536.527318 273.934328 
L 544.278753 282.816266 
L 552.030188 304.617388 
L 559.781624 333.281825 
L 567.533059 372.443098 
L 575.284495 408.778301 
L 583.03593 430.579422 
L 590.787365 439.865085 
L 598.538801 443.90233 
L 606.290236 443.90233 
L 614.041672 443.90233 
L 621.793107 443.90233 
L 629.544542 443.90233 
L 637.295978 443.90233 
L 645.047413 443.90233 
L 652.798849 443.90233 
L 660.550284 440.672534 
L 668.301719 437.442738 
L 676.053155 421.697484 
L 683.80459 387.380904 
L 691.556026 346.604732 
L 699.307461 314.306775 
L 707.058897 292.505654 
L 714.810332 297.754072 
L 722.561767 297.754072 
L 730.313203 305.424837 
L 738.064638 313.095601 
L 745.816074 349.834528 
L 753.567509 372.443098 
L 761.318944 409.58575 
L 769.07038 430.579422 
L 776.821815 439.46136 
L 784.573251 441.681845 
L 792.324686 443.90233 
L 800.076121 443.90233 
L 807.827557 443.90233 
" clip-path="url(#p6461bd782a)" style="fill: none; stroke: #4472c4; stroke-width: 1.5; stroke-linecap: round"/>
   </g>
   <g id="line2d_32">
    <path d="M 71.441193 443.90233 
L 79.192629 443.90233 
L 86.944064 443.90233 
L 94.695499 443.90233 
L 102.446935 443.90233 
L 110.19837 438.653911 
L 117.949806 421.293759 
L 125.701241 376.884068 
L 133.452676 334.492998 
L 141.204112 303.00249 
L 148.955547 278.375297 
L 156.706983 328.840856 
L 164.458418 322.381264 
L 172.209853 335.704172 
L 179.961289 349.027079 
L 187.712724 353.064324 
L 195.46416 365.579782 
L 203.215595 408.778301 
L 210.967031 429.771973 
L 218.718466 438.653911 
L 226.469901 443.90233 
L 234.221337 443.90233 
L 241.972772 443.90233 
L 249.724208 443.90233 
L 257.475643 443.90233 
L 265.227078 443.90233 
L 272.978514 443.90233 
L 280.729949 443.90233 
L 288.481385 443.90233 
L 296.23282 439.865085 
L 303.984255 424.927279 
L 311.735691 401.914985 
L 319.487126 359.523915 
L 327.238562 307.443459 
L 334.989997 274.741777 
L 342.741432 260.61142 
L 350.492868 261.822594 
L 358.244303 270.704532 
L 365.995739 292.909378 
L 373.747174 322.381264 
L 381.498609 363.964885 
L 389.250045 407.567127 
L 397.00148 431.790595 
L 404.752916 438.653911 
L 412.504351 443.90233 
L 420.255786 443.90233 
L 428.007222 443.90233 
L 435.758657 443.90233 
L 443.510093 443.90233 
L 451.261528 443.90233 
L 459.012964 443.90233 
L 466.764399 443.90233 
L 474.515834 443.90233 
L 482.26727 438.653911 
L 490.018705 422.504933 
L 497.770141 424.927279 
L 505.521576 414.026719 
L 513.273011 394.647944 
L 521.024447 356.697844 
L 528.775882 417.257728 
L 536.527318 273.934328 
L 544.278753 282.816266 
L 552.030188 304.617388 
L 559.781624 333.281825 
L 567.533059 372.443098 
L 575.284495 408.778301 
L 583.03593 430.579422 
L 590.787365 439.865085 
L 598.538801 443.90233 
L 606.290236 443.90233 
L 614.041672 443.90233 
L 621.793107 443.90233 
L 629.544542 443.90233 
L 637.295978 443.90233 
L 645.047413 443.90233 
L 652.798849 443.90233 
L 660.550284 443.90233 
L 668.301719 437.442738 
L 676.053155 421.697484 
L 683.80459 387.380904 
L 691.556026 346.604732 
L 699.307461 314.306775 
L 707.058897 292.505654 
L 714.810332 297.754072 
L 722.561767 297.754072 
L 730.313203 305.424837 
L 738.064638 313.095601 
L 745.816074 349.834528 
L 753.567509 372.443098 
L 761.318944 409.58575 
L 769.07038 430.579422 
L 776.821815 439.46136 
L 784.573251 443.90233 
L 792.324686 443.90233 
L 800.076121 443.90233 
L 807.827557 443.90233 
" clip-path="url(#p6461bd782a)" style="fill: none; stroke: #ed7d31; stroke-width: 1.5; stroke-linecap: round"/>
   </g>
   <g id="patch_9">
    <path d="M 34.621875 453.066875 
L 34.621875 251.446875 
" style="fill: none; stroke: #ffffff; stroke-width: 0.8; stroke-linejoin: miter; stroke-linecap: square"/>
   </g>
   <g id="patch_10">
    <path d="M 844.646875 453.066875 
L 844.646875 251.446875 
" style="fill: none; stroke: #ffffff; stroke-width: 0.8; stroke-linejoin: miter; stroke-linecap: square"/>
   </g>
   <g id="patch_11">
    <path d="M 34.621875 453.066875 
L 844.646875 453.066875 
" style="fill: none; stroke: #ffffff; stroke-width: 0.8; stroke-linejoin: miter; stroke-linecap: square"/>
   </g>
   <g id="patch_12">
    <path d="M 34.621875 251.446875 
L 844.646875 251.446875 
" style="fill: none; stroke: #ffffff; stroke-width: 0.8; stroke-linejoin: miter; stroke-linecap: square"/>
   </g>
   <g id="text_25">
    <!-- After imputation -->
    <g style="fill: #262626" transform="translate(396.131094 245.446875) scale(0.13 -0.13)">
     <defs>
      <path id="TimesNewRomanPSMT-41" d="M 2928 1419 
L 1288 1419 
L 1000 750 
Q 894 503 894 381 
Q 894 284 986 211 
Q 1078 138 1384 116 
L 1384 0 
L 50 0 
L 50 116 
Q 316 163 394 238 
Q 553 388 747 847 
L 2238 4334 
L 2347 4334 
L 3822 809 
Q 4000 384 4145 257 
Q 4291 131 4550 116 
L 4550 0 
L 2878 0 
L 2878 116 
Q 3131 128 3220 200 
Q 3309 272 3309 375 
Q 3309 513 3184 809 
L 2928 1419 
z
M 2841 1650 
L 2122 3363 
L 1384 1650 
L 2841 1650 
z
" transform="scale(0.015625)"/>
     </defs>
     <use xlink:href="#TimesNewRomanPSMT-41"/>
     <use xlink:href="#TimesNewRomanPSMT-66" transform="translate(72.216797 0)"/>
     <use xlink:href="#TimesNewRomanPSMT-74" transform="translate(105.517578 0)"/>
     <use xlink:href="#TimesNewRomanPSMT-65" transform="translate(133.300781 0)"/>
     <use xlink:href="#TimesNewRomanPSMT-72" transform="translate(177.685547 0)"/>
     <use xlink:href="#TimesNewRomanPSMT-20" transform="translate(210.986328 0)"/>
     <use xlink:href="#TimesNewRomanPSMT-69" transform="translate(235.986328 0)"/>
     <use xlink:href="#TimesNewRomanPSMT-6d" transform="translate(263.769531 0)"/>
     <use xlink:href="#TimesNewRomanPSMT-70" transform="translate(341.552734 0)"/>
     <use xlink:href="#TimesNewRomanPSMT-75" transform="translate(391.552734 0)"/>
     <use xlink:href="#TimesNewRomanPSMT-74" transform="translate(441.552734 0)"/>
     <use xlink:href="#TimesNewRomanPSMT-61" transform="translate(469.335938 0)"/>
     <use xlink:href="#TimesNewRomanPSMT-74" transform="translate(513.720703 0)"/>
     <use xlink:href="#TimesNewRomanPSMT-69" transform="translate(541.503906 0)"/>
     <use xlink:href="#TimesNewRomanPSMT-6f" transform="translate(569.287109 0)"/>
     <use xlink:href="#TimesNewRomanPSMT-6e" transform="translate(619.287109 0)"/>
    </g>
   </g>
   <g id="legend_2">
    <g id="patch_13">
     <path d="M 713.466719 291.352812 
L 836.946875 291.352812 
Q 839.146875 291.352812 839.146875 289.152812 
L 839.146875 259.146875 
Q 839.146875 256.946875 836.946875 256.946875 
L 713.466719 256.946875 
Q 711.266719 256.946875 711.266719 259.146875 
L 711.266719 289.152812 
Q 711.266719 291.352812 713.466719 291.352812 
z
" style="fill: #ffffff; opacity: 0.8; stroke: #cccccc; stroke-linejoin: miter"/>
    </g>
    <g id="line2d_33">
     <path d="M 715.666719 265.196875 
L 726.666719 265.196875 
L 737.666719 265.196875 
" style="fill: none; stroke: #4472c4; stroke-width: 1.5; stroke-linecap: round"/>
    </g>
    <g id="text_26">
     <!-- Univariate (linear) -->
     <g style="fill: #262626" transform="translate(746.466719 269.046875) scale(0.11 -0.11)">
      <defs>
       <path id="TimesNewRomanPSMT-55" d="M 3053 4122 
L 3053 4238 
L 4553 4238 
L 4553 4122 
L 4394 4122 
Q 4144 4122 4009 3913 
Q 3944 3816 3944 3463 
L 3944 1744 
Q 3944 1106 3817 754 
Q 3691 403 3320 151 
Q 2950 -100 2313 -100 
Q 1619 -100 1259 140 
Q 900 381 750 788 
Q 650 1066 650 1831 
L 650 3488 
Q 650 3878 542 4000 
Q 434 4122 194 4122 
L 34 4122 
L 34 4238 
L 1866 4238 
L 1866 4122 
L 1703 4122 
Q 1441 4122 1328 3956 
Q 1250 3844 1250 3488 
L 1250 1641 
Q 1250 1394 1295 1075 
Q 1341 756 1459 578 
Q 1578 400 1801 284 
Q 2025 169 2350 169 
Q 2766 169 3094 350 
Q 3422 531 3542 814 
Q 3663 1097 3663 1772 
L 3663 3488 
Q 3663 3884 3575 3984 
Q 3453 4122 3213 4122 
L 3053 4122 
z
" transform="scale(0.015625)"/>
      </defs>
      <use xlink:href="#TimesNewRomanPSMT-55"/>
      <use xlink:href="#TimesNewRomanPSMT-6e" transform="translate(72.216797 0)"/>
      <use xlink:href="#TimesNewRomanPSMT-69" transform="translate(122.216797 0)"/>
      <use xlink:href="#TimesNewRomanPSMT-76" transform="translate(150 0)"/>
      <use xlink:href="#TimesNewRomanPSMT-61" transform="translate(200 0)"/>
      <use xlink:href="#TimesNewRomanPSMT-72" transform="translate(244.384766 0)"/>
      <use xlink:href="#TimesNewRomanPSMT-69" transform="translate(277.685547 0)"/>
      <use xlink:href="#TimesNewRomanPSMT-61" transform="translate(305.46875 0)"/>
      <use xlink:href="#TimesNewRomanPSMT-74" transform="translate(349.853516 0)"/>
      <use xlink:href="#TimesNewRomanPSMT-65" transform="translate(377.636719 0)"/>
      <use xlink:href="#TimesNewRomanPSMT-20" transform="translate(422.021484 0)"/>
      <use xlink:href="#TimesNewRomanPSMT-28" transform="translate(447.021484 0)"/>
      <use xlink:href="#TimesNewRomanPSMT-6c" transform="translate(480.322266 0)"/>
      <use xlink:href="#TimesNewRomanPSMT-69" transform="translate(508.105469 0)"/>
      <use xlink:href="#TimesNewRomanPSMT-6e" transform="translate(535.888672 0)"/>
      <use xlink:href="#TimesNewRomanPSMT-65" transform="translate(585.888672 0)"/>
      <use xlink:href="#TimesNewRomanPSMT-61" transform="translate(630.273438 0)"/>
      <use xlink:href="#TimesNewRomanPSMT-72" transform="translate(674.658203 0)"/>
      <use xlink:href="#TimesNewRomanPSMT-29" transform="translate(707.958984 0)"/>
     </g>
    </g>
    <g id="line2d_34">
     <path d="M 715.666719 280.749844 
L 726.666719 280.749844 
L 737.666719 280.749844 
" style="fill: none; stroke: #ed7d31; stroke-width: 1.5; stroke-linecap: round"/>
    </g>
    <g id="text_27">
     <!-- Multivariate (KNN) -->
     <g style="fill: #262626" transform="translate(746.466719 284.599844) scale(0.11 -0.11)">
      <defs>
       <path id="TimesNewRomanPSMT-4d" d="M 2619 0 
L 981 3566 
L 981 734 
Q 981 344 1066 247 
Q 1181 116 1431 116 
L 1581 116 
L 1581 0 
L 106 0 
L 106 116 
L 256 116 
Q 525 116 638 278 
Q 706 378 706 734 
L 706 3503 
Q 706 3784 644 3909 
Q 600 4000 483 4061 
Q 366 4122 106 4122 
L 106 4238 
L 1306 4238 
L 2844 922 
L 4356 4238 
L 5556 4238 
L 5556 4122 
L 5409 4122 
Q 5138 4122 5025 3959 
Q 4956 3859 4956 3503 
L 4956 734 
Q 4956 344 5044 247 
Q 5159 116 5409 116 
L 5556 116 
L 5556 0 
L 3756 0 
L 3756 116 
L 3906 116 
Q 4178 116 4288 278 
Q 4356 378 4356 734 
L 4356 3566 
L 2722 0 
L 2619 0 
z
" transform="scale(0.015625)"/>
       <path id="TimesNewRomanPSMT-4b" d="M 1913 2350 
L 3475 797 
Q 3859 413 4131 273 
Q 4403 134 4675 116 
L 4675 0 
L 2659 0 
L 2659 116 
Q 2841 116 2920 177 
Q 3000 238 3000 313 
Q 3000 388 2970 447 
Q 2941 506 2775 669 
L 1313 2116 
L 1313 750 
Q 1313 428 1353 325 
Q 1384 247 1484 191 
Q 1619 116 1769 116 
L 1913 116 
L 1913 0 
L 106 0 
L 106 116 
L 256 116 
Q 519 116 638 269 
Q 713 369 713 750 
L 713 3488 
Q 713 3809 672 3916 
Q 641 3991 544 4047 
Q 406 4122 256 4122 
L 106 4122 
L 106 4238 
L 1913 4238 
L 1913 4122 
L 1769 4122 
Q 1622 4122 1484 4050 
Q 1388 4000 1350 3900 
Q 1313 3800 1313 3488 
L 1313 2191 
Q 1375 2250 1741 2588 
Q 2669 3438 2863 3722 
Q 2947 3847 2947 3941 
Q 2947 4013 2881 4067 
Q 2816 4122 2659 4122 
L 2563 4122 
L 2563 4238 
L 4119 4238 
L 4119 4122 
Q 3981 4119 3868 4084 
Q 3756 4050 3593 3951 
Q 3431 3853 3194 3634 
Q 3125 3572 2559 2994 
L 1913 2350 
z
" transform="scale(0.015625)"/>
       <path id="TimesNewRomanPSMT-4e" d="M -84 4238 
L 1066 4238 
L 3656 1059 
L 3656 3503 
Q 3656 3894 3569 3991 
Q 3453 4122 3203 4122 
L 3056 4122 
L 3056 4238 
L 4531 4238 
L 4531 4122 
L 4381 4122 
Q 4113 4122 4000 3959 
Q 3931 3859 3931 3503 
L 3931 -69 
L 3819 -69 
L 1025 3344 
L 1025 734 
Q 1025 344 1109 247 
Q 1228 116 1475 116 
L 1625 116 
L 1625 0 
L 150 0 
L 150 116 
L 297 116 
Q 569 116 681 278 
Q 750 378 750 734 
L 750 3681 
Q 566 3897 470 3965 
Q 375 4034 191 4094 
Q 100 4122 -84 4122 
L -84 4238 
z
" transform="scale(0.015625)"/>
      </defs>
      <use xlink:href="#TimesNewRomanPSMT-4d"/>
      <use xlink:href="#TimesNewRomanPSMT-75" transform="translate(88.916016 0)"/>
      <use xlink:href="#TimesNewRomanPSMT-6c" transform="translate(138.916016 0)"/>
      <use xlink:href="#TimesNewRomanPSMT-74" transform="translate(166.699219 0)"/>
      <use xlink:href="#TimesNewRomanPSMT-69" transform="translate(194.482422 0)"/>
      <use xlink:href="#TimesNewRomanPSMT-76" transform="translate(222.265625 0)"/>
      <use xlink:href="#TimesNewRomanPSMT-61" transform="translate(272.265625 0)"/>
      <use xlink:href="#TimesNewRomanPSMT-72" transform="translate(316.650391 0)"/>
      <use xlink:href="#TimesNewRomanPSMT-69" transform="translate(349.951172 0)"/>
      <use xlink:href="#TimesNewRomanPSMT-61" transform="translate(377.734375 0)"/>
      <use xlink:href="#TimesNewRomanPSMT-74" transform="translate(422.119141 0)"/>
      <use xlink:href="#TimesNewRomanPSMT-65" transform="translate(449.902344 0)"/>
      <use xlink:href="#TimesNewRomanPSMT-20" transform="translate(494.287109 0)"/>
      <use xlink:href="#TimesNewRomanPSMT-28" transform="translate(519.287109 0)"/>
      <use xlink:href="#TimesNewRomanPSMT-4b" transform="translate(552.587891 0)"/>
      <use xlink:href="#TimesNewRomanPSMT-4e" transform="translate(624.804688 0)"/>
      <use xlink:href="#TimesNewRomanPSMT-4e" transform="translate(697.021484 0)"/>
      <use xlink:href="#TimesNewRomanPSMT-29" transform="translate(769.238281 0)"/>
     </g>
    </g>
   </g>
  </g>
 </g>
 <defs>
  <clipPath id="p895d65d927">
   <rect x="34.621875" y="22.226875" width="810.025" height="201.62"/>
  </clipPath>
  <clipPath id="p6461bd782a">
   <rect x="34.621875" y="251.446875" width="810.025" height="201.62"/>
  </clipPath>
 </defs>
</svg>
