<svg class="main-svg" xmlns="http://www.w3.org/2000/svg" xmlns:xlink="http://www.w3.org/1999/xlink" width="1000" height="500" style="" viewBox="0 0 1000 500"><rect x="0" y="0" width="1000" height="500" style="fill: rgb(255, 255, 255); fill-opacity: 1;"/><defs id="defs-040949"><g class="clips"><clipPath id="clip040949xyplot" class="plotclip"><rect width="805" height="365"/></clipPath><clipPath class="axesclip" id="clip040949x"><rect x="70" y="0" width="805" height="500"/></clipPath><clipPath class="axesclip" id="clip040949y"><rect x="0" y="60" width="1000" height="365"/></clipPath><clipPath class="axesclip" id="clip040949xy"><rect x="70" y="60" width="805" height="365"/></clipPath></g><g class="gradients"/><g class="patterns"/></defs><g class="bglayer"/><g class="layer-below"><g class="imagelayer"/><g class="shapelayer"/></g><g class="cartesianlayer"><g class="subplot xy"><g class="layer-subplot"><g class="shapelayer"/><g class="imagelayer"/></g><g class="minor-gridlayer"><g class="x"/><g class="y"/></g><g class="gridlayer"><g class="x"><path class="xgrid crisp" transform="translate(105,0)" d="M0,60v365" style="stroke: rgb(255, 255, 255); stroke-opacity: 1; stroke-width: 1px;"/><path class="xgrid crisp" transform="translate(210,0)" d="M0,60v365" style="stroke: rgb(255, 255, 255); stroke-opacity: 1; stroke-width: 1px;"/><path class="xgrid crisp" transform="translate(315,0)" d="M0,60v365" style="stroke: rgb(255, 255, 255); stroke-opacity: 1; stroke-width: 1px;"/><path class="xgrid crisp" transform="translate(420,0)" d="M0,60v365" style="stroke: rgb(255, 255, 255); stroke-opacity: 1; stroke-width: 1px;"/><path class="xgrid crisp" transform="translate(525,0)" d="M0,60v365" style="stroke: rgb(255, 255, 255); stroke-opacity: 1; stroke-width: 1px;"/><path class="xgrid crisp" transform="translate(630,0)" d="M0,60v365" style="stroke: rgb(255, 255, 255); stroke-opacity: 1; stroke-width: 1px;"/><path class="xgrid crisp" transform="translate(735,0)" d="M0,60v365" style="stroke: rgb(255, 255, 255); stroke-opacity: 1; stroke-width: 1px;"/><path class="xgrid crisp" transform="translate(840,0)" d="M0,60v365" style="stroke: rgb(255, 255, 255); stroke-opacity: 1; stroke-width: 1px;"/></g><g class="y"><path class="ygrid crisp" transform="translate(0,395.06)" d="M70,0h805" style="stroke: rgb(255, 255, 255); stroke-opacity: 1; stroke-width: 1px;"/><path class="ygrid crisp" transform="translate(0,343.13)" d="M70,0h805" style="stroke: rgb(255, 255, 255); stroke-opacity: 1; stroke-width: 1px;"/><path class="ygrid crisp" transform="translate(0,291.19)" d="M70,0h805" style="stroke: rgb(255, 255, 255); stroke-opacity: 1; stroke-width: 1px;"/><path class="ygrid crisp" transform="translate(0,239.25)" d="M70,0h805" style="stroke: rgb(255, 255, 255); stroke-opacity: 1; stroke-width: 1px;"/><path class="ygrid crisp" transform="translate(0,187.32)" d="M70,0h805" style="stroke: rgb(255, 255, 255); stroke-opacity: 1; stroke-width: 1px;"/><path class="ygrid crisp" transform="translate(0,135.38)" d="M70,0h805" style="stroke: rgb(255, 255, 255); stroke-opacity: 1; stroke-width: 1px;"/><path class="ygrid crisp" transform="translate(0,83.44)" d="M70,0h805" style="stroke: rgb(255, 255, 255); stroke-opacity: 1; stroke-width: 1px;"/></g></g><g class="zerolinelayer"/><g class="layer-between"><g class="shapelayer"/><g class="imagelayer"/></g><path class="xlines-below"/><path class="ylines-below"/><g class="overlines-below"/><g class="xaxislayer-below"/><g class="yaxislayer-below"/><g class="overaxes-below"/><g class="overplot"><g class="xy" transform="translate(70,60)" clip-path="url(#clip040949xyplot)"><g class="scatterlayer mlayer"><g class="trace scatter trace25c3dc" style="stroke-miterlimit: 2; opacity: 1;"><g class="fills"/><g class="errorbars"/><g class="lines"><path class="js-line" d="M0,316.88L35,314.29L70,324.68L105,319.48L140,311.69L175,301.3L210,316.88L245,272.74L280,257.16L315,223.4L350,223.4L385,210.42L420,241.58L455,18.25L490,114.33L525,233.79L560,251.96L595,148.09L630,194.83L665,290.92L700,181.85L735,176.66L770,296.11L805,314.29" style="vector-effect: none; fill: none; stroke: rgb(99, 110, 250); stroke-opacity: 1; stroke-width: 2px; opacity: 1;"/></g><g class="points"/><g class="text"/></g><g class="trace scatter trace2bbd18" style="stroke-miterlimit: 2; opacity: 1;"><g class="fills"/><g class="errorbars"/><g class="lines"><path class="js-line" d="M0,342.3L35,333.01L70,346.75L105,327.42L140,302.91L175,297.84L210,296.19L245,261.35L280,184.58L315,161.08L350,198.12L385,191.38L420,138.92L455,124.41L490,62.87L525,204.46L560,199.42L595,248.61L630,219.84L665,249.67L700,191.54L770,266.53L805,263.06" style="vector-effect: none; fill: none; stroke: rgb(239, 85, 59); stroke-opacity: 1; stroke-dasharray: 9px, 9px; stroke-width: 2px; opacity: 1;"/></g><g class="points"/><g class="text"/></g></g></g></g><g class="zerolinelayer-above"/><path class="xlines-above crisp" d="M0,0" style="fill: none;"/><path class="ylines-above crisp" d="M0,0" style="fill: none;"/><g class="overlines-above"/><g class="xaxislayer-above"><g class="xtick"><text text-anchor="middle" x="0" y="440" transform="translate(105,0)" style="font-family: 'CMU Serif', 'Times New Roman', serif; font-size: 14px; fill: rgb(34, 34, 34); fill-opacity: 1; white-space: pre;"><tspan class="line" dy="0em" x="0" y="440">00:00</tspan><tspan class="line" dy="1.3em" x="0" y="440">Jun 24, 2014</tspan></text></g><g class="xtick"><text text-anchor="middle" x="0" y="440" style="font-family: 'CMU Serif', 'Times New Roman', serif; font-size: 14px; fill: rgb(34, 34, 34); fill-opacity: 1; white-space: pre;" transform="translate(210,0)">03:00</text></g><g class="xtick"><text text-anchor="middle" x="0" y="440" style="font-family: 'CMU Serif', 'Times New Roman', serif; font-size: 14px; fill: rgb(34, 34, 34); fill-opacity: 1; white-space: pre;" transform="translate(315,0)">06:00</text></g><g class="xtick"><text text-anchor="middle" x="0" y="440" style="font-family: 'CMU Serif', 'Times New Roman', serif; font-size: 14px; fill: rgb(34, 34, 34); fill-opacity: 1; white-space: pre;" transform="translate(420,0)">09:00</text></g><g class="xtick"><text text-anchor="middle" x="0" y="440" style="font-family: 'CMU Serif', 'Times New Roman', serif; font-size: 14px; fill: rgb(34, 34, 34); fill-opacity: 1; white-space: pre;" transform="translate(525,0)">12:00</text></g><g class="xtick"><text text-anchor="middle" x="0" y="440" style="font-family: 'CMU Serif', 'Times New Roman', serif; font-size: 14px; fill: rgb(34, 34, 34); fill-opacity: 1; white-space: pre;" transform="translate(630,0)">15:00</text></g><g class="xtick"><text text-anchor="middle" x="0" y="440" style="font-family: 'CMU Serif', 'Times New Roman', serif; font-size: 14px; fill: rgb(34, 34, 34); fill-opacity: 1; white-space: pre;" transform="translate(735,0)">18:00</text></g><g class="xtick"><text text-anchor="middle" x="0" y="440" style="font-family: 'CMU Serif', 'Times New Roman', serif; font-size: 14px; fill: rgb(34, 34, 34); fill-opacity: 1; white-space: pre;" transform="translate(840,0)">21:00</text></g></g><g class="yaxislayer-above"><g class="ytick"><text text-anchor="end" x="69" y="4.8999999999999995" transform="translate(0,395.06)" style="font-family: 'CMU Serif', 'Times New Roman', serif; font-size: 14px; fill: rgb(34, 34, 34); fill-opacity: 1; white-space: pre;">0.2</text></g><g class="ytick"><text text-anchor="end" x="69" y="4.8999999999999995" style="font-family: 'CMU Serif', 'Times New Roman', serif; font-size: 14px; fill: rgb(34, 34, 34); fill-opacity: 1; white-space: pre;" transform="translate(0,343.13)">0.4</text></g><g class="ytick"><text text-anchor="end" x="69" y="4.8999999999999995" style="font-family: 'CMU Serif', 'Times New Roman', serif; font-size: 14px; fill: rgb(34, 34, 34); fill-opacity: 1; white-space: pre;" transform="translate(0,291.19)">0.6</text></g><g class="ytick"><text text-anchor="end" x="69" y="4.8999999999999995" style="font-family: 'CMU Serif', 'Times New Roman', serif; font-size: 14px; fill: rgb(34, 34, 34); fill-opacity: 1; white-space: pre;" transform="translate(0,239.25)">0.8</text></g><g class="ytick"><text text-anchor="end" x="69" y="4.8999999999999995" style="font-family: 'CMU Serif', 'Times New Roman', serif; font-size: 14px; fill: rgb(34, 34, 34); fill-opacity: 1; white-space: pre;" transform="translate(0,187.32)">1</text></g><g class="ytick"><text text-anchor="end" x="69" y="4.8999999999999995" style="font-family: 'CMU Serif', 'Times New Roman', serif; font-size: 14px; fill: rgb(34, 34, 34); fill-opacity: 1; white-space: pre;" transform="translate(0,135.38)">1.2</text></g><g class="ytick"><text text-anchor="end" x="69" y="4.8999999999999995" style="font-family: 'CMU Serif', 'Times New Roman', serif; font-size: 14px; fill: rgb(34, 34, 34); fill-opacity: 1; white-space: pre;" transform="translate(0,83.44)">1.4</text></g></g><g class="overaxes-above"/></g></g><g class="polarlayer"/><g class="smithlayer"/><g class="ternarylayer"/><g class="geolayer"/><g class="funnelarealayer"/><g class="pielayer"/><g class="iciclelayer"/><g class="treemaplayer"/><g class="sunburstlayer"/><g class="glimages"/><defs id="topdefs-040949"><g class="clips"/><clipPath id="legend040949"><rect width="95" height="53" x="1" y="1"/></clipPath></defs><g class="layer-above"><g class="imagelayer"/><g class="shapelayer"/></g><g class="infolayer"><g class="legend" pointer-events="all" transform="translate(891.1,60)"><rect class="bg" shape-rendering="crispEdges" style="stroke: rgb(208, 208, 208); stroke-opacity: 1; fill: rgb(255, 255, 255); fill-opacity: 0.85; stroke-width: 1px;" width="96" height="54" x="0.5" y="0.5"/><g class="scrollbox" transform="" clip-path="url(#legend040949)"><g class="groups"><g class="traces" transform="translate(1,16.6)" style="opacity: 1;"><text class="legendtext" text-anchor="start" x="40" y="5.46" style="font-family: 'CMU Serif', 'Times New Roman', serif; font-size: 14px; fill: rgb(34, 34, 34); fill-opacity: 1; white-space: pre;">Actual</text><g class="layers" style="opacity: 1;"><g class="legendfill"/><g class="legendlines"><path class="js-line" d="M5,0h30" style="fill: none; stroke: rgb(99, 110, 250); stroke-opacity: 1; stroke-width: 2px;"/></g><g class="legendsymbols"><g class="legendpoints"/></g></g><rect class="legendtoggle" x="0" y="-10.6" width="89.5380859375" height="21.2" style="fill: rgb(0, 0, 0); fill-opacity: 0;"/></g><g class="traces" transform="translate(1,37.8)" style="opacity: 1;"><text class="legendtext" text-anchor="start" x="40" y="5.46" style="font-family: 'CMU Serif', 'Times New Roman', serif; font-size: 14px; fill: rgb(34, 34, 34); fill-opacity: 1; white-space: pre;">Forecast</text><g class="layers" style="opacity: 1;"><g class="legendfill"/><g class="legendlines"><path class="js-line" d="M5,0h30" style="fill: none; stroke: rgb(239, 85, 59); stroke-opacity: 1; stroke-dasharray: 9px, 9px; stroke-width: 2px;"/></g><g class="legendsymbols"><g class="legendpoints"/></g></g><rect class="legendtoggle" x="0" y="-10.6" width="89.5380859375" height="21.2" style="fill: rgb(0, 0, 0); fill-opacity: 0;"/></g></g></g><rect class="scrollbar" rx="20" ry="3" width="0" height="0" style="fill: rgb(128, 139, 164); fill-opacity: 1;" x="0" y="0"/></g><g class="g-gtitle"><text class="gtitle" x="50" y="30" text-anchor="start" dy="0em" style="opacity: 1; font-family: 'CMU Serif', 'Times New Roman', serif; font-size: 20px; fill: rgb(34, 34, 34); fill-opacity: 1; white-space: pre;">Forecast – XGBoost – 24h</text></g><g class="g-xtitle"><text class="xtitle" x="472.5" y="487.6001953125" text-anchor="middle" style="opacity: 1; font-family: 'CMU Serif', 'Times New Roman', serif; font-size: 17px; fill: rgb(34, 34, 34); fill-opacity: 1; white-space: pre;">Time (h)</text></g><g class="g-ytitle"><text class="ytitle" transform="rotate(-90,31.049999999999997,242.5)" x="31.049999999999997" y="242.5" text-anchor="middle" style="opacity: 1; font-family: 'CMU Serif', 'Times New Roman', serif; font-size: 17px; fill: rgb(34, 34, 34); fill-opacity: 1; white-space: pre;">Demand (kW)</text></g></g></svg>