<svg class="main-svg" xmlns="http://www.w3.org/2000/svg" xmlns:xlink="http://www.w3.org/1999/xlink" width="1000" height="500" style="" viewBox="0 0 1000 500"><rect x="0" y="0" width="1000" height="500" style="fill: rgb(255, 255, 255); fill-opacity: 1;"/><defs id="defs-648684"><g class="clips"><clipPath id="clip648684xyplot" class="plotclip"><rect width="805" height="365"/></clipPath><clipPath class="axesclip" id="clip648684x"><rect x="70" y="0" width="805" height="500"/></clipPath><clipPath class="axesclip" id="clip648684y"><rect x="0" y="60" width="1000" height="365"/></clipPath><clipPath class="axesclip" id="clip648684xy"><rect x="70" y="60" width="805" height="365"/></clipPath></g><g class="gradients"/><g class="patterns"/></defs><g class="bglayer"/><g class="layer-below"><g class="imagelayer"/><g class="shapelayer"/></g><g class="cartesianlayer"><g class="subplot xy"><g class="layer-subplot"><g class="shapelayer"/><g class="imagelayer"/></g><g class="minor-gridlayer"><g class="x"/><g class="y"/></g><g class="gridlayer"><g class="x"><path class="xgrid crisp" transform="translate(74.79,0)" d="M0,60v365" style="stroke: rgb(255, 255, 255); stroke-opacity: 1; stroke-width: 1px;"/><path class="xgrid crisp" transform="translate(189.79000000000002,0)" d="M0,60v365" style="stroke: rgb(255, 255, 255); stroke-opacity: 1; stroke-width: 1px;"/><path class="xgrid crisp" transform="translate(304.78999999999996,0)" d="M0,60v365" style="stroke: rgb(255, 255, 255); stroke-opacity: 1; stroke-width: 1px;"/><path class="xgrid crisp" transform="translate(419.79,0)" d="M0,60v365" style="stroke: rgb(255, 255, 255); stroke-opacity: 1; stroke-width: 1px;"/><path class="xgrid crisp" transform="translate(534.79,0)" d="M0,60v365" style="stroke: rgb(255, 255, 255); stroke-opacity: 1; stroke-width: 1px;"/><path class="xgrid crisp" transform="translate(649.79,0)" d="M0,60v365" style="stroke: rgb(255, 255, 255); stroke-opacity: 1; stroke-width: 1px;"/><path class="xgrid crisp" transform="translate(764.79,0)" d="M0,60v365" style="stroke: rgb(255, 255, 255); stroke-opacity: 1; stroke-width: 1px;"/></g><g class="y"><path class="ygrid crisp" transform="translate(0,355.08)" d="M70,0h805" style="stroke: rgb(255, 255, 255); stroke-opacity: 1; stroke-width: 1px;"/><path class="ygrid crisp" transform="translate(0,283.36)" d="M70,0h805" style="stroke: rgb(255, 255, 255); stroke-opacity: 1; stroke-width: 1px;"/><path class="ygrid crisp" transform="translate(0,211.65)" d="M70,0h805" style="stroke: rgb(255, 255, 255); stroke-opacity: 1; stroke-width: 1px;"/><path class="ygrid crisp" transform="translate(0,139.93)" d="M70,0h805" style="stroke: rgb(255, 255, 255); stroke-opacity: 1; stroke-width: 1px;"/><path class="ygrid crisp" transform="translate(0,68.21000000000001)" d="M70,0h805" style="stroke: rgb(255, 255, 255); stroke-opacity: 1; stroke-width: 1px;"/></g></g><g class="zerolinelayer"/><g class="layer-between"><g class="shapelayer"/><g class="imagelayer"/></g><path class="xlines-below"/><path class="ylines-below"/><g class="overlines-below"/><g class="xaxislayer-below"/><g class="yaxislayer-below"/><g class="overaxes-below"/><g class="overplot"><g class="xy" transform="translate(70,60)" clip-path="url(#clip648684xyplot)"><g class="scatterlayer mlayer"><g class="trace scatter trace9e5301" style="stroke-miterlimit: 2; opacity: 1;"><g class="fills"/><g class="errorbars"/><g class="lines"><path class="js-line" d="M0,328.07L4.79,326.64L9.58,332.38L14.38,329.51L19.17,325.21L23.96,319.47L28.75,328.07L33.54,303.69L38.33,295.08L43.13,276.44L47.92,276.44L52.71,269.26L57.5,286.48L62.29,163.12L67.08,216.19L71.88,282.17L76.67,292.21L81.46,234.84L86.25,260.66L91.04,313.73L95.83,253.49L100.63,250.62L105.42,316.6L110.21,326.64L115,328.07L119.79,326.64L124.58,330.94L134.17,325.21L138.96,332.38L143.75,315.16L148.54,326.64L153.33,328.07L158.13,270.7L162.92,316.6L167.71,315.16L172.5,303.69L177.29,323.77L182.08,280.74L186.88,204.72L191.67,200.42L196.46,312.3L201.25,296.52L206.04,318.03L210.83,267.83L215.63,277.87L220.42,279.31L225.21,326.64L230,328.07L234.79,319.47L239.58,328.07L244.38,326.64L249.17,329.51L253.96,329.51L258.75,328.07L263.54,313.73L268.33,250.62L273.13,273.57L277.92,214.76L282.71,229.1L287.5,322.34L292.29,309.43L297.08,313.73L301.88,282.17L306.67,303.69L311.46,239.14L316.25,280.74L321.04,279.31L325.83,257.79L330.63,257.79L335.42,283.61L340.21,325.21L345,325.21L349.79,329.51L359.38,323.77L364.17,329.51L368.96,262.09L373.75,270.7L378.54,302.26L383.33,151.65L388.13,198.98L392.92,287.91L397.71,292.21L402.5,272.13L407.29,170.29L412.08,18.25L416.88,267.83L421.67,300.82L426.46,275L431.25,267.83L436.04,22.55L440.83,219.06L445.63,267.83L450.42,277.87L455.21,280.74L460,319.47L464.79,319.47L469.58,320.9L474.38,328.07L479.17,325.21L483.96,323.77L488.75,328.07L493.54,325.21L498.33,290.78L503.13,319.47L507.92,287.91L512.71,252.05L517.5,300.82L522.29,315.16L527.08,326.64L531.88,325.21L536.67,329.51L541.46,328.07L546.25,287.91L551.04,307.99L555.83,307.99L560.63,272.13L565.42,277.87L570.21,306.56L575,326.64L579.79,325.21L584.58,326.64L589.38,313.73L594.17,328.07L598.96,326.64L603.75,329.51L608.54,328.07L613.33,322.34L618.13,290.78L622.92,307.99L627.71,264.96L632.5,325.21L637.29,323.77L642.08,326.64L646.88,329.51L651.67,328.07L656.46,252.05L661.25,224.8L666.04,297.95L670.83,276.44L675.63,279.31L680.42,305.12L685.21,328.07L690,332.38L694.79,328.07L699.58,333.81L704.38,329.51L709.17,330.94L713.96,332.38L718.75,328.07L723.54,318.03L728.33,313.73L733.13,273.57L737.92,226.23L742.71,201.85L747.5,322.34L752.29,315.16L757.08,332.38L761.88,293.65L766.67,191.81L776.25,287.91L781.04,282.17L785.83,34.03L790.63,224.8L795.42,295.08L800.21,316.6L805,322.34" style="vector-effect: none; fill: none; stroke: rgb(99, 110, 250); stroke-opacity: 1; stroke-width: 2px; opacity: 1;"/></g><g class="points"/><g class="text"/></g><g class="trace scatter trace3e62dc" style="stroke-miterlimit: 2; opacity: 1;"><g class="fills"/><g class="errorbars"/><g class="lines"><path class="js-line" d="M0,342.11L4.79,336.98L9.58,344.57L14.38,333.9L19.17,320.35L23.96,317.56L28.75,316.64L33.54,297.4L38.33,254.99L43.13,242.01L47.92,262.47L52.71,258.75L57.5,229.77L62.29,221.76L67.08,187.77L71.88,265.98L76.67,263.19L81.46,290.36L86.25,274.47L91.04,290.95L95.83,258.84L105.42,300.26L110.21,298.35L115,320.04L119.79,335.23L124.58,331.84L129.38,324.36L134.17,316.66L138.96,316.02L143.75,312.52L148.54,323.16L162.92,251.65L167.71,300.21L172.5,283.29L177.29,286.74L182.08,282.09L186.88,290.97L191.67,299.66L196.46,301.36L201.25,268.55L206.04,282.04L210.83,295.22L215.63,296.99L220.42,304.28L225.21,317.34L230,331.93L234.79,341.71L239.58,346.75L244.38,336.77L249.17,328.37L253.96,336.69L258.75,322.55L263.54,302.11L268.33,285.85L273.13,263.16L282.71,297.87L287.5,278.78L292.29,278.12L297.08,318.85L301.88,288.14L306.67,290.85L311.46,288.33L316.25,272.22L321.04,289.12L325.83,282.83L330.63,288.72L335.42,297.09L345,335.24L349.79,330.28L354.58,330.97L359.38,338.25L364.17,330.87L368.96,327.13L373.75,319.04L378.54,286.7L383.33,243.41L388.13,254.61L392.92,246.33L397.71,259L402.5,283.88L407.29,286.24L412.08,324.7L416.88,295.66L421.67,296.12L426.46,309.73L431.25,279.49L436.04,289.74L440.83,272.99L445.63,264.89L450.42,264.52L455.21,289.18L460,304.27L464.79,334.25L474.38,324.6L479.17,320.57L483.96,326.44L488.75,326.16L493.54,295.92L498.33,254.57L503.13,237.7L507.92,264.9L512.71,291.82L517.5,296.32L522.29,273.55L527.08,279.02L531.88,248.06L536.67,268.99L541.46,294.43L546.25,287.6L551.04,285.13L555.83,277.42L560.63,283.35L565.42,272.88L570.21,304.73L575,325.21L579.79,334.28L584.58,334.44L589.38,328.24L594.17,290.65L598.96,320.89L603.75,311.87L608.54,330.2L613.33,307.99L618.13,301.66L622.92,269.33L627.71,266.29L632.5,302.6L637.29,260.21L642.08,271.22L646.88,282.32L651.67,301.55L656.46,291.22L661.25,278.94L666.04,273.28L670.83,278.55L675.63,282.93L680.42,299.98L685.21,298.59L690,315.43L694.79,317.68L699.58,317.91L704.38,322.19L709.17,317.49L713.96,320.55L718.75,328.29L723.54,302.99L728.33,265.92L733.13,247.94L737.92,261.69L742.71,293.49L747.5,247.72L752.29,244.05L757.08,286.68L761.88,309.4L766.67,297.56L771.46,308.64L776.25,313.33L781.04,299.63L785.83,293.23L790.63,279.2L795.42,300.59L800.21,302.33L805,321.02" style="vector-effect: none; fill: none; stroke: rgb(239, 85, 59); stroke-opacity: 1; stroke-dasharray: 9px, 9px; stroke-width: 2px; opacity: 1;"/></g><g class="points"/><g class="text"/></g></g></g></g><g class="zerolinelayer-above"/><path class="xlines-above crisp" d="M0,0" style="fill: none;"/><path class="ylines-above crisp" d="M0,0" style="fill: none;"/><g class="overlines-above"/><g class="xaxislayer-above"><g class="xtick"><text text-anchor="middle" x="0" y="440" transform="translate(74.79,0)" style="font-family: 'CMU Serif', 'Times New Roman', serif; font-size: 14px; fill: rgb(34, 34, 34); fill-opacity: 1; white-space: pre;"><tspan class="line" dy="0em" x="0" y="440">Jun 24</tspan><tspan class="line" dy="1.3em" x="0" y="440">2014</tspan></text></g><g class="xtick"><text text-anchor="middle" x="0" y="440" style="font-family: 'CMU Serif', 'Times New Roman', serif; font-size: 14px; fill: rgb(34, 34, 34); fill-opacity: 1; white-space: pre;" transform="translate(189.79000000000002,0)">Jun 25</text></g><g class="xtick"><text text-anchor="middle" x="0" y="440" style="font-family: 'CMU Serif', 'Times New Roman', serif; font-size: 14px; fill: rgb(34, 34, 34); fill-opacity: 1; white-space: pre;" transform="translate(304.78999999999996,0)">Jun 26</text></g><g class="xtick"><text text-anchor="middle" x="0" y="440" style="font-family: 'CMU Serif', 'Times New Roman', serif; font-size: 14px; fill: rgb(34, 34, 34); fill-opacity: 1; white-space: pre;" transform="translate(419.79,0)">Jun 27</text></g><g class="xtick"><text text-anchor="middle" x="0" y="440" style="font-family: 'CMU Serif', 'Times New Roman', serif; font-size: 14px; fill: rgb(34, 34, 34); fill-opacity: 1; white-space: pre;" transform="translate(534.79,0)">Jun 28</text></g><g class="xtick"><text text-anchor="middle" x="0" y="440" style="font-family: 'CMU Serif', 'Times New Roman', serif; font-size: 14px; fill: rgb(34, 34, 34); fill-opacity: 1; white-space: pre;" transform="translate(649.79,0)">Jun 29</text></g><g class="xtick"><text text-anchor="middle" x="0" y="440" style="font-family: 'CMU Serif', 'Times New Roman', serif; font-size: 14px; fill: rgb(34, 34, 34); fill-opacity: 1; white-space: pre;" transform="translate(764.79,0)">Jun 30</text></g></g><g class="yaxislayer-above"><g class="ytick"><text text-anchor="end" x="69" y="4.8999999999999995" transform="translate(0,355.08)" style="font-family: 'CMU Serif', 'Times New Roman', serif; font-size: 14px; fill: rgb(34, 34, 34); fill-opacity: 1; white-space: pre;">0.5</text></g><g class="ytick"><text text-anchor="end" x="69" y="4.8999999999999995" style="font-family: 'CMU Serif', 'Times New Roman', serif; font-size: 14px; fill: rgb(34, 34, 34); fill-opacity: 1; white-space: pre;" transform="translate(0,283.36)">1</text></g><g class="ytick"><text text-anchor="end" x="69" y="4.8999999999999995" style="font-family: 'CMU Serif', 'Times New Roman', serif; font-size: 14px; fill: rgb(34, 34, 34); fill-opacity: 1; white-space: pre;" transform="translate(0,211.65)">1.5</text></g><g class="ytick"><text text-anchor="end" x="69" y="4.8999999999999995" style="font-family: 'CMU Serif', 'Times New Roman', serif; font-size: 14px; fill: rgb(34, 34, 34); fill-opacity: 1; white-space: pre;" transform="translate(0,139.93)">2</text></g><g class="ytick"><text text-anchor="end" x="69" y="4.8999999999999995" style="font-family: 'CMU Serif', 'Times New Roman', serif; font-size: 14px; fill: rgb(34, 34, 34); fill-opacity: 1; white-space: pre;" transform="translate(0,68.21000000000001)">2.5</text></g></g><g class="overaxes-above"/></g></g><g class="polarlayer"/><g class="smithlayer"/><g class="ternarylayer"/><g class="geolayer"/><g class="funnelarealayer"/><g class="pielayer"/><g class="iciclelayer"/><g class="treemaplayer"/><g class="sunburstlayer"/><g class="glimages"/><defs id="topdefs-648684"><g class="clips"/><clipPath id="legend648684"><rect width="95" height="53" x="1" y="1"/></clipPath></defs><g class="layer-above"><g class="imagelayer"/><g class="shapelayer"/></g><g class="infolayer"><g class="legend" pointer-events="all" transform="translate(891.1,60)"><rect class="bg" shape-rendering="crispEdges" style="stroke: rgb(208, 208, 208); stroke-opacity: 1; fill: rgb(255, 255, 255); fill-opacity: 0.85; stroke-width: 1px;" width="96" height="54" x="0.5" y="0.5"/><g class="scrollbox" transform="" clip-path="url(#legend648684)"><g class="groups"><g class="traces" transform="translate(1,16.6)" style="opacity: 1;"><text class="legendtext" text-anchor="start" x="40" y="5.46" style="font-family: 'CMU Serif', 'Times New Roman', serif; font-size: 14px; fill: rgb(34, 34, 34); fill-opacity: 1; white-space: pre;">Actual</text><g class="layers" style="opacity: 1;"><g class="legendfill"/><g class="legendlines"><path class="js-line" d="M5,0h30" style="fill: none; stroke: rgb(99, 110, 250); stroke-opacity: 1; stroke-width: 2px;"/></g><g class="legendsymbols"><g class="legendpoints"/></g></g><rect class="legendtoggle" x="0" y="-10.6" width="89.5380859375" height="21.2" style="fill: rgb(0, 0, 0); fill-opacity: 0;"/></g><g class="traces" transform="translate(1,37.8)" style="opacity: 1;"><text class="legendtext" text-anchor="start" x="40" y="5.46" style="font-family: 'CMU Serif', 'Times New Roman', serif; font-size: 14px; fill: rgb(34, 34, 34); fill-opacity: 1; white-space: pre;">Forecast</text><g class="layers" style="opacity: 1;"><g class="legendfill"/><g class="legendlines"><path class="js-line" d="M5,0h30" style="fill: none; stroke: rgb(239, 85, 59); stroke-opacity: 1; stroke-dasharray: 9px, 9px; stroke-width: 2px;"/></g><g class="legendsymbols"><g class="legendpoints"/></g></g><rect class="legendtoggle" x="0" y="-10.6" width="89.5380859375" height="21.2" style="fill: rgb(0, 0, 0); fill-opacity: 0;"/></g></g></g><rect class="scrollbar" rx="20" ry="3" width="0" height="0" style="fill: rgb(128, 139, 164); fill-opacity: 1;" x="0" y="0"/></g><g class="g-gtitle"><text class="gtitle" x="50" y="30" text-anchor="start" dy="0em" style="opacity: 1; font-family: 'CMU Serif', 'Times New Roman', serif; font-size: 20px; fill: rgb(34, 34, 34); fill-opacity: 1; white-space: pre;">Forecast – XGBoost – Week</text></g><g class="g-xtitle"><text class="xtitle" x="472.5" y="487.6001953125" text-anchor="middle" style="opacity: 1; font-family: 'CMU Serif', 'Times New Roman', serif; font-size: 17px; fill: rgb(34, 34, 34); fill-opacity: 1; white-space: pre;">Time (h)</text></g><g class="g-ytitle"><text class="ytitle" transform="rotate(-90,31.049999999999997,242.5)" x="31.049999999999997" y="242.5" text-anchor="middle" style="opacity: 1; font-family: 'CMU Serif', 'Times New Roman', serif; font-size: 17px; fill: rgb(34, 34, 34); fill-opacity: 1; white-space: pre;">Demand (kW)</text></g></g></svg>