<svg class="main-svg" xmlns="http://www.w3.org/2000/svg" xmlns:xlink="http://www.w3.org/1999/xlink" width="1000" height="500" style="" viewBox="0 0 1000 500"><rect x="0" y="0" width="1000" height="500" style="fill: rgb(255, 255, 255); fill-opacity: 1;"/><defs id="defs-4c9f9b"><g class="clips"><clipPath id="clip4c9f9bxyplot" class="plotclip"><rect width="805" height="365"/></clipPath><clipPath class="axesclip" id="clip4c9f9bx"><rect x="70" y="0" width="805" height="500"/></clipPath><clipPath class="axesclip" id="clip4c9f9by"><rect x="0" y="60" width="1000" height="365"/></clipPath><clipPath class="axesclip" id="clip4c9f9bxy"><rect x="70" y="60" width="805" height="365"/></clipPath></g><g class="gradients"/><g class="patterns"/></defs><g class="bglayer"/><g class="layer-below"><g class="imagelayer"/><g class="shapelayer"/></g><g class="cartesianlayer"><g class="subplot xy"><g class="layer-subplot"><g class="shapelayer"/><g class="imagelayer"/></g><g class="minor-gridlayer"><g class="x"/><g class="y"/></g><g class="gridlayer"><g class="x"><path class="xgrid crisp" transform="translate(185.69,0)" d="M0,60v365" style="stroke: rgb(40, 52, 66); stroke-opacity: 1; stroke-width: 1px;"/><path class="xgrid crisp" transform="translate(301.38,0)" d="M0,60v365" style="stroke: rgb(40, 52, 66); stroke-opacity: 1; stroke-width: 1px;"/><path class="xgrid crisp" transform="translate(417.07,0)" d="M0,60v365" style="stroke: rgb(40, 52, 66); stroke-opacity: 1; stroke-width: 1px;"/><path class="xgrid crisp" transform="translate(532.75,0)" d="M0,60v365" style="stroke: rgb(40, 52, 66); stroke-opacity: 1; stroke-width: 1px;"/><path class="xgrid crisp" transform="translate(648.44,0)" d="M0,60v365" style="stroke: rgb(40, 52, 66); stroke-opacity: 1; stroke-width: 1px;"/><path class="xgrid crisp" transform="translate(764.13,0)" d="M0,60v365" style="stroke: rgb(40, 52, 66); stroke-opacity: 1; stroke-width: 1px;"/></g><g class="y"><path class="ygrid crisp" transform="translate(0,344.54)" d="M70,0h805" style="stroke: rgb(40, 52, 66); stroke-opacity: 1; stroke-width: 1px;"/><path class="ygrid crisp" transform="translate(0,260.8)" d="M70,0h805" style="stroke: rgb(40, 52, 66); stroke-opacity: 1; stroke-width: 1px;"/><path class="ygrid crisp" transform="translate(0,177.06)" d="M70,0h805" style="stroke: rgb(40, 52, 66); stroke-opacity: 1; stroke-width: 1px;"/><path class="ygrid crisp" transform="translate(0,93.32)" d="M70,0h805" style="stroke: rgb(40, 52, 66); stroke-opacity: 1; stroke-width: 1px;"/></g></g><g class="zerolinelayer"/><g class="layer-between"><g class="shapelayer"/><g class="imagelayer"/></g><path class="xlines-below"/><path class="ylines-below"/><g class="overlines-below"/><g class="xaxislayer-below"/><g class="yaxislayer-below"/><g class="overaxes-below"/><g class="overplot"><g class="xy" transform="translate(70,60)" clip-path="url(#clip4c9f9bxyplot)"><g class="scatterlayer mlayer"><g class="trace scatter trace4135e8" style="stroke-miterlimit: 2; opacity: 1;"><g class="fills"/><g class="errorbars"/><g class="lines"><path class="js-line" d="M0,326.4L4.82,324.73L9.64,328.08L14.46,326.4L19.28,323.05L24.1,328.08L28.92,197.45L33.74,36.67L38.56,251.04L43.38,292.91L48.2,319.71L53.02,316.36L57.84,294.58L67.49,314.68L72.31,309.66L77.13,242.67L81.95,256.06L86.77,284.54L91.59,276.16L96.41,234.29L101.23,271.14L106.05,319.71L110.87,321.38L115.69,326.4L120.51,326.4L125.33,321.38L130.15,321.38L134.97,319.71L139.79,294.58L144.61,321.38L149.43,264.44L154.25,321.38L159.07,314.68L163.89,319.71L168.71,224.24L173.53,251.04L178.35,138.83L183.17,140.51L187.99,234.29L192.81,291.23L197.63,307.98L202.46,292.91L207.28,292.91L212.1,296.26L216.92,307.98L221.74,314.68L226.56,314.68L231.38,309.66L236.2,307.98L241.02,309.66L245.84,314.68L250.66,316.36L255.48,313.01L260.3,316.36L265.12,314.68L269.94,304.63L274.76,301.28L279.58,296.26L284.4,307.98L289.22,306.31L294.04,309.66L298.86,318.03L303.68,314.68L308.5,311.33L313.32,316.36L318.14,313.01L322.96,306.31L327.78,301.28L332.6,311.33L337.43,313.01L342.25,318.03L347.07,306.31L351.89,316.36L361.53,316.36L366.35,318.03L371.17,314.68L375.99,318.03L380.81,304.63L385.63,301.28L390.45,313.01L395.27,306.31L404.91,309.66L409.73,313.01L419.37,309.66L424.19,314.68L429.01,309.66L433.83,309.66L438.65,307.98L443.47,313.01L448.29,311.33L453.11,318.03L457.93,316.36L462.75,313.01L467.57,319.71L472.4,316.36L477.22,314.68L482.04,319.71L486.86,304.63L491.68,309.66L496.5,316.36L501.32,313.01L506.14,318.03L510.96,309.66L515.78,313.01L520.6,314.68L525.42,309.66L530.24,316.36L535.06,316.36L539.88,314.68L544.7,316.36L549.52,314.68L554.34,311.33L559.16,304.63L563.98,311.33L568.8,314.68L573.62,316.36L578.44,314.68L583.26,319.71L588.08,318.03L592.9,314.68L597.72,319.71L602.54,316.36L607.37,316.36L612.19,318.03L617.01,311.33L621.83,321.38L626.65,297.93L631.47,304.63L636.29,304.63L641.11,302.96L645.93,311.33L650.75,309.66L655.57,311.33L660.39,307.98L665.21,311.33L670.03,319.71L674.85,313.01L679.67,311.33L684.49,318.03L689.31,304.63L694.13,316.36L698.95,306.31L703.77,311.33L708.59,321.38L713.41,314.68L718.23,321.38L723.05,314.68L727.87,294.58L732.69,18.25L742.34,197.45L747.16,194.1L751.98,115.39L756.8,244.34L761.62,261.09L766.44,257.74L771.26,249.37L776.08,227.59L780.9,306.31L785.72,230.94L790.54,257.74L795.36,301.28L800.18,321.38L805,321.38" style="vector-effect: none; fill: none; stroke: rgb(99, 110, 250); stroke-opacity: 1; stroke-width: 2px; opacity: 1;"/></g><g class="points"/><g class="text"/></g><g class="trace scatter trace7c4887" style="stroke-miterlimit: 2; opacity: 1;"><g class="fills"/><g class="errorbars"/><g class="lines"><path class="js-line" d="M0,317.25L4.82,318.5L9.64,318.03L14.46,318.9L19.28,315.77L24.1,311.89L28.92,302.68L33.74,260.52L38.56,254.33L43.38,241.8L48.2,254.84L53.02,274.32L57.84,266.6L62.66,260.11L67.49,269.85L72.31,272.09L77.13,269.75L81.95,261.71L86.77,260.81L91.59,247.44L96.41,253.86L110.87,303.87L115.69,320.69L120.51,321.31L125.33,320.54L130.15,321.28L134.97,318.14L139.79,314.32L144.61,304.04L149.43,261.33L154.25,256.58L159.07,243.88L163.89,256.6L168.71,277.41L173.53,269.5L178.35,263.44L183.17,272.65L187.99,273.23L192.81,271.03L197.63,264.08L202.46,263.45L207.28,246.39L212.1,255.26L221.74,291.36L226.56,306.44L231.38,319.13L236.2,321.77L241.02,321.87L245.84,322.94L255.48,316.13L260.3,304.51L265.12,260.02L269.94,258.91L274.76,247.01L279.58,259.89L284.4,279.35L289.22,271.52L294.04,264.76L298.86,273.97L303.68,275.27L308.5,272.65L313.32,266.2L318.14,265.89L322.96,249.06L327.78,257.17L337.43,293.83L342.25,308.58L347.07,327.24L351.89,331.82L361.53,334.15L366.35,331.38L371.17,327.32L375.99,316.39L380.81,272.12L385.63,271.72L390.45,259.98L395.27,272.59L400.09,290.38L404.91,283.1L409.73,274.96L414.55,284.02L419.37,286.58L424.19,284.8L429.01,278.77L433.83,278.2L438.65,261.72L443.47,269.65L453.11,305.83L457.93,320.29L462.75,330.54L467.57,337.34L477.22,341.04L482.04,338.53L486.86,334.56L491.68,323.99L496.5,280.6L501.32,280.03L506.14,268.62L510.96,280.79L515.78,298.37L520.6,291.25L525.42,283.39L530.24,292.32L535.06,294.77L539.88,293.03L544.7,287.15L549.52,286.54L554.34,270.34L559.16,278.06L568.8,313.61L573.62,327.81L578.44,333.09L583.26,341.22L592.9,345.55L597.72,343.26L602.54,339.24L607.37,329.01L612.19,286.5L617.01,285.87L621.83,274.93L626.65,286.66L631.47,303.89L636.29,296.97L641.11,289.28L645.93,298.06L650.75,300.42L655.57,298.77L660.39,292.98L665.21,292.37L670.03,276.48L674.85,284.03L684.49,318.94L689.31,332.8L694.13,329.1L698.95,340.6L703.77,344.22L708.59,346.75L713.41,344.88L718.23,340.82L723.05,330.94L727.87,289.52L732.69,288.8L737.51,278.28L742.34,289.41L747.16,306.35L756.8,292.03L761.62,300.76L766.44,303.06L771.26,301.44L776.08,295.77L780.9,295.18L785.72,279.69L790.54,286.92L800.18,321.2L805,334.65" style="vector-effect: none; fill: none; stroke: rgb(239, 85, 59); stroke-opacity: 1; stroke-dasharray: 9px, 9px; stroke-width: 2px; opacity: 1;"/></g><g class="points"/><g class="text"/></g></g></g></g><g class="zerolinelayer-above"/><path class="xlines-above crisp" d="M0,0" style="fill: none;"/><path class="ylines-above crisp" d="M0,0" style="fill: none;"/><g class="overlines-above"/><g class="xaxislayer-above"><g class="xtick"><text text-anchor="middle" x="0" y="440" transform="translate(70,0)" style="font-family: 'CMU Serif', 'Times New Roman', serif; font-size: 14px; fill: rgb(34, 34, 34); fill-opacity: 1; white-space: pre;"><tspan class="line" dy="0em" x="0" y="440">Jul 1</tspan><tspan class="line" dy="1.3em" x="0" y="440">2014</tspan></text></g><g class="xtick"><text text-anchor="middle" x="0" y="440" style="font-family: 'CMU Serif', 'Times New Roman', serif; font-size: 14px; fill: rgb(34, 34, 34); fill-opacity: 1; white-space: pre;" transform="translate(185.69,0)">Jul 2</text></g><g class="xtick"><text text-anchor="middle" x="0" y="440" style="font-family: 'CMU Serif', 'Times New Roman', serif; font-size: 14px; fill: rgb(34, 34, 34); fill-opacity: 1; white-space: pre;" transform="translate(301.38,0)">Jul 3</text></g><g class="xtick"><text text-anchor="middle" x="0" y="440" style="font-family: 'CMU Serif', 'Times New Roman', serif; font-size: 14px; fill: rgb(34, 34, 34); fill-opacity: 1; white-space: pre;" transform="translate(417.07,0)">Jul 4</text></g><g class="xtick"><text text-anchor="middle" x="0" y="440" style="font-family: 'CMU Serif', 'Times New Roman', serif; font-size: 14px; fill: rgb(34, 34, 34); fill-opacity: 1; white-space: pre;" transform="translate(532.75,0)">Jul 5</text></g><g class="xtick"><text text-anchor="middle" x="0" y="440" style="font-family: 'CMU Serif', 'Times New Roman', serif; font-size: 14px; fill: rgb(34, 34, 34); fill-opacity: 1; white-space: pre;" transform="translate(648.44,0)">Jul 6</text></g><g class="xtick"><text text-anchor="middle" x="0" y="440" style="font-family: 'CMU Serif', 'Times New Roman', serif; font-size: 14px; fill: rgb(34, 34, 34); fill-opacity: 1; white-space: pre;" transform="translate(764.13,0)">Jul 7</text></g></g><g class="yaxislayer-above"><g class="ytick"><text text-anchor="end" x="69" y="4.8999999999999995" transform="translate(0,344.54)" style="font-family: 'CMU Serif', 'Times New Roman', serif; font-size: 14px; fill: rgb(34, 34, 34); fill-opacity: 1; white-space: pre;">0.5</text></g><g class="ytick"><text text-anchor="end" x="69" y="4.8999999999999995" style="font-family: 'CMU Serif', 'Times New Roman', serif; font-size: 14px; fill: rgb(34, 34, 34); fill-opacity: 1; white-space: pre;" transform="translate(0,260.8)">1</text></g><g class="ytick"><text text-anchor="end" x="69" y="4.8999999999999995" style="font-family: 'CMU Serif', 'Times New Roman', serif; font-size: 14px; fill: rgb(34, 34, 34); fill-opacity: 1; white-space: pre;" transform="translate(0,177.06)">1.5</text></g><g class="ytick"><text text-anchor="end" x="69" y="4.8999999999999995" style="font-family: 'CMU Serif', 'Times New Roman', serif; font-size: 14px; fill: rgb(34, 34, 34); fill-opacity: 1; white-space: pre;" transform="translate(0,93.32)">2</text></g></g><g class="overaxes-above"/></g></g><g class="polarlayer"/><g class="smithlayer"/><g class="ternarylayer"/><g class="geolayer"/><g class="funnelarealayer"/><g class="pielayer"/><g class="iciclelayer"/><g class="treemaplayer"/><g class="sunburstlayer"/><g class="glimages"/><defs id="topdefs-4c9f9b"><g class="clips"/><clipPath id="legend4c9f9b"><rect width="95" height="53" x="1" y="1"/></clipPath></defs><g class="layer-above"><g class="imagelayer"/><g class="shapelayer"/></g><g class="infolayer"><g class="legend" pointer-events="all" transform="translate(891.1,60)"><rect class="bg" shape-rendering="crispEdges" style="stroke: rgb(208, 208, 208); stroke-opacity: 1; fill: rgb(255, 255, 255); fill-opacity: 0.85; stroke-width: 1px;" width="96" height="54" x="0.5" y="0.5"/><g class="scrollbox" transform="" clip-path="url(#legend4c9f9b)"><g class="groups"><g class="traces" transform="translate(1,16.6)" style="opacity: 1;"><text class="legendtext" text-anchor="start" x="40" y="5.46" style="font-family: 'CMU Serif', 'Times New Roman', serif; font-size: 14px; fill: rgb(34, 34, 34); fill-opacity: 1; white-space: pre;">Actual</text><g class="layers" style="opacity: 1;"><g class="legendfill"/><g class="legendlines"><path class="js-line" d="M5,0h30" style="fill: none; stroke: rgb(99, 110, 250); stroke-opacity: 1; stroke-width: 2px;"/></g><g class="legendsymbols"><g class="legendpoints"/></g></g><rect class="legendtoggle" x="0" y="-10.6" width="89.5380859375" height="21.2" style="fill: rgb(0, 0, 0); fill-opacity: 0;"/></g><g class="traces" transform="translate(1,37.8)" style="opacity: 1;"><text class="legendtext" text-anchor="start" x="40" y="5.46" style="font-family: 'CMU Serif', 'Times New Roman', serif; font-size: 14px; fill: rgb(34, 34, 34); fill-opacity: 1; white-space: pre;">Forecast</text><g class="layers" style="opacity: 1;"><g class="legendfill"/><g class="legendlines"><path class="js-line" d="M5,0h30" style="fill: none; stroke: rgb(239, 85, 59); stroke-opacity: 1; stroke-dasharray: 9px, 9px; stroke-width: 2px;"/></g><g class="legendsymbols"><g class="legendpoints"/></g></g><rect class="legendtoggle" x="0" y="-10.6" width="89.5380859375" height="21.2" style="fill: rgb(0, 0, 0); fill-opacity: 0;"/></g></g></g><rect class="scrollbar" rx="20" ry="3" width="0" height="0" style="fill: rgb(128, 139, 164); fill-opacity: 1;" x="0" y="0"/></g><g class="g-gtitle"><text class="gtitle" x="50" y="30" text-anchor="start" dy="0em" style="opacity: 1; font-family: 'CMU Serif', 'Times New Roman', serif; font-size: 20px; fill: rgb(34, 34, 34); fill-opacity: 1; white-space: pre;">Forecast – SARIMA(1, 1, 1)(1, 1, 1, 24)</text></g><g class="g-xtitle"><text class="xtitle" x="472.5" y="487.6001953125" text-anchor="middle" style="opacity: 1; font-family: 'CMU Serif', 'Times New Roman', serif; font-size: 17px; fill: rgb(34, 34, 34); fill-opacity: 1; white-space: pre;">Hour</text></g><g class="g-ytitle"><text class="ytitle" transform="rotate(-90,31.049999999999997,242.5)" x="31.049999999999997" y="242.5" text-anchor="middle" style="opacity: 1; font-family: 'CMU Serif', 'Times New Roman', serif; font-size: 17px; fill: rgb(34, 34, 34); fill-opacity: 1; white-space: pre;">Demand</text></g></g></svg>