<svg class="main-svg" xmlns="http://www.w3.org/2000/svg" xmlns:xlink="http://www.w3.org/1999/xlink" width="1000" height="500" style="" viewBox="0 0 1000 500"><rect x="0" y="0" width="1000" height="500" style="fill: rgb(255, 255, 255); fill-opacity: 1;"/><defs id="defs-02d239"><g class="clips"><clipPath id="clip02d239xyplot" class="plotclip"><rect width="805" height="365"/></clipPath><clipPath class="axesclip" id="clip02d239x"><rect x="70" y="0" width="805" height="500"/></clipPath><clipPath class="axesclip" id="clip02d239y"><rect x="0" y="60" width="1000" height="365"/></clipPath><clipPath class="axesclip" id="clip02d239xy"><rect x="70" y="60" width="805" height="365"/></clipPath></g><g class="gradients"/><g class="patterns"/></defs><g class="bglayer"/><g class="layer-below"><g class="imagelayer"/><g class="shapelayer"/></g><g class="cartesianlayer"><g class="subplot xy"><g class="layer-subplot"><g class="shapelayer"/><g class="imagelayer"/></g><g class="minor-gridlayer"><g class="x"/><g class="y"/></g><g class="gridlayer"><g class="x"><path class="xgrid crisp" transform="translate(185.69,0)" d="M0,60v365" style="stroke: rgb(40, 52, 66); stroke-opacity: 1; stroke-width: 1px;"/><path class="xgrid crisp" transform="translate(301.38,0)" d="M0,60v365" style="stroke: rgb(40, 52, 66); stroke-opacity: 1; stroke-width: 1px;"/><path class="xgrid crisp" transform="translate(417.07,0)" d="M0,60v365" style="stroke: rgb(40, 52, 66); stroke-opacity: 1; stroke-width: 1px;"/><path class="xgrid crisp" transform="translate(532.75,0)" d="M0,60v365" style="stroke: rgb(40, 52, 66); stroke-opacity: 1; stroke-width: 1px;"/><path class="xgrid crisp" transform="translate(648.44,0)" d="M0,60v365" style="stroke: rgb(40, 52, 66); stroke-opacity: 1; stroke-width: 1px;"/><path class="xgrid crisp" transform="translate(764.13,0)" d="M0,60v365" style="stroke: rgb(40, 52, 66); stroke-opacity: 1; stroke-width: 1px;"/></g><g class="y"><path class="ygrid crisp" transform="translate(0,356.84)" d="M70,0h805" style="stroke: rgb(40, 52, 66); stroke-opacity: 1; stroke-width: 1px;"/><path class="ygrid crisp" transform="translate(0,269.23)" d="M70,0h805" style="stroke: rgb(40, 52, 66); stroke-opacity: 1; stroke-width: 1px;"/><path class="ygrid crisp" transform="translate(0,181.63)" d="M70,0h805" style="stroke: rgb(40, 52, 66); stroke-opacity: 1; stroke-width: 1px;"/><path class="ygrid crisp" transform="translate(0,94.02000000000001)" d="M70,0h805" style="stroke: rgb(40, 52, 66); stroke-opacity: 1; stroke-width: 1px;"/></g></g><g class="zerolinelayer"/><g class="layer-between"><g class="shapelayer"/><g class="imagelayer"/></g><path class="xlines-below"/><path class="ylines-below"/><g class="overlines-below"/><g class="xaxislayer-below"/><g class="yaxislayer-below"/><g class="overaxes-below"/><g class="overplot"><g class="xy" transform="translate(70,60)" clip-path="url(#clip02d239xyplot)"><g class="scatterlayer mlayer"><g class="trace scatter trace0a8a57" style="stroke-miterlimit: 2; opacity: 1;"><g class="fills"/><g class="errorbars"/><g class="lines"><path class="js-line" d="M0,340.64L4.82,338.89L9.64,342.4L14.46,340.64L19.28,337.14L24.1,342.4L28.92,205.73L33.74,37.52L38.56,261.8L43.38,305.6L48.2,333.64L53.02,330.13L57.84,307.35L67.49,328.38L72.31,323.12L77.13,253.04L81.95,267.05L86.77,296.84L91.59,288.08L96.41,244.28L101.23,282.82L106.05,333.64L110.87,335.39L115.69,340.64L120.51,340.64L125.33,335.39L130.15,335.39L134.97,333.64L139.79,307.35L144.61,335.39L149.43,275.81L154.25,335.39L159.07,328.38L163.89,333.64L168.71,233.76L173.53,261.8L178.35,144.4L183.17,146.16L187.99,244.28L192.81,303.85L197.63,321.37L202.46,305.6L207.28,305.6L212.1,309.11L216.92,321.37L221.74,328.38L226.56,328.38L231.38,323.12L236.2,321.37L241.02,323.12L245.84,328.38L250.66,330.13L255.48,326.63L260.3,330.13L265.12,328.38L269.94,317.87L274.76,314.36L279.58,309.11L284.4,321.37L289.22,319.62L294.04,323.12L298.86,331.88L303.68,328.38L308.5,324.87L313.32,330.13L318.14,326.63L322.96,319.62L327.78,314.36L332.6,324.87L337.43,326.63L342.25,331.88L347.07,319.62L351.89,330.13L361.53,330.13L366.35,331.88L371.17,328.38L375.99,331.88L380.81,317.87L385.63,314.36L390.45,326.63L395.27,319.62L404.91,323.12L409.73,326.63L419.37,323.12L424.19,328.38L429.01,323.12L433.83,323.12L438.65,321.37L443.47,326.63L448.29,324.87L453.11,331.88L457.93,330.13L462.75,326.63L467.57,333.64L472.4,330.13L477.22,328.38L482.04,333.64L486.86,317.87L491.68,323.12L496.5,330.13L501.32,326.63L506.14,331.88L510.96,323.12L515.78,326.63L520.6,328.38L525.42,323.12L530.24,330.13L535.06,330.13L539.88,328.38L544.7,330.13L549.52,328.38L554.34,324.87L559.16,317.87L563.98,324.87L568.8,328.38L573.62,330.13L578.44,328.38L583.26,333.64L588.08,331.88L592.9,328.38L597.72,333.64L602.54,330.13L607.37,330.13L612.19,331.88L617.01,324.87L621.83,335.39L626.65,310.86L631.47,317.87L636.29,317.87L641.11,316.11L645.93,324.87L650.75,323.12L655.57,324.87L660.39,321.37L665.21,324.87L670.03,333.64L674.85,326.63L679.67,324.87L684.49,331.88L689.31,317.87L694.13,330.13L698.95,319.62L703.77,324.87L708.59,335.39L713.41,328.38L718.23,335.39L723.05,328.38L727.87,307.35L732.69,18.25L742.34,205.73L747.16,202.22L751.98,119.87L756.8,254.79L761.62,272.31L766.44,268.81L771.26,260.05L776.08,237.27L780.9,319.62L785.72,240.77L790.54,268.81L795.36,314.36L800.18,335.39L805,335.39" style="vector-effect: none; fill: none; stroke: rgb(99, 110, 250); stroke-opacity: 1; stroke-width: 2px; opacity: 1;"/></g><g class="points"/><g class="text"/></g><g class="trace scatter trace692a48" style="stroke-miterlimit: 2; opacity: 1;"><g class="fills"/><g class="errorbars"/><g class="lines"><path class="js-line" d="M0,326.17L9.64,336.66L14.46,318.92L19.28,330.15L24.1,326.51L28.92,314.07L33.74,285.56L38.56,266.54L43.38,240.07L57.84,313.62L62.66,301.78L67.49,268.73L72.31,300.07L77.13,297.09L81.95,296.59L86.77,316.04L91.59,287.33L96.41,311.15L101.23,309.09L106.05,312.91L110.87,332.89L115.69,335.75L120.51,329.35L125.33,338.65L130.15,327.3L134.97,328.62L139.79,346.75L149.43,277.78L154.25,301.61L159.07,308.07L163.89,317.67L168.71,295.09L173.53,304.94L183.17,300.24L187.99,288.12L192.81,280.96L197.63,250.61L202.46,251.5L207.28,255.37L216.92,309.28L221.74,308.43L231.38,339.26L236.2,345.11L241.02,335.83L245.84,329.4L250.66,332.55L255.48,330.7L260.3,325.06L265.12,237.28L269.94,256.2L274.76,267.47L279.58,293.15L284.4,281.65L289.22,295.94L294.04,269.35L298.86,264.4L303.68,286.67L308.5,315.33L313.32,294.71L318.14,288.14L322.96,193.79L327.78,314.1L332.6,278.27L337.43,311.25L342.25,326.86L347.07,340.51L351.89,345.78L356.71,345.21L361.53,337.62L366.35,326.95L371.17,328.22L375.99,313.34L380.81,311.35L385.63,323.06L390.45,297.11L395.27,309.63L400.09,302.97L404.91,263.84L409.73,274.55L414.55,320.26L419.37,305.04L424.19,324.85L429.01,296.61L433.83,303.72L438.65,272.43L443.47,289.92L448.29,300.82L453.11,324.46L457.93,342L462.75,337.05L467.57,341.72L472.4,345.22L477.22,333.69L482.04,334.23L486.86,314.18L491.68,293.59L496.5,269.03L501.32,329.7L506.14,301.07L510.96,305.39L515.78,307.1L520.6,297.65L525.42,299.1L530.24,312.52L535.06,304.85L539.88,317.63L544.7,314.94L549.52,317.33L554.34,270.7L559.16,265.4L563.98,308.48L568.8,314.12L573.62,311.94L578.44,331.98L583.26,338.86L588.08,343.94L592.9,334.68L597.72,338.1L602.54,329.98L607.37,320.22L612.19,304.98L617.01,299.34L621.83,312.25L631.47,296.19L636.29,283.21L641.11,277.79L645.93,299.63L650.75,286.29L655.57,288.19L660.39,295L665.21,283.2L670.03,255.42L674.85,277.29L679.67,294.44L684.49,284.38L689.31,287.68L694.13,320.21L698.95,331.21L703.77,326.86L708.59,333.75L713.41,329.31L718.23,330.32L723.05,326.47L727.87,280.45L732.69,263.26L737.51,229.87L742.34,270.46L747.16,269.31L751.98,261.85L756.8,248.92L761.62,253.62L766.44,263.92L771.26,250.67L776.08,277.11L780.9,261.95L785.72,250.45L790.54,271.03L795.36,300.55L800.18,306.28L805,308.62" style="vector-effect: none; fill: none; stroke: rgb(239, 85, 59); stroke-opacity: 1; stroke-dasharray: 9px, 9px; stroke-width: 2px; opacity: 1;"/></g><g class="points"/><g class="text"/></g></g></g></g><g class="zerolinelayer-above"/><path class="xlines-above crisp" d="M0,0" style="fill: none;"/><path class="ylines-above crisp" d="M0,0" style="fill: none;"/><g class="overlines-above"/><g class="xaxislayer-above"><g class="xtick"><text text-anchor="middle" x="0" y="440" transform="translate(70,0)" style="font-family: 'CMU Serif', 'Times New Roman', serif; font-size: 14px; fill: rgb(34, 34, 34); fill-opacity: 1; white-space: pre;"><tspan class="line" dy="0em" x="0" y="440">Jul 1</tspan><tspan class="line" dy="1.3em" x="0" y="440">2014</tspan></text></g><g class="xtick"><text text-anchor="middle" x="0" y="440" style="font-family: 'CMU Serif', 'Times New Roman', serif; font-size: 14px; fill: rgb(34, 34, 34); fill-opacity: 1; white-space: pre;" transform="translate(185.69,0)">Jul 2</text></g><g class="xtick"><text text-anchor="middle" x="0" y="440" style="font-family: 'CMU Serif', 'Times New Roman', serif; font-size: 14px; fill: rgb(34, 34, 34); fill-opacity: 1; white-space: pre;" transform="translate(301.38,0)">Jul 3</text></g><g class="xtick"><text text-anchor="middle" x="0" y="440" style="font-family: 'CMU Serif', 'Times New Roman', serif; font-size: 14px; fill: rgb(34, 34, 34); fill-opacity: 1; white-space: pre;" transform="translate(417.07,0)">Jul 4</text></g><g class="xtick"><text text-anchor="middle" x="0" y="440" style="font-family: 'CMU Serif', 'Times New Roman', serif; font-size: 14px; fill: rgb(34, 34, 34); fill-opacity: 1; white-space: pre;" transform="translate(532.75,0)">Jul 5</text></g><g class="xtick"><text text-anchor="middle" x="0" y="440" style="font-family: 'CMU Serif', 'Times New Roman', serif; font-size: 14px; fill: rgb(34, 34, 34); fill-opacity: 1; white-space: pre;" transform="translate(648.44,0)">Jul 6</text></g><g class="xtick"><text text-anchor="middle" x="0" y="440" style="font-family: 'CMU Serif', 'Times New Roman', serif; font-size: 14px; fill: rgb(34, 34, 34); fill-opacity: 1; white-space: pre;" transform="translate(764.13,0)">Jul 7</text></g></g><g class="yaxislayer-above"><g class="ytick"><text text-anchor="end" x="69" y="4.8999999999999995" transform="translate(0,356.84)" style="font-family: 'CMU Serif', 'Times New Roman', serif; font-size: 14px; fill: rgb(34, 34, 34); fill-opacity: 1; white-space: pre;">0.5</text></g><g class="ytick"><text text-anchor="end" x="69" y="4.8999999999999995" style="font-family: 'CMU Serif', 'Times New Roman', serif; font-size: 14px; fill: rgb(34, 34, 34); fill-opacity: 1; white-space: pre;" transform="translate(0,269.23)">1</text></g><g class="ytick"><text text-anchor="end" x="69" y="4.8999999999999995" style="font-family: 'CMU Serif', 'Times New Roman', serif; font-size: 14px; fill: rgb(34, 34, 34); fill-opacity: 1; white-space: pre;" transform="translate(0,181.63)">1.5</text></g><g class="ytick"><text text-anchor="end" x="69" y="4.8999999999999995" style="font-family: 'CMU Serif', 'Times New Roman', serif; font-size: 14px; fill: rgb(34, 34, 34); fill-opacity: 1; white-space: pre;" transform="translate(0,94.02000000000001)">2</text></g></g><g class="overaxes-above"/></g></g><g class="polarlayer"/><g class="smithlayer"/><g class="ternarylayer"/><g class="geolayer"/><g class="funnelarealayer"/><g class="pielayer"/><g class="iciclelayer"/><g class="treemaplayer"/><g class="sunburstlayer"/><g class="glimages"/><defs id="topdefs-02d239"><g class="clips"/><clipPath id="legend02d239"><rect width="95" height="53" x="1" y="1"/></clipPath></defs><g class="layer-above"><g class="imagelayer"/><g class="shapelayer"/></g><g class="infolayer"><g class="legend" pointer-events="all" transform="translate(891.1,60)"><rect class="bg" shape-rendering="crispEdges" style="stroke: rgb(208, 208, 208); stroke-opacity: 1; fill: rgb(255, 255, 255); fill-opacity: 0.85; stroke-width: 1px;" width="96" height="54" x="0.5" y="0.5"/><g class="scrollbox" transform="" clip-path="url(#legend02d239)"><g class="groups"><g class="traces" transform="translate(1,16.6)" style="opacity: 1;"><text class="legendtext" text-anchor="start" x="40" y="5.46" style="font-family: 'CMU Serif', 'Times New Roman', serif; font-size: 14px; fill: rgb(34, 34, 34); fill-opacity: 1; white-space: pre;">Actual</text><g class="layers" style="opacity: 1;"><g class="legendfill"/><g class="legendlines"><path class="js-line" d="M5,0h30" style="fill: none; stroke: rgb(99, 110, 250); stroke-opacity: 1; stroke-width: 2px;"/></g><g class="legendsymbols"><g class="legendpoints"/></g></g><rect class="legendtoggle" x="0" y="-10.6" width="89.5380859375" height="21.2" style="fill: rgb(0, 0, 0); fill-opacity: 0;"/></g><g class="traces" transform="translate(1,37.8)" style="opacity: 1;"><text class="legendtext" text-anchor="start" x="40" y="5.46" style="font-family: 'CMU Serif', 'Times New Roman', serif; font-size: 14px; fill: rgb(34, 34, 34); fill-opacity: 1; white-space: pre;">Forecast</text><g class="layers" style="opacity: 1;"><g class="legendfill"/><g class="legendlines"><path class="js-line" d="M5,0h30" style="fill: none; stroke: rgb(239, 85, 59); stroke-opacity: 1; stroke-dasharray: 9px, 9px; stroke-width: 2px;"/></g><g class="legendsymbols"><g class="legendpoints"/></g></g><rect class="legendtoggle" x="0" y="-10.6" width="89.5380859375" height="21.2" style="fill: rgb(0, 0, 0); fill-opacity: 0;"/></g></g></g><rect class="scrollbar" rx="20" ry="3" width="0" height="0" style="fill: rgb(128, 139, 164); fill-opacity: 1;" x="0" y="0"/></g><g class="g-gtitle"><text class="gtitle" x="50" y="30" text-anchor="start" dy="0em" style="opacity: 1; font-family: 'CMU Serif', 'Times New Roman', serif; font-size: 20px; fill: rgb(34, 34, 34); fill-opacity: 1; white-space: pre;">Forecast – XGBoost</text></g><g class="g-xtitle"><text class="xtitle" x="472.5" y="487.6001953125" text-anchor="middle" style="opacity: 1; font-family: 'CMU Serif', 'Times New Roman', serif; font-size: 17px; fill: rgb(34, 34, 34); fill-opacity: 1; white-space: pre;">Time (h)</text></g><g class="g-ytitle"><text class="ytitle" transform="rotate(-90,31.049999999999997,242.5)" x="31.049999999999997" y="242.5" text-anchor="middle" style="opacity: 1; font-family: 'CMU Serif', 'Times New Roman', serif; font-size: 17px; fill: rgb(34, 34, 34); fill-opacity: 1; white-space: pre;">Demand (kW)</text></g></g></svg>