<svg class="main-svg" xmlns="http://www.w3.org/2000/svg" xmlns:xlink="http://www.w3.org/1999/xlink" width="1200" height="600" style="" viewBox="0 0 1200 600"><rect x="0" y="0" width="1200" height="600" style="fill: rgb(255, 255, 255); fill-opacity: 1;"/><defs id="defs-4ec20f"><g class="clips"><clipPath id="clip4ec20fxyplot" class="plotclip"><rect width="888" height="465"/></clipPath><clipPath class="axesclip" id="clip4ec20fx"><rect x="70" y="0" width="888" height="600"/></clipPath><clipPath class="axesclip" id="clip4ec20fy"><rect x="0" y="60" width="1200" height="465"/></clipPath><clipPath class="axesclip" id="clip4ec20fxy"><rect x="70" y="60" width="888" height="465"/></clipPath></g><g class="gradients"/><g class="patterns"/></defs><g class="bglayer"/><g class="layer-below"><g class="imagelayer"/><g class="shapelayer"/></g><g class="cartesianlayer"><g class="subplot xy"><g class="layer-subplot"><g class="shapelayer"/><g class="imagelayer"/></g><g class="minor-gridlayer"><g class="x"/><g class="y"/></g><g class="gridlayer"><g class="x"><path class="xgrid crisp" transform="translate(197.62,0)" d="M0,60v465" style="stroke: rgb(40, 52, 66); stroke-opacity: 1; stroke-width: 1px;"/><path class="xgrid crisp" transform="translate(325.23,0)" d="M0,60v465" style="stroke: rgb(40, 52, 66); stroke-opacity: 1; stroke-width: 1px;"/><path class="xgrid crisp" transform="translate(452.85,0)" d="M0,60v465" style="stroke: rgb(40, 52, 66); stroke-opacity: 1; stroke-width: 1px;"/><path class="xgrid crisp" transform="translate(580.47,0)" d="M0,60v465" style="stroke: rgb(40, 52, 66); stroke-opacity: 1; stroke-width: 1px;"/><path class="xgrid crisp" transform="translate(708.08,0)" d="M0,60v465" style="stroke: rgb(40, 52, 66); stroke-opacity: 1; stroke-width: 1px;"/><path class="xgrid crisp" transform="translate(835.7,0)" d="M0,60v465" style="stroke: rgb(40, 52, 66); stroke-opacity: 1; stroke-width: 1px;"/></g><g class="y"><path class="ygrid crisp" transform="translate(0,430.81)" d="M70,0h888" style="stroke: rgb(40, 52, 66); stroke-opacity: 1; stroke-width: 1px;"/><path class="ygrid crisp" transform="translate(0,335.33)" d="M70,0h888" style="stroke: rgb(40, 52, 66); stroke-opacity: 1; stroke-width: 1px;"/><path class="ygrid crisp" transform="translate(0,239.84)" d="M70,0h888" style="stroke: rgb(40, 52, 66); stroke-opacity: 1; stroke-width: 1px;"/><path class="ygrid crisp" transform="translate(0,144.36)" d="M70,0h888" style="stroke: rgb(40, 52, 66); stroke-opacity: 1; stroke-width: 1px;"/></g></g><g class="zerolinelayer"/><g class="layer-between"><g class="shapelayer"/><g class="imagelayer"/></g><path class="xlines-below"/><path class="ylines-below"/><g class="overlines-below"/><g class="xaxislayer-below"/><g class="yaxislayer-below"/><g class="overaxes-below"/><g class="overplot"><g class="xy" transform="translate(70,60)" clip-path="url(#clip4ec20fxyplot)"><g class="scatterlayer mlayer"><g class="trace scatter trace111181" style="stroke-miterlimit: 2; opacity: 1;"><g class="fills"/><g class="errorbars"/><g class="lines"><path class="js-line" d="M0,407.09L122.3,407.09L127.62,412.82L249.92,412.82L255.23,405.18L377.53,405.18L382.85,409L505.15,409L510.47,407.09L760.38,407.09L765.7,393.72L888,393.72" style="vector-effect: none; fill: none; stroke: rgb(99, 110, 250); stroke-opacity: 1; stroke-width: 1px; opacity: 1;"/></g><g class="points"/><g class="text"/></g><g class="trace scatter trace76a692" style="stroke-miterlimit: 2; opacity: 1;"><g class="fills"/><g class="errorbars"/><g class="lines"><path class="js-line" d="M0,408.12L5.32,409.54L10.63,409L15.95,409.99L21.27,406.42L26.59,402L31.9,391.5L37.22,343.43L42.54,336.37L47.86,322.08L53.17,336.95L58.49,359.16L63.81,350.36L69.13,342.96L74.44,354.06L79.76,356.62L85.08,353.95L90.4,344.78L95.71,343.75L101.03,328.51L106.35,335.83L122.3,392.86L127.62,412.03L132.93,412.74L138.25,411.86L143.57,412.71L148.89,409.13L154.2,404.77L159.52,393.05L164.84,344.35L170.16,338.93L175.47,324.45L180.79,338.96L186.11,362.68L191.43,353.66L196.74,346.76L202.06,357.25L207.38,357.92L212.69,355.41L218.01,347.48L223.33,346.76L228.65,327.32L233.96,337.42L244.6,378.59L249.92,395.78L255.23,410.25L260.55,413.26L265.87,413.38L271.19,414.6L276.5,411.19L281.82,406.83L287.14,393.58L292.46,342.86L297.77,341.59L303.09,328.02L308.41,342.71L313.72,364.89L324.36,348.26L329.68,358.76L334.99,360.24L340.31,357.26L345.63,349.91L350.95,349.54L356.26,330.35L361.58,339.61L372.22,381.41L377.53,398.23L382.85,419.5L388.17,424.73L398.8,427.39L404.12,424.22L409.44,419.59L414.75,407.14L420.07,356.65L425.39,356.2L430.71,342.81L436.02,357.18L441.34,377.47L446.66,369.17L451.98,359.89L457.29,370.23L462.61,373.15L467.93,371.11L473.25,364.23L478.56,363.59L483.88,344.79L489.2,353.84L499.83,395.09L505.15,411.58L510.47,423.27L515.78,431.02L526.42,435.23L531.74,432.37L537.05,427.85L542.37,415.79L547.69,366.32L553.01,365.67L558.32,352.66L563.64,366.54L568.96,386.58L574.28,378.47L579.59,369.5L584.91,379.69L590.23,382.47L595.54,380.49L600.86,373.79L606.18,373.09L611.5,354.62L616.81,363.42L627.45,403.96L632.77,420.15L638.08,426.18L643.4,435.44L654.04,440.38L659.35,437.77L664.67,433.18L669.99,421.53L675.31,373.05L680.62,372.33L685.94,359.85L691.26,373.23L696.57,392.87L701.89,384.99L707.21,376.22L712.53,386.23L717.84,388.92L723.16,387.05L728.48,380.44L733.8,379.74L739.11,361.63L744.43,370.24L755.07,410.04L760.38,425.85L765.7,421.62L771.02,434.73L776.34,438.86L781.65,441.75L786.97,439.62L792.29,434.99L797.6,423.73L802.92,376.5L808.24,375.68L813.56,363.67L818.87,376.37L824.19,395.69L834.83,379.35L840.14,389.31L845.46,391.93L850.78,390.09L856.1,383.62L861.41,382.94L866.73,365.29L872.05,373.53L882.68,412.62L888,427.95" style="vector-effect: none; fill: none; stroke: rgb(239, 85, 59); stroke-opacity: 1; stroke-width: 1px; opacity: 1;"/></g><g class="points"/><g class="text"/></g><g class="trace scatter tracedf824b" style="stroke-miterlimit: 2; opacity: 1;"><g class="fills"/><g class="errorbars"/><g class="lines"><path class="js-line" d="M0,414.73L5.32,422.37L10.63,416.64L21.27,420.46L26.59,414.73L31.9,401.36L37.22,395.63L42.54,342.16L47.86,279.14L53.17,246.68L58.49,407.09L63.81,397.54L69.13,420.46L74.44,368.9L79.76,233.31L90.4,361.26L95.71,353.62L101.03,23.25L106.35,277.24L111.66,370.81L116.98,399.45L122.3,407.09L127.62,418.55L132.93,416.64L138.25,420.46L143.57,418.55L148.89,414.73L154.2,420.46L159.52,271.51L164.84,88.18L170.16,332.62L175.47,380.36L180.79,410.91L186.11,407.09L191.43,382.27L202.06,405.18L207.38,399.45L212.69,323.07L218.01,338.34L223.33,370.81L228.65,361.26L233.96,313.52L239.28,355.53L244.6,410.91L249.92,412.82L255.23,418.55L260.55,418.55L265.87,412.82L271.19,412.82L276.5,410.91L281.82,382.27L287.14,412.82L292.46,347.89L297.77,412.82L303.09,405.18L308.41,410.91L313.72,302.06L319.04,332.62L324.36,204.67L329.68,206.58L334.99,313.52L340.31,378.45L345.63,397.54L350.95,380.36L356.26,380.36L361.58,384.18L366.9,397.54L372.22,405.18L377.53,405.18L382.85,399.45L388.17,397.54L393.49,399.45L398.8,405.18L404.12,407.09L409.44,403.27L414.75,407.09L420.07,405.18L425.39,393.72L430.71,389.91L436.02,384.18L441.34,397.54L446.66,395.63L451.98,399.45L457.29,409L462.61,405.18L467.93,401.36L473.25,407.09L478.56,403.27L483.88,395.63L489.2,389.91L494.51,401.36L499.83,403.27L505.15,409L510.47,395.63L515.78,407.09L526.42,407.09L531.74,409L537.05,405.18L542.37,409L547.69,393.72L553.01,389.91L558.32,403.27L563.64,395.63L574.28,399.45L579.59,403.27L590.23,399.45L595.54,405.18L600.86,399.45L606.18,399.45L611.5,397.54L616.81,403.27L622.13,401.36L627.45,409L632.77,407.09L638.08,403.27L643.4,410.91L648.72,407.09L654.04,405.18L659.35,410.91L664.67,393.72L669.99,399.45L675.31,407.09L680.62,403.27L685.94,409L691.26,399.45L696.57,403.27L701.89,405.18L707.21,399.45L712.53,407.09L717.84,407.09L723.16,405.18L728.48,407.09L733.8,405.18L739.11,401.36L744.43,393.72L749.75,401.36L755.07,405.18L760.38,407.09L765.7,405.18L771.02,410.91L776.34,409L781.65,405.18L786.97,410.91L792.29,407.09L797.6,407.09L802.92,409L808.24,401.36L813.56,412.82L818.87,386.09L824.19,393.72L829.51,393.72L834.83,391.81L840.14,401.36L845.46,399.45L850.78,401.36L856.1,397.54L861.41,401.36L866.73,410.91L872.05,403.27L877.37,401.36L882.68,409L888,393.72" style="vector-effect: none; fill: none; stroke: rgb(0, 204, 150); stroke-opacity: 1; stroke-width: 1px; opacity: 1;"/></g><g class="points"/><g class="text"/></g><g class="trace scatter tracee6a972" style="stroke-miterlimit: 2; opacity: 1;"><g class="fills"/><g class="errorbars"/><g class="lines"><path class="js-line" d="M0,402.77L10.63,414.2L15.95,394.87L21.27,407.12L26.59,403.14L31.9,389.59L37.22,358.52L42.54,337.78L47.86,308.94L63.81,389.1L69.13,376.19L74.44,340.17L79.76,374.33L85.08,371.08L90.4,370.54L95.71,391.73L101.03,360.44L106.35,386.4L111.66,384.16L116.98,388.32L122.3,410.1L127.62,413.22L132.93,406.24L138.25,416.38L143.57,404.01L148.89,405.45L154.2,425.21L164.84,350.04L170.16,376L175.47,383.05L180.79,393.51L186.11,368.9L191.43,379.64L202.06,374.52L207.38,361.31L212.69,353.5L218.01,320.42L223.33,321.39L228.65,325.61L239.28,384.37L244.6,383.44L255.23,417.05L260.55,423.42L265.87,413.3L271.19,406.3L276.5,409.73L281.82,407.71L287.14,401.56L292.46,305.89L297.77,326.52L303.09,338.8L308.41,366.79L313.72,354.25L319.04,369.83L324.36,340.84L329.68,335.45L334.99,359.73L340.31,390.96L345.63,368.49L350.95,361.32L356.26,258.5L361.58,389.62L366.9,350.57L372.22,386.51L377.53,403.53L382.85,418.4L388.17,424.14L393.49,423.53L398.8,415.26L404.12,403.63L409.44,405.01L414.75,388.79L420.07,386.62L425.39,399.39L430.71,371.1L436.02,384.75L441.34,377.49L446.66,334.84L451.98,346.52L457.29,396.33L462.61,379.75L467.93,401.34L473.25,370.56L478.56,378.3L483.88,344.21L489.2,363.27L494.51,375.15L499.83,400.91L505.15,420.02L510.47,414.63L515.78,419.73L521.1,423.54L526.42,410.97L531.74,411.56L537.05,389.7L542.37,367.27L547.69,340.5L553.01,406.62L558.32,375.42L563.64,380.13L568.96,381.99L574.28,371.69L579.59,373.27L584.91,387.9L590.23,379.54L595.54,393.47L600.86,390.53L606.18,393.14L611.5,342.31L616.81,336.54L622.13,383.49L627.45,389.64L632.77,387.26L638.08,409.11L643.4,416.6L648.72,422.15L654.04,412.05L659.35,415.78L664.67,406.92L669.99,396.29L675.31,379.68L680.62,373.54L685.94,387.61L696.57,370.1L701.89,355.95L707.21,350.05L712.53,373.85L717.84,359.31L723.16,361.38L728.48,368.8L733.8,355.94L739.11,325.66L744.43,349.5L749.75,368.2L755.07,357.23L760.38,360.83L765.7,396.28L771.02,408.27L776.34,403.53L781.65,411.04L786.97,406.19L792.29,407.29L797.6,403.1L802.92,352.95L808.24,334.2L813.56,297.81L818.87,342.06L824.19,340.81L829.51,332.67L834.83,318.59L840.14,323.7L845.46,334.93L850.78,320.49L856.1,349.31L861.41,332.78L866.73,320.25L872.05,342.68L877.37,374.86L882.68,381.09L888,383.65" style="vector-effect: none; fill: none; stroke: rgb(171, 99, 250); stroke-opacity: 1; stroke-width: 1px; opacity: 1;"/></g><g class="points"/><g class="text"/></g><g class="trace scatter trace4ae30f" style="stroke-miterlimit: 2; opacity: 1;"><g class="fills"/><g class="errorbars"/><g class="lines"><path class="js-line" d="M0,418.55L5.32,416.64L5.32,416.64L10.63,420.46L15.95,418.55L15.95,418.55L21.27,414.73L26.59,420.46L26.59,420.46L31.9,271.51L37.22,88.18L37.22,88.18L42.54,332.62L47.86,380.36L47.86,380.36L53.17,410.91L58.49,407.09L58.49,407.09L63.81,382.27L74.44,405.18L74.44,405.18L79.76,399.45L85.08,323.07L85.08,323.07L90.4,338.34L95.71,370.81L95.71,370.81L101.03,361.26L106.35,313.52L106.35,313.52L111.66,355.53L116.98,410.91L116.98,410.91L122.3,412.82L127.62,418.55L127.62,418.55L132.93,418.55L138.25,412.82L138.25,412.82L143.57,412.82L148.89,410.91L148.89,410.91L154.2,382.27L159.52,412.82L159.52,412.82L164.84,347.89L170.16,412.82L170.16,412.82L175.47,405.18L180.79,410.91L180.79,410.91L186.11,302.06L191.43,332.62L191.43,332.62L196.74,204.67L202.06,206.58L202.06,206.58L207.38,313.52L212.69,378.45L212.69,378.45L218.01,397.54L223.33,380.36L223.33,380.36L228.65,380.36L233.96,384.18L233.96,384.18L239.28,397.54L244.6,405.18L244.6,405.18L249.92,405.18L255.23,399.45L255.23,399.45L260.55,397.54L265.87,399.45L265.87,399.45L271.19,405.18L276.5,407.09L276.5,407.09L281.82,403.27L287.14,407.09L287.14,407.09L292.46,405.18L297.77,393.72L297.77,393.72L303.09,389.91L308.41,384.18L308.41,384.18L313.72,397.54L319.04,395.63L319.04,395.63L324.36,399.45L329.68,409L329.68,409L334.99,405.18L340.31,401.36L340.31,401.36L345.63,407.09L350.95,403.27L350.95,403.27L356.26,395.63L361.58,389.91L361.58,389.91L366.9,401.36L372.22,403.27L372.22,403.27L377.53,409L382.85,395.63L382.85,395.63L388.17,407.09L398.8,407.09L398.8,407.09L404.12,409L409.44,405.18L409.44,405.18L414.75,409L420.07,393.72L420.07,393.72L425.39,389.91L430.71,403.27L430.71,403.27L436.02,395.63L446.66,399.45L446.66,399.45L451.98,403.27L462.61,399.45L462.61,399.45L467.93,405.18L473.25,399.45L473.25,399.45L478.56,399.45L483.88,397.54L483.88,397.54L489.2,403.27L494.51,401.36L494.51,401.36L499.83,409L505.15,407.09L505.15,407.09L510.47,403.27L515.78,410.91L515.78,410.91L521.1,407.09L526.42,405.18L526.42,405.18L531.74,410.91L537.05,393.72L537.05,393.72L542.37,399.45L547.69,407.09L547.69,407.09L553.01,403.27L558.32,409L558.32,409L563.64,399.45L568.96,403.27L568.96,403.27L574.28,405.18L579.59,399.45L579.59,399.45L584.91,407.09L590.23,407.09L590.23,407.09L595.54,405.18L600.86,407.09L600.86,407.09L606.18,405.18L611.5,401.36L611.5,401.36L616.81,393.72L622.13,401.36L622.13,401.36L627.45,405.18L632.77,407.09L632.77,407.09L638.08,405.18L643.4,410.91L643.4,410.91L648.72,409L654.04,405.18L654.04,405.18L659.35,410.91L664.67,407.09L664.67,407.09L669.99,407.09L675.31,409L675.31,409L680.62,401.36L685.94,412.82L685.94,412.82L691.26,386.09L696.57,393.72L696.57,393.72L701.89,393.72L707.21,391.81L707.21,391.81L712.53,401.36L717.84,399.45L717.84,399.45L723.16,401.36L728.48,397.54L728.48,397.54L733.8,401.36L739.11,410.91L739.11,410.91L744.43,403.27L749.75,401.36L749.75,401.36L755.07,409L760.38,393.72L760.38,393.72L765.7,407.09L771.02,395.63L771.02,395.63L776.34,401.36L781.65,412.82L781.65,412.82L786.97,405.18L792.29,412.82L792.29,412.82L797.6,405.18L802.92,382.27L802.92,382.27L808.24,67.17L818.87,271.51L818.87,271.51L824.19,267.69L829.51,177.93L829.51,177.93L834.83,324.98L840.14,344.07L840.14,344.07L845.46,340.25L850.78,330.71L850.78,330.71L856.1,305.88L861.41,395.63L861.41,395.63L866.73,309.7L872.05,340.25L872.05,340.25L877.37,389.91L882.68,412.82L882.68,412.82L888,412.82" style="vector-effect: none; fill: none; stroke: rgb(0, 0, 0); stroke-opacity: 1; stroke-width: 2px; opacity: 1;"/></g><g class="points"/><g class="text"/></g></g></g></g><g class="zerolinelayer-above"/><path class="xlines-above crisp" d="M0,0" style="fill: none;"/><path class="ylines-above crisp" d="M0,0" style="fill: none;"/><g class="overlines-above"/><g class="xaxislayer-above"><g class="xtick"><text text-anchor="middle" x="0" y="540" transform="translate(70,0)" style="font-family: 'CMU Serif', 'Times New Roman', serif; font-size: 14px; fill: rgb(34, 34, 34); fill-opacity: 1; white-space: pre;"><tspan class="line" dy="0em" x="0" y="540">Jul 1</tspan><tspan class="line" dy="1.3em" x="0" y="540">2014</tspan></text></g><g class="xtick"><text text-anchor="middle" x="0" y="540" style="font-family: 'CMU Serif', 'Times New Roman', serif; font-size: 14px; fill: rgb(34, 34, 34); fill-opacity: 1; white-space: pre;" transform="translate(197.62,0)">Jul 2</text></g><g class="xtick"><text text-anchor="middle" x="0" y="540" style="font-family: 'CMU Serif', 'Times New Roman', serif; font-size: 14px; fill: rgb(34, 34, 34); fill-opacity: 1; white-space: pre;" transform="translate(325.23,0)">Jul 3</text></g><g class="xtick"><text text-anchor="middle" x="0" y="540" style="font-family: 'CMU Serif', 'Times New Roman', serif; font-size: 14px; fill: rgb(34, 34, 34); fill-opacity: 1; white-space: pre;" transform="translate(452.85,0)">Jul 4</text></g><g class="xtick"><text text-anchor="middle" x="0" y="540" style="font-family: 'CMU Serif', 'Times New Roman', serif; font-size: 14px; fill: rgb(34, 34, 34); fill-opacity: 1; white-space: pre;" transform="translate(580.47,0)">Jul 5</text></g><g class="xtick"><text text-anchor="middle" x="0" y="540" style="font-family: 'CMU Serif', 'Times New Roman', serif; font-size: 14px; fill: rgb(34, 34, 34); fill-opacity: 1; white-space: pre;" transform="translate(708.08,0)">Jul 6</text></g><g class="xtick"><text text-anchor="middle" x="0" y="540" style="font-family: 'CMU Serif', 'Times New Roman', serif; font-size: 14px; fill: rgb(34, 34, 34); fill-opacity: 1; white-space: pre;" transform="translate(835.7,0)">Jul 7</text></g></g><g class="yaxislayer-above"><g class="ytick"><text text-anchor="end" x="69" y="4.8999999999999995" transform="translate(0,430.81)" style="font-family: 'CMU Serif', 'Times New Roman', serif; font-size: 14px; fill: rgb(34, 34, 34); fill-opacity: 1; white-space: pre;">0.5</text></g><g class="ytick"><text text-anchor="end" x="69" y="4.8999999999999995" style="font-family: 'CMU Serif', 'Times New Roman', serif; font-size: 14px; fill: rgb(34, 34, 34); fill-opacity: 1; white-space: pre;" transform="translate(0,335.33)">1</text></g><g class="ytick"><text text-anchor="end" x="69" y="4.8999999999999995" style="font-family: 'CMU Serif', 'Times New Roman', serif; font-size: 14px; fill: rgb(34, 34, 34); fill-opacity: 1; white-space: pre;" transform="translate(0,239.84)">1.5</text></g><g class="ytick"><text text-anchor="end" x="69" y="4.8999999999999995" style="font-family: 'CMU Serif', 'Times New Roman', serif; font-size: 14px; fill: rgb(34, 34, 34); fill-opacity: 1; white-space: pre;" transform="translate(0,144.36)">2</text></g></g><g class="overaxes-above"/></g></g><g class="polarlayer"/><g class="smithlayer"/><g class="ternarylayer"/><g class="geolayer"/><g class="funnelarealayer"/><g class="pielayer"/><g class="iciclelayer"/><g class="treemaplayer"/><g class="sunburstlayer"/><g class="glimages"/><defs id="topdefs-4ec20f"><g class="clips"/><clipPath id="legend4ec20f"><rect width="210" height="116" x="1" y="1"/></clipPath></defs><g class="layer-above"><g class="imagelayer"/><g class="shapelayer"/></g><g class="infolayer"><g class="legend" pointer-events="all" transform="translate(975.76,60)"><rect class="bg" shape-rendering="crispEdges" style="stroke: rgb(208, 208, 208); stroke-opacity: 1; fill: rgb(255, 255, 255); fill-opacity: 0.85; stroke-width: 1px;" width="211" height="117" x="0.5" y="0.5"/><g class="scrollbox" transform="" clip-path="url(#legend4ec20f)"><g class="groups"><g class="traces" transform="translate(1,16.6)" style="opacity: 1;"><text class="legendtext" text-anchor="start" x="40" y="5.46" style="font-family: 'CMU Serif', 'Times New Roman', serif; font-size: 14px; fill: rgb(34, 34, 34); fill-opacity: 1; white-space: pre;">Naive (last value)</text><g class="layers" style="opacity: 1;"><g class="legendfill"/><g class="legendlines"><path class="js-line" d="M5,0h30" style="fill: none; stroke: rgb(99, 110, 250); stroke-opacity: 1; stroke-width: 1px;"/></g><g class="legendsymbols"><g class="legendpoints"/></g></g><rect class="legendtoggle" x="0" y="-10.6" width="204.44140625" height="21.2" style="fill: rgb(0, 0, 0); fill-opacity: 0;"/></g><g class="traces" transform="translate(1,37.8)" style="opacity: 1;"><text class="legendtext" text-anchor="start" x="40" y="5.46" style="font-family: 'CMU Serif', 'Times New Roman', serif; font-size: 14px; fill: rgb(34, 34, 34); fill-opacity: 1; white-space: pre;">SARIMA(1, 1, 1)(1, 1, 1, 24)</text><g class="layers" style="opacity: 1;"><g class="legendfill"/><g class="legendlines"><path class="js-line" d="M5,0h30" style="fill: none; stroke: rgb(239, 85, 59); stroke-opacity: 1; stroke-width: 1px;"/></g><g class="legendsymbols"><g class="legendpoints"/></g></g><rect class="legendtoggle" x="0" y="-10.6" width="204.44140625" height="21.2" style="fill: rgb(0, 0, 0); fill-opacity: 0;"/></g><g class="traces" transform="translate(1,59)" style="opacity: 1;"><text class="legendtext" text-anchor="start" x="40" y="5.46" style="font-family: 'CMU Serif', 'Times New Roman', serif; font-size: 14px; fill: rgb(34, 34, 34); fill-opacity: 1; white-space: pre;">Seasonal naive (24h)</text><g class="layers" style="opacity: 1;"><g class="legendfill"/><g class="legendlines"><path class="js-line" d="M5,0h30" style="fill: none; stroke: rgb(0, 204, 150); stroke-opacity: 1; stroke-width: 1px;"/></g><g class="legendsymbols"><g class="legendpoints"/></g></g><rect class="legendtoggle" x="0" y="-10.6" width="204.44140625" height="21.2" style="fill: rgb(0, 0, 0); fill-opacity: 0;"/></g><g class="traces" transform="translate(1,80.19999999999999)" style="opacity: 1;"><text class="legendtext" text-anchor="start" x="40" y="5.46" style="font-family: 'CMU Serif', 'Times New Roman', serif; font-size: 14px; fill: rgb(34, 34, 34); fill-opacity: 1; white-space: pre;">XGBoost</text><g class="layers" style="opacity: 1;"><g class="legendfill"/><g class="legendlines"><path class="js-line" d="M5,0h30" style="fill: none; stroke: rgb(171, 99, 250); stroke-opacity: 1; stroke-width: 1px;"/></g><g class="legendsymbols"><g class="legendpoints"/></g></g><rect class="legendtoggle" x="0" y="-10.6" width="204.44140625" height="21.2" style="fill: rgb(0, 0, 0); fill-opacity: 0;"/></g><g class="traces" transform="translate(1,101.39999999999999)" style="opacity: 1;"><text class="legendtext" text-anchor="start" x="40" y="5.46" style="font-family: 'CMU Serif', 'Times New Roman', serif; font-size: 14px; fill: rgb(34, 34, 34); fill-opacity: 1; white-space: pre;">Actual</text><g class="layers" style="opacity: 1;"><g class="legendfill"/><g class="legendlines"><path class="js-line" d="M5,0h30" style="fill: none; stroke: rgb(0, 0, 0); stroke-opacity: 1; stroke-width: 2px;"/></g><g class="legendsymbols"><g class="legendpoints"/></g></g><rect class="legendtoggle" x="0" y="-10.6" width="204.44140625" height="21.2" style="fill: rgb(0, 0, 0); fill-opacity: 0;"/></g></g></g><rect class="scrollbar" rx="20" ry="3" width="0" height="0" style="fill: rgb(128, 139, 164); fill-opacity: 1;" x="0" y="0"/></g><g class="g-gtitle"><text class="gtitle" x="60" y="30" text-anchor="start" dy="0em" style="opacity: 1; font-family: 'CMU Serif', 'Times New Roman', serif; font-size: 20px; fill: rgb(34, 34, 34); fill-opacity: 1; white-space: pre;">7-day Forecast Comparison – All Models</text></g><g class="g-xtitle"><text class="xtitle" x="514" y="587.6001953125" text-anchor="middle" style="opacity: 1; font-family: 'CMU Serif', 'Times New Roman', serif; font-size: 17px; fill: rgb(34, 34, 34); fill-opacity: 1; white-space: pre;">Time</text></g><g class="g-ytitle"><text class="ytitle" transform="rotate(-90,31.049999999999997,292.5)" x="31.049999999999997" y="292.5" text-anchor="middle" style="opacity: 1; font-family: 'CMU Serif', 'Times New Roman', serif; font-size: 17px; fill: rgb(34, 34, 34); fill-opacity: 1; white-space: pre;">Demand</text></g></g></svg>