<svg class="main-svg" xmlns="http://www.w3.org/2000/svg" xmlns:xlink="http://www.w3.org/1999/xlink" width="1000" height="500" style="" viewBox="0 0 1000 500"><rect x="0" y="0" width="1000" height="500" style="fill: rgb(255, 255, 255); fill-opacity: 1;"/><defs id="defs-97d1a5"><g class="clips"><clipPath id="clip97d1a5xyplot" class="plotclip"><rect width="805" height="365"/></clipPath><clipPath class="axesclip" id="clip97d1a5x"><rect x="70" y="0" width="805" height="500"/></clipPath><clipPath class="axesclip" id="clip97d1a5y"><rect x="0" y="60" width="1000" height="365"/></clipPath><clipPath class="axesclip" id="clip97d1a5xy"><rect x="70" y="60" width="805" height="365"/></clipPath></g><g class="gradients"/><g class="patterns"/></defs><g class="bglayer"/><g class="layer-below"><g class="imagelayer"/><g class="shapelayer"/></g><g class="cartesianlayer"><g class="subplot xy"><g class="layer-subplot"><g class="shapelayer"/><g class="imagelayer"/></g><g class="minor-gridlayer"><g class="x"/><g class="y"/></g><g class="gridlayer"><g class="x"><path class="xgrid crisp" transform="translate(185.69,0)" d="M0,60v365" style="stroke: rgb(40, 52, 66); stroke-opacity: 1; stroke-width: 1px;"/><path class="xgrid crisp" transform="translate(301.38,0)" d="M0,60v365" style="stroke: rgb(40, 52, 66); stroke-opacity: 1; stroke-width: 1px;"/><path class="xgrid crisp" transform="translate(417.07,0)" d="M0,60v365" style="stroke: rgb(40, 52, 66); stroke-opacity: 1; stroke-width: 1px;"/><path class="xgrid crisp" transform="translate(532.75,0)" d="M0,60v365" style="stroke: rgb(40, 52, 66); stroke-opacity: 1; stroke-width: 1px;"/><path class="xgrid crisp" transform="translate(648.44,0)" d="M0,60v365" style="stroke: rgb(40, 52, 66); stroke-opacity: 1; stroke-width: 1px;"/><path class="xgrid crisp" transform="translate(764.13,0)" d="M0,60v365" style="stroke: rgb(40, 52, 66); stroke-opacity: 1; stroke-width: 1px;"/></g><g class="y"><path class="ygrid crisp" transform="translate(0,364.31)" d="M70,0h805" style="stroke: rgb(40, 52, 66); stroke-opacity: 1; stroke-width: 1px;"/><path class="ygrid crisp" transform="translate(0,285.72)" d="M70,0h805" style="stroke: rgb(40, 52, 66); stroke-opacity: 1; stroke-width: 1px;"/><path class="ygrid crisp" transform="translate(0,207.14)" d="M70,0h805" style="stroke: rgb(40, 52, 66); stroke-opacity: 1; stroke-width: 1px;"/><path class="ygrid crisp" transform="translate(0,128.55)" d="M70,0h805" style="stroke: rgb(40, 52, 66); stroke-opacity: 1; stroke-width: 1px;"/></g></g><g class="zerolinelayer"/><g class="layer-between"><g class="shapelayer"/><g class="imagelayer"/></g><path class="xlines-below"/><path class="ylines-below"/><g class="overlines-below"/><g class="xaxislayer-below"/><g class="yaxislayer-below"/><g class="overaxes-below"/><g class="overplot"><g class="xy" transform="translate(70,60)" clip-path="url(#clip97d1a5xyplot)"><g class="scatterlayer mlayer"><g class="trace scatter trace7a9025" style="stroke-miterlimit: 2; opacity: 1;"><g class="fills"/><g class="errorbars"/><g class="lines"><path class="js-line" d="M0,343.61L4.82,342.03L9.64,345.18L14.46,343.61L19.28,340.46L24.1,345.18L28.92,222.58L33.74,71.69L38.56,272.88L43.38,312.17L48.2,337.32L53.02,334.18L57.84,313.74L67.49,332.6L72.31,327.89L77.13,265.02L81.95,277.59L86.77,304.31L91.59,296.45L96.41,257.16L101.23,291.74L106.05,337.32L110.87,338.89L115.69,343.61L120.51,343.61L125.33,338.89L130.15,338.89L134.97,337.32L139.79,313.74L144.61,338.89L149.43,285.45L154.25,338.89L159.07,332.6L163.89,337.32L168.71,247.73L173.53,272.88L178.35,167.57L183.17,169.14L187.99,257.16L192.81,310.6L197.63,326.32L202.46,312.17L207.28,312.17L212.1,315.31L216.92,326.32L221.74,332.6L226.56,332.6L231.38,327.89L236.2,326.32L241.02,327.89L245.84,332.6L250.66,334.18L255.48,331.03L260.3,334.18L265.12,332.6L269.94,323.17L274.76,320.03L279.58,315.31L284.4,326.32L289.22,324.75L294.04,327.89L298.86,335.75L303.68,332.6L308.5,329.46L313.32,334.18L318.14,331.03L322.96,324.75L327.78,320.03L332.6,329.46L337.43,331.03L342.25,335.75L347.07,324.75L351.89,334.18L361.53,334.18L366.35,335.75L371.17,332.6L375.99,335.75L380.81,323.17L385.63,320.03L390.45,331.03L395.27,324.75L404.91,327.89L409.73,331.03L419.37,327.89L424.19,332.6L429.01,327.89L433.83,327.89L438.65,326.32L443.47,331.03L448.29,329.46L453.11,335.75L457.93,334.18L462.75,331.03L467.57,337.32L472.4,334.18L477.22,332.6L482.04,337.32L486.86,323.17L491.68,327.89L496.5,334.18L501.32,331.03L506.14,335.75L510.96,327.89L515.78,331.03L520.6,332.6L525.42,327.89L530.24,334.18L535.06,334.18L539.88,332.6L544.7,334.18L549.52,332.6L554.34,329.46L559.16,323.17L563.98,329.46L568.8,332.6L573.62,334.18L578.44,332.6L583.26,337.32L588.08,335.75L592.9,332.6L597.72,337.32L602.54,334.18L607.37,334.18L612.19,335.75L617.01,329.46L621.83,338.89L626.65,316.89L631.47,323.17L636.29,323.17L641.11,321.6L645.93,329.46L650.75,327.89L655.57,329.46L660.39,326.32L665.21,329.46L670.03,337.32L674.85,331.03L679.67,329.46L684.49,335.75L689.31,323.17L694.13,334.18L698.95,324.75L703.77,329.46L708.59,338.89L713.41,332.6L718.23,338.89L723.05,332.6L727.87,313.74L732.69,54.4L742.34,222.58L747.16,219.44L751.98,145.56L756.8,266.59L761.62,282.31L766.44,279.16L771.26,271.31L776.08,250.87L780.9,324.75L785.72,254.02L790.54,279.16L795.36,320.03L800.18,338.89L805,338.89" style="vector-effect: none; fill: none; stroke: rgb(99, 110, 250); stroke-opacity: 1; stroke-width: 2px; opacity: 1;"/></g><g class="points"/><g class="text"/></g><g class="trace scatter trace312179" style="stroke-miterlimit: 2; opacity: 1;"><g class="fills"/><g class="errorbars"/><g class="lines"><path class="js-line" d="M0,340.46L4.82,346.75L9.64,342.03L19.28,345.18L24.1,340.46L28.92,329.46L33.74,324.75L38.56,280.74L43.38,228.87L48.2,202.15L53.02,334.18L57.84,326.32L62.66,345.18L67.49,302.74L72.31,191.14L81.95,296.45L86.77,290.17L91.59,18.25L96.41,227.3L101.23,304.31L106.05,327.89L110.87,334.18L115.69,343.61L120.51,342.03L125.33,345.18L130.15,343.61L134.97,340.46L139.79,345.18L144.61,222.58L149.43,71.69L154.25,272.88L159.07,312.17L163.89,337.32L168.71,334.18L173.53,313.74L183.17,332.6L187.99,327.89L192.81,265.02L197.63,277.59L202.46,304.31L207.28,296.45L212.1,257.16L216.92,291.74L221.74,337.32L226.56,338.89L231.38,343.61L236.2,343.61L241.02,338.89L245.84,338.89L250.66,337.32L255.48,313.74L260.3,338.89L265.12,285.45L269.94,338.89L274.76,332.6L279.58,337.32L284.4,247.73L289.22,272.88L294.04,167.57L298.86,169.14L303.68,257.16L308.5,310.6L313.32,326.32L318.14,312.17L322.96,312.17L327.78,315.31L332.6,326.32L337.43,332.6L342.25,332.6L347.07,327.89L351.89,326.32L356.71,327.89L361.53,332.6L366.35,334.18L371.17,331.03L375.99,334.18L380.81,332.6L385.63,323.17L390.45,320.03L395.27,315.31L400.09,326.32L404.91,324.75L409.73,327.89L414.55,335.75L419.37,332.6L424.19,329.46L429.01,334.18L433.83,331.03L438.65,324.75L443.47,320.03L448.29,329.46L453.11,331.03L457.93,335.75L462.75,324.75L467.57,334.18L477.22,334.18L482.04,335.75L486.86,332.6L491.68,335.75L496.5,323.17L501.32,320.03L506.14,331.03L510.96,324.75L520.6,327.89L525.42,331.03L535.06,327.89L539.88,332.6L544.7,327.89L549.52,327.89L554.34,326.32L559.16,331.03L563.98,329.46L568.8,335.75L573.62,334.18L578.44,331.03L583.26,337.32L588.08,334.18L592.9,332.6L597.72,337.32L602.54,323.17L607.37,327.89L612.19,334.18L617.01,331.03L621.83,335.75L626.65,327.89L631.47,331.03L636.29,332.6L641.11,327.89L645.93,334.18L650.75,334.18L655.57,332.6L660.39,334.18L665.21,332.6L670.03,329.46L674.85,323.17L679.67,329.46L684.49,332.6L689.31,334.18L694.13,332.6L698.95,337.32L703.77,335.75L708.59,332.6L713.41,337.32L718.23,334.18L723.05,334.18L727.87,335.75L732.69,329.46L737.51,338.89L742.34,316.89L747.16,323.17L751.98,323.17L756.8,321.6L761.62,329.46L766.44,327.89L771.26,329.46L776.08,326.32L780.9,329.46L785.72,337.32L790.54,331.03L795.36,329.46L800.18,335.75L805,323.17" style="vector-effect: none; fill: none; stroke: rgb(239, 85, 59); stroke-opacity: 1; stroke-dasharray: 9px, 9px; stroke-width: 2px; opacity: 1;"/></g><g class="points"/><g class="text"/></g></g></g></g><g class="zerolinelayer-above"/><path class="xlines-above crisp" d="M0,0" style="fill: none;"/><path class="ylines-above crisp" d="M0,0" style="fill: none;"/><g class="overlines-above"/><g class="xaxislayer-above"><g class="xtick"><text text-anchor="middle" x="0" y="440" transform="translate(70,0)" style="font-family: 'CMU Serif', 'Times New Roman', serif; font-size: 14px; fill: rgb(34, 34, 34); fill-opacity: 1; white-space: pre;"><tspan class="line" dy="0em" x="0" y="440">Jul 1</tspan><tspan class="line" dy="1.3em" x="0" y="440">2014</tspan></text></g><g class="xtick"><text text-anchor="middle" x="0" y="440" style="font-family: 'CMU Serif', 'Times New Roman', serif; font-size: 14px; fill: rgb(34, 34, 34); fill-opacity: 1; white-space: pre;" transform="translate(185.69,0)">Jul 2</text></g><g class="xtick"><text text-anchor="middle" x="0" y="440" style="font-family: 'CMU Serif', 'Times New Roman', serif; font-size: 14px; fill: rgb(34, 34, 34); fill-opacity: 1; white-space: pre;" transform="translate(301.38,0)">Jul 3</text></g><g class="xtick"><text text-anchor="middle" x="0" y="440" style="font-family: 'CMU Serif', 'Times New Roman', serif; font-size: 14px; fill: rgb(34, 34, 34); fill-opacity: 1; white-space: pre;" transform="translate(417.07,0)">Jul 4</text></g><g class="xtick"><text text-anchor="middle" x="0" y="440" style="font-family: 'CMU Serif', 'Times New Roman', serif; font-size: 14px; fill: rgb(34, 34, 34); fill-opacity: 1; white-space: pre;" transform="translate(532.75,0)">Jul 5</text></g><g class="xtick"><text text-anchor="middle" x="0" y="440" style="font-family: 'CMU Serif', 'Times New Roman', serif; font-size: 14px; fill: rgb(34, 34, 34); fill-opacity: 1; white-space: pre;" transform="translate(648.44,0)">Jul 6</text></g><g class="xtick"><text text-anchor="middle" x="0" y="440" style="font-family: 'CMU Serif', 'Times New Roman', serif; font-size: 14px; fill: rgb(34, 34, 34); fill-opacity: 1; white-space: pre;" transform="translate(764.13,0)">Jul 7</text></g></g><g class="yaxislayer-above"><g class="ytick"><text text-anchor="end" x="69" y="4.8999999999999995" transform="translate(0,364.31)" style="font-family: 'CMU Serif', 'Times New Roman', serif; font-size: 14px; fill: rgb(34, 34, 34); fill-opacity: 1; white-space: pre;">0.5</text></g><g class="ytick"><text text-anchor="end" x="69" y="4.8999999999999995" style="font-family: 'CMU Serif', 'Times New Roman', serif; font-size: 14px; fill: rgb(34, 34, 34); fill-opacity: 1; white-space: pre;" transform="translate(0,285.72)">1</text></g><g class="ytick"><text text-anchor="end" x="69" y="4.8999999999999995" style="font-family: 'CMU Serif', 'Times New Roman', serif; font-size: 14px; fill: rgb(34, 34, 34); fill-opacity: 1; white-space: pre;" transform="translate(0,207.14)">1.5</text></g><g class="ytick"><text text-anchor="end" x="69" y="4.8999999999999995" style="font-family: 'CMU Serif', 'Times New Roman', serif; font-size: 14px; fill: rgb(34, 34, 34); fill-opacity: 1; white-space: pre;" transform="translate(0,128.55)">2</text></g></g><g class="overaxes-above"/></g></g><g class="polarlayer"/><g class="smithlayer"/><g class="ternarylayer"/><g class="geolayer"/><g class="funnelarealayer"/><g class="pielayer"/><g class="iciclelayer"/><g class="treemaplayer"/><g class="sunburstlayer"/><g class="glimages"/><defs id="topdefs-97d1a5"><g class="clips"/><clipPath id="legend97d1a5"><rect width="95" height="53" x="1" y="1"/></clipPath></defs><g class="layer-above"><g class="imagelayer"/><g class="shapelayer"/></g><g class="infolayer"><g class="legend" pointer-events="all" transform="translate(891.1,60)"><rect class="bg" shape-rendering="crispEdges" style="stroke: rgb(208, 208, 208); stroke-opacity: 1; fill: rgb(255, 255, 255); fill-opacity: 0.85; stroke-width: 1px;" width="96" height="54" x="0.5" y="0.5"/><g class="scrollbox" transform="" clip-path="url(#legend97d1a5)"><g class="groups"><g class="traces" transform="translate(1,16.6)" style="opacity: 1;"><text class="legendtext" text-anchor="start" x="40" y="5.46" style="font-family: 'CMU Serif', 'Times New Roman', serif; font-size: 14px; fill: rgb(34, 34, 34); fill-opacity: 1; white-space: pre;">Actual</text><g class="layers" style="opacity: 1;"><g class="legendfill"/><g class="legendlines"><path class="js-line" d="M5,0h30" style="fill: none; stroke: rgb(99, 110, 250); stroke-opacity: 1; stroke-width: 2px;"/></g><g class="legendsymbols"><g class="legendpoints"/></g></g><rect class="legendtoggle" x="0" y="-10.6" width="89.5380859375" height="21.2" style="fill: rgb(0, 0, 0); fill-opacity: 0;"/></g><g class="traces" transform="translate(1,37.8)" style="opacity: 1;"><text class="legendtext" text-anchor="start" x="40" y="5.46" style="font-family: 'CMU Serif', 'Times New Roman', serif; font-size: 14px; fill: rgb(34, 34, 34); fill-opacity: 1; white-space: pre;">Forecast</text><g class="layers" style="opacity: 1;"><g class="legendfill"/><g class="legendlines"><path class="js-line" d="M5,0h30" style="fill: none; stroke: rgb(239, 85, 59); stroke-opacity: 1; stroke-dasharray: 9px, 9px; stroke-width: 2px;"/></g><g class="legendsymbols"><g class="legendpoints"/></g></g><rect class="legendtoggle" x="0" y="-10.6" width="89.5380859375" height="21.2" style="fill: rgb(0, 0, 0); fill-opacity: 0;"/></g></g></g><rect class="scrollbar" rx="20" ry="3" width="0" height="0" style="fill: rgb(128, 139, 164); fill-opacity: 1;" x="0" y="0"/></g><g class="g-gtitle"><text class="gtitle" x="50" y="30" text-anchor="start" dy="0em" style="opacity: 1; font-family: 'CMU Serif', 'Times New Roman', serif; font-size: 20px; fill: rgb(34, 34, 34); fill-opacity: 1; white-space: pre;">Forecast – Seasonal naive (24h)</text></g><g class="g-xtitle"><text class="xtitle" x="472.5" y="487.6001953125" text-anchor="middle" style="opacity: 1; font-family: 'CMU Serif', 'Times New Roman', serif; font-size: 17px; fill: rgb(34, 34, 34); fill-opacity: 1; white-space: pre;">Hour</text></g><g class="g-ytitle"><text class="ytitle" transform="rotate(-90,31.049999999999997,242.5)" x="31.049999999999997" y="242.5" text-anchor="middle" style="opacity: 1; font-family: 'CMU Serif', 'Times New Roman', serif; font-size: 17px; fill: rgb(34, 34, 34); fill-opacity: 1; white-space: pre;">Demand</text></g></g></svg>